M48
; DRILL file KiCad 10.0.6 date 2026-09-04T21:46:29
; FORMAT={-:-/ absolute / metric / decimal}
; #@! TF.CreationDate,2026-09-04T21:46:29-07:00
; #@! TF.GenerationSoftware,Kicad,Pcbnew,10.0.6
; #@! TF.FileFunction,Plated,1,2,PTH
FMAT,2
METRIC
; #@! TA.AperFunction,Plated,PTH,ViaDrill
T1C0.300
; #@! TA.AperFunction,Plated,PTH,ViaDrill
T2C0.400
; #@! TA.AperFunction,Plated,PTH,ComponentDrill
T3C1.000
%
G90
G05
T1
X110.0Y-56.0
X110.5Y-62.0
X110.5Y-66.5
X110.5Y-71.0
X110.5Y-89.5
X110.5Y-94.5
X110.5Y-99.5
X111.0Y-117.0
X111.0Y-121.5
X111.0Y-126.0
X115.5Y-54.0
X118.5Y-70.5
X118.5Y-87.0
X118.5Y-89.0
X118.5Y-91.0
X118.5Y-93.0
X118.5Y-97.0
X118.5Y-113.5
X118.5Y-115.5
X118.5Y-117.5
X118.5Y-119.5
X118.5Y-123.5
X118.5Y-140.0
X118.5Y-142.0
X118.5Y-144.0
X118.5Y-146.0
X118.652Y-62.348
X120.175Y-93.0
X120.175Y-119.5
X120.175Y-146.0
X120.652Y-62.348
X121.0Y-91.0
X121.0Y-117.5
X121.0Y-144.0
X121.675Y-87.0
X121.675Y-113.5
X121.675Y-140.0
X122.5Y-115.5
X122.5Y-142.0
X123.0Y-72.5
X123.0Y-82.5
X124.0Y-77.0
X124.0Y-80.0
X124.0Y-89.0
X124.5Y-74.5
X124.5Y-95.0
X125.0Y-101.0
X125.0Y-123.5
X126.0Y-93.0
X126.5Y-77.5
X126.5Y-99.5
X127.0Y-84.0
X127.0Y-85.0
X127.0Y-88.5
X127.5Y-95.5
X128.455Y-70.5
X128.5Y-72.0
X130.0Y-87.5
X130.05Y-86.405
X131.5Y-92.0
X132.5Y-73.0
X133.5Y-95.0
X134.5Y-95.5
X135.5Y-82.5
X137.0Y-55.0
X140.5Y-55.0
X144.0Y-55.0
X144.0Y-85.5
X144.0Y-86.737
X144.145Y-87.81
X148.0Y-81.0
X148.0Y-82.5
X148.0Y-83.5
X149.0Y-92.0
X151.5Y-64.5
X151.5Y-70.0
X152.9Y-59.145
X153.0Y-81.0
X153.0Y-82.5
X153.031Y-87.369
X154.775Y-74.0
X155.0Y-57.0
X155.0Y-113.5
X155.0Y-127.0
X155.0Y-140.0
X155.5Y-54.0
X156.0Y-148.0
X156.825Y-115.5
X156.825Y-142.0
X157.5Y-89.0
X157.5Y-117.5
X157.5Y-144.0
X157.825Y-90.675
X158.325Y-93.0
X158.325Y-119.5
X158.325Y-146.0
X159.5Y-68.802
X159.675Y-121.5
X160.0Y-87.0
X160.0Y-89.0
X160.0Y-91.0
X160.0Y-93.0
X160.0Y-95.0
X160.0Y-113.5
X160.0Y-115.5
X160.0Y-117.5
X160.0Y-119.5
X160.0Y-140.0
X160.0Y-142.0
X160.0Y-144.0
X160.0Y-146.0
X160.0Y-148.0
X166.5Y-78.5
X166.5Y-105.0
X167.0Y-131.5
X167.5Y-85.0
X167.5Y-90.0
X167.5Y-96.0
X167.5Y-111.5
X167.5Y-118.0
X167.5Y-123.5
X168.0Y-58.5
X168.0Y-63.0
X168.0Y-67.5
T2
X109.0Y-58.5
X109.0Y-85.0
X109.0Y-111.5
X109.0Y-138.0
X114.5Y-58.5
X114.5Y-85.0
X114.5Y-136.0
X114.523Y-111.523
X149.5Y-150.5
X151.5Y-157.5
X163.85Y-132.0
X164.0Y-72.5
X164.0Y-99.0
X164.0Y-125.5
X168.0Y-152.0
X169.0Y-72.5
X169.0Y-99.0
X169.0Y-125.5
T3
X132.38Y-55.38
X132.38Y-57.92
X132.38Y-60.46
X132.38Y-63.0
X132.38Y-65.54
X132.38Y-68.08
X132.38Y-70.62
X135.819Y-116.229
X135.819Y-134.771
X143.946Y-116.229
X143.946Y-134.771
X147.62Y-55.38
X147.62Y-57.92
X147.62Y-60.46
X147.62Y-63.0
X147.62Y-65.54
X147.62Y-68.08
X147.62Y-70.62
M30
