%TF.GenerationSoftware,KiCad,Pcbnew,10.0.6*%
%TF.CreationDate,2026-09-04T21:46:34-07:00*%
%TF.ProjectId,pn5180_carrier,706e3531-3830-45f6-9361-72726965722e,rev?*%
%TF.SameCoordinates,Original*%
%TF.FileFunction,Copper,L2,Bot*%
%TF.FilePolarity,Positive*%
%FSLAX46Y46*%
G04 Gerber Fmt 4.6, Leading zero omitted, Abs format (unit mm)*
G04 Created by KiCad (PCBNEW 10.0.6) date 2026-09-04 21:46:34*
%MOMM*%
%LPD*%
G01*
G04 APERTURE LIST*
%TA.AperFunction,ComponentPad*%
%ADD10R,1.700000X1.700000*%
%TD*%
%TA.AperFunction,ComponentPad*%
%ADD11O,1.700000X1.700000*%
%TD*%
%TA.AperFunction,ComponentPad*%
%ADD12R,3.000000X3.000000*%
%TD*%
%TA.AperFunction,ComponentPad*%
%ADD13C,3.000000*%
%TD*%
%TA.AperFunction,ViaPad*%
%ADD14C,0.600000*%
%TD*%
%TA.AperFunction,ViaPad*%
%ADD15C,0.800000*%
%TD*%
%TA.AperFunction,Conductor*%
%ADD16C,0.250000*%
%TD*%
%TA.AperFunction,Conductor*%
%ADD17C,0.800000*%
%TD*%
G04 APERTURE END LIST*
D10*
%TO.P,U5,1,D0/A0_1*%
%TO.N,A0*%
X132380000Y-55380000D03*
D11*
%TO.P,U5,2,D1/A1_2*%
%TO.N,A1*%
X132380000Y-57920000D03*
%TO.P,U5,3,D2/A2_3*%
%TO.N,A2*%
X132380000Y-60460000D03*
%TO.P,U5,4,D3_4*%
%TO.N,~{EN}*%
X132380000Y-63000000D03*
%TO.P,U5,5,D4/SDA_5*%
%TO.N,BUSY*%
X132380000Y-65540000D03*
%TO.P,U5,6,D5/SCL_6*%
%TO.N,~{RST}*%
X132380000Y-68080000D03*
%TO.P,U5,7,D6/TX_7*%
%TO.N,unconnected-(U5-D6{slash}TX-Pad7)*%
X132380000Y-70620000D03*
%TO.P,U5,8,D7/RX_8*%
%TO.N,unconnected-(U5-D7{slash}RX-Pad8)*%
X147620000Y-70620000D03*
%TO.P,U5,9,D8/SCK_9*%
%TO.N,SCK_IN*%
X147620000Y-68080000D03*
%TO.P,U5,10,D9/MISO_10*%
%TO.N,MISO*%
X147620000Y-65540000D03*
%TO.P,U5,11,D10/MOSI_11*%
%TO.N,MOSI_IN*%
X147620000Y-63000000D03*
%TO.P,U5,12,3V3_OUT_12*%
%TO.N,unconnected-(U5-3V3_OUT-Pad12)*%
X147620000Y-60460000D03*
%TO.P,U5,13,GND_13*%
%TO.N,GND*%
X147620000Y-57920000D03*
%TO.P,U5,14,5V_14*%
%TO.N,5V_XIAO*%
X147620000Y-55380000D03*
%TD*%
D12*
%TO.P,U6,1,IN+_1*%
%TO.N,+24V*%
X135818500Y-134771000D03*
D13*
%TO.P,U6,2,IN-_2*%
%TO.N,GND*%
X143946500Y-134771000D03*
%TO.P,U6,3,OUT+_3*%
%TO.N,+5V*%
X135818500Y-116229000D03*
%TO.P,U6,4,OUT-_4*%
%TO.N,GND*%
X143946500Y-116229000D03*
%TD*%
D14*
%TO.N,GND*%
X155000000Y-127000000D03*
X167000000Y-131500000D03*
X166500000Y-105000000D03*
X166500000Y-78500000D03*
X132500000Y-73000000D03*
X167500000Y-123500000D03*
X167500000Y-118000000D03*
X167500000Y-111500000D03*
X167500000Y-96000000D03*
X167500000Y-90000000D03*
X167500000Y-85000000D03*
X168000000Y-67500000D03*
X168000000Y-63000000D03*
X168000000Y-58500000D03*
X144000000Y-55000000D03*
X137000000Y-55000000D03*
X140500000Y-55000000D03*
X115500000Y-54000000D03*
X110000000Y-56000000D03*
X110500000Y-62000000D03*
X110500000Y-66500000D03*
X110500000Y-71000000D03*
X110500000Y-89500000D03*
X110500000Y-94500000D03*
X110500000Y-99500000D03*
X111000000Y-117000000D03*
X111000000Y-121500000D03*
X111000000Y-126000000D03*
X125000000Y-101000000D03*
X126500000Y-99500000D03*
X127500000Y-95500000D03*
X124500000Y-95000000D03*
X126000000Y-93000000D03*
X123000000Y-82500000D03*
X123000000Y-72500000D03*
X124000000Y-77000000D03*
X124000000Y-80000000D03*
X126500000Y-77500000D03*
X124500000Y-74500000D03*
%TO.N,~{EN}*%
X128500000Y-72000000D03*
%TO.N,BUSY4*%
X128454595Y-70500000D03*
%TO.N,A2*%
X152900404Y-59145000D03*
X148000000Y-81000000D03*
%TO.N,A1*%
X155000000Y-57000000D03*
X148000000Y-82500000D03*
%TO.N,A0*%
X148000000Y-83500000D03*
X155500000Y-54000000D03*
%TO.N,BUSY3*%
X155000000Y-140000000D03*
X160000000Y-140000000D03*
%TO.N,BUSY2*%
X155000000Y-113500000D03*
X160000000Y-113500000D03*
%TO.N,NSS3*%
X127000000Y-85000000D03*
X154775000Y-74000000D03*
X156000000Y-148000000D03*
X160000000Y-148000000D03*
%TO.N,BUSY1*%
X160000000Y-87000000D03*
X153030851Y-87369149D03*
%TO.N,NSS2*%
X130050000Y-86404593D03*
X159675000Y-121500000D03*
%TO.N,NSS1*%
X130000000Y-87500000D03*
X160000000Y-95000000D03*
%TO.N,NSS0*%
X127000000Y-88500000D03*
%TO.N,NSS7*%
X127000000Y-84000000D03*
X135500000Y-82500000D03*
%TO.N,GND*%
X149000000Y-92000000D03*
X131500000Y-92000000D03*
X153000000Y-82500000D03*
X153000000Y-81000000D03*
%TO.N,BUSY5*%
X144144772Y-87809824D03*
%TO.N,BUSY6*%
X144000000Y-86736989D03*
%TO.N,BUSY7*%
X144000000Y-85500000D03*
%TO.N,NSS4*%
X120652298Y-62347702D03*
X118652298Y-62347702D03*
%TO.N,BUSY4*%
X118500000Y-70500000D03*
%TO.N,BUSY5*%
X118500000Y-97000000D03*
%TO.N,BUSY6*%
X134500000Y-95500000D03*
X118500000Y-123500000D03*
X125000000Y-123500000D03*
%TO.N,NSS0*%
X159500000Y-68802298D03*
%TO.N,BUSY0*%
X151500000Y-64500000D03*
X151500000Y-70000000D03*
%TO.N,BUSY7*%
X133500000Y-95000000D03*
%TO.N,NSS7*%
X118500000Y-142000000D03*
X122500000Y-142000000D03*
%TO.N,NSS6*%
X122500000Y-115500000D03*
X118500000Y-115500000D03*
%TO.N,NSS5*%
X124000000Y-89000000D03*
X118500000Y-89000000D03*
%TO.N,SCK*%
X160000000Y-115500000D03*
X156825000Y-115500000D03*
%TO.N,MISO*%
X160000000Y-117500000D03*
X157500000Y-117500000D03*
X160000000Y-91000000D03*
X157825000Y-90675000D03*
%TO.N,SCK*%
X160000000Y-89000000D03*
X157500000Y-89000000D03*
X156825000Y-142000000D03*
X160000000Y-142000000D03*
%TO.N,MISO*%
X157500000Y-144000000D03*
X160000000Y-144000000D03*
%TO.N,MOSI*%
X160000000Y-93000000D03*
X158325000Y-93000000D03*
X158325000Y-146000000D03*
X160000000Y-146000000D03*
X160000000Y-119500000D03*
X158325000Y-119500000D03*
%TO.N,~{RST}*%
X118500000Y-87000000D03*
X121675000Y-87000000D03*
X118500000Y-113500000D03*
X121675000Y-113500000D03*
X121675000Y-140000000D03*
X118500000Y-140000000D03*
%TO.N,MOSI*%
X118500000Y-117500000D03*
X121000000Y-117500000D03*
X118500000Y-91000000D03*
X121000000Y-91000000D03*
X121000000Y-144000000D03*
X118500000Y-144000000D03*
%TO.N,MISO*%
X118500000Y-93000000D03*
X120175000Y-93000000D03*
X118500000Y-119500000D03*
X120175000Y-119500000D03*
X118500000Y-146000000D03*
X120175000Y-146000000D03*
D15*
%TO.N,+3V3*%
X164000000Y-72500000D03*
X169000000Y-72500000D03*
X164000000Y-99000000D03*
X169000000Y-99000000D03*
X168000000Y-152000000D03*
X164000000Y-125500000D03*
X169000000Y-125500000D03*
X114500000Y-58500000D03*
X109000000Y-58500000D03*
X114500000Y-85000000D03*
X109000000Y-85000000D03*
X114522883Y-111522883D03*
X109000000Y-111500000D03*
X151500000Y-157500000D03*
X109000000Y-138000000D03*
%TO.N,+5V*%
X114500000Y-136000000D03*
X149500000Y-150500000D03*
X163850000Y-132000000D03*
%TD*%
%TO.N,NSS5*%
D16*
X118500000Y-89000000D02*
X124000000Y-89000000D01*
%TO.N,NSS2*%
X159675000Y-121500000D02*
X161500000Y-119675000D01*
X161500000Y-119675000D02*
X161500000Y-95325000D01*
X132454593Y-84000000D02*
X130050000Y-86404593D01*
X161500000Y-95325000D02*
X160500000Y-94325000D01*
X154825000Y-94325000D02*
X144500000Y-84000000D01*
X160500000Y-94325000D02*
X154825000Y-94325000D01*
X144500000Y-84000000D02*
X132454593Y-84000000D01*
%TO.N,NSS7*%
X135500000Y-82500000D02*
X132000000Y-82500000D01*
X132000000Y-82500000D02*
X130500000Y-84000000D01*
X130500000Y-84000000D02*
X127000000Y-84000000D01*
%TO.N,NSS0*%
X159500000Y-68802298D02*
X159500000Y-72500000D01*
X159500000Y-72500000D02*
X156500000Y-75500000D01*
X156500000Y-75500000D02*
X152000000Y-75500000D01*
X152000000Y-75500000D02*
X144325000Y-83175000D01*
X144325000Y-83175000D02*
X132325000Y-83175000D01*
X132325000Y-83175000D02*
X127000000Y-88500000D01*
%TO.N,BUSY7*%
X133500000Y-95000000D02*
X133500000Y-92000000D01*
X133500000Y-92000000D02*
X140000000Y-85500000D01*
X140000000Y-85500000D02*
X144000000Y-85500000D01*
%TO.N,MISO*%
X160000000Y-91000000D02*
X158150000Y-91000000D01*
X158150000Y-91000000D02*
X157825000Y-90675000D01*
%TO.N,BUSY1*%
X160000000Y-87000000D02*
X159630851Y-87369149D01*
X159630851Y-87369149D02*
X153030851Y-87369149D01*
%TO.N,A0*%
X155500000Y-54000000D02*
X155500000Y-56450000D01*
X155500000Y-56450000D02*
X162500000Y-63450000D01*
X162500000Y-63450000D02*
X162500000Y-73207107D01*
X162500000Y-73207107D02*
X157207107Y-78500000D01*
X157207107Y-78500000D02*
X153250000Y-78500000D01*
X153250000Y-78500000D02*
X148250000Y-83500000D01*
X148250000Y-83500000D02*
X148000000Y-83500000D01*
%TO.N,A2*%
X152900404Y-59145000D02*
X155645000Y-59145000D01*
X155645000Y-59145000D02*
X160500000Y-64000000D01*
X160500000Y-64000000D02*
X160500000Y-72707107D01*
X160500000Y-72707107D02*
X156707107Y-76500000D01*
X156707107Y-76500000D02*
X152500000Y-76500000D01*
X152500000Y-76500000D02*
X148000000Y-81000000D01*
%TO.N,NSS1*%
X160000000Y-95000000D02*
X154500000Y-95000000D01*
X154500000Y-95000000D02*
X144325000Y-84825000D01*
X144325000Y-84825000D02*
X132675000Y-84825000D01*
X132675000Y-84825000D02*
X130000000Y-87500000D01*
%TO.N,NSS7*%
X118500000Y-142000000D02*
X122500000Y-142000000D01*
%TO.N,~{EN}*%
X128500000Y-72000000D02*
X130000000Y-70500000D01*
X130000000Y-70500000D02*
X130000000Y-65380000D01*
X130000000Y-65380000D02*
X132380000Y-63000000D01*
%TO.N,BUSY6*%
X144000000Y-86736989D02*
X140013011Y-86736989D01*
X140013011Y-86736989D02*
X134500000Y-92250000D01*
X134500000Y-92250000D02*
X134500000Y-95500000D01*
%TO.N,+5V*%
D17*
X151500000Y-155000000D02*
X149500000Y-155000000D01*
X149500000Y-150500000D02*
X149500000Y-155000000D01*
X149500000Y-155000000D02*
X112000000Y-155000000D01*
X112000000Y-155000000D02*
X112000000Y-138500000D01*
X112000000Y-138500000D02*
X114500000Y-136000000D01*
X150500000Y-155000000D02*
X165500000Y-155000000D01*
X165500000Y-155000000D02*
X165500000Y-132000000D01*
X165500000Y-132000000D02*
X163850000Y-132000000D01*
%TO.N,NSS3*%
D16*
X154775000Y-74000000D02*
X152000000Y-74000000D01*
X152000000Y-74000000D02*
X144500000Y-81500000D01*
X144500000Y-81500000D02*
X127500000Y-81500000D01*
X127500000Y-81500000D02*
X126000000Y-83000000D01*
X126000000Y-83000000D02*
X126000000Y-85000000D01*
X126000000Y-85000000D02*
X127000000Y-85000000D01*
%TO.N,NSS4*%
X118652298Y-62347702D02*
X120652298Y-62347702D01*
%TO.N,BUSY5*%
X144144772Y-87809824D02*
X144034982Y-87700034D01*
X144034982Y-87700034D02*
X140299966Y-87700034D01*
X140299966Y-87700034D02*
X135500000Y-92500000D01*
X135500000Y-92500000D02*
X135500000Y-95500000D01*
X135500000Y-95500000D02*
X134000000Y-97000000D01*
X134000000Y-97000000D02*
X118500000Y-97000000D01*
%TO.N,A1*%
X148000000Y-82500000D02*
X153000000Y-77500000D01*
X153000000Y-77500000D02*
X157000000Y-77500000D01*
X157000000Y-77500000D02*
X161500000Y-73000000D01*
X161500000Y-73000000D02*
X161500000Y-63500000D01*
X161500000Y-63500000D02*
X155000000Y-57000000D01*
%TO.N,BUSY3*%
X160000000Y-140000000D02*
X155000000Y-140000000D01*
%TO.N,NSS3*%
X160000000Y-148000000D02*
X156000000Y-148000000D01*
%TO.N,BUSY2*%
X160000000Y-113500000D02*
X155000000Y-113500000D01*
%TO.N,SCK*%
X160000000Y-89000000D02*
X157500000Y-89000000D01*
%TO.N,BUSY4*%
X118500000Y-70500000D02*
X128454595Y-70500000D01*
%TO.N,BUSY6*%
X118500000Y-123500000D02*
X125000000Y-123500000D01*
%TO.N,BUSY0*%
X151500000Y-64500000D02*
X151500000Y-70000000D01*
%TO.N,NSS6*%
X118500000Y-115500000D02*
X122500000Y-115500000D01*
X122500000Y-115500000D02*
X122525003Y-115474997D01*
%TO.N,SCK*%
X160000000Y-115500000D02*
X156825000Y-115500000D01*
%TO.N,MISO*%
X160000000Y-117500000D02*
X157500000Y-117500000D01*
%TO.N,SCK*%
X160000000Y-142000000D02*
X156825000Y-142000000D01*
%TO.N,MISO*%
X160000000Y-144000000D02*
X157500000Y-144000000D01*
%TO.N,MOSI*%
X158325000Y-93000000D02*
X160000000Y-93000000D01*
X158325000Y-119500000D02*
X160000000Y-119500000D01*
X160000000Y-146000000D02*
X158325000Y-146000000D01*
%TO.N,~{RST}*%
X118500000Y-87000000D02*
X121675000Y-87000000D01*
X118500000Y-113500000D02*
X121675000Y-113500000D01*
X118500000Y-140000000D02*
X121675000Y-140000000D01*
%TO.N,MOSI*%
X118500000Y-117500000D02*
X121000000Y-117500000D01*
X118500000Y-91000000D02*
X121000000Y-91000000D01*
X118500000Y-144000000D02*
X121000000Y-144000000D01*
%TO.N,MISO*%
X118500000Y-93000000D02*
X120175000Y-93000000D01*
X118500000Y-119500000D02*
X120175000Y-119500000D01*
X118500000Y-146000000D02*
X120175000Y-146000000D01*
%TO.N,+3V3*%
D17*
X169000000Y-72500000D02*
X164000000Y-72500000D01*
X169000000Y-99000000D02*
X164000000Y-99000000D01*
X169000000Y-125500000D02*
X164000000Y-125500000D01*
X150500000Y-157500000D02*
X168000000Y-157500000D01*
X150500000Y-157500000D02*
X109500000Y-157500000D01*
X168000000Y-157500000D02*
X168000000Y-152000000D01*
X109000000Y-58500000D02*
X114500000Y-58500000D01*
X109000000Y-85000000D02*
X114500000Y-85000000D01*
X114500000Y-111500000D02*
X114522883Y-111522883D01*
X109000000Y-111500000D02*
X114500000Y-111500000D01*
X109000000Y-157000000D02*
X109000000Y-138000000D01*
X151500000Y-157500000D02*
X150500000Y-157500000D01*
X109500000Y-157500000D02*
X109000000Y-157000000D01*
%TD*%
%TA.AperFunction,Conductor*%
%TO.N,GND*%
G36*
X170140541Y-52320185D02*
G01*
X170186296Y-52372989D01*
X170197501Y-52425082D01*
X169855633Y-125243038D01*
X169835634Y-125309984D01*
X169782615Y-125355491D01*
X169713411Y-125365110D01*
X169649992Y-125335787D01*
X169617073Y-125289909D01*
X169576466Y-125191875D01*
X169576461Y-125191866D01*
X169505276Y-125085331D01*
X169505273Y-125085327D01*
X169414672Y-124994726D01*
X169414668Y-124994723D01*
X169308133Y-124923538D01*
X169308124Y-124923533D01*
X169189744Y-124874499D01*
X169189738Y-124874497D01*
X169064071Y-124849500D01*
X169064069Y-124849500D01*
X164064069Y-124849500D01*
X163935931Y-124849500D01*
X163935929Y-124849500D01*
X163810261Y-124874497D01*
X163810255Y-124874499D01*
X163691875Y-124923533D01*
X163691866Y-124923538D01*
X163585331Y-124994723D01*
X163585327Y-124994726D01*
X163494726Y-125085327D01*
X163494723Y-125085331D01*
X163423538Y-125191866D01*
X163423533Y-125191875D01*
X163374499Y-125310255D01*
X163374497Y-125310261D01*
X163349500Y-125435928D01*
X163349500Y-125435931D01*
X163349500Y-125564069D01*
X163349500Y-125564071D01*
X163349499Y-125564071D01*
X163374497Y-125689738D01*
X163374499Y-125689744D01*
X163423533Y-125808124D01*
X163423538Y-125808133D01*
X163494723Y-125914668D01*
X163494726Y-125914672D01*
X163585327Y-126005273D01*
X163585331Y-126005276D01*
X163691866Y-126076461D01*
X163691872Y-126076464D01*
X163691873Y-126076465D01*
X163810256Y-126125501D01*
X163810260Y-126125501D01*
X163810261Y-126125502D01*
X163935928Y-126150500D01*
X163935931Y-126150500D01*
X169064071Y-126150500D01*
X169148615Y-126133682D01*
X169189744Y-126125501D01*
X169308127Y-126076465D01*
X169414669Y-126005276D01*
X169505276Y-125914669D01*
X169576465Y-125808127D01*
X169614627Y-125715995D01*
X169658468Y-125661592D01*
X169724762Y-125639527D01*
X169792461Y-125656806D01*
X169840072Y-125707943D01*
X169853187Y-125764030D01*
X169701487Y-158076082D01*
X169681488Y-158143028D01*
X169628469Y-158188535D01*
X169577488Y-158199500D01*
X168519808Y-158199500D01*
X168452769Y-158179815D01*
X168407014Y-158127011D01*
X168397070Y-158057853D01*
X168426095Y-157994297D01*
X168432127Y-157987819D01*
X168505273Y-157914672D01*
X168505276Y-157914669D01*
X168576465Y-157808127D01*
X168625501Y-157689744D01*
X168650500Y-157564069D01*
X168650500Y-151935931D01*
X168650500Y-151935928D01*
X168625502Y-151810261D01*
X168625501Y-151810260D01*
X168625501Y-151810256D01*
X168576465Y-151691873D01*
X168576464Y-151691872D01*
X168576461Y-151691866D01*
X168505276Y-151585331D01*
X168505273Y-151585327D01*
X168414672Y-151494726D01*
X168414668Y-151494723D01*
X168308133Y-151423538D01*
X168308124Y-151423533D01*
X168189744Y-151374499D01*
X168189738Y-151374497D01*
X168064071Y-151349500D01*
X168064069Y-151349500D01*
X167935931Y-151349500D01*
X167935929Y-151349500D01*
X167810261Y-151374497D01*
X167810255Y-151374499D01*
X167691875Y-151423533D01*
X167691866Y-151423538D01*
X167585331Y-151494723D01*
X167585327Y-151494726D01*
X167494726Y-151585327D01*
X167494723Y-151585331D01*
X167423538Y-151691866D01*
X167423533Y-151691875D01*
X167374499Y-151810255D01*
X167374497Y-151810261D01*
X167349500Y-151935928D01*
X167349500Y-156725500D01*
X167329815Y-156792539D01*
X167277011Y-156838294D01*
X167225500Y-156849500D01*
X109820808Y-156849500D01*
X109753769Y-156829815D01*
X109733127Y-156813181D01*
X109686819Y-156766873D01*
X109653334Y-156705550D01*
X109650500Y-156679192D01*
X109650500Y-155064071D01*
X111349499Y-155064071D01*
X111374497Y-155189738D01*
X111374499Y-155189744D01*
X111423533Y-155308124D01*
X111423538Y-155308133D01*
X111494723Y-155414668D01*
X111494726Y-155414672D01*
X111585327Y-155505273D01*
X111585331Y-155505276D01*
X111691866Y-155576461D01*
X111691872Y-155576464D01*
X111691873Y-155576465D01*
X111810256Y-155625501D01*
X111810260Y-155625501D01*
X111810261Y-155625502D01*
X111935928Y-155650500D01*
X111935931Y-155650500D01*
X165564071Y-155650500D01*
X165648615Y-155633682D01*
X165689744Y-155625501D01*
X165808127Y-155576465D01*
X165914669Y-155505276D01*
X166005276Y-155414669D01*
X166076465Y-155308127D01*
X166125501Y-155189744D01*
X166150500Y-155064069D01*
X166150500Y-131935931D01*
X166150500Y-131935928D01*
X166125502Y-131810261D01*
X166125501Y-131810260D01*
X166125501Y-131810256D01*
X166076465Y-131691873D01*
X166076464Y-131691872D01*
X166076461Y-131691866D01*
X166005276Y-131585331D01*
X166005273Y-131585327D01*
X165914672Y-131494726D01*
X165914668Y-131494723D01*
X165808133Y-131423538D01*
X165808124Y-131423533D01*
X165689744Y-131374499D01*
X165689738Y-131374497D01*
X165564071Y-131349500D01*
X165564069Y-131349500D01*
X163914069Y-131349500D01*
X163785931Y-131349500D01*
X163785929Y-131349500D01*
X163660261Y-131374497D01*
X163660255Y-131374499D01*
X163541875Y-131423533D01*
X163541866Y-131423538D01*
X163435331Y-131494723D01*
X163435327Y-131494726D01*
X163344726Y-131585327D01*
X163344723Y-131585331D01*
X163273538Y-131691866D01*
X163273533Y-131691875D01*
X163224499Y-131810255D01*
X163224497Y-131810261D01*
X163199500Y-131935928D01*
X163199500Y-131935931D01*
X163199500Y-132064069D01*
X163199500Y-132064071D01*
X163199499Y-132064071D01*
X163224497Y-132189738D01*
X163224499Y-132189744D01*
X163273533Y-132308124D01*
X163273538Y-132308133D01*
X163344723Y-132414668D01*
X163344726Y-132414672D01*
X163435327Y-132505273D01*
X163435331Y-132505276D01*
X163541866Y-132576461D01*
X163541872Y-132576464D01*
X163541873Y-132576465D01*
X163660256Y-132625501D01*
X163660260Y-132625501D01*
X163660261Y-132625502D01*
X163785928Y-132650500D01*
X163785931Y-132650500D01*
X163914069Y-132650500D01*
X164725500Y-132650500D01*
X164792539Y-132670185D01*
X164838294Y-132722989D01*
X164849500Y-132774500D01*
X164849500Y-154225500D01*
X164829815Y-154292539D01*
X164777011Y-154338294D01*
X164725500Y-154349500D01*
X150274500Y-154349500D01*
X150207461Y-154329815D01*
X150161706Y-154277011D01*
X150150500Y-154225500D01*
X150150500Y-150435928D01*
X150125502Y-150310261D01*
X150125501Y-150310260D01*
X150125501Y-150310256D01*
X150076465Y-150191873D01*
X150076464Y-150191872D01*
X150076461Y-150191866D01*
X150005276Y-150085331D01*
X150005273Y-150085327D01*
X149914672Y-149994726D01*
X149914668Y-149994723D01*
X149808133Y-149923538D01*
X149808124Y-149923533D01*
X149689744Y-149874499D01*
X149689738Y-149874497D01*
X149564071Y-149849500D01*
X149564069Y-149849500D01*
X149435931Y-149849500D01*
X149435929Y-149849500D01*
X149310261Y-149874497D01*
X149310255Y-149874499D01*
X149191875Y-149923533D01*
X149191866Y-149923538D01*
X149085331Y-149994723D01*
X149085327Y-149994726D01*
X148994726Y-150085327D01*
X148994723Y-150085331D01*
X148923538Y-150191866D01*
X148923533Y-150191875D01*
X148874499Y-150310255D01*
X148874497Y-150310261D01*
X148849500Y-150435928D01*
X148849500Y-154225500D01*
X148829815Y-154292539D01*
X148777011Y-154338294D01*
X148725500Y-154349500D01*
X112774500Y-154349500D01*
X112707461Y-154329815D01*
X112661706Y-154277011D01*
X112650500Y-154225500D01*
X112650500Y-147927525D01*
X155449500Y-147927525D01*
X155449500Y-148072475D01*
X155487016Y-148212485D01*
X155487017Y-148212488D01*
X155559488Y-148338011D01*
X155559490Y-148338013D01*
X155559491Y-148338015D01*
X155661985Y-148440509D01*
X155661986Y-148440510D01*
X155661988Y-148440511D01*
X155787511Y-148512982D01*
X155787512Y-148512982D01*
X155787515Y-148512984D01*
X155927525Y-148550500D01*
X155927528Y-148550500D01*
X156072472Y-148550500D01*
X156072475Y-148550500D01*
X156212485Y-148512984D01*
X156338015Y-148440509D01*
X156366705Y-148411819D01*
X156428028Y-148378334D01*
X156454386Y-148375500D01*
X159545614Y-148375500D01*
X159612653Y-148395185D01*
X159633295Y-148411819D01*
X159661985Y-148440509D01*
X159661986Y-148440510D01*
X159661988Y-148440511D01*
X159787511Y-148512982D01*
X159787512Y-148512982D01*
X159787515Y-148512984D01*
X159927525Y-148550500D01*
X159927528Y-148550500D01*
X160072472Y-148550500D01*
X160072475Y-148550500D01*
X160212485Y-148512984D01*
X160338015Y-148440509D01*
X160440509Y-148338015D01*
X160512984Y-148212485D01*
X160550500Y-148072475D01*
X160550500Y-147927525D01*
X160512984Y-147787515D01*
X160440509Y-147661985D01*
X160338015Y-147559491D01*
X160338013Y-147559490D01*
X160338011Y-147559488D01*
X160212488Y-147487017D01*
X160212489Y-147487017D01*
X160201006Y-147483940D01*
X160072475Y-147449500D01*
X159927525Y-147449500D01*
X159798993Y-147483940D01*
X159787511Y-147487017D01*
X159661988Y-147559488D01*
X159661982Y-147559493D01*
X159633295Y-147588181D01*
X159571972Y-147621666D01*
X159545614Y-147624500D01*
X156454386Y-147624500D01*
X156387347Y-147604815D01*
X156366705Y-147588181D01*
X156338017Y-147559493D01*
X156338011Y-147559488D01*
X156212488Y-147487017D01*
X156212489Y-147487017D01*
X156201006Y-147483940D01*
X156072475Y-147449500D01*
X155927525Y-147449500D01*
X155798993Y-147483940D01*
X155787511Y-147487017D01*
X155661988Y-147559488D01*
X155661982Y-147559493D01*
X155559493Y-147661982D01*
X155559488Y-147661988D01*
X155487017Y-147787511D01*
X155487016Y-147787515D01*
X155449500Y-147927525D01*
X112650500Y-147927525D01*
X112650500Y-145927525D01*
X117949500Y-145927525D01*
X117949500Y-146072475D01*
X117987016Y-146212485D01*
X117987017Y-146212488D01*
X118059488Y-146338011D01*
X118059490Y-146338013D01*
X118059491Y-146338015D01*
X118161985Y-146440509D01*
X118161986Y-146440510D01*
X118161988Y-146440511D01*
X118287511Y-146512982D01*
X118287512Y-146512982D01*
X118287515Y-146512984D01*
X118427525Y-146550500D01*
X118427528Y-146550500D01*
X118572472Y-146550500D01*
X118572475Y-146550500D01*
X118712485Y-146512984D01*
X118838015Y-146440509D01*
X118866705Y-146411819D01*
X118928028Y-146378334D01*
X118954386Y-146375500D01*
X119720614Y-146375500D01*
X119787653Y-146395185D01*
X119808295Y-146411819D01*
X119836985Y-146440509D01*
X119836986Y-146440510D01*
X119836988Y-146440511D01*
X119962511Y-146512982D01*
X119962512Y-146512982D01*
X119962515Y-146512984D01*
X120102525Y-146550500D01*
X120102528Y-146550500D01*
X120247472Y-146550500D01*
X120247475Y-146550500D01*
X120387485Y-146512984D01*
X120513015Y-146440509D01*
X120615509Y-146338015D01*
X120687984Y-146212485D01*
X120725500Y-146072475D01*
X120725500Y-145927525D01*
X157774500Y-145927525D01*
X157774500Y-146072475D01*
X157812016Y-146212485D01*
X157812017Y-146212488D01*
X157884488Y-146338011D01*
X157884490Y-146338013D01*
X157884491Y-146338015D01*
X157986985Y-146440509D01*
X157986986Y-146440510D01*
X157986988Y-146440511D01*
X158112511Y-146512982D01*
X158112512Y-146512982D01*
X158112515Y-146512984D01*
X158252525Y-146550500D01*
X158252528Y-146550500D01*
X158397472Y-146550500D01*
X158397475Y-146550500D01*
X158537485Y-146512984D01*
X158663015Y-146440509D01*
X158691705Y-146411819D01*
X158753028Y-146378334D01*
X158779386Y-146375500D01*
X159545614Y-146375500D01*
X159612653Y-146395185D01*
X159633295Y-146411819D01*
X159661985Y-146440509D01*
X159661986Y-146440510D01*
X159661988Y-146440511D01*
X159787511Y-146512982D01*
X159787512Y-146512982D01*
X159787515Y-146512984D01*
X159927525Y-146550500D01*
X159927528Y-146550500D01*
X160072472Y-146550500D01*
X160072475Y-146550500D01*
X160212485Y-146512984D01*
X160338015Y-146440509D01*
X160440509Y-146338015D01*
X160512984Y-146212485D01*
X160550500Y-146072475D01*
X160550500Y-145927525D01*
X160512984Y-145787515D01*
X160440509Y-145661985D01*
X160338015Y-145559491D01*
X160338013Y-145559490D01*
X160338011Y-145559488D01*
X160212488Y-145487017D01*
X160212489Y-145487017D01*
X160201006Y-145483940D01*
X160072475Y-145449500D01*
X159927525Y-145449500D01*
X159798993Y-145483940D01*
X159787511Y-145487017D01*
X159661988Y-145559488D01*
X159661982Y-145559493D01*
X159633295Y-145588181D01*
X159571972Y-145621666D01*
X159545614Y-145624500D01*
X158779386Y-145624500D01*
X158712347Y-145604815D01*
X158691705Y-145588181D01*
X158663017Y-145559493D01*
X158663011Y-145559488D01*
X158537488Y-145487017D01*
X158537489Y-145487017D01*
X158526006Y-145483940D01*
X158397475Y-145449500D01*
X158252525Y-145449500D01*
X158123993Y-145483940D01*
X158112511Y-145487017D01*
X157986988Y-145559488D01*
X157986982Y-145559493D01*
X157884493Y-145661982D01*
X157884488Y-145661988D01*
X157812017Y-145787511D01*
X157812016Y-145787515D01*
X157774500Y-145927525D01*
X120725500Y-145927525D01*
X120687984Y-145787515D01*
X120615509Y-145661985D01*
X120513015Y-145559491D01*
X120513013Y-145559490D01*
X120513011Y-145559488D01*
X120387488Y-145487017D01*
X120387489Y-145487017D01*
X120376006Y-145483940D01*
X120247475Y-145449500D01*
X120102525Y-145449500D01*
X119973993Y-145483940D01*
X119962511Y-145487017D01*
X119836988Y-145559488D01*
X119836982Y-145559493D01*
X119808295Y-145588181D01*
X119746972Y-145621666D01*
X119720614Y-145624500D01*
X118954386Y-145624500D01*
X118887347Y-145604815D01*
X118866705Y-145588181D01*
X118838017Y-145559493D01*
X118838011Y-145559488D01*
X118712488Y-145487017D01*
X118712489Y-145487017D01*
X118701006Y-145483940D01*
X118572475Y-145449500D01*
X118427525Y-145449500D01*
X118298993Y-145483940D01*
X118287511Y-145487017D01*
X118161988Y-145559488D01*
X118161982Y-145559493D01*
X118059493Y-145661982D01*
X118059488Y-145661988D01*
X117987017Y-145787511D01*
X117987016Y-145787515D01*
X117949500Y-145927525D01*
X112650500Y-145927525D01*
X112650500Y-143927525D01*
X117949500Y-143927525D01*
X117949500Y-144072475D01*
X117987016Y-144212485D01*
X117987017Y-144212488D01*
X118059488Y-144338011D01*
X118059490Y-144338013D01*
X118059491Y-144338015D01*
X118161985Y-144440509D01*
X118161986Y-144440510D01*
X118161988Y-144440511D01*
X118287511Y-144512982D01*
X118287512Y-144512982D01*
X118287515Y-144512984D01*
X118427525Y-144550500D01*
X118427528Y-144550500D01*
X118572472Y-144550500D01*
X118572475Y-144550500D01*
X118712485Y-144512984D01*
X118838015Y-144440509D01*
X118866705Y-144411819D01*
X118928028Y-144378334D01*
X118954386Y-144375500D01*
X120545614Y-144375500D01*
X120612653Y-144395185D01*
X120633295Y-144411819D01*
X120661985Y-144440509D01*
X120661986Y-144440510D01*
X120661988Y-144440511D01*
X120787511Y-144512982D01*
X120787512Y-144512982D01*
X120787515Y-144512984D01*
X120927525Y-144550500D01*
X120927528Y-144550500D01*
X121072472Y-144550500D01*
X121072475Y-144550500D01*
X121212485Y-144512984D01*
X121338015Y-144440509D01*
X121440509Y-144338015D01*
X121512984Y-144212485D01*
X121550500Y-144072475D01*
X121550500Y-143927525D01*
X156949500Y-143927525D01*
X156949500Y-144072475D01*
X156987016Y-144212485D01*
X156987017Y-144212488D01*
X157059488Y-144338011D01*
X157059490Y-144338013D01*
X157059491Y-144338015D01*
X157161985Y-144440509D01*
X157161986Y-144440510D01*
X157161988Y-144440511D01*
X157287511Y-144512982D01*
X157287512Y-144512982D01*
X157287515Y-144512984D01*
X157427525Y-144550500D01*
X157427528Y-144550500D01*
X157572472Y-144550500D01*
X157572475Y-144550500D01*
X157712485Y-144512984D01*
X157838015Y-144440509D01*
X157866705Y-144411819D01*
X157928028Y-144378334D01*
X157954386Y-144375500D01*
X159545614Y-144375500D01*
X159612653Y-144395185D01*
X159633295Y-144411819D01*
X159661985Y-144440509D01*
X159661986Y-144440510D01*
X159661988Y-144440511D01*
X159787511Y-144512982D01*
X159787512Y-144512982D01*
X159787515Y-144512984D01*
X159927525Y-144550500D01*
X159927528Y-144550500D01*
X160072472Y-144550500D01*
X160072475Y-144550500D01*
X160212485Y-144512984D01*
X160338015Y-144440509D01*
X160440509Y-144338015D01*
X160512984Y-144212485D01*
X160550500Y-144072475D01*
X160550500Y-143927525D01*
X160512984Y-143787515D01*
X160440509Y-143661985D01*
X160338015Y-143559491D01*
X160338013Y-143559490D01*
X160338011Y-143559488D01*
X160212488Y-143487017D01*
X160212489Y-143487017D01*
X160201006Y-143483940D01*
X160072475Y-143449500D01*
X159927525Y-143449500D01*
X159798993Y-143483940D01*
X159787511Y-143487017D01*
X159661988Y-143559488D01*
X159661982Y-143559493D01*
X159633295Y-143588181D01*
X159571972Y-143621666D01*
X159545614Y-143624500D01*
X157954386Y-143624500D01*
X157887347Y-143604815D01*
X157866705Y-143588181D01*
X157838017Y-143559493D01*
X157838011Y-143559488D01*
X157712488Y-143487017D01*
X157712489Y-143487017D01*
X157701006Y-143483940D01*
X157572475Y-143449500D01*
X157427525Y-143449500D01*
X157298993Y-143483940D01*
X157287511Y-143487017D01*
X157161988Y-143559488D01*
X157161982Y-143559493D01*
X157059493Y-143661982D01*
X157059488Y-143661988D01*
X156987017Y-143787511D01*
X156987016Y-143787515D01*
X156949500Y-143927525D01*
X121550500Y-143927525D01*
X121512984Y-143787515D01*
X121440509Y-143661985D01*
X121338015Y-143559491D01*
X121338013Y-143559490D01*
X121338011Y-143559488D01*
X121212488Y-143487017D01*
X121212489Y-143487017D01*
X121201006Y-143483940D01*
X121072475Y-143449500D01*
X120927525Y-143449500D01*
X120798993Y-143483940D01*
X120787511Y-143487017D01*
X120661988Y-143559488D01*
X120661982Y-143559493D01*
X120633295Y-143588181D01*
X120571972Y-143621666D01*
X120545614Y-143624500D01*
X118954386Y-143624500D01*
X118887347Y-143604815D01*
X118866705Y-143588181D01*
X118838017Y-143559493D01*
X118838011Y-143559488D01*
X118712488Y-143487017D01*
X118712489Y-143487017D01*
X118701006Y-143483940D01*
X118572475Y-143449500D01*
X118427525Y-143449500D01*
X118298993Y-143483940D01*
X118287511Y-143487017D01*
X118161988Y-143559488D01*
X118161982Y-143559493D01*
X118059493Y-143661982D01*
X118059488Y-143661988D01*
X117987017Y-143787511D01*
X117987016Y-143787515D01*
X117949500Y-143927525D01*
X112650500Y-143927525D01*
X112650500Y-141927525D01*
X117949500Y-141927525D01*
X117949500Y-142072475D01*
X117987016Y-142212485D01*
X117987017Y-142212488D01*
X118059488Y-142338011D01*
X118059490Y-142338013D01*
X118059491Y-142338015D01*
X118161985Y-142440509D01*
X118161986Y-142440510D01*
X118161988Y-142440511D01*
X118287511Y-142512982D01*
X118287512Y-142512982D01*
X118287515Y-142512984D01*
X118427525Y-142550500D01*
X118427528Y-142550500D01*
X118572472Y-142550500D01*
X118572475Y-142550500D01*
X118712485Y-142512984D01*
X118838015Y-142440509D01*
X118866705Y-142411819D01*
X118928028Y-142378334D01*
X118954386Y-142375500D01*
X122045614Y-142375500D01*
X122112653Y-142395185D01*
X122133295Y-142411819D01*
X122161985Y-142440509D01*
X122161986Y-142440510D01*
X122161988Y-142440511D01*
X122287511Y-142512982D01*
X122287512Y-142512982D01*
X122287515Y-142512984D01*
X122427525Y-142550500D01*
X122427528Y-142550500D01*
X122572472Y-142550500D01*
X122572475Y-142550500D01*
X122712485Y-142512984D01*
X122838015Y-142440509D01*
X122940509Y-142338015D01*
X123012984Y-142212485D01*
X123050500Y-142072475D01*
X123050500Y-141927525D01*
X156274500Y-141927525D01*
X156274500Y-142072475D01*
X156312016Y-142212485D01*
X156312017Y-142212488D01*
X156384488Y-142338011D01*
X156384490Y-142338013D01*
X156384491Y-142338015D01*
X156486985Y-142440509D01*
X156486986Y-142440510D01*
X156486988Y-142440511D01*
X156612511Y-142512982D01*
X156612512Y-142512982D01*
X156612515Y-142512984D01*
X156752525Y-142550500D01*
X156752528Y-142550500D01*
X156897472Y-142550500D01*
X156897475Y-142550500D01*
X157037485Y-142512984D01*
X157163015Y-142440509D01*
X157191705Y-142411819D01*
X157253028Y-142378334D01*
X157279386Y-142375500D01*
X159545614Y-142375500D01*
X159612653Y-142395185D01*
X159633295Y-142411819D01*
X159661985Y-142440509D01*
X159661986Y-142440510D01*
X159661988Y-142440511D01*
X159787511Y-142512982D01*
X159787512Y-142512982D01*
X159787515Y-142512984D01*
X159927525Y-142550500D01*
X159927528Y-142550500D01*
X160072472Y-142550500D01*
X160072475Y-142550500D01*
X160212485Y-142512984D01*
X160338015Y-142440509D01*
X160440509Y-142338015D01*
X160512984Y-142212485D01*
X160550500Y-142072475D01*
X160550500Y-141927525D01*
X160512984Y-141787515D01*
X160440509Y-141661985D01*
X160338015Y-141559491D01*
X160338013Y-141559490D01*
X160338011Y-141559488D01*
X160212488Y-141487017D01*
X160212489Y-141487017D01*
X160201006Y-141483940D01*
X160072475Y-141449500D01*
X159927525Y-141449500D01*
X159798993Y-141483940D01*
X159787511Y-141487017D01*
X159661988Y-141559488D01*
X159661982Y-141559493D01*
X159633295Y-141588181D01*
X159571972Y-141621666D01*
X159545614Y-141624500D01*
X157279386Y-141624500D01*
X157212347Y-141604815D01*
X157191705Y-141588181D01*
X157163017Y-141559493D01*
X157163011Y-141559488D01*
X157037488Y-141487017D01*
X157037489Y-141487017D01*
X157026006Y-141483940D01*
X156897475Y-141449500D01*
X156752525Y-141449500D01*
X156623993Y-141483940D01*
X156612511Y-141487017D01*
X156486988Y-141559488D01*
X156486982Y-141559493D01*
X156384493Y-141661982D01*
X156384488Y-141661988D01*
X156312017Y-141787511D01*
X156312016Y-141787515D01*
X156274500Y-141927525D01*
X123050500Y-141927525D01*
X123012984Y-141787515D01*
X122940509Y-141661985D01*
X122838015Y-141559491D01*
X122838013Y-141559490D01*
X122838011Y-141559488D01*
X122712488Y-141487017D01*
X122712489Y-141487017D01*
X122701006Y-141483940D01*
X122572475Y-141449500D01*
X122427525Y-141449500D01*
X122298993Y-141483940D01*
X122287511Y-141487017D01*
X122161988Y-141559488D01*
X122161982Y-141559493D01*
X122133295Y-141588181D01*
X122071972Y-141621666D01*
X122045614Y-141624500D01*
X118954386Y-141624500D01*
X118887347Y-141604815D01*
X118866705Y-141588181D01*
X118838017Y-141559493D01*
X118838011Y-141559488D01*
X118712488Y-141487017D01*
X118712489Y-141487017D01*
X118701006Y-141483940D01*
X118572475Y-141449500D01*
X118427525Y-141449500D01*
X118298993Y-141483940D01*
X118287511Y-141487017D01*
X118161988Y-141559488D01*
X118161982Y-141559493D01*
X118059493Y-141661982D01*
X118059488Y-141661988D01*
X117987017Y-141787511D01*
X117987016Y-141787515D01*
X117949500Y-141927525D01*
X112650500Y-141927525D01*
X112650500Y-139927525D01*
X117949500Y-139927525D01*
X117949500Y-140072475D01*
X117987016Y-140212485D01*
X117987017Y-140212488D01*
X118059488Y-140338011D01*
X118059490Y-140338013D01*
X118059491Y-140338015D01*
X118161985Y-140440509D01*
X118161986Y-140440510D01*
X118161988Y-140440511D01*
X118287511Y-140512982D01*
X118287512Y-140512982D01*
X118287515Y-140512984D01*
X118427525Y-140550500D01*
X118427528Y-140550500D01*
X118572472Y-140550500D01*
X118572475Y-140550500D01*
X118712485Y-140512984D01*
X118838015Y-140440509D01*
X118866705Y-140411819D01*
X118928028Y-140378334D01*
X118954386Y-140375500D01*
X121220614Y-140375500D01*
X121287653Y-140395185D01*
X121308295Y-140411819D01*
X121336985Y-140440509D01*
X121336986Y-140440510D01*
X121336988Y-140440511D01*
X121462511Y-140512982D01*
X121462512Y-140512982D01*
X121462515Y-140512984D01*
X121602525Y-140550500D01*
X121602528Y-140550500D01*
X121747472Y-140550500D01*
X121747475Y-140550500D01*
X121887485Y-140512984D01*
X122013015Y-140440509D01*
X122115509Y-140338015D01*
X122187984Y-140212485D01*
X122225500Y-140072475D01*
X122225500Y-139927525D01*
X154449500Y-139927525D01*
X154449500Y-140072475D01*
X154487016Y-140212485D01*
X154487017Y-140212488D01*
X154559488Y-140338011D01*
X154559490Y-140338013D01*
X154559491Y-140338015D01*
X154661985Y-140440509D01*
X154661986Y-140440510D01*
X154661988Y-140440511D01*
X154787511Y-140512982D01*
X154787512Y-140512982D01*
X154787515Y-140512984D01*
X154927525Y-140550500D01*
X154927528Y-140550500D01*
X155072472Y-140550500D01*
X155072475Y-140550500D01*
X155212485Y-140512984D01*
X155338015Y-140440509D01*
X155366705Y-140411819D01*
X155428028Y-140378334D01*
X155454386Y-140375500D01*
X159545614Y-140375500D01*
X159612653Y-140395185D01*
X159633295Y-140411819D01*
X159661985Y-140440509D01*
X159661986Y-140440510D01*
X159661988Y-140440511D01*
X159787511Y-140512982D01*
X159787512Y-140512982D01*
X159787515Y-140512984D01*
X159927525Y-140550500D01*
X159927528Y-140550500D01*
X160072472Y-140550500D01*
X160072475Y-140550500D01*
X160212485Y-140512984D01*
X160338015Y-140440509D01*
X160440509Y-140338015D01*
X160512984Y-140212485D01*
X160550500Y-140072475D01*
X160550500Y-139927525D01*
X160512984Y-139787515D01*
X160440509Y-139661985D01*
X160338015Y-139559491D01*
X160338013Y-139559490D01*
X160338011Y-139559488D01*
X160212488Y-139487017D01*
X160212489Y-139487017D01*
X160201006Y-139483940D01*
X160072475Y-139449500D01*
X159927525Y-139449500D01*
X159798993Y-139483940D01*
X159787511Y-139487017D01*
X159661988Y-139559488D01*
X159661982Y-139559493D01*
X159633295Y-139588181D01*
X159571972Y-139621666D01*
X159545614Y-139624500D01*
X155454386Y-139624500D01*
X155387347Y-139604815D01*
X155366705Y-139588181D01*
X155338017Y-139559493D01*
X155338011Y-139559488D01*
X155212488Y-139487017D01*
X155212489Y-139487017D01*
X155201006Y-139483940D01*
X155072475Y-139449500D01*
X154927525Y-139449500D01*
X154798993Y-139483940D01*
X154787511Y-139487017D01*
X154661988Y-139559488D01*
X154661982Y-139559493D01*
X154559493Y-139661982D01*
X154559488Y-139661988D01*
X154487017Y-139787511D01*
X154487016Y-139787515D01*
X154449500Y-139927525D01*
X122225500Y-139927525D01*
X122187984Y-139787515D01*
X122115509Y-139661985D01*
X122013015Y-139559491D01*
X122013013Y-139559490D01*
X122013011Y-139559488D01*
X121887488Y-139487017D01*
X121887489Y-139487017D01*
X121876006Y-139483940D01*
X121747475Y-139449500D01*
X121602525Y-139449500D01*
X121473993Y-139483940D01*
X121462511Y-139487017D01*
X121336988Y-139559488D01*
X121336982Y-139559493D01*
X121308295Y-139588181D01*
X121246972Y-139621666D01*
X121220614Y-139624500D01*
X118954386Y-139624500D01*
X118887347Y-139604815D01*
X118866705Y-139588181D01*
X118838017Y-139559493D01*
X118838011Y-139559488D01*
X118712488Y-139487017D01*
X118712489Y-139487017D01*
X118701006Y-139483940D01*
X118572475Y-139449500D01*
X118427525Y-139449500D01*
X118298993Y-139483940D01*
X118287511Y-139487017D01*
X118161988Y-139559488D01*
X118161982Y-139559493D01*
X118059493Y-139661982D01*
X118059488Y-139661988D01*
X117987017Y-139787511D01*
X117987016Y-139787515D01*
X117949500Y-139927525D01*
X112650500Y-139927525D01*
X112650500Y-138820808D01*
X112670185Y-138753769D01*
X112686819Y-138733127D01*
X115005273Y-136414673D01*
X115005277Y-136414669D01*
X115076465Y-136308127D01*
X115125501Y-136189744D01*
X115128655Y-136173886D01*
X115150500Y-136064069D01*
X115150500Y-135935931D01*
X115150500Y-135935928D01*
X115125502Y-135810261D01*
X115125501Y-135810260D01*
X115125501Y-135810256D01*
X115076465Y-135691873D01*
X115041478Y-135639511D01*
X115041476Y-135639508D01*
X115005281Y-135585336D01*
X115005279Y-135585334D01*
X115005277Y-135585331D01*
X114914669Y-135494723D01*
X114808127Y-135423535D01*
X114788137Y-135415255D01*
X114689744Y-135374499D01*
X114689738Y-135374497D01*
X114564071Y-135349500D01*
X114564069Y-135349500D01*
X114435931Y-135349500D01*
X114435929Y-135349500D01*
X114310261Y-135374497D01*
X114310255Y-135374499D01*
X114191874Y-135423534D01*
X114085326Y-135494726D01*
X111494726Y-138085326D01*
X111424969Y-138189728D01*
X111424959Y-138189743D01*
X111423534Y-138191873D01*
X111374499Y-138310255D01*
X111374497Y-138310261D01*
X111349500Y-138435928D01*
X111349500Y-138435931D01*
X111349500Y-155064069D01*
X111349500Y-155064071D01*
X111349499Y-155064071D01*
X109650500Y-155064071D01*
X109650500Y-137935928D01*
X109625502Y-137810261D01*
X109625501Y-137810260D01*
X109625501Y-137810256D01*
X109576465Y-137691873D01*
X109576464Y-137691872D01*
X109576461Y-137691866D01*
X109505276Y-137585331D01*
X109505273Y-137585327D01*
X109414672Y-137494726D01*
X109414668Y-137494723D01*
X109308133Y-137423538D01*
X109308124Y-137423533D01*
X109189744Y-137374499D01*
X109189738Y-137374497D01*
X109064071Y-137349500D01*
X109064069Y-137349500D01*
X108935931Y-137349500D01*
X108935929Y-137349500D01*
X108810261Y-137374497D01*
X108810255Y-137374499D01*
X108691875Y-137423533D01*
X108691866Y-137423538D01*
X108585331Y-137494723D01*
X108585327Y-137494726D01*
X108512181Y-137567873D01*
X108450858Y-137601358D01*
X108381166Y-137596374D01*
X108325233Y-137554502D01*
X108300816Y-137489038D01*
X108300500Y-137480192D01*
X108300500Y-133246321D01*
X134068000Y-133246321D01*
X134068000Y-136295678D01*
X134082532Y-136368735D01*
X134082533Y-136368739D01*
X134082534Y-136368740D01*
X134137899Y-136451601D01*
X134220760Y-136506966D01*
X134220764Y-136506967D01*
X134293821Y-136521499D01*
X134293824Y-136521500D01*
X134293826Y-136521500D01*
X137343176Y-136521500D01*
X137343177Y-136521499D01*
X137416240Y-136506966D01*
X137499101Y-136451601D01*
X137554466Y-136368740D01*
X137569000Y-136295674D01*
X137569000Y-134639905D01*
X141946500Y-134639905D01*
X141946500Y-134902094D01*
X141980720Y-135162009D01*
X141980722Y-135162020D01*
X142048575Y-135415255D01*
X142148904Y-135657471D01*
X142148909Y-135657482D01*
X142279988Y-135884516D01*
X142279994Y-135884524D01*
X142366580Y-135997365D01*
X143463537Y-134900408D01*
X143480575Y-134963993D01*
X143546401Y-135078007D01*
X143639493Y-135171099D01*
X143753507Y-135236925D01*
X143817090Y-135253962D01*
X142720133Y-136350917D01*
X142720133Y-136350918D01*
X142832975Y-136437505D01*
X142832983Y-136437511D01*
X143060017Y-136568590D01*
X143060028Y-136568595D01*
X143302244Y-136668924D01*
X143555479Y-136736777D01*
X143555490Y-136736779D01*
X143815405Y-136770999D01*
X143815420Y-136771000D01*
X144077580Y-136771000D01*
X144077594Y-136770999D01*
X144337509Y-136736779D01*
X144337520Y-136736777D01*
X144590755Y-136668924D01*
X144832971Y-136568595D01*
X144832982Y-136568590D01*
X145060016Y-136437511D01*
X145060034Y-136437499D01*
X145172865Y-136350919D01*
X145172865Y-136350917D01*
X144075909Y-135253962D01*
X144139493Y-135236925D01*
X144253507Y-135171099D01*
X144346599Y-135078007D01*
X144412425Y-134963993D01*
X144429462Y-134900410D01*
X145526417Y-135997365D01*
X145526419Y-135997365D01*
X145612999Y-135884534D01*
X145613011Y-135884516D01*
X145744090Y-135657482D01*
X145744095Y-135657471D01*
X145844424Y-135415255D01*
X145912277Y-135162020D01*
X145912279Y-135162009D01*
X145946499Y-134902094D01*
X145946500Y-134902080D01*
X145946500Y-134639919D01*
X145946499Y-134639905D01*
X145912279Y-134379990D01*
X145912277Y-134379979D01*
X145844424Y-134126744D01*
X145744095Y-133884528D01*
X145744090Y-133884517D01*
X145613011Y-133657483D01*
X145613005Y-133657475D01*
X145526418Y-133544633D01*
X145526417Y-133544633D01*
X144429462Y-134641588D01*
X144412425Y-134578007D01*
X144346599Y-134463993D01*
X144253507Y-134370901D01*
X144139493Y-134305075D01*
X144075907Y-134288037D01*
X145172865Y-133191080D01*
X145060024Y-133104494D01*
X145060016Y-133104488D01*
X144832982Y-132973409D01*
X144832971Y-132973404D01*
X144590755Y-132873075D01*
X144337520Y-132805222D01*
X144337509Y-132805220D01*
X144077594Y-132771000D01*
X143815405Y-132771000D01*
X143555490Y-132805220D01*
X143555479Y-132805222D01*
X143302244Y-132873075D01*
X143060028Y-132973404D01*
X143060017Y-132973409D01*
X142832971Y-133104496D01*
X142720133Y-133191079D01*
X142720133Y-133191080D01*
X143817090Y-134288037D01*
X143753507Y-134305075D01*
X143639493Y-134370901D01*
X143546401Y-134463993D01*
X143480575Y-134578007D01*
X143463537Y-134641590D01*
X142366580Y-133544633D01*
X142366579Y-133544633D01*
X142279996Y-133657471D01*
X142148909Y-133884517D01*
X142148904Y-133884528D01*
X142048575Y-134126744D01*
X141980722Y-134379979D01*
X141980720Y-134379990D01*
X141946500Y-134639905D01*
X137569000Y-134639905D01*
X137569000Y-133246326D01*
X137558011Y-133191080D01*
X137554467Y-133173264D01*
X137554466Y-133173260D01*
X137499101Y-133090399D01*
X137416240Y-133035034D01*
X137416239Y-133035033D01*
X137416235Y-133035032D01*
X137343177Y-133020500D01*
X137343174Y-133020500D01*
X134293826Y-133020500D01*
X134293823Y-133020500D01*
X134220764Y-133035032D01*
X134220760Y-133035033D01*
X134137899Y-133090399D01*
X134082533Y-133173260D01*
X134082532Y-133173264D01*
X134068000Y-133246321D01*
X108300500Y-133246321D01*
X108300500Y-123427525D01*
X117949500Y-123427525D01*
X117949500Y-123572475D01*
X117987016Y-123712485D01*
X117987017Y-123712488D01*
X118059488Y-123838011D01*
X118059490Y-123838013D01*
X118059491Y-123838015D01*
X118161985Y-123940509D01*
X118161986Y-123940510D01*
X118161988Y-123940511D01*
X118287511Y-124012982D01*
X118287512Y-124012982D01*
X118287515Y-124012984D01*
X118427525Y-124050500D01*
X118427528Y-124050500D01*
X118572472Y-124050500D01*
X118572475Y-124050500D01*
X118712485Y-124012984D01*
X118838015Y-123940509D01*
X118866705Y-123911819D01*
X118928028Y-123878334D01*
X118954386Y-123875500D01*
X124545614Y-123875500D01*
X124612653Y-123895185D01*
X124633295Y-123911819D01*
X124661985Y-123940509D01*
X124661986Y-123940510D01*
X124661988Y-123940511D01*
X124787511Y-124012982D01*
X124787512Y-124012982D01*
X124787515Y-124012984D01*
X124927525Y-124050500D01*
X124927528Y-124050500D01*
X125072472Y-124050500D01*
X125072475Y-124050500D01*
X125212485Y-124012984D01*
X125338015Y-123940509D01*
X125440509Y-123838015D01*
X125512984Y-123712485D01*
X125550500Y-123572475D01*
X125550500Y-123427525D01*
X125512984Y-123287515D01*
X125440509Y-123161985D01*
X125338015Y-123059491D01*
X125338013Y-123059490D01*
X125338011Y-123059488D01*
X125212488Y-122987017D01*
X125212489Y-122987017D01*
X125201006Y-122983940D01*
X125072475Y-122949500D01*
X124927525Y-122949500D01*
X124798993Y-122983940D01*
X124787511Y-122987017D01*
X124661988Y-123059488D01*
X124661982Y-123059493D01*
X124633295Y-123088181D01*
X124571972Y-123121666D01*
X124545614Y-123124500D01*
X118954386Y-123124500D01*
X118887347Y-123104815D01*
X118866705Y-123088181D01*
X118838017Y-123059493D01*
X118838011Y-123059488D01*
X118712488Y-122987017D01*
X118712489Y-122987017D01*
X118701006Y-122983940D01*
X118572475Y-122949500D01*
X118427525Y-122949500D01*
X118298993Y-122983940D01*
X118287511Y-122987017D01*
X118161988Y-123059488D01*
X118161982Y-123059493D01*
X118059493Y-123161982D01*
X118059488Y-123161988D01*
X117987017Y-123287511D01*
X117987016Y-123287515D01*
X117949500Y-123427525D01*
X108300500Y-123427525D01*
X108300500Y-119427525D01*
X117949500Y-119427525D01*
X117949500Y-119572475D01*
X117987016Y-119712485D01*
X117987017Y-119712488D01*
X118059488Y-119838011D01*
X118059490Y-119838013D01*
X118059491Y-119838015D01*
X118161985Y-119940509D01*
X118161986Y-119940510D01*
X118161988Y-119940511D01*
X118287511Y-120012982D01*
X118287512Y-120012982D01*
X118287515Y-120012984D01*
X118427525Y-120050500D01*
X118427528Y-120050500D01*
X118572472Y-120050500D01*
X118572475Y-120050500D01*
X118712485Y-120012984D01*
X118838015Y-119940509D01*
X118866705Y-119911819D01*
X118928028Y-119878334D01*
X118954386Y-119875500D01*
X119720614Y-119875500D01*
X119787653Y-119895185D01*
X119808295Y-119911819D01*
X119836985Y-119940509D01*
X119836986Y-119940510D01*
X119836988Y-119940511D01*
X119962511Y-120012982D01*
X119962512Y-120012982D01*
X119962515Y-120012984D01*
X120102525Y-120050500D01*
X120102528Y-120050500D01*
X120247472Y-120050500D01*
X120247475Y-120050500D01*
X120387485Y-120012984D01*
X120513015Y-119940509D01*
X120615509Y-119838015D01*
X120687984Y-119712485D01*
X120725500Y-119572475D01*
X120725500Y-119427525D01*
X157774500Y-119427525D01*
X157774500Y-119572475D01*
X157812016Y-119712485D01*
X157812017Y-119712488D01*
X157884488Y-119838011D01*
X157884490Y-119838013D01*
X157884491Y-119838015D01*
X157986985Y-119940509D01*
X157986986Y-119940510D01*
X157986988Y-119940511D01*
X158112511Y-120012982D01*
X158112512Y-120012982D01*
X158112515Y-120012984D01*
X158252525Y-120050500D01*
X158252528Y-120050500D01*
X158397472Y-120050500D01*
X158397475Y-120050500D01*
X158537485Y-120012984D01*
X158663015Y-119940509D01*
X158691705Y-119911819D01*
X158753028Y-119878334D01*
X158779386Y-119875500D01*
X159545614Y-119875500D01*
X159612653Y-119895185D01*
X159633295Y-119911819D01*
X159661985Y-119940509D01*
X159661986Y-119940510D01*
X159661988Y-119940511D01*
X159787511Y-120012982D01*
X159787512Y-120012982D01*
X159787515Y-120012984D01*
X159927525Y-120050500D01*
X159927528Y-120050500D01*
X160072472Y-120050500D01*
X160072475Y-120050500D01*
X160212485Y-120012984D01*
X160338015Y-119940509D01*
X160440509Y-119838015D01*
X160512984Y-119712485D01*
X160550500Y-119572475D01*
X160550500Y-119427525D01*
X160512984Y-119287515D01*
X160440509Y-119161985D01*
X160338015Y-119059491D01*
X160338013Y-119059490D01*
X160338011Y-119059488D01*
X160212488Y-118987017D01*
X160212489Y-118987017D01*
X160201006Y-118983940D01*
X160072475Y-118949500D01*
X159927525Y-118949500D01*
X159798993Y-118983940D01*
X159787511Y-118987017D01*
X159661988Y-119059488D01*
X159661982Y-119059493D01*
X159633295Y-119088181D01*
X159571972Y-119121666D01*
X159545614Y-119124500D01*
X158779386Y-119124500D01*
X158712347Y-119104815D01*
X158691705Y-119088181D01*
X158663017Y-119059493D01*
X158663011Y-119059488D01*
X158537488Y-118987017D01*
X158537489Y-118987017D01*
X158526006Y-118983940D01*
X158397475Y-118949500D01*
X158252525Y-118949500D01*
X158123993Y-118983940D01*
X158112511Y-118987017D01*
X157986988Y-119059488D01*
X157986982Y-119059493D01*
X157884493Y-119161982D01*
X157884488Y-119161988D01*
X157812017Y-119287511D01*
X157812016Y-119287515D01*
X157774500Y-119427525D01*
X120725500Y-119427525D01*
X120687984Y-119287515D01*
X120615509Y-119161985D01*
X120513015Y-119059491D01*
X120513013Y-119059490D01*
X120513011Y-119059488D01*
X120387488Y-118987017D01*
X120387489Y-118987017D01*
X120376006Y-118983940D01*
X120247475Y-118949500D01*
X120102525Y-118949500D01*
X119973993Y-118983940D01*
X119962511Y-118987017D01*
X119836988Y-119059488D01*
X119836982Y-119059493D01*
X119808295Y-119088181D01*
X119746972Y-119121666D01*
X119720614Y-119124500D01*
X118954386Y-119124500D01*
X118887347Y-119104815D01*
X118866705Y-119088181D01*
X118838017Y-119059493D01*
X118838011Y-119059488D01*
X118712488Y-118987017D01*
X118712489Y-118987017D01*
X118701006Y-118983940D01*
X118572475Y-118949500D01*
X118427525Y-118949500D01*
X118298993Y-118983940D01*
X118287511Y-118987017D01*
X118161988Y-119059488D01*
X118161982Y-119059493D01*
X118059493Y-119161982D01*
X118059488Y-119161988D01*
X117987017Y-119287511D01*
X117987016Y-119287515D01*
X117949500Y-119427525D01*
X108300500Y-119427525D01*
X108300500Y-117427525D01*
X117949500Y-117427525D01*
X117949500Y-117572475D01*
X117973647Y-117662590D01*
X117987017Y-117712488D01*
X118059488Y-117838011D01*
X118059490Y-117838013D01*
X118059491Y-117838015D01*
X118161985Y-117940509D01*
X118161986Y-117940510D01*
X118161988Y-117940511D01*
X118287511Y-118012982D01*
X118287512Y-118012982D01*
X118287515Y-118012984D01*
X118427525Y-118050500D01*
X118427528Y-118050500D01*
X118572472Y-118050500D01*
X118572475Y-118050500D01*
X118712485Y-118012984D01*
X118838015Y-117940509D01*
X118866705Y-117911819D01*
X118928028Y-117878334D01*
X118954386Y-117875500D01*
X120545614Y-117875500D01*
X120612653Y-117895185D01*
X120633295Y-117911819D01*
X120661985Y-117940509D01*
X120661986Y-117940510D01*
X120661988Y-117940511D01*
X120787511Y-118012982D01*
X120787512Y-118012982D01*
X120787515Y-118012984D01*
X120927525Y-118050500D01*
X120927528Y-118050500D01*
X121072472Y-118050500D01*
X121072475Y-118050500D01*
X121212485Y-118012984D01*
X121338015Y-117940509D01*
X121440509Y-117838015D01*
X121512984Y-117712485D01*
X121550500Y-117572475D01*
X121550500Y-117427525D01*
X121512984Y-117287515D01*
X121464545Y-117203617D01*
X121440511Y-117161988D01*
X121440506Y-117161982D01*
X121338017Y-117059493D01*
X121338011Y-117059488D01*
X121212488Y-116987017D01*
X121212489Y-116987017D01*
X121201006Y-116983940D01*
X121072475Y-116949500D01*
X120927525Y-116949500D01*
X120798993Y-116983940D01*
X120787511Y-116987017D01*
X120661988Y-117059488D01*
X120661982Y-117059493D01*
X120633295Y-117088181D01*
X120571972Y-117121666D01*
X120545614Y-117124500D01*
X118954386Y-117124500D01*
X118887347Y-117104815D01*
X118866705Y-117088181D01*
X118838017Y-117059493D01*
X118838011Y-117059488D01*
X118712488Y-116987017D01*
X118712489Y-116987017D01*
X118701006Y-116983940D01*
X118572475Y-116949500D01*
X118427525Y-116949500D01*
X118298993Y-116983940D01*
X118287511Y-116987017D01*
X118161988Y-117059488D01*
X118161982Y-117059493D01*
X118059493Y-117161982D01*
X118059488Y-117161988D01*
X117987017Y-117287511D01*
X117987016Y-117287515D01*
X117949500Y-117427525D01*
X108300500Y-117427525D01*
X108300500Y-116114258D01*
X134068000Y-116114258D01*
X134068000Y-116343741D01*
X134078303Y-116421993D01*
X134097952Y-116571238D01*
X134140224Y-116729000D01*
X134157342Y-116792887D01*
X134245150Y-117004876D01*
X134245156Y-117004888D01*
X134335857Y-117161988D01*
X134359892Y-117203617D01*
X134499581Y-117385661D01*
X134499589Y-117385670D01*
X134661830Y-117547911D01*
X134661838Y-117547918D01*
X134843882Y-117687607D01*
X134843885Y-117687608D01*
X134843888Y-117687611D01*
X135042612Y-117802344D01*
X135042617Y-117802346D01*
X135042623Y-117802349D01*
X135058485Y-117808919D01*
X135254613Y-117890158D01*
X135476262Y-117949548D01*
X135703766Y-117979500D01*
X135703773Y-117979500D01*
X135933227Y-117979500D01*
X135933234Y-117979500D01*
X136160738Y-117949548D01*
X136382387Y-117890158D01*
X136594388Y-117802344D01*
X136793112Y-117687611D01*
X136975161Y-117547919D01*
X136975165Y-117547914D01*
X136975170Y-117547911D01*
X137137411Y-117385670D01*
X137137414Y-117385665D01*
X137137419Y-117385661D01*
X137277111Y-117203612D01*
X137391844Y-117004888D01*
X137479658Y-116792887D01*
X137539048Y-116571238D01*
X137569000Y-116343734D01*
X137569000Y-116114266D01*
X137566846Y-116097905D01*
X141946500Y-116097905D01*
X141946500Y-116360094D01*
X141980720Y-116620009D01*
X141980722Y-116620020D01*
X142048575Y-116873255D01*
X142148904Y-117115471D01*
X142148909Y-117115482D01*
X142279988Y-117342516D01*
X142279994Y-117342524D01*
X142366580Y-117455365D01*
X143463537Y-116358408D01*
X143480575Y-116421993D01*
X143546401Y-116536007D01*
X143639493Y-116629099D01*
X143753507Y-116694925D01*
X143817090Y-116711962D01*
X142720133Y-117808917D01*
X142720133Y-117808918D01*
X142832975Y-117895505D01*
X142832983Y-117895511D01*
X143060017Y-118026590D01*
X143060028Y-118026595D01*
X143302244Y-118126924D01*
X143555479Y-118194777D01*
X143555490Y-118194779D01*
X143815405Y-118228999D01*
X143815420Y-118229000D01*
X144077580Y-118229000D01*
X144077594Y-118228999D01*
X144337509Y-118194779D01*
X144337520Y-118194777D01*
X144590755Y-118126924D01*
X144832971Y-118026595D01*
X144832982Y-118026590D01*
X145060016Y-117895511D01*
X145060034Y-117895499D01*
X145172865Y-117808919D01*
X145172865Y-117808917D01*
X144075909Y-116711962D01*
X144139493Y-116694925D01*
X144253507Y-116629099D01*
X144346599Y-116536007D01*
X144412425Y-116421993D01*
X144429462Y-116358410D01*
X145526417Y-117455365D01*
X145526419Y-117455365D01*
X145547782Y-117427525D01*
X156949500Y-117427525D01*
X156949500Y-117572475D01*
X156973647Y-117662590D01*
X156987017Y-117712488D01*
X157059488Y-117838011D01*
X157059490Y-117838013D01*
X157059491Y-117838015D01*
X157161985Y-117940509D01*
X157161986Y-117940510D01*
X157161988Y-117940511D01*
X157287511Y-118012982D01*
X157287512Y-118012982D01*
X157287515Y-118012984D01*
X157427525Y-118050500D01*
X157427528Y-118050500D01*
X157572472Y-118050500D01*
X157572475Y-118050500D01*
X157712485Y-118012984D01*
X157838015Y-117940509D01*
X157866705Y-117911819D01*
X157928028Y-117878334D01*
X157954386Y-117875500D01*
X159545614Y-117875500D01*
X159612653Y-117895185D01*
X159633295Y-117911819D01*
X159661985Y-117940509D01*
X159661986Y-117940510D01*
X159661988Y-117940511D01*
X159787511Y-118012982D01*
X159787512Y-118012982D01*
X159787515Y-118012984D01*
X159927525Y-118050500D01*
X159927528Y-118050500D01*
X160072472Y-118050500D01*
X160072475Y-118050500D01*
X160212485Y-118012984D01*
X160338015Y-117940509D01*
X160440509Y-117838015D01*
X160512984Y-117712485D01*
X160550500Y-117572475D01*
X160550500Y-117427525D01*
X160512984Y-117287515D01*
X160464545Y-117203617D01*
X160440511Y-117161988D01*
X160440506Y-117161982D01*
X160338017Y-117059493D01*
X160338011Y-117059488D01*
X160212488Y-116987017D01*
X160212489Y-116987017D01*
X160201006Y-116983940D01*
X160072475Y-116949500D01*
X159927525Y-116949500D01*
X159798993Y-116983940D01*
X159787511Y-116987017D01*
X159661988Y-117059488D01*
X159661982Y-117059493D01*
X159633295Y-117088181D01*
X159571972Y-117121666D01*
X159545614Y-117124500D01*
X157954386Y-117124500D01*
X157887347Y-117104815D01*
X157866705Y-117088181D01*
X157838017Y-117059493D01*
X157838011Y-117059488D01*
X157712488Y-116987017D01*
X157712489Y-116987017D01*
X157701006Y-116983940D01*
X157572475Y-116949500D01*
X157427525Y-116949500D01*
X157298993Y-116983940D01*
X157287511Y-116987017D01*
X157161988Y-117059488D01*
X157161982Y-117059493D01*
X157059493Y-117161982D01*
X157059488Y-117161988D01*
X156987017Y-117287511D01*
X156987016Y-117287515D01*
X156949500Y-117427525D01*
X145547782Y-117427525D01*
X145611943Y-117343911D01*
X145611943Y-117343910D01*
X145611944Y-117343909D01*
X145613003Y-117342528D01*
X145613011Y-117342516D01*
X145744090Y-117115482D01*
X145744095Y-117115471D01*
X145844424Y-116873255D01*
X145912277Y-116620020D01*
X145912279Y-116620009D01*
X145946499Y-116360094D01*
X145946500Y-116360080D01*
X145946500Y-116097919D01*
X145946499Y-116097905D01*
X145912279Y-115837990D01*
X145912277Y-115837979D01*
X145844423Y-115584741D01*
X145844423Y-115584740D01*
X145795592Y-115466850D01*
X145779303Y-115427525D01*
X156274500Y-115427525D01*
X156274500Y-115572475D01*
X156299323Y-115665113D01*
X156312017Y-115712488D01*
X156384488Y-115838011D01*
X156384490Y-115838013D01*
X156384491Y-115838015D01*
X156486985Y-115940509D01*
X156486986Y-115940510D01*
X156486988Y-115940511D01*
X156612511Y-116012982D01*
X156612512Y-116012982D01*
X156612515Y-116012984D01*
X156752525Y-116050500D01*
X156752528Y-116050500D01*
X156897472Y-116050500D01*
X156897475Y-116050500D01*
X157037485Y-116012984D01*
X157163015Y-115940509D01*
X157191705Y-115911819D01*
X157253028Y-115878334D01*
X157279386Y-115875500D01*
X159545614Y-115875500D01*
X159612653Y-115895185D01*
X159633295Y-115911819D01*
X159661985Y-115940509D01*
X159661986Y-115940510D01*
X159661988Y-115940511D01*
X159787511Y-116012982D01*
X159787512Y-116012982D01*
X159787515Y-116012984D01*
X159927525Y-116050500D01*
X159927528Y-116050500D01*
X160072472Y-116050500D01*
X160072475Y-116050500D01*
X160212485Y-116012984D01*
X160338015Y-115940509D01*
X160440509Y-115838015D01*
X160512984Y-115712485D01*
X160550500Y-115572475D01*
X160550500Y-115427525D01*
X160512984Y-115287515D01*
X160440509Y-115161985D01*
X160338015Y-115059491D01*
X160338013Y-115059490D01*
X160338011Y-115059488D01*
X160212488Y-114987017D01*
X160212489Y-114987017D01*
X160201006Y-114983940D01*
X160072475Y-114949500D01*
X159927525Y-114949500D01*
X159798993Y-114983940D01*
X159787511Y-114987017D01*
X159661988Y-115059488D01*
X159661982Y-115059493D01*
X159633295Y-115088181D01*
X159571972Y-115121666D01*
X159545614Y-115124500D01*
X157279386Y-115124500D01*
X157212347Y-115104815D01*
X157191705Y-115088181D01*
X157163017Y-115059493D01*
X157163011Y-115059488D01*
X157037488Y-114987017D01*
X157037489Y-114987017D01*
X157026006Y-114983940D01*
X156897475Y-114949500D01*
X156752525Y-114949500D01*
X156623993Y-114983940D01*
X156612511Y-114987017D01*
X156486988Y-115059488D01*
X156486982Y-115059493D01*
X156384493Y-115161982D01*
X156384488Y-115161988D01*
X156312017Y-115287511D01*
X156312016Y-115287515D01*
X156274500Y-115427525D01*
X145779303Y-115427525D01*
X145744095Y-115342528D01*
X145744090Y-115342517D01*
X145613011Y-115115483D01*
X145613005Y-115115475D01*
X145526418Y-115002633D01*
X145526417Y-115002633D01*
X144429462Y-116099588D01*
X144412425Y-116036007D01*
X144346599Y-115921993D01*
X144253507Y-115828901D01*
X144139493Y-115763075D01*
X144075907Y-115746037D01*
X145172865Y-114649080D01*
X145060024Y-114562494D01*
X145060016Y-114562488D01*
X144832982Y-114431409D01*
X144832971Y-114431404D01*
X144590755Y-114331075D01*
X144337520Y-114263222D01*
X144337509Y-114263220D01*
X144077594Y-114229000D01*
X143815405Y-114229000D01*
X143555490Y-114263220D01*
X143555479Y-114263222D01*
X143302244Y-114331075D01*
X143060028Y-114431404D01*
X143060017Y-114431409D01*
X142832971Y-114562496D01*
X142720133Y-114649079D01*
X142720133Y-114649080D01*
X143817090Y-115746037D01*
X143753507Y-115763075D01*
X143639493Y-115828901D01*
X143546401Y-115921993D01*
X143480575Y-116036007D01*
X143463537Y-116099590D01*
X142366580Y-115002633D01*
X142366579Y-115002633D01*
X142279996Y-115115471D01*
X142148909Y-115342517D01*
X142148904Y-115342528D01*
X142048575Y-115584744D01*
X141980722Y-115837979D01*
X141980720Y-115837990D01*
X141946500Y-116097905D01*
X137566846Y-116097905D01*
X137539048Y-115886762D01*
X137479658Y-115665113D01*
X137429690Y-115544480D01*
X137391849Y-115453123D01*
X137391846Y-115453117D01*
X137391844Y-115453112D01*
X137277111Y-115254388D01*
X137277108Y-115254385D01*
X137277107Y-115254382D01*
X137137418Y-115072338D01*
X137137411Y-115072330D01*
X136975170Y-114910089D01*
X136975161Y-114910081D01*
X136825718Y-114795408D01*
X136793116Y-114770392D01*
X136793115Y-114770391D01*
X136793112Y-114770389D01*
X136594388Y-114655656D01*
X136594376Y-114655650D01*
X136382387Y-114567842D01*
X136362405Y-114562488D01*
X136160738Y-114508452D01*
X136122715Y-114503446D01*
X135933241Y-114478500D01*
X135933234Y-114478500D01*
X135703766Y-114478500D01*
X135703758Y-114478500D01*
X135487215Y-114507009D01*
X135476262Y-114508452D01*
X135382576Y-114533554D01*
X135254612Y-114567842D01*
X135042623Y-114655650D01*
X135042609Y-114655657D01*
X134843882Y-114770392D01*
X134661838Y-114910081D01*
X134499581Y-115072338D01*
X134359892Y-115254382D01*
X134245157Y-115453109D01*
X134245150Y-115453123D01*
X134157342Y-115665112D01*
X134097953Y-115886759D01*
X134097951Y-115886770D01*
X134068000Y-116114258D01*
X108300500Y-116114258D01*
X108300500Y-115427525D01*
X117949500Y-115427525D01*
X117949500Y-115572475D01*
X117974323Y-115665113D01*
X117987017Y-115712488D01*
X118059488Y-115838011D01*
X118059490Y-115838013D01*
X118059491Y-115838015D01*
X118161985Y-115940509D01*
X118161986Y-115940510D01*
X118161988Y-115940511D01*
X118287511Y-116012982D01*
X118287512Y-116012982D01*
X118287515Y-116012984D01*
X118427525Y-116050500D01*
X118427528Y-116050500D01*
X118572472Y-116050500D01*
X118572475Y-116050500D01*
X118712485Y-116012984D01*
X118838015Y-115940509D01*
X118866705Y-115911819D01*
X118928028Y-115878334D01*
X118954386Y-115875500D01*
X122045614Y-115875500D01*
X122112653Y-115895185D01*
X122133295Y-115911819D01*
X122161985Y-115940509D01*
X122161986Y-115940510D01*
X122161988Y-115940511D01*
X122287511Y-116012982D01*
X122287512Y-116012982D01*
X122287515Y-116012984D01*
X122427525Y-116050500D01*
X122427528Y-116050500D01*
X122572472Y-116050500D01*
X122572475Y-116050500D01*
X122712485Y-116012984D01*
X122712487Y-116012982D01*
X122712489Y-116012982D01*
X122712490Y-116012981D01*
X122730089Y-116002821D01*
X122730090Y-116002820D01*
X122749238Y-115991764D01*
X122838015Y-115940509D01*
X122940509Y-115838015D01*
X123012984Y-115712485D01*
X123050500Y-115572475D01*
X123050500Y-115427525D01*
X123012984Y-115287515D01*
X122940509Y-115161985D01*
X122838015Y-115059491D01*
X122838013Y-115059490D01*
X122838011Y-115059488D01*
X122712488Y-114987017D01*
X122712489Y-114987017D01*
X122701006Y-114983940D01*
X122572475Y-114949500D01*
X122427525Y-114949500D01*
X122298993Y-114983940D01*
X122287511Y-114987017D01*
X122161988Y-115059488D01*
X122161982Y-115059493D01*
X122133295Y-115088181D01*
X122071972Y-115121666D01*
X122045614Y-115124500D01*
X118954386Y-115124500D01*
X118887347Y-115104815D01*
X118866705Y-115088181D01*
X118838017Y-115059493D01*
X118838011Y-115059488D01*
X118712488Y-114987017D01*
X118712489Y-114987017D01*
X118701006Y-114983940D01*
X118572475Y-114949500D01*
X118427525Y-114949500D01*
X118298993Y-114983940D01*
X118287511Y-114987017D01*
X118161988Y-115059488D01*
X118161982Y-115059493D01*
X118059493Y-115161982D01*
X118059488Y-115161988D01*
X117987017Y-115287511D01*
X117987016Y-115287515D01*
X117949500Y-115427525D01*
X108300500Y-115427525D01*
X108300500Y-113427525D01*
X117949500Y-113427525D01*
X117949500Y-113572475D01*
X117987016Y-113712485D01*
X117987017Y-113712488D01*
X118059488Y-113838011D01*
X118059490Y-113838013D01*
X118059491Y-113838015D01*
X118161985Y-113940509D01*
X118161986Y-113940510D01*
X118161988Y-113940511D01*
X118287511Y-114012982D01*
X118287512Y-114012982D01*
X118287515Y-114012984D01*
X118427525Y-114050500D01*
X118427528Y-114050500D01*
X118572472Y-114050500D01*
X118572475Y-114050500D01*
X118712485Y-114012984D01*
X118838015Y-113940509D01*
X118866705Y-113911819D01*
X118928028Y-113878334D01*
X118954386Y-113875500D01*
X121220614Y-113875500D01*
X121287653Y-113895185D01*
X121308295Y-113911819D01*
X121336985Y-113940509D01*
X121336986Y-113940510D01*
X121336988Y-113940511D01*
X121462511Y-114012982D01*
X121462512Y-114012982D01*
X121462515Y-114012984D01*
X121602525Y-114050500D01*
X121602528Y-114050500D01*
X121747472Y-114050500D01*
X121747475Y-114050500D01*
X121887485Y-114012984D01*
X122013015Y-113940509D01*
X122115509Y-113838015D01*
X122187984Y-113712485D01*
X122225500Y-113572475D01*
X122225500Y-113427525D01*
X154449500Y-113427525D01*
X154449500Y-113572475D01*
X154487016Y-113712485D01*
X154487017Y-113712488D01*
X154559488Y-113838011D01*
X154559490Y-113838013D01*
X154559491Y-113838015D01*
X154661985Y-113940509D01*
X154661986Y-113940510D01*
X154661988Y-113940511D01*
X154787511Y-114012982D01*
X154787512Y-114012982D01*
X154787515Y-114012984D01*
X154927525Y-114050500D01*
X154927528Y-114050500D01*
X155072472Y-114050500D01*
X155072475Y-114050500D01*
X155212485Y-114012984D01*
X155338015Y-113940509D01*
X155366705Y-113911819D01*
X155428028Y-113878334D01*
X155454386Y-113875500D01*
X159545614Y-113875500D01*
X159612653Y-113895185D01*
X159633295Y-113911819D01*
X159661985Y-113940509D01*
X159661986Y-113940510D01*
X159661988Y-113940511D01*
X159787511Y-114012982D01*
X159787512Y-114012982D01*
X159787515Y-114012984D01*
X159927525Y-114050500D01*
X159927528Y-114050500D01*
X160072472Y-114050500D01*
X160072475Y-114050500D01*
X160212485Y-114012984D01*
X160338015Y-113940509D01*
X160440509Y-113838015D01*
X160512984Y-113712485D01*
X160550500Y-113572475D01*
X160550500Y-113427525D01*
X160512984Y-113287515D01*
X160440509Y-113161985D01*
X160338015Y-113059491D01*
X160338013Y-113059490D01*
X160338011Y-113059488D01*
X160212488Y-112987017D01*
X160212489Y-112987017D01*
X160201006Y-112983940D01*
X160072475Y-112949500D01*
X159927525Y-112949500D01*
X159798993Y-112983940D01*
X159787511Y-112987017D01*
X159661988Y-113059488D01*
X159661982Y-113059493D01*
X159633295Y-113088181D01*
X159571972Y-113121666D01*
X159545614Y-113124500D01*
X155454386Y-113124500D01*
X155387347Y-113104815D01*
X155366705Y-113088181D01*
X155338017Y-113059493D01*
X155338011Y-113059488D01*
X155212488Y-112987017D01*
X155212489Y-112987017D01*
X155201006Y-112983940D01*
X155072475Y-112949500D01*
X154927525Y-112949500D01*
X154798993Y-112983940D01*
X154787511Y-112987017D01*
X154661988Y-113059488D01*
X154661982Y-113059493D01*
X154559493Y-113161982D01*
X154559488Y-113161988D01*
X154487017Y-113287511D01*
X154487016Y-113287515D01*
X154449500Y-113427525D01*
X122225500Y-113427525D01*
X122187984Y-113287515D01*
X122115509Y-113161985D01*
X122013015Y-113059491D01*
X122013013Y-113059490D01*
X122013011Y-113059488D01*
X121887488Y-112987017D01*
X121887489Y-112987017D01*
X121876006Y-112983940D01*
X121747475Y-112949500D01*
X121602525Y-112949500D01*
X121473993Y-112983940D01*
X121462511Y-112987017D01*
X121336988Y-113059488D01*
X121336982Y-113059493D01*
X121308295Y-113088181D01*
X121246972Y-113121666D01*
X121220614Y-113124500D01*
X118954386Y-113124500D01*
X118887347Y-113104815D01*
X118866705Y-113088181D01*
X118838017Y-113059493D01*
X118838011Y-113059488D01*
X118712488Y-112987017D01*
X118712489Y-112987017D01*
X118701006Y-112983940D01*
X118572475Y-112949500D01*
X118427525Y-112949500D01*
X118298993Y-112983940D01*
X118287511Y-112987017D01*
X118161988Y-113059488D01*
X118161982Y-113059493D01*
X118059493Y-113161982D01*
X118059488Y-113161988D01*
X117987017Y-113287511D01*
X117987016Y-113287515D01*
X117949500Y-113427525D01*
X108300500Y-113427525D01*
X108300500Y-112019808D01*
X108320185Y-111952769D01*
X108372989Y-111907014D01*
X108442147Y-111897070D01*
X108505703Y-111926095D01*
X108512181Y-111932127D01*
X108585327Y-112005273D01*
X108585331Y-112005276D01*
X108691866Y-112076461D01*
X108691872Y-112076464D01*
X108691873Y-112076465D01*
X108810256Y-112125501D01*
X108810260Y-112125501D01*
X108810261Y-112125502D01*
X108935928Y-112150500D01*
X108935931Y-112150500D01*
X109064069Y-112150500D01*
X114331565Y-112150500D01*
X114355757Y-112152883D01*
X114458812Y-112173383D01*
X114458814Y-112173383D01*
X114586954Y-112173383D01*
X114671498Y-112156565D01*
X114712627Y-112148384D01*
X114831010Y-112099348D01*
X114937552Y-112028159D01*
X115028159Y-111937552D01*
X115099348Y-111831010D01*
X115148384Y-111712627D01*
X115173383Y-111586952D01*
X115173383Y-111458814D01*
X115173383Y-111458811D01*
X115148385Y-111333144D01*
X115148384Y-111333143D01*
X115148384Y-111333139D01*
X115099348Y-111214756D01*
X115099347Y-111214755D01*
X115099344Y-111214749D01*
X115049071Y-111139511D01*
X115049069Y-111139508D01*
X115028162Y-111108217D01*
X115028161Y-111108216D01*
X115028159Y-111108213D01*
X114914669Y-110994723D01*
X114808127Y-110923535D01*
X114808122Y-110923533D01*
X114689744Y-110874499D01*
X114689740Y-110874498D01*
X114684425Y-110873441D01*
X114679109Y-110872383D01*
X114679106Y-110872382D01*
X114679106Y-110872383D01*
X114564071Y-110849500D01*
X114564069Y-110849500D01*
X109064069Y-110849500D01*
X108935931Y-110849500D01*
X108935929Y-110849500D01*
X108810261Y-110874497D01*
X108810255Y-110874499D01*
X108691875Y-110923533D01*
X108691866Y-110923538D01*
X108585331Y-110994723D01*
X108585327Y-110994726D01*
X108512181Y-111067873D01*
X108450858Y-111101358D01*
X108381166Y-111096374D01*
X108325233Y-111054502D01*
X108300816Y-110989038D01*
X108300500Y-110980192D01*
X108300500Y-96927525D01*
X117949500Y-96927525D01*
X117949500Y-97072475D01*
X117987016Y-97212485D01*
X117987017Y-97212488D01*
X118059488Y-97338011D01*
X118059490Y-97338013D01*
X118059491Y-97338015D01*
X118161985Y-97440509D01*
X118161986Y-97440510D01*
X118161988Y-97440511D01*
X118287511Y-97512982D01*
X118287512Y-97512982D01*
X118287515Y-97512984D01*
X118427525Y-97550500D01*
X118427528Y-97550500D01*
X118572472Y-97550500D01*
X118572475Y-97550500D01*
X118712485Y-97512984D01*
X118838015Y-97440509D01*
X118866705Y-97411819D01*
X118928028Y-97378334D01*
X118954386Y-97375500D01*
X134049435Y-97375500D01*
X134049436Y-97375500D01*
X134097186Y-97362705D01*
X134144938Y-97349910D01*
X134230562Y-97300475D01*
X134300475Y-97230562D01*
X135800474Y-95730563D01*
X135800475Y-95730562D01*
X135849910Y-95644938D01*
X135862705Y-95597186D01*
X135875500Y-95549436D01*
X135875500Y-95450564D01*
X135875500Y-92706899D01*
X135895185Y-92639860D01*
X135911819Y-92619218D01*
X140419184Y-88111853D01*
X140480507Y-88078368D01*
X140506865Y-88075534D01*
X143590926Y-88075534D01*
X143657965Y-88095219D01*
X143698313Y-88137534D01*
X143704260Y-88147835D01*
X143704262Y-88147838D01*
X143704263Y-88147839D01*
X143806757Y-88250333D01*
X143806758Y-88250334D01*
X143806760Y-88250335D01*
X143932283Y-88322806D01*
X143932284Y-88322806D01*
X143932287Y-88322808D01*
X144072297Y-88360324D01*
X144072300Y-88360324D01*
X144217244Y-88360324D01*
X144217247Y-88360324D01*
X144357257Y-88322808D01*
X144482787Y-88250333D01*
X144585281Y-88147839D01*
X144657756Y-88022309D01*
X144695272Y-87882299D01*
X144695272Y-87737349D01*
X144657756Y-87597339D01*
X144651682Y-87586819D01*
X144585283Y-87471812D01*
X144585278Y-87471806D01*
X144482789Y-87369317D01*
X144482783Y-87369312D01*
X144409347Y-87326914D01*
X144361131Y-87276347D01*
X144347909Y-87207740D01*
X144373877Y-87142875D01*
X144383650Y-87131862D01*
X144440509Y-87075004D01*
X144512984Y-86949474D01*
X144550500Y-86809464D01*
X144550500Y-86664514D01*
X144512984Y-86524504D01*
X144491340Y-86487016D01*
X144440511Y-86398977D01*
X144440506Y-86398971D01*
X144338017Y-86296482D01*
X144338015Y-86296480D01*
X144265340Y-86254521D01*
X144215735Y-86225881D01*
X144167520Y-86175313D01*
X144154298Y-86106706D01*
X144180266Y-86041842D01*
X144215736Y-86011107D01*
X144338015Y-85940509D01*
X144440509Y-85838015D01*
X144493847Y-85745630D01*
X144544413Y-85697417D01*
X144613020Y-85684193D01*
X144677884Y-85710161D01*
X144688914Y-85719951D01*
X154199525Y-95230562D01*
X154269438Y-95300475D01*
X154334463Y-95338017D01*
X154355062Y-95349910D01*
X154402811Y-95362705D01*
X154402812Y-95362705D01*
X154412903Y-95365408D01*
X154450564Y-95375500D01*
X154450565Y-95375500D01*
X159545614Y-95375500D01*
X159612653Y-95395185D01*
X159633295Y-95411819D01*
X159661985Y-95440509D01*
X159661986Y-95440510D01*
X159661988Y-95440511D01*
X159787511Y-95512982D01*
X159787512Y-95512982D01*
X159787515Y-95512984D01*
X159927525Y-95550500D01*
X159927528Y-95550500D01*
X160072472Y-95550500D01*
X160072475Y-95550500D01*
X160212485Y-95512984D01*
X160338015Y-95440509D01*
X160440509Y-95338015D01*
X160512984Y-95212485D01*
X160529980Y-95149055D01*
X160566342Y-95089399D01*
X160629189Y-95058869D01*
X160698565Y-95067163D01*
X160737434Y-95093471D01*
X161088181Y-95444218D01*
X161121666Y-95505541D01*
X161124500Y-95531899D01*
X161124500Y-119468100D01*
X161104815Y-119535139D01*
X161088181Y-119555781D01*
X159730782Y-120913181D01*
X159669459Y-120946666D01*
X159643101Y-120949500D01*
X159602525Y-120949500D01*
X159473993Y-120983940D01*
X159462511Y-120987017D01*
X159336988Y-121059488D01*
X159336982Y-121059493D01*
X159234493Y-121161982D01*
X159234488Y-121161988D01*
X159162017Y-121287511D01*
X159162016Y-121287515D01*
X159124500Y-121427525D01*
X159124500Y-121572475D01*
X159162016Y-121712485D01*
X159162017Y-121712488D01*
X159234488Y-121838011D01*
X159234490Y-121838013D01*
X159234491Y-121838015D01*
X159336985Y-121940509D01*
X159336986Y-121940510D01*
X159336988Y-121940511D01*
X159462511Y-122012982D01*
X159462512Y-122012982D01*
X159462515Y-122012984D01*
X159602525Y-122050500D01*
X159602528Y-122050500D01*
X159747472Y-122050500D01*
X159747475Y-122050500D01*
X159887485Y-122012984D01*
X160013015Y-121940509D01*
X160115509Y-121838015D01*
X160187984Y-121712485D01*
X160225500Y-121572475D01*
X160225500Y-121531899D01*
X160245185Y-121464860D01*
X160261819Y-121444218D01*
X160792856Y-120913181D01*
X161800475Y-119905563D01*
X161849911Y-119819937D01*
X161875500Y-119724436D01*
X161875500Y-119625564D01*
X161875500Y-99064071D01*
X163349499Y-99064071D01*
X163374497Y-99189738D01*
X163374499Y-99189744D01*
X163423533Y-99308124D01*
X163423538Y-99308133D01*
X163494723Y-99414668D01*
X163494726Y-99414672D01*
X163585327Y-99505273D01*
X163585331Y-99505276D01*
X163691866Y-99576461D01*
X163691872Y-99576464D01*
X163691873Y-99576465D01*
X163810256Y-99625501D01*
X163810260Y-99625501D01*
X163810261Y-99625502D01*
X163935928Y-99650500D01*
X163935931Y-99650500D01*
X169064071Y-99650500D01*
X169148615Y-99633682D01*
X169189744Y-99625501D01*
X169308127Y-99576465D01*
X169414669Y-99505276D01*
X169505276Y-99414669D01*
X169576465Y-99308127D01*
X169625501Y-99189744D01*
X169650500Y-99064069D01*
X169650500Y-98935931D01*
X169650500Y-98935928D01*
X169625502Y-98810261D01*
X169625501Y-98810260D01*
X169625501Y-98810256D01*
X169576465Y-98691873D01*
X169576464Y-98691872D01*
X169576461Y-98691866D01*
X169505276Y-98585331D01*
X169505273Y-98585327D01*
X169414672Y-98494726D01*
X169414668Y-98494723D01*
X169308133Y-98423538D01*
X169308124Y-98423533D01*
X169189744Y-98374499D01*
X169189738Y-98374497D01*
X169064071Y-98349500D01*
X169064069Y-98349500D01*
X164064069Y-98349500D01*
X163935931Y-98349500D01*
X163935929Y-98349500D01*
X163810261Y-98374497D01*
X163810255Y-98374499D01*
X163691875Y-98423533D01*
X163691866Y-98423538D01*
X163585331Y-98494723D01*
X163585327Y-98494726D01*
X163494726Y-98585327D01*
X163494723Y-98585331D01*
X163423538Y-98691866D01*
X163423533Y-98691875D01*
X163374499Y-98810255D01*
X163374497Y-98810261D01*
X163349500Y-98935928D01*
X163349500Y-98935931D01*
X163349500Y-99064069D01*
X163349500Y-99064071D01*
X163349499Y-99064071D01*
X161875500Y-99064071D01*
X161875500Y-95275565D01*
X161863442Y-95230563D01*
X161858599Y-95212488D01*
X161849912Y-95180064D01*
X161826969Y-95140327D01*
X161800475Y-95094438D01*
X160730563Y-94024526D01*
X160730562Y-94024525D01*
X160644938Y-93975090D01*
X160597186Y-93962295D01*
X160597184Y-93962294D01*
X160597182Y-93962293D01*
X160549436Y-93949500D01*
X160549435Y-93949500D01*
X155031899Y-93949500D01*
X154964860Y-93929815D01*
X154944218Y-93913181D01*
X153958562Y-92927525D01*
X157774500Y-92927525D01*
X157774500Y-93072475D01*
X157812016Y-93212485D01*
X157812017Y-93212488D01*
X157884488Y-93338011D01*
X157884490Y-93338013D01*
X157884491Y-93338015D01*
X157986985Y-93440509D01*
X157986986Y-93440510D01*
X157986988Y-93440511D01*
X158112511Y-93512982D01*
X158112512Y-93512982D01*
X158112515Y-93512984D01*
X158252525Y-93550500D01*
X158252528Y-93550500D01*
X158397472Y-93550500D01*
X158397475Y-93550500D01*
X158537485Y-93512984D01*
X158663015Y-93440509D01*
X158691705Y-93411819D01*
X158753028Y-93378334D01*
X158779386Y-93375500D01*
X159545614Y-93375500D01*
X159612653Y-93395185D01*
X159633295Y-93411819D01*
X159661985Y-93440509D01*
X159661986Y-93440510D01*
X159661988Y-93440511D01*
X159787511Y-93512982D01*
X159787512Y-93512982D01*
X159787515Y-93512984D01*
X159927525Y-93550500D01*
X159927528Y-93550500D01*
X160072472Y-93550500D01*
X160072475Y-93550500D01*
X160212485Y-93512984D01*
X160338015Y-93440509D01*
X160440509Y-93338015D01*
X160512984Y-93212485D01*
X160550500Y-93072475D01*
X160550500Y-92927525D01*
X160512984Y-92787515D01*
X160440509Y-92661985D01*
X160338015Y-92559491D01*
X160338013Y-92559490D01*
X160338011Y-92559488D01*
X160212488Y-92487017D01*
X160212489Y-92487017D01*
X160201006Y-92483940D01*
X160072475Y-92449500D01*
X159927525Y-92449500D01*
X159798993Y-92483940D01*
X159787511Y-92487017D01*
X159661988Y-92559488D01*
X159661982Y-92559493D01*
X159633295Y-92588181D01*
X159571972Y-92621666D01*
X159545614Y-92624500D01*
X158779386Y-92624500D01*
X158712347Y-92604815D01*
X158691705Y-92588181D01*
X158663017Y-92559493D01*
X158663011Y-92559488D01*
X158537488Y-92487017D01*
X158537489Y-92487017D01*
X158526006Y-92483940D01*
X158397475Y-92449500D01*
X158252525Y-92449500D01*
X158123993Y-92483940D01*
X158112511Y-92487017D01*
X157986988Y-92559488D01*
X157986982Y-92559493D01*
X157884493Y-92661982D01*
X157884488Y-92661988D01*
X157812017Y-92787511D01*
X157812016Y-92787515D01*
X157774500Y-92927525D01*
X153958562Y-92927525D01*
X151633562Y-90602525D01*
X157274500Y-90602525D01*
X157274500Y-90747475D01*
X157285228Y-90787511D01*
X157312017Y-90887488D01*
X157384488Y-91013011D01*
X157384490Y-91013013D01*
X157384491Y-91013015D01*
X157486985Y-91115509D01*
X157486986Y-91115510D01*
X157486988Y-91115511D01*
X157612511Y-91187982D01*
X157612512Y-91187982D01*
X157612515Y-91187984D01*
X157752525Y-91225500D01*
X157793101Y-91225500D01*
X157860140Y-91245185D01*
X157880782Y-91261819D01*
X157919438Y-91300475D01*
X157984463Y-91338017D01*
X158005062Y-91349910D01*
X158052811Y-91362705D01*
X158052812Y-91362705D01*
X158062903Y-91365408D01*
X158100564Y-91375500D01*
X158100565Y-91375500D01*
X159545614Y-91375500D01*
X159612653Y-91395185D01*
X159633295Y-91411819D01*
X159661985Y-91440509D01*
X159661986Y-91440510D01*
X159661988Y-91440511D01*
X159787511Y-91512982D01*
X159787512Y-91512982D01*
X159787515Y-91512984D01*
X159927525Y-91550500D01*
X159927528Y-91550500D01*
X160072472Y-91550500D01*
X160072475Y-91550500D01*
X160212485Y-91512984D01*
X160338015Y-91440509D01*
X160440509Y-91338015D01*
X160512984Y-91212485D01*
X160550500Y-91072475D01*
X160550500Y-90927525D01*
X160512984Y-90787515D01*
X160440509Y-90661985D01*
X160338015Y-90559491D01*
X160338013Y-90559490D01*
X160338011Y-90559488D01*
X160212488Y-90487017D01*
X160212489Y-90487017D01*
X160201006Y-90483940D01*
X160072475Y-90449500D01*
X159927525Y-90449500D01*
X159798993Y-90483940D01*
X159787511Y-90487017D01*
X159661988Y-90559488D01*
X159661982Y-90559493D01*
X159633295Y-90588181D01*
X159571972Y-90621666D01*
X159545614Y-90624500D01*
X158476536Y-90624500D01*
X158409497Y-90604815D01*
X158363742Y-90552011D01*
X158356764Y-90532603D01*
X158337984Y-90462515D01*
X158265509Y-90336985D01*
X158163015Y-90234491D01*
X158163013Y-90234490D01*
X158163011Y-90234488D01*
X158037488Y-90162017D01*
X158037489Y-90162017D01*
X158026006Y-90158940D01*
X157897475Y-90124500D01*
X157752525Y-90124500D01*
X157623993Y-90158940D01*
X157612511Y-90162017D01*
X157486988Y-90234488D01*
X157486982Y-90234493D01*
X157384493Y-90336982D01*
X157384488Y-90336988D01*
X157312017Y-90462511D01*
X157312016Y-90462515D01*
X157274500Y-90602525D01*
X151633562Y-90602525D01*
X149958562Y-88927525D01*
X156949500Y-88927525D01*
X156949500Y-89072475D01*
X156987016Y-89212485D01*
X156987017Y-89212488D01*
X157059488Y-89338011D01*
X157059490Y-89338013D01*
X157059491Y-89338015D01*
X157161985Y-89440509D01*
X157161986Y-89440510D01*
X157161988Y-89440511D01*
X157287511Y-89512982D01*
X157287512Y-89512982D01*
X157287515Y-89512984D01*
X157427525Y-89550500D01*
X157427528Y-89550500D01*
X157572472Y-89550500D01*
X157572475Y-89550500D01*
X157712485Y-89512984D01*
X157838015Y-89440509D01*
X157866705Y-89411819D01*
X157928028Y-89378334D01*
X157954386Y-89375500D01*
X159545614Y-89375500D01*
X159612653Y-89395185D01*
X159633295Y-89411819D01*
X159661985Y-89440509D01*
X159661986Y-89440510D01*
X159661988Y-89440511D01*
X159787511Y-89512982D01*
X159787512Y-89512982D01*
X159787515Y-89512984D01*
X159927525Y-89550500D01*
X159927528Y-89550500D01*
X160072472Y-89550500D01*
X160072475Y-89550500D01*
X160212485Y-89512984D01*
X160338015Y-89440509D01*
X160440509Y-89338015D01*
X160512984Y-89212485D01*
X160550500Y-89072475D01*
X160550500Y-88927525D01*
X160512984Y-88787515D01*
X160469665Y-88712485D01*
X160440511Y-88661988D01*
X160440506Y-88661982D01*
X160338017Y-88559493D01*
X160338011Y-88559488D01*
X160212488Y-88487017D01*
X160212489Y-88487017D01*
X160188305Y-88480537D01*
X160072475Y-88449500D01*
X159927525Y-88449500D01*
X159811695Y-88480537D01*
X159787511Y-88487017D01*
X159661988Y-88559488D01*
X159661982Y-88559493D01*
X159633295Y-88588181D01*
X159571972Y-88621666D01*
X159545614Y-88624500D01*
X157954386Y-88624500D01*
X157887347Y-88604815D01*
X157866705Y-88588181D01*
X157838017Y-88559493D01*
X157838011Y-88559488D01*
X157712488Y-88487017D01*
X157712489Y-88487017D01*
X157688305Y-88480537D01*
X157572475Y-88449500D01*
X157427525Y-88449500D01*
X157311695Y-88480537D01*
X157287511Y-88487017D01*
X157161988Y-88559488D01*
X157161982Y-88559493D01*
X157059493Y-88661982D01*
X157059488Y-88661988D01*
X156987017Y-88787511D01*
X156987016Y-88787515D01*
X156949500Y-88927525D01*
X149958562Y-88927525D01*
X148327711Y-87296674D01*
X152480351Y-87296674D01*
X152480351Y-87441624D01*
X152509525Y-87550500D01*
X152517868Y-87581637D01*
X152590339Y-87707160D01*
X152590341Y-87707162D01*
X152590342Y-87707164D01*
X152692836Y-87809658D01*
X152692837Y-87809659D01*
X152692839Y-87809660D01*
X152818362Y-87882131D01*
X152818363Y-87882131D01*
X152818366Y-87882133D01*
X152958376Y-87919649D01*
X152958379Y-87919649D01*
X153103323Y-87919649D01*
X153103326Y-87919649D01*
X153243336Y-87882133D01*
X153368866Y-87809658D01*
X153397556Y-87780968D01*
X153458879Y-87747483D01*
X153485237Y-87744649D01*
X159680286Y-87744649D01*
X159680287Y-87744649D01*
X159728037Y-87731854D01*
X159775789Y-87719059D01*
X159861413Y-87669624D01*
X159931326Y-87599711D01*
X159944218Y-87586819D01*
X160005541Y-87553334D01*
X160031899Y-87550500D01*
X160072472Y-87550500D01*
X160072475Y-87550500D01*
X160212485Y-87512984D01*
X160338015Y-87440509D01*
X160440509Y-87338015D01*
X160512984Y-87212485D01*
X160550500Y-87072475D01*
X160550500Y-86927525D01*
X160512984Y-86787515D01*
X160441970Y-86664516D01*
X160440511Y-86661988D01*
X160440506Y-86661982D01*
X160338017Y-86559493D01*
X160338011Y-86559488D01*
X160212488Y-86487017D01*
X160212489Y-86487017D01*
X160201006Y-86483940D01*
X160072475Y-86449500D01*
X159927525Y-86449500D01*
X159798993Y-86483940D01*
X159787511Y-86487017D01*
X159661988Y-86559488D01*
X159661982Y-86559493D01*
X159559493Y-86661982D01*
X159559488Y-86661988D01*
X159487017Y-86787511D01*
X159487016Y-86787515D01*
X159456407Y-86901744D01*
X159420044Y-86961403D01*
X159357197Y-86991932D01*
X159336634Y-86993649D01*
X153485237Y-86993649D01*
X153418198Y-86973964D01*
X153397556Y-86957330D01*
X153368868Y-86928642D01*
X153368862Y-86928637D01*
X153243339Y-86856166D01*
X153243340Y-86856166D01*
X153231857Y-86853089D01*
X153103326Y-86818649D01*
X152958376Y-86818649D01*
X152829844Y-86853089D01*
X152818362Y-86856166D01*
X152692839Y-86928637D01*
X152692833Y-86928642D01*
X152590344Y-87031131D01*
X152590339Y-87031137D01*
X152517868Y-87156660D01*
X152517867Y-87156664D01*
X152480351Y-87296674D01*
X148327711Y-87296674D01*
X144730563Y-83699526D01*
X144730562Y-83699525D01*
X144644938Y-83650090D01*
X144644936Y-83650089D01*
X144644381Y-83649940D01*
X144644190Y-83649889D01*
X144643632Y-83649549D01*
X144637431Y-83646981D01*
X144637831Y-83646013D01*
X144584530Y-83613526D01*
X144554000Y-83550679D01*
X144562294Y-83481304D01*
X144588600Y-83442436D01*
X144625475Y-83405562D01*
X147248912Y-80782124D01*
X147310233Y-80748641D01*
X147379925Y-80753625D01*
X147435858Y-80795497D01*
X147460275Y-80860961D01*
X147456366Y-80901899D01*
X147449500Y-80927523D01*
X147449500Y-80927525D01*
X147449500Y-81072475D01*
X147483544Y-81199526D01*
X147487017Y-81212488D01*
X147559488Y-81338011D01*
X147559490Y-81338013D01*
X147559491Y-81338015D01*
X147661985Y-81440509D01*
X147661986Y-81440510D01*
X147661988Y-81440511D01*
X147787511Y-81512982D01*
X147787512Y-81512982D01*
X147787515Y-81512984D01*
X147927525Y-81550500D01*
X147927528Y-81550500D01*
X148072473Y-81550500D01*
X148072475Y-81550500D01*
X148098098Y-81543634D01*
X148167946Y-81545295D01*
X148225809Y-81584457D01*
X148253315Y-81648685D01*
X148241730Y-81717587D01*
X148217874Y-81751088D01*
X148055780Y-81913182D01*
X147994459Y-81946666D01*
X147968101Y-81949500D01*
X147927525Y-81949500D01*
X147798993Y-81983940D01*
X147787511Y-81987017D01*
X147661988Y-82059488D01*
X147661982Y-82059493D01*
X147559493Y-82161982D01*
X147559488Y-82161988D01*
X147487017Y-82287511D01*
X147487016Y-82287515D01*
X147449500Y-82427525D01*
X147449500Y-82572475D01*
X147487016Y-82712485D01*
X147487017Y-82712488D01*
X147559488Y-82838011D01*
X147559493Y-82838017D01*
X147633795Y-82912319D01*
X147667280Y-82973642D01*
X147662296Y-83043334D01*
X147633795Y-83087681D01*
X147559493Y-83161982D01*
X147559488Y-83161988D01*
X147487017Y-83287511D01*
X147487016Y-83287515D01*
X147449500Y-83427525D01*
X147449500Y-83572475D01*
X147483544Y-83699526D01*
X147487017Y-83712488D01*
X147559488Y-83838011D01*
X147559490Y-83838013D01*
X147559491Y-83838015D01*
X147661985Y-83940509D01*
X147661986Y-83940510D01*
X147661988Y-83940511D01*
X147787511Y-84012982D01*
X147787512Y-84012982D01*
X147787515Y-84012984D01*
X147927525Y-84050500D01*
X147927528Y-84050500D01*
X148072472Y-84050500D01*
X148072475Y-84050500D01*
X148212485Y-84012984D01*
X148338015Y-83940509D01*
X148440509Y-83838015D01*
X148440510Y-83838012D01*
X148445350Y-83831706D01*
X148474600Y-83806056D01*
X148474114Y-83805423D01*
X148480559Y-83800476D01*
X148480562Y-83800475D01*
X148550475Y-83730562D01*
X148609034Y-83672003D01*
X148609047Y-83671988D01*
X153369219Y-78911819D01*
X153430542Y-78878334D01*
X153456900Y-78875500D01*
X157256542Y-78875500D01*
X157256543Y-78875500D01*
X157304293Y-78862705D01*
X157352045Y-78849910D01*
X157437669Y-78800475D01*
X157507582Y-78730562D01*
X162800474Y-73437670D01*
X162836368Y-73375500D01*
X162849910Y-73352045D01*
X162875500Y-73256542D01*
X162875500Y-72564071D01*
X163349499Y-72564071D01*
X163374497Y-72689738D01*
X163374499Y-72689744D01*
X163423533Y-72808124D01*
X163423538Y-72808133D01*
X163494723Y-72914668D01*
X163494726Y-72914672D01*
X163585327Y-73005273D01*
X163585331Y-73005276D01*
X163691866Y-73076461D01*
X163691872Y-73076464D01*
X163691873Y-73076465D01*
X163810256Y-73125501D01*
X163810260Y-73125501D01*
X163810261Y-73125502D01*
X163935928Y-73150500D01*
X163935931Y-73150500D01*
X169064071Y-73150500D01*
X169148615Y-73133682D01*
X169189744Y-73125501D01*
X169308127Y-73076465D01*
X169414669Y-73005276D01*
X169505276Y-72914669D01*
X169576465Y-72808127D01*
X169625501Y-72689744D01*
X169650500Y-72564069D01*
X169650500Y-72435931D01*
X169650500Y-72435928D01*
X169625502Y-72310261D01*
X169625501Y-72310260D01*
X169625501Y-72310256D01*
X169576465Y-72191873D01*
X169576464Y-72191872D01*
X169576461Y-72191866D01*
X169505276Y-72085331D01*
X169505273Y-72085327D01*
X169414672Y-71994726D01*
X169414668Y-71994723D01*
X169308133Y-71923538D01*
X169308124Y-71923533D01*
X169189744Y-71874499D01*
X169189738Y-71874497D01*
X169064071Y-71849500D01*
X169064069Y-71849500D01*
X163935931Y-71849500D01*
X163935929Y-71849500D01*
X163810261Y-71874497D01*
X163810255Y-71874499D01*
X163691875Y-71923533D01*
X163691866Y-71923538D01*
X163585331Y-71994723D01*
X163585327Y-71994726D01*
X163494726Y-72085327D01*
X163494723Y-72085331D01*
X163423538Y-72191866D01*
X163423533Y-72191875D01*
X163374499Y-72310255D01*
X163374497Y-72310261D01*
X163349500Y-72435928D01*
X163349500Y-72435931D01*
X163349500Y-72564069D01*
X163349500Y-72564071D01*
X163349499Y-72564071D01*
X162875500Y-72564071D01*
X162875500Y-63400565D01*
X162849910Y-63305062D01*
X162800475Y-63219438D01*
X162730562Y-63149525D01*
X155911819Y-56330782D01*
X155878334Y-56269459D01*
X155875500Y-56243101D01*
X155875500Y-54454386D01*
X155895185Y-54387347D01*
X155911819Y-54366705D01*
X155918397Y-54360127D01*
X155940509Y-54338015D01*
X156012984Y-54212485D01*
X156050500Y-54072475D01*
X156050500Y-53927525D01*
X156012984Y-53787515D01*
X155940509Y-53661985D01*
X155838015Y-53559491D01*
X155838013Y-53559490D01*
X155838011Y-53559488D01*
X155712488Y-53487017D01*
X155712489Y-53487017D01*
X155701006Y-53483940D01*
X155572475Y-53449500D01*
X155427525Y-53449500D01*
X155298993Y-53483940D01*
X155287511Y-53487017D01*
X155161988Y-53559488D01*
X155161982Y-53559493D01*
X155059493Y-53661982D01*
X155059488Y-53661988D01*
X154987017Y-53787511D01*
X154987016Y-53787515D01*
X154949500Y-53927525D01*
X154949500Y-54072475D01*
X154987016Y-54212485D01*
X154987017Y-54212488D01*
X155059488Y-54338011D01*
X155059493Y-54338017D01*
X155088181Y-54366705D01*
X155121666Y-54428028D01*
X155124500Y-54454386D01*
X155124500Y-56325500D01*
X155104815Y-56392539D01*
X155052011Y-56438294D01*
X155000500Y-56449500D01*
X154927525Y-56449500D01*
X154811833Y-56480500D01*
X154787511Y-56487017D01*
X154661988Y-56559488D01*
X154661982Y-56559493D01*
X154559493Y-56661982D01*
X154559488Y-56661988D01*
X154487017Y-56787511D01*
X154487016Y-56787515D01*
X154449500Y-56927525D01*
X154449500Y-57072475D01*
X154487016Y-57212485D01*
X154487017Y-57212488D01*
X154559488Y-57338011D01*
X154559490Y-57338013D01*
X154559491Y-57338015D01*
X154661985Y-57440509D01*
X154661986Y-57440510D01*
X154661988Y-57440511D01*
X154787511Y-57512982D01*
X154787512Y-57512982D01*
X154787515Y-57512984D01*
X154927525Y-57550500D01*
X154968101Y-57550500D01*
X155035140Y-57570185D01*
X155055782Y-57586819D01*
X161088181Y-63619218D01*
X161121666Y-63680541D01*
X161124500Y-63706899D01*
X161124500Y-72793101D01*
X161104815Y-72860140D01*
X161088176Y-72880787D01*
X161079403Y-72889559D01*
X161018078Y-72923041D01*
X160948387Y-72918052D01*
X160892456Y-72876178D01*
X160868042Y-72810712D01*
X160871952Y-72769784D01*
X160875500Y-72756543D01*
X160875500Y-72657671D01*
X160875500Y-63950565D01*
X160849910Y-63855062D01*
X160818068Y-63799910D01*
X160800475Y-63769437D01*
X155875563Y-58844526D01*
X155875562Y-58844525D01*
X155797514Y-58799464D01*
X155789940Y-58795091D01*
X155789939Y-58795090D01*
X155702993Y-58771793D01*
X155702993Y-58771792D01*
X155702990Y-58771792D01*
X155694437Y-58769500D01*
X155694436Y-58769500D01*
X155694435Y-58769500D01*
X153354790Y-58769500D01*
X153287751Y-58749815D01*
X153267109Y-58733181D01*
X153238421Y-58704493D01*
X153238415Y-58704488D01*
X153112892Y-58632017D01*
X153112893Y-58632017D01*
X153096248Y-58627557D01*
X152972879Y-58594500D01*
X152827929Y-58594500D01*
X152704560Y-58627557D01*
X152687915Y-58632017D01*
X152562392Y-58704488D01*
X152562386Y-58704493D01*
X152459897Y-58806982D01*
X152459892Y-58806988D01*
X152387421Y-58932511D01*
X152387420Y-58932515D01*
X152349904Y-59072525D01*
X152349904Y-59217475D01*
X152356657Y-59242676D01*
X152387421Y-59357488D01*
X152459892Y-59483011D01*
X152459894Y-59483013D01*
X152459895Y-59483015D01*
X152562389Y-59585509D01*
X152562390Y-59585510D01*
X152562392Y-59585511D01*
X152687915Y-59657982D01*
X152687916Y-59657982D01*
X152687919Y-59657984D01*
X152827929Y-59695500D01*
X152827932Y-59695500D01*
X152972876Y-59695500D01*
X152972879Y-59695500D01*
X153112889Y-59657984D01*
X153238419Y-59585509D01*
X153267109Y-59556819D01*
X153328432Y-59523334D01*
X153354790Y-59520500D01*
X155438101Y-59520500D01*
X155505140Y-59540185D01*
X155525782Y-59556819D01*
X160088181Y-64119218D01*
X160121666Y-64180541D01*
X160124500Y-64206899D01*
X160124500Y-68348912D01*
X160104815Y-68415951D01*
X160052011Y-68461706D01*
X159982853Y-68471650D01*
X159919297Y-68442625D01*
X159912819Y-68436593D01*
X159838017Y-68361791D01*
X159838011Y-68361786D01*
X159712488Y-68289315D01*
X159712489Y-68289315D01*
X159701006Y-68286238D01*
X159572475Y-68251798D01*
X159427525Y-68251798D01*
X159298993Y-68286238D01*
X159287511Y-68289315D01*
X159161988Y-68361786D01*
X159161982Y-68361791D01*
X159059493Y-68464280D01*
X159059488Y-68464286D01*
X158987017Y-68589809D01*
X158987016Y-68589813D01*
X158949500Y-68729823D01*
X158949500Y-68874773D01*
X158961461Y-68919411D01*
X158987017Y-69014786D01*
X159059488Y-69140309D01*
X159059493Y-69140315D01*
X159088181Y-69169003D01*
X159121666Y-69230326D01*
X159124500Y-69256684D01*
X159124500Y-72293100D01*
X159104815Y-72360139D01*
X159088181Y-72380781D01*
X156380782Y-75088181D01*
X156319459Y-75121666D01*
X156293101Y-75124500D01*
X151950564Y-75124500D01*
X151902812Y-75137295D01*
X151902811Y-75137294D01*
X151855063Y-75150089D01*
X151855062Y-75150089D01*
X151769435Y-75199527D01*
X144205782Y-82763181D01*
X144144459Y-82796666D01*
X144118101Y-82799500D01*
X136151268Y-82799500D01*
X136084229Y-82779815D01*
X136038474Y-82727011D01*
X136028530Y-82657853D01*
X136031490Y-82643419D01*
X136050500Y-82572475D01*
X136050500Y-82427525D01*
X136012984Y-82287515D01*
X135962183Y-82199526D01*
X135940511Y-82161988D01*
X135940506Y-82161982D01*
X135865705Y-82087181D01*
X135832220Y-82025858D01*
X135837204Y-81956166D01*
X135879076Y-81900233D01*
X135944540Y-81875816D01*
X135953386Y-81875500D01*
X144549435Y-81875500D01*
X144549436Y-81875500D01*
X144597186Y-81862705D01*
X144644938Y-81849910D01*
X144730562Y-81800475D01*
X144800475Y-81730562D01*
X144800474Y-81730562D01*
X144859043Y-81671993D01*
X144859042Y-81671993D01*
X152119219Y-74411819D01*
X152180542Y-74378334D01*
X152206900Y-74375500D01*
X154320614Y-74375500D01*
X154387653Y-74395185D01*
X154408295Y-74411819D01*
X154436985Y-74440509D01*
X154436986Y-74440510D01*
X154436988Y-74440511D01*
X154562511Y-74512982D01*
X154562512Y-74512982D01*
X154562515Y-74512984D01*
X154702525Y-74550500D01*
X154702528Y-74550500D01*
X154847472Y-74550500D01*
X154847475Y-74550500D01*
X154987485Y-74512984D01*
X155113015Y-74440509D01*
X155215509Y-74338015D01*
X155287984Y-74212485D01*
X155325500Y-74072475D01*
X155325500Y-73927525D01*
X155287984Y-73787515D01*
X155237183Y-73699526D01*
X155215511Y-73661988D01*
X155215506Y-73661982D01*
X155113017Y-73559493D01*
X155113011Y-73559488D01*
X154987488Y-73487017D01*
X154987489Y-73487017D01*
X154976006Y-73483940D01*
X154847475Y-73449500D01*
X154702525Y-73449500D01*
X154573993Y-73483940D01*
X154562511Y-73487017D01*
X154436988Y-73559488D01*
X154436982Y-73559493D01*
X154408295Y-73588181D01*
X154346972Y-73621666D01*
X154320614Y-73624500D01*
X151950564Y-73624500D01*
X151855063Y-73650089D01*
X151855060Y-73650090D01*
X151769440Y-73699522D01*
X151769435Y-73699526D01*
X144380782Y-81088181D01*
X144319459Y-81121666D01*
X144293101Y-81124500D01*
X127450564Y-81124500D01*
X127402812Y-81137295D01*
X127402811Y-81137294D01*
X127355063Y-81150089D01*
X127355062Y-81150089D01*
X127269435Y-81199527D01*
X125699527Y-82769435D01*
X125650090Y-82855062D01*
X125650090Y-82855063D01*
X125626142Y-82944438D01*
X125626140Y-82944443D01*
X125624500Y-82950562D01*
X125624500Y-82950565D01*
X125624500Y-84950565D01*
X125624500Y-85049435D01*
X125650090Y-85144938D01*
X125699525Y-85230562D01*
X125769438Y-85300475D01*
X125855062Y-85349910D01*
X125950565Y-85375500D01*
X126545614Y-85375500D01*
X126612653Y-85395185D01*
X126633295Y-85411819D01*
X126661985Y-85440509D01*
X126661986Y-85440510D01*
X126661988Y-85440511D01*
X126787511Y-85512982D01*
X126787512Y-85512982D01*
X126787515Y-85512984D01*
X126927525Y-85550500D01*
X126927528Y-85550500D01*
X127072472Y-85550500D01*
X127072475Y-85550500D01*
X127212485Y-85512984D01*
X127338015Y-85440509D01*
X127440509Y-85338015D01*
X127512984Y-85212485D01*
X127550500Y-85072475D01*
X127550500Y-84927525D01*
X127512984Y-84787515D01*
X127440509Y-84661985D01*
X127366205Y-84587681D01*
X127332720Y-84526358D01*
X127337704Y-84456666D01*
X127366205Y-84412319D01*
X127366705Y-84411819D01*
X127428028Y-84378334D01*
X127454386Y-84375500D01*
X130294100Y-84375500D01*
X130361139Y-84395185D01*
X130406894Y-84447989D01*
X130416838Y-84517147D01*
X130387813Y-84580703D01*
X130381781Y-84587181D01*
X127055782Y-87913181D01*
X126994459Y-87946666D01*
X126968101Y-87949500D01*
X126927525Y-87949500D01*
X126798993Y-87983940D01*
X126787511Y-87987017D01*
X126661988Y-88059488D01*
X126661982Y-88059493D01*
X126559493Y-88161982D01*
X126559488Y-88161988D01*
X126487017Y-88287511D01*
X126487016Y-88287515D01*
X126449500Y-88427525D01*
X126449500Y-88572475D01*
X126487016Y-88712485D01*
X126487017Y-88712488D01*
X126559488Y-88838011D01*
X126559490Y-88838013D01*
X126559491Y-88838015D01*
X126661985Y-88940509D01*
X126661986Y-88940510D01*
X126661988Y-88940511D01*
X126787511Y-89012982D01*
X126787512Y-89012982D01*
X126787515Y-89012984D01*
X126927525Y-89050500D01*
X126927528Y-89050500D01*
X127072472Y-89050500D01*
X127072475Y-89050500D01*
X127212485Y-89012984D01*
X127338015Y-88940509D01*
X127440509Y-88838015D01*
X127512984Y-88712485D01*
X127550500Y-88572475D01*
X127550500Y-88531898D01*
X127570185Y-88464859D01*
X127586814Y-88444222D01*
X129377707Y-86653328D01*
X129439028Y-86619845D01*
X129508720Y-86624829D01*
X129564653Y-86666701D01*
X129572773Y-86679011D01*
X129609491Y-86742608D01*
X129609493Y-86742610D01*
X129715332Y-86848449D01*
X129748817Y-86909772D01*
X129743833Y-86979464D01*
X129701961Y-87035397D01*
X129689653Y-87043516D01*
X129661988Y-87059488D01*
X129661982Y-87059493D01*
X129559493Y-87161982D01*
X129559488Y-87161988D01*
X129487017Y-87287511D01*
X129487016Y-87287515D01*
X129449500Y-87427525D01*
X129449500Y-87572475D01*
X129485589Y-87707160D01*
X129487017Y-87712488D01*
X129559488Y-87838011D01*
X129559490Y-87838013D01*
X129559491Y-87838015D01*
X129661985Y-87940509D01*
X129661986Y-87940510D01*
X129661988Y-87940511D01*
X129787511Y-88012982D01*
X129787512Y-88012982D01*
X129787515Y-88012984D01*
X129927525Y-88050500D01*
X129927528Y-88050500D01*
X130072472Y-88050500D01*
X130072475Y-88050500D01*
X130212485Y-88012984D01*
X130338015Y-87940509D01*
X130440509Y-87838015D01*
X130512984Y-87712485D01*
X130550500Y-87572475D01*
X130550500Y-87531899D01*
X130570185Y-87464860D01*
X130586819Y-87444218D01*
X132794218Y-85236819D01*
X132855541Y-85203334D01*
X132881899Y-85200500D01*
X139469101Y-85200500D01*
X139536140Y-85220185D01*
X139581895Y-85272989D01*
X139591839Y-85342147D01*
X139562814Y-85405703D01*
X139556782Y-85412181D01*
X133199527Y-91769435D01*
X133150090Y-91855062D01*
X133150090Y-91855063D01*
X133124779Y-91949525D01*
X133124771Y-91949552D01*
X133124500Y-91950560D01*
X133124500Y-94545614D01*
X133104815Y-94612653D01*
X133088181Y-94633295D01*
X133059493Y-94661982D01*
X133059488Y-94661988D01*
X132987017Y-94787511D01*
X132987016Y-94787515D01*
X132949500Y-94927525D01*
X132949500Y-95072475D01*
X132978329Y-95180064D01*
X132987017Y-95212488D01*
X133059488Y-95338011D01*
X133059490Y-95338013D01*
X133059491Y-95338015D01*
X133161985Y-95440509D01*
X133161986Y-95440510D01*
X133161988Y-95440511D01*
X133287511Y-95512982D01*
X133287512Y-95512982D01*
X133287515Y-95512984D01*
X133427525Y-95550500D01*
X133427528Y-95550500D01*
X133572472Y-95550500D01*
X133572475Y-95550500D01*
X133712485Y-95512984D01*
X133764762Y-95482801D01*
X133832660Y-95466328D01*
X133898687Y-95489179D01*
X133941879Y-95544100D01*
X133947257Y-95564661D01*
X133947397Y-95564624D01*
X133949500Y-95572472D01*
X133949500Y-95572475D01*
X133987016Y-95712485D01*
X133987017Y-95712488D01*
X134059488Y-95838011D01*
X134059490Y-95838013D01*
X134059491Y-95838015D01*
X134161985Y-95940509D01*
X134246833Y-95989496D01*
X134254367Y-95993846D01*
X134302583Y-96044413D01*
X134315805Y-96113020D01*
X134289837Y-96177885D01*
X134280048Y-96188914D01*
X133880782Y-96588181D01*
X133819459Y-96621666D01*
X133793101Y-96624500D01*
X118954386Y-96624500D01*
X118887347Y-96604815D01*
X118866705Y-96588181D01*
X118838017Y-96559493D01*
X118838011Y-96559488D01*
X118712488Y-96487017D01*
X118712489Y-96487017D01*
X118701006Y-96483940D01*
X118572475Y-96449500D01*
X118427525Y-96449500D01*
X118298993Y-96483940D01*
X118287511Y-96487017D01*
X118161988Y-96559488D01*
X118161982Y-96559493D01*
X118059493Y-96661982D01*
X118059488Y-96661988D01*
X117987017Y-96787511D01*
X117987016Y-96787515D01*
X117949500Y-96927525D01*
X108300500Y-96927525D01*
X108300500Y-92927525D01*
X117949500Y-92927525D01*
X117949500Y-93072475D01*
X117987016Y-93212485D01*
X117987017Y-93212488D01*
X118059488Y-93338011D01*
X118059490Y-93338013D01*
X118059491Y-93338015D01*
X118161985Y-93440509D01*
X118161986Y-93440510D01*
X118161988Y-93440511D01*
X118287511Y-93512982D01*
X118287512Y-93512982D01*
X118287515Y-93512984D01*
X118427525Y-93550500D01*
X118427528Y-93550500D01*
X118572472Y-93550500D01*
X118572475Y-93550500D01*
X118712485Y-93512984D01*
X118838015Y-93440509D01*
X118866705Y-93411819D01*
X118928028Y-93378334D01*
X118954386Y-93375500D01*
X119720614Y-93375500D01*
X119787653Y-93395185D01*
X119808295Y-93411819D01*
X119836985Y-93440509D01*
X119836986Y-93440510D01*
X119836988Y-93440511D01*
X119962511Y-93512982D01*
X119962512Y-93512982D01*
X119962515Y-93512984D01*
X120102525Y-93550500D01*
X120102528Y-93550500D01*
X120247472Y-93550500D01*
X120247475Y-93550500D01*
X120387485Y-93512984D01*
X120513015Y-93440509D01*
X120615509Y-93338015D01*
X120687984Y-93212485D01*
X120725500Y-93072475D01*
X120725500Y-92927525D01*
X120687984Y-92787515D01*
X120615509Y-92661985D01*
X120513015Y-92559491D01*
X120513013Y-92559490D01*
X120513011Y-92559488D01*
X120387488Y-92487017D01*
X120387489Y-92487017D01*
X120376006Y-92483940D01*
X120247475Y-92449500D01*
X120102525Y-92449500D01*
X119973993Y-92483940D01*
X119962511Y-92487017D01*
X119836988Y-92559488D01*
X119836982Y-92559493D01*
X119808295Y-92588181D01*
X119746972Y-92621666D01*
X119720614Y-92624500D01*
X118954386Y-92624500D01*
X118887347Y-92604815D01*
X118866705Y-92588181D01*
X118838017Y-92559493D01*
X118838011Y-92559488D01*
X118712488Y-92487017D01*
X118712489Y-92487017D01*
X118701006Y-92483940D01*
X118572475Y-92449500D01*
X118427525Y-92449500D01*
X118298993Y-92483940D01*
X118287511Y-92487017D01*
X118161988Y-92559488D01*
X118161982Y-92559493D01*
X118059493Y-92661982D01*
X118059488Y-92661988D01*
X117987017Y-92787511D01*
X117987016Y-92787515D01*
X117949500Y-92927525D01*
X108300500Y-92927525D01*
X108300500Y-90927525D01*
X117949500Y-90927525D01*
X117949500Y-91072475D01*
X117980451Y-91187984D01*
X117987017Y-91212488D01*
X118059488Y-91338011D01*
X118059490Y-91338013D01*
X118059491Y-91338015D01*
X118161985Y-91440509D01*
X118161986Y-91440510D01*
X118161988Y-91440511D01*
X118287511Y-91512982D01*
X118287512Y-91512982D01*
X118287515Y-91512984D01*
X118427525Y-91550500D01*
X118427528Y-91550500D01*
X118572472Y-91550500D01*
X118572475Y-91550500D01*
X118712485Y-91512984D01*
X118838015Y-91440509D01*
X118866705Y-91411819D01*
X118928028Y-91378334D01*
X118954386Y-91375500D01*
X120545614Y-91375500D01*
X120612653Y-91395185D01*
X120633295Y-91411819D01*
X120661985Y-91440509D01*
X120661986Y-91440510D01*
X120661988Y-91440511D01*
X120787511Y-91512982D01*
X120787512Y-91512982D01*
X120787515Y-91512984D01*
X120927525Y-91550500D01*
X120927528Y-91550500D01*
X121072472Y-91550500D01*
X121072475Y-91550500D01*
X121212485Y-91512984D01*
X121338015Y-91440509D01*
X121440509Y-91338015D01*
X121512984Y-91212485D01*
X121550500Y-91072475D01*
X121550500Y-90927525D01*
X121512984Y-90787515D01*
X121440509Y-90661985D01*
X121338015Y-90559491D01*
X121338013Y-90559490D01*
X121338011Y-90559488D01*
X121212488Y-90487017D01*
X121212489Y-90487017D01*
X121201006Y-90483940D01*
X121072475Y-90449500D01*
X120927525Y-90449500D01*
X120798993Y-90483940D01*
X120787511Y-90487017D01*
X120661988Y-90559488D01*
X120661982Y-90559493D01*
X120633295Y-90588181D01*
X120571972Y-90621666D01*
X120545614Y-90624500D01*
X118954386Y-90624500D01*
X118887347Y-90604815D01*
X118866705Y-90588181D01*
X118838017Y-90559493D01*
X118838011Y-90559488D01*
X118712488Y-90487017D01*
X118712489Y-90487017D01*
X118701006Y-90483940D01*
X118572475Y-90449500D01*
X118427525Y-90449500D01*
X118298993Y-90483940D01*
X118287511Y-90487017D01*
X118161988Y-90559488D01*
X118161982Y-90559493D01*
X118059493Y-90661982D01*
X118059488Y-90661988D01*
X117987017Y-90787511D01*
X117987016Y-90787515D01*
X117949500Y-90927525D01*
X108300500Y-90927525D01*
X108300500Y-88927525D01*
X117949500Y-88927525D01*
X117949500Y-89072475D01*
X117987016Y-89212485D01*
X117987017Y-89212488D01*
X118059488Y-89338011D01*
X118059490Y-89338013D01*
X118059491Y-89338015D01*
X118161985Y-89440509D01*
X118161986Y-89440510D01*
X118161988Y-89440511D01*
X118287511Y-89512982D01*
X118287512Y-89512982D01*
X118287515Y-89512984D01*
X118427525Y-89550500D01*
X118427528Y-89550500D01*
X118572472Y-89550500D01*
X118572475Y-89550500D01*
X118712485Y-89512984D01*
X118838015Y-89440509D01*
X118866705Y-89411819D01*
X118928028Y-89378334D01*
X118954386Y-89375500D01*
X123545614Y-89375500D01*
X123612653Y-89395185D01*
X123633295Y-89411819D01*
X123661985Y-89440509D01*
X123661986Y-89440510D01*
X123661988Y-89440511D01*
X123787511Y-89512982D01*
X123787512Y-89512982D01*
X123787515Y-89512984D01*
X123927525Y-89550500D01*
X123927528Y-89550500D01*
X124072472Y-89550500D01*
X124072475Y-89550500D01*
X124212485Y-89512984D01*
X124338015Y-89440509D01*
X124440509Y-89338015D01*
X124512984Y-89212485D01*
X124550500Y-89072475D01*
X124550500Y-88927525D01*
X124512984Y-88787515D01*
X124469665Y-88712485D01*
X124440511Y-88661988D01*
X124440506Y-88661982D01*
X124338017Y-88559493D01*
X124338011Y-88559488D01*
X124212488Y-88487017D01*
X124212489Y-88487017D01*
X124188305Y-88480537D01*
X124072475Y-88449500D01*
X123927525Y-88449500D01*
X123811695Y-88480537D01*
X123787511Y-88487017D01*
X123661988Y-88559488D01*
X123661982Y-88559493D01*
X123633295Y-88588181D01*
X123571972Y-88621666D01*
X123545614Y-88624500D01*
X118954386Y-88624500D01*
X118887347Y-88604815D01*
X118866705Y-88588181D01*
X118838017Y-88559493D01*
X118838011Y-88559488D01*
X118712488Y-88487017D01*
X118712489Y-88487017D01*
X118688305Y-88480537D01*
X118572475Y-88449500D01*
X118427525Y-88449500D01*
X118311695Y-88480537D01*
X118287511Y-88487017D01*
X118161988Y-88559488D01*
X118161982Y-88559493D01*
X118059493Y-88661982D01*
X118059488Y-88661988D01*
X117987017Y-88787511D01*
X117987016Y-88787515D01*
X117949500Y-88927525D01*
X108300500Y-88927525D01*
X108300500Y-86927525D01*
X117949500Y-86927525D01*
X117949500Y-87072475D01*
X117985745Y-87207740D01*
X117987017Y-87212488D01*
X118059488Y-87338011D01*
X118059490Y-87338013D01*
X118059491Y-87338015D01*
X118161985Y-87440509D01*
X118161986Y-87440510D01*
X118161988Y-87440511D01*
X118287511Y-87512982D01*
X118287512Y-87512982D01*
X118287515Y-87512984D01*
X118427525Y-87550500D01*
X118427528Y-87550500D01*
X118572472Y-87550500D01*
X118572475Y-87550500D01*
X118712485Y-87512984D01*
X118838015Y-87440509D01*
X118866705Y-87411819D01*
X118928028Y-87378334D01*
X118954386Y-87375500D01*
X121220614Y-87375500D01*
X121287653Y-87395185D01*
X121308295Y-87411819D01*
X121336985Y-87440509D01*
X121336986Y-87440510D01*
X121336988Y-87440511D01*
X121462511Y-87512982D01*
X121462512Y-87512982D01*
X121462515Y-87512984D01*
X121602525Y-87550500D01*
X121602528Y-87550500D01*
X121747472Y-87550500D01*
X121747475Y-87550500D01*
X121887485Y-87512984D01*
X122013015Y-87440509D01*
X122115509Y-87338015D01*
X122187984Y-87212485D01*
X122225500Y-87072475D01*
X122225500Y-86927525D01*
X122187984Y-86787515D01*
X122116970Y-86664516D01*
X122115511Y-86661988D01*
X122115506Y-86661982D01*
X122013017Y-86559493D01*
X122013011Y-86559488D01*
X121887488Y-86487017D01*
X121887489Y-86487017D01*
X121876006Y-86483940D01*
X121747475Y-86449500D01*
X121602525Y-86449500D01*
X121473993Y-86483940D01*
X121462511Y-86487017D01*
X121336988Y-86559488D01*
X121336982Y-86559493D01*
X121308295Y-86588181D01*
X121246972Y-86621666D01*
X121220614Y-86624500D01*
X118954386Y-86624500D01*
X118887347Y-86604815D01*
X118866705Y-86588181D01*
X118838017Y-86559493D01*
X118838011Y-86559488D01*
X118712488Y-86487017D01*
X118712489Y-86487017D01*
X118701006Y-86483940D01*
X118572475Y-86449500D01*
X118427525Y-86449500D01*
X118298993Y-86483940D01*
X118287511Y-86487017D01*
X118161988Y-86559488D01*
X118161982Y-86559493D01*
X118059493Y-86661982D01*
X118059488Y-86661988D01*
X117987017Y-86787511D01*
X117987016Y-86787515D01*
X117949500Y-86927525D01*
X108300500Y-86927525D01*
X108300500Y-85519808D01*
X108320185Y-85452769D01*
X108372989Y-85407014D01*
X108442147Y-85397070D01*
X108505703Y-85426095D01*
X108512181Y-85432127D01*
X108585327Y-85505273D01*
X108585331Y-85505276D01*
X108691866Y-85576461D01*
X108691872Y-85576464D01*
X108691873Y-85576465D01*
X108810256Y-85625501D01*
X108810260Y-85625501D01*
X108810261Y-85625502D01*
X108935928Y-85650500D01*
X108935931Y-85650500D01*
X114564071Y-85650500D01*
X114648615Y-85633682D01*
X114689744Y-85625501D01*
X114808127Y-85576465D01*
X114914669Y-85505276D01*
X115005276Y-85414669D01*
X115076465Y-85308127D01*
X115125501Y-85189744D01*
X115148828Y-85072475D01*
X115150500Y-85064071D01*
X115150500Y-84935928D01*
X115125502Y-84810261D01*
X115125501Y-84810260D01*
X115125501Y-84810256D01*
X115076465Y-84691873D01*
X115076464Y-84691872D01*
X115076461Y-84691866D01*
X115005276Y-84585331D01*
X115005273Y-84585327D01*
X114914672Y-84494726D01*
X114914668Y-84494723D01*
X114808133Y-84423538D01*
X114808124Y-84423533D01*
X114689744Y-84374499D01*
X114689738Y-84374497D01*
X114564071Y-84349500D01*
X114564069Y-84349500D01*
X109064069Y-84349500D01*
X108935931Y-84349500D01*
X108935929Y-84349500D01*
X108810261Y-84374497D01*
X108810255Y-84374499D01*
X108691875Y-84423533D01*
X108691866Y-84423538D01*
X108585331Y-84494723D01*
X108585327Y-84494726D01*
X108512181Y-84567873D01*
X108450858Y-84601358D01*
X108381166Y-84596374D01*
X108325233Y-84554502D01*
X108300816Y-84489038D01*
X108300500Y-84480192D01*
X108300500Y-75500000D01*
X134500000Y-75500000D01*
X145500000Y-75500000D01*
X145500000Y-70533389D01*
X146519500Y-70533389D01*
X146519500Y-70706611D01*
X146523294Y-70730563D01*
X146540312Y-70838017D01*
X146546598Y-70877701D01*
X146600127Y-71042445D01*
X146678768Y-71196788D01*
X146780586Y-71336928D01*
X146903072Y-71459414D01*
X147043212Y-71561232D01*
X147197555Y-71639873D01*
X147362299Y-71693402D01*
X147533389Y-71720500D01*
X147533390Y-71720500D01*
X147706610Y-71720500D01*
X147706611Y-71720500D01*
X147877701Y-71693402D01*
X148042445Y-71639873D01*
X148196788Y-71561232D01*
X148336928Y-71459414D01*
X148459414Y-71336928D01*
X148561232Y-71196788D01*
X148639873Y-71042445D01*
X148693402Y-70877701D01*
X148720500Y-70706611D01*
X148720500Y-70533389D01*
X148693402Y-70362299D01*
X148639873Y-70197555D01*
X148561232Y-70043212D01*
X148459414Y-69903072D01*
X148336928Y-69780586D01*
X148196788Y-69678768D01*
X148042445Y-69600127D01*
X147877701Y-69546598D01*
X147877699Y-69546597D01*
X147877698Y-69546597D01*
X147746271Y-69525781D01*
X147706611Y-69519500D01*
X147533389Y-69519500D01*
X147493728Y-69525781D01*
X147362302Y-69546597D01*
X147197552Y-69600128D01*
X147043211Y-69678768D01*
X146963256Y-69736859D01*
X146903072Y-69780586D01*
X146903070Y-69780588D01*
X146903069Y-69780588D01*
X146780588Y-69903069D01*
X146780588Y-69903070D01*
X146780586Y-69903072D01*
X146746854Y-69949500D01*
X146678768Y-70043211D01*
X146600128Y-70197552D01*
X146546597Y-70362302D01*
X146534210Y-70440511D01*
X146519500Y-70533389D01*
X145500000Y-70533389D01*
X145500000Y-67993389D01*
X146519500Y-67993389D01*
X146519500Y-68166611D01*
X146546598Y-68337701D01*
X146600127Y-68502445D01*
X146678768Y-68656788D01*
X146780586Y-68796928D01*
X146903072Y-68919414D01*
X147043212Y-69021232D01*
X147197555Y-69099873D01*
X147362299Y-69153402D01*
X147533389Y-69180500D01*
X147533390Y-69180500D01*
X147706610Y-69180500D01*
X147706611Y-69180500D01*
X147877701Y-69153402D01*
X148042445Y-69099873D01*
X148196788Y-69021232D01*
X148336928Y-68919414D01*
X148459414Y-68796928D01*
X148561232Y-68656788D01*
X148639873Y-68502445D01*
X148693402Y-68337701D01*
X148720500Y-68166611D01*
X148720500Y-67993389D01*
X148693402Y-67822299D01*
X148639873Y-67657555D01*
X148561232Y-67503212D01*
X148459414Y-67363072D01*
X148336928Y-67240586D01*
X148196788Y-67138768D01*
X148042445Y-67060127D01*
X147877701Y-67006598D01*
X147877699Y-67006597D01*
X147877698Y-67006597D01*
X147746271Y-66985781D01*
X147706611Y-66979500D01*
X147533389Y-66979500D01*
X147493728Y-66985781D01*
X147362302Y-67006597D01*
X147197552Y-67060128D01*
X147043211Y-67138768D01*
X146963256Y-67196859D01*
X146903072Y-67240586D01*
X146903070Y-67240588D01*
X146903069Y-67240588D01*
X146780588Y-67363069D01*
X146780588Y-67363070D01*
X146780586Y-67363072D01*
X146736859Y-67423256D01*
X146678768Y-67503211D01*
X146600128Y-67657552D01*
X146546597Y-67822302D01*
X146519500Y-67993389D01*
X145500000Y-67993389D01*
X145500000Y-67000000D01*
X134500000Y-67000000D01*
X134500000Y-75500000D01*
X108300500Y-75500000D01*
X108300500Y-70427525D01*
X117949500Y-70427525D01*
X117949500Y-70572475D01*
X117985442Y-70706610D01*
X117987017Y-70712488D01*
X118059488Y-70838011D01*
X118059490Y-70838013D01*
X118059491Y-70838015D01*
X118161985Y-70940509D01*
X118161986Y-70940510D01*
X118161988Y-70940511D01*
X118287511Y-71012982D01*
X118287512Y-71012982D01*
X118287515Y-71012984D01*
X118427525Y-71050500D01*
X118427528Y-71050500D01*
X118572472Y-71050500D01*
X118572475Y-71050500D01*
X118712485Y-71012984D01*
X118838015Y-70940509D01*
X118866705Y-70911819D01*
X118928028Y-70878334D01*
X118954386Y-70875500D01*
X128000209Y-70875500D01*
X128067248Y-70895185D01*
X128087890Y-70911819D01*
X128116580Y-70940509D01*
X128116581Y-70940510D01*
X128116583Y-70940511D01*
X128242106Y-71012982D01*
X128242107Y-71012982D01*
X128242110Y-71012984D01*
X128382120Y-71050500D01*
X128382123Y-71050500D01*
X128527068Y-71050500D01*
X128527070Y-71050500D01*
X128614719Y-71027014D01*
X128684567Y-71028676D01*
X128742430Y-71067837D01*
X128769935Y-71132065D01*
X128758349Y-71200968D01*
X128734493Y-71234469D01*
X128555782Y-71413181D01*
X128494459Y-71446666D01*
X128468101Y-71449500D01*
X128427525Y-71449500D01*
X128298993Y-71483940D01*
X128287511Y-71487017D01*
X128161988Y-71559488D01*
X128161982Y-71559493D01*
X128059493Y-71661982D01*
X128059488Y-71661988D01*
X127987017Y-71787511D01*
X127987016Y-71787515D01*
X127949500Y-71927525D01*
X127949500Y-72072475D01*
X127981491Y-72191866D01*
X127987017Y-72212488D01*
X128059488Y-72338011D01*
X128059490Y-72338013D01*
X128059491Y-72338015D01*
X128161985Y-72440509D01*
X128161986Y-72440510D01*
X128161988Y-72440511D01*
X128287511Y-72512982D01*
X128287512Y-72512982D01*
X128287515Y-72512984D01*
X128427525Y-72550500D01*
X128427528Y-72550500D01*
X128572472Y-72550500D01*
X128572475Y-72550500D01*
X128712485Y-72512984D01*
X128838015Y-72440509D01*
X128940509Y-72338015D01*
X129012984Y-72212485D01*
X129050500Y-72072475D01*
X129050500Y-72031899D01*
X129070185Y-71964860D01*
X129086819Y-71944218D01*
X129617856Y-71413181D01*
X130300474Y-70730563D01*
X130300475Y-70730562D01*
X130349910Y-70644938D01*
X130362705Y-70597186D01*
X130375500Y-70549436D01*
X130375500Y-70533389D01*
X131279500Y-70533389D01*
X131279500Y-70706611D01*
X131283294Y-70730563D01*
X131300312Y-70838017D01*
X131306598Y-70877701D01*
X131360127Y-71042445D01*
X131438768Y-71196788D01*
X131540586Y-71336928D01*
X131663072Y-71459414D01*
X131803212Y-71561232D01*
X131957555Y-71639873D01*
X132122299Y-71693402D01*
X132293389Y-71720500D01*
X132293390Y-71720500D01*
X132466610Y-71720500D01*
X132466611Y-71720500D01*
X132637701Y-71693402D01*
X132802445Y-71639873D01*
X132956788Y-71561232D01*
X133096928Y-71459414D01*
X133219414Y-71336928D01*
X133321232Y-71196788D01*
X133399873Y-71042445D01*
X133453402Y-70877701D01*
X133480500Y-70706611D01*
X133480500Y-70533389D01*
X133453402Y-70362299D01*
X133399873Y-70197555D01*
X133321232Y-70043212D01*
X133219414Y-69903072D01*
X133096928Y-69780586D01*
X132956788Y-69678768D01*
X132802445Y-69600127D01*
X132637701Y-69546598D01*
X132637699Y-69546597D01*
X132637698Y-69546597D01*
X132506271Y-69525781D01*
X132466611Y-69519500D01*
X132293389Y-69519500D01*
X132253728Y-69525781D01*
X132122302Y-69546597D01*
X131957552Y-69600128D01*
X131803211Y-69678768D01*
X131723256Y-69736859D01*
X131663072Y-69780586D01*
X131663070Y-69780588D01*
X131663069Y-69780588D01*
X131540588Y-69903069D01*
X131540588Y-69903070D01*
X131540586Y-69903072D01*
X131506854Y-69949500D01*
X131438768Y-70043211D01*
X131360128Y-70197552D01*
X131306597Y-70362302D01*
X131294210Y-70440511D01*
X131279500Y-70533389D01*
X130375500Y-70533389D01*
X130375500Y-70450564D01*
X130375500Y-67993389D01*
X131279500Y-67993389D01*
X131279500Y-68166611D01*
X131306598Y-68337701D01*
X131360127Y-68502445D01*
X131438768Y-68656788D01*
X131540586Y-68796928D01*
X131663072Y-68919414D01*
X131803212Y-69021232D01*
X131957555Y-69099873D01*
X132122299Y-69153402D01*
X132293389Y-69180500D01*
X132293390Y-69180500D01*
X132466610Y-69180500D01*
X132466611Y-69180500D01*
X132637701Y-69153402D01*
X132802445Y-69099873D01*
X132956788Y-69021232D01*
X133096928Y-68919414D01*
X133219414Y-68796928D01*
X133321232Y-68656788D01*
X133399873Y-68502445D01*
X133453402Y-68337701D01*
X133480500Y-68166611D01*
X133480500Y-67993389D01*
X133453402Y-67822299D01*
X133399873Y-67657555D01*
X133321232Y-67503212D01*
X133219414Y-67363072D01*
X133096928Y-67240586D01*
X132956788Y-67138768D01*
X132802445Y-67060127D01*
X132637701Y-67006598D01*
X132637699Y-67006597D01*
X132637698Y-67006597D01*
X132506271Y-66985781D01*
X132466611Y-66979500D01*
X132293389Y-66979500D01*
X132253728Y-66985781D01*
X132122302Y-67006597D01*
X131957552Y-67060128D01*
X131803211Y-67138768D01*
X131723256Y-67196859D01*
X131663072Y-67240586D01*
X131663070Y-67240588D01*
X131663069Y-67240588D01*
X131540588Y-67363069D01*
X131540588Y-67363070D01*
X131540586Y-67363072D01*
X131496859Y-67423256D01*
X131438768Y-67503211D01*
X131360128Y-67657552D01*
X131306597Y-67822302D01*
X131279500Y-67993389D01*
X130375500Y-67993389D01*
X130375500Y-65586898D01*
X130395185Y-65519859D01*
X130411814Y-65499222D01*
X130457647Y-65453389D01*
X131279500Y-65453389D01*
X131279500Y-65626611D01*
X131306598Y-65797701D01*
X131360127Y-65962445D01*
X131438768Y-66116788D01*
X131540586Y-66256928D01*
X131663072Y-66379414D01*
X131803212Y-66481232D01*
X131957555Y-66559873D01*
X132122299Y-66613402D01*
X132293389Y-66640500D01*
X132293390Y-66640500D01*
X132466610Y-66640500D01*
X132466611Y-66640500D01*
X132637701Y-66613402D01*
X132802445Y-66559873D01*
X132956788Y-66481232D01*
X133096928Y-66379414D01*
X133219414Y-66256928D01*
X133321232Y-66116788D01*
X133399873Y-65962445D01*
X133453402Y-65797701D01*
X133480500Y-65626611D01*
X133480500Y-65453389D01*
X146519500Y-65453389D01*
X146519500Y-65626611D01*
X146546598Y-65797701D01*
X146600127Y-65962445D01*
X146678768Y-66116788D01*
X146780586Y-66256928D01*
X146903072Y-66379414D01*
X147043212Y-66481232D01*
X147197555Y-66559873D01*
X147362299Y-66613402D01*
X147533389Y-66640500D01*
X147533390Y-66640500D01*
X147706610Y-66640500D01*
X147706611Y-66640500D01*
X147877701Y-66613402D01*
X148042445Y-66559873D01*
X148196788Y-66481232D01*
X148336928Y-66379414D01*
X148459414Y-66256928D01*
X148561232Y-66116788D01*
X148639873Y-65962445D01*
X148693402Y-65797701D01*
X148720500Y-65626611D01*
X148720500Y-65453389D01*
X148693402Y-65282299D01*
X148639873Y-65117555D01*
X148561232Y-64963212D01*
X148459414Y-64823072D01*
X148336928Y-64700586D01*
X148196788Y-64598768D01*
X148145179Y-64572472D01*
X148061593Y-64529883D01*
X148061591Y-64529881D01*
X148042450Y-64520129D01*
X148042447Y-64520128D01*
X148042445Y-64520127D01*
X147877701Y-64466598D01*
X147877699Y-64466597D01*
X147877698Y-64466597D01*
X147746271Y-64445781D01*
X147706611Y-64439500D01*
X147533389Y-64439500D01*
X147493728Y-64445781D01*
X147362302Y-64466597D01*
X147197552Y-64520128D01*
X147043211Y-64598768D01*
X146963256Y-64656859D01*
X146903072Y-64700586D01*
X146903070Y-64700588D01*
X146903069Y-64700588D01*
X146780588Y-64823069D01*
X146780588Y-64823070D01*
X146780586Y-64823072D01*
X146769728Y-64838017D01*
X146678768Y-64963211D01*
X146600128Y-65117552D01*
X146546597Y-65282302D01*
X146538953Y-65330565D01*
X146519500Y-65453389D01*
X133480500Y-65453389D01*
X133453402Y-65282299D01*
X133399873Y-65117555D01*
X133321232Y-64963212D01*
X133219414Y-64823072D01*
X133096928Y-64700586D01*
X132956788Y-64598768D01*
X132821592Y-64529883D01*
X132802447Y-64520128D01*
X132802446Y-64520127D01*
X132802445Y-64520127D01*
X132637701Y-64466598D01*
X132637699Y-64466597D01*
X132637698Y-64466597D01*
X132506271Y-64445781D01*
X132466611Y-64439500D01*
X132293389Y-64439500D01*
X132253728Y-64445781D01*
X132122302Y-64466597D01*
X131957552Y-64520128D01*
X131803211Y-64598768D01*
X131723256Y-64656859D01*
X131663072Y-64700586D01*
X131663070Y-64700588D01*
X131663069Y-64700588D01*
X131540588Y-64823069D01*
X131540588Y-64823070D01*
X131540586Y-64823072D01*
X131529728Y-64838017D01*
X131438768Y-64963211D01*
X131360128Y-65117552D01*
X131306597Y-65282302D01*
X131298953Y-65330565D01*
X131279500Y-65453389D01*
X130457647Y-65453389D01*
X131483510Y-64427525D01*
X150949500Y-64427525D01*
X150949500Y-64572475D01*
X150983828Y-64700586D01*
X150987017Y-64712488D01*
X151059488Y-64838011D01*
X151059493Y-64838017D01*
X151088181Y-64866705D01*
X151121666Y-64928028D01*
X151124500Y-64954386D01*
X151124500Y-69545614D01*
X151104815Y-69612653D01*
X151088181Y-69633295D01*
X151059493Y-69661982D01*
X151059488Y-69661988D01*
X150987017Y-69787511D01*
X150987016Y-69787515D01*
X150949500Y-69927525D01*
X150949500Y-70072475D01*
X150987016Y-70212485D01*
X150987017Y-70212488D01*
X151059488Y-70338011D01*
X151059490Y-70338013D01*
X151059491Y-70338015D01*
X151161985Y-70440509D01*
X151161986Y-70440510D01*
X151161988Y-70440511D01*
X151287511Y-70512982D01*
X151287512Y-70512982D01*
X151287515Y-70512984D01*
X151427525Y-70550500D01*
X151427528Y-70550500D01*
X151572472Y-70550500D01*
X151572475Y-70550500D01*
X151712485Y-70512984D01*
X151838015Y-70440509D01*
X151940509Y-70338015D01*
X152012984Y-70212485D01*
X152050500Y-70072475D01*
X152050500Y-69927525D01*
X152012984Y-69787515D01*
X151940509Y-69661985D01*
X151911819Y-69633295D01*
X151878334Y-69571972D01*
X151875500Y-69545614D01*
X151875500Y-64954386D01*
X151895185Y-64887347D01*
X151911819Y-64866705D01*
X151940509Y-64838015D01*
X152012984Y-64712485D01*
X152050500Y-64572475D01*
X152050500Y-64427525D01*
X152012984Y-64287515D01*
X151951222Y-64180541D01*
X151940511Y-64161988D01*
X151940506Y-64161982D01*
X151838017Y-64059493D01*
X151838011Y-64059488D01*
X151712488Y-63987017D01*
X151712489Y-63987017D01*
X151701006Y-63983940D01*
X151572475Y-63949500D01*
X151427525Y-63949500D01*
X151298993Y-63983940D01*
X151287511Y-63987017D01*
X151161988Y-64059488D01*
X151161982Y-64059493D01*
X151059493Y-64161982D01*
X151059488Y-64161988D01*
X150987017Y-64287511D01*
X150987016Y-64287515D01*
X150949500Y-64427525D01*
X131483510Y-64427525D01*
X131853715Y-64057320D01*
X131915036Y-64023837D01*
X131979710Y-64027071D01*
X132122299Y-64073402D01*
X132293389Y-64100500D01*
X132293390Y-64100500D01*
X132466610Y-64100500D01*
X132466611Y-64100500D01*
X132637701Y-64073402D01*
X132802445Y-64019873D01*
X132956788Y-63941232D01*
X133096928Y-63839414D01*
X133219414Y-63716928D01*
X133321232Y-63576788D01*
X133399873Y-63422445D01*
X133453402Y-63257701D01*
X133480500Y-63086611D01*
X133480500Y-62913389D01*
X146519500Y-62913389D01*
X146519500Y-63086610D01*
X146540537Y-63219438D01*
X146546598Y-63257701D01*
X146600127Y-63422445D01*
X146678768Y-63576788D01*
X146780586Y-63716928D01*
X146903072Y-63839414D01*
X147043212Y-63941232D01*
X147197555Y-64019873D01*
X147362299Y-64073402D01*
X147533389Y-64100500D01*
X147533390Y-64100500D01*
X147706610Y-64100500D01*
X147706611Y-64100500D01*
X147877701Y-64073402D01*
X148042445Y-64019873D01*
X148196788Y-63941232D01*
X148336928Y-63839414D01*
X148459414Y-63716928D01*
X148561232Y-63576788D01*
X148639873Y-63422445D01*
X148693402Y-63257701D01*
X148720500Y-63086611D01*
X148720500Y-62913389D01*
X148693402Y-62742299D01*
X148639873Y-62577555D01*
X148561232Y-62423212D01*
X148459414Y-62283072D01*
X148336928Y-62160586D01*
X148196788Y-62058768D01*
X148042445Y-61980127D01*
X147877701Y-61926598D01*
X147877699Y-61926597D01*
X147877698Y-61926597D01*
X147746271Y-61905781D01*
X147706611Y-61899500D01*
X147533389Y-61899500D01*
X147493728Y-61905781D01*
X147362302Y-61926597D01*
X147362299Y-61926598D01*
X147221946Y-61972202D01*
X147197552Y-61980128D01*
X147043211Y-62058768D01*
X146963256Y-62116859D01*
X146903072Y-62160586D01*
X146903070Y-62160588D01*
X146903069Y-62160588D01*
X146780588Y-62283069D01*
X146780588Y-62283070D01*
X146780586Y-62283072D01*
X146736859Y-62343256D01*
X146678768Y-62423211D01*
X146600128Y-62577552D01*
X146546597Y-62742302D01*
X146519500Y-62913389D01*
X133480500Y-62913389D01*
X133453402Y-62742299D01*
X133399873Y-62577555D01*
X133321232Y-62423212D01*
X133219414Y-62283072D01*
X133096928Y-62160586D01*
X132956788Y-62058768D01*
X132802445Y-61980127D01*
X132637701Y-61926598D01*
X132637699Y-61926597D01*
X132637698Y-61926597D01*
X132506271Y-61905781D01*
X132466611Y-61899500D01*
X132293389Y-61899500D01*
X132253728Y-61905781D01*
X132122302Y-61926597D01*
X132122299Y-61926598D01*
X131981946Y-61972202D01*
X131957552Y-61980128D01*
X131803211Y-62058768D01*
X131723256Y-62116859D01*
X131663072Y-62160586D01*
X131663070Y-62160588D01*
X131663069Y-62160588D01*
X131540588Y-62283069D01*
X131540588Y-62283070D01*
X131540586Y-62283072D01*
X131496859Y-62343256D01*
X131438768Y-62423211D01*
X131360128Y-62577552D01*
X131306597Y-62742302D01*
X131279500Y-62913389D01*
X131279500Y-63086610D01*
X131306597Y-63257697D01*
X131352927Y-63400285D01*
X131354922Y-63470126D01*
X131322677Y-63526284D01*
X129769438Y-65079525D01*
X129699527Y-65149435D01*
X129650091Y-65235060D01*
X129650090Y-65235064D01*
X129627041Y-65321083D01*
X129627040Y-65321087D01*
X129624500Y-65330564D01*
X129624500Y-70293101D01*
X129604815Y-70360140D01*
X129588181Y-70380782D01*
X129189064Y-70779898D01*
X129127741Y-70813383D01*
X129058049Y-70808399D01*
X129002116Y-70766527D01*
X128977699Y-70701063D01*
X128981608Y-70660126D01*
X129005095Y-70572475D01*
X129005095Y-70427525D01*
X128967579Y-70287515D01*
X128924260Y-70212485D01*
X128895106Y-70161988D01*
X128895101Y-70161982D01*
X128792612Y-70059493D01*
X128792606Y-70059488D01*
X128667083Y-69987017D01*
X128667084Y-69987017D01*
X128655601Y-69983940D01*
X128527070Y-69949500D01*
X128382120Y-69949500D01*
X128253588Y-69983940D01*
X128242106Y-69987017D01*
X128116583Y-70059488D01*
X128116577Y-70059493D01*
X128087890Y-70088181D01*
X128026567Y-70121666D01*
X128000209Y-70124500D01*
X118954386Y-70124500D01*
X118887347Y-70104815D01*
X118866705Y-70088181D01*
X118838017Y-70059493D01*
X118838011Y-70059488D01*
X118712488Y-69987017D01*
X118712489Y-69987017D01*
X118701006Y-69983940D01*
X118572475Y-69949500D01*
X118427525Y-69949500D01*
X118298993Y-69983940D01*
X118287511Y-69987017D01*
X118161988Y-70059488D01*
X118161982Y-70059493D01*
X118059493Y-70161982D01*
X118059488Y-70161988D01*
X117987017Y-70287511D01*
X117987016Y-70287515D01*
X117949500Y-70427525D01*
X108300500Y-70427525D01*
X108300500Y-62275227D01*
X118101798Y-62275227D01*
X118101798Y-62420177D01*
X118139314Y-62560187D01*
X118139315Y-62560190D01*
X118211786Y-62685713D01*
X118211788Y-62685715D01*
X118211789Y-62685717D01*
X118314283Y-62788211D01*
X118314284Y-62788212D01*
X118314286Y-62788213D01*
X118439809Y-62860684D01*
X118439810Y-62860684D01*
X118439813Y-62860686D01*
X118579823Y-62898202D01*
X118579826Y-62898202D01*
X118724770Y-62898202D01*
X118724773Y-62898202D01*
X118864783Y-62860686D01*
X118990313Y-62788211D01*
X119019003Y-62759521D01*
X119080326Y-62726036D01*
X119106684Y-62723202D01*
X120197912Y-62723202D01*
X120264951Y-62742887D01*
X120285593Y-62759521D01*
X120314283Y-62788211D01*
X120314284Y-62788212D01*
X120314286Y-62788213D01*
X120439809Y-62860684D01*
X120439810Y-62860684D01*
X120439813Y-62860686D01*
X120579823Y-62898202D01*
X120579826Y-62898202D01*
X120724770Y-62898202D01*
X120724773Y-62898202D01*
X120864783Y-62860686D01*
X120990313Y-62788211D01*
X121092807Y-62685717D01*
X121165282Y-62560187D01*
X121202798Y-62420177D01*
X121202798Y-62275227D01*
X121165282Y-62135217D01*
X121092807Y-62009687D01*
X120990313Y-61907193D01*
X120990311Y-61907192D01*
X120990309Y-61907190D01*
X120864786Y-61834719D01*
X120864787Y-61834719D01*
X120853304Y-61831642D01*
X120724773Y-61797202D01*
X120579823Y-61797202D01*
X120451291Y-61831642D01*
X120439809Y-61834719D01*
X120314286Y-61907190D01*
X120314280Y-61907195D01*
X120285593Y-61935883D01*
X120224270Y-61969368D01*
X120197912Y-61972202D01*
X119106684Y-61972202D01*
X119039645Y-61952517D01*
X119019003Y-61935883D01*
X118990315Y-61907195D01*
X118990309Y-61907190D01*
X118864786Y-61834719D01*
X118864787Y-61834719D01*
X118853304Y-61831642D01*
X118724773Y-61797202D01*
X118579823Y-61797202D01*
X118451291Y-61831642D01*
X118439809Y-61834719D01*
X118314286Y-61907190D01*
X118314280Y-61907195D01*
X118211791Y-62009684D01*
X118211786Y-62009690D01*
X118139315Y-62135213D01*
X118139314Y-62135217D01*
X118101798Y-62275227D01*
X108300500Y-62275227D01*
X108300500Y-60373389D01*
X131279500Y-60373389D01*
X131279500Y-60546611D01*
X131306598Y-60717701D01*
X131360127Y-60882445D01*
X131438768Y-61036788D01*
X131540586Y-61176928D01*
X131663072Y-61299414D01*
X131803212Y-61401232D01*
X131957555Y-61479873D01*
X132122299Y-61533402D01*
X132293389Y-61560500D01*
X132293390Y-61560500D01*
X132466610Y-61560500D01*
X132466611Y-61560500D01*
X132637701Y-61533402D01*
X132802445Y-61479873D01*
X132956788Y-61401232D01*
X133096928Y-61299414D01*
X133219414Y-61176928D01*
X133321232Y-61036788D01*
X133399873Y-60882445D01*
X133453402Y-60717701D01*
X133480500Y-60546611D01*
X133480500Y-60373389D01*
X133453402Y-60202299D01*
X133399873Y-60037555D01*
X133321232Y-59883212D01*
X133219414Y-59743072D01*
X133096928Y-59620586D01*
X132956788Y-59518768D01*
X132802445Y-59440127D01*
X132637701Y-59386598D01*
X132637699Y-59386597D01*
X132637698Y-59386597D01*
X132506271Y-59365781D01*
X132466611Y-59359500D01*
X132293389Y-59359500D01*
X132253728Y-59365781D01*
X132122302Y-59386597D01*
X132122299Y-59386598D01*
X131962923Y-59438383D01*
X131957552Y-59440128D01*
X131803211Y-59518768D01*
X131750839Y-59556819D01*
X131663072Y-59620586D01*
X131663070Y-59620588D01*
X131663069Y-59620588D01*
X131540588Y-59743069D01*
X131540588Y-59743070D01*
X131540586Y-59743072D01*
X131496859Y-59803256D01*
X131438768Y-59883211D01*
X131360128Y-60037552D01*
X131306597Y-60202302D01*
X131279500Y-60373389D01*
X108300500Y-60373389D01*
X108300500Y-59019808D01*
X108320185Y-58952769D01*
X108372989Y-58907014D01*
X108442147Y-58897070D01*
X108505703Y-58926095D01*
X108512181Y-58932127D01*
X108585327Y-59005273D01*
X108585331Y-59005276D01*
X108691866Y-59076461D01*
X108691872Y-59076464D01*
X108691873Y-59076465D01*
X108810256Y-59125501D01*
X108810260Y-59125501D01*
X108810261Y-59125502D01*
X108935928Y-59150500D01*
X108935931Y-59150500D01*
X114564071Y-59150500D01*
X114648615Y-59133682D01*
X114689744Y-59125501D01*
X114808127Y-59076465D01*
X114914669Y-59005276D01*
X115005276Y-58914669D01*
X115076465Y-58808127D01*
X115125501Y-58689744D01*
X115150500Y-58564069D01*
X115150500Y-58435931D01*
X115150500Y-58435928D01*
X115125502Y-58310261D01*
X115125501Y-58310260D01*
X115125501Y-58310256D01*
X115076465Y-58191873D01*
X115076464Y-58191872D01*
X115076461Y-58191866D01*
X115005276Y-58085331D01*
X115005273Y-58085327D01*
X114914672Y-57994726D01*
X114914668Y-57994723D01*
X114820227Y-57931619D01*
X114808131Y-57923537D01*
X114808124Y-57923533D01*
X114689744Y-57874499D01*
X114689738Y-57874497D01*
X114564071Y-57849500D01*
X114564069Y-57849500D01*
X108935931Y-57849500D01*
X108935929Y-57849500D01*
X108810261Y-57874497D01*
X108810255Y-57874499D01*
X108691875Y-57923533D01*
X108691866Y-57923538D01*
X108585331Y-57994723D01*
X108585327Y-57994726D01*
X108512181Y-58067873D01*
X108450858Y-58101358D01*
X108381166Y-58096374D01*
X108325233Y-58054502D01*
X108300816Y-57989038D01*
X108300500Y-57980192D01*
X108300500Y-57833389D01*
X131279500Y-57833389D01*
X131279500Y-58006611D01*
X131306598Y-58177701D01*
X131360127Y-58342445D01*
X131438768Y-58496788D01*
X131540586Y-58636928D01*
X131663072Y-58759414D01*
X131803212Y-58861232D01*
X131957555Y-58939873D01*
X132122299Y-58993402D01*
X132293389Y-59020500D01*
X132293390Y-59020500D01*
X132466610Y-59020500D01*
X132466611Y-59020500D01*
X132637701Y-58993402D01*
X132802445Y-58939873D01*
X132956788Y-58861232D01*
X133096928Y-58759414D01*
X133219414Y-58636928D01*
X133321232Y-58496788D01*
X133399873Y-58342445D01*
X133453402Y-58177701D01*
X133480500Y-58006611D01*
X133480500Y-57833389D01*
X133454622Y-57670000D01*
X146292769Y-57670000D01*
X147186988Y-57670000D01*
X147154075Y-57727007D01*
X147120000Y-57854174D01*
X147120000Y-57985826D01*
X147154075Y-58112993D01*
X147186988Y-58170000D01*
X146292769Y-58170000D01*
X146303242Y-58236126D01*
X146303242Y-58236129D01*
X146368904Y-58438217D01*
X146465379Y-58627557D01*
X146590272Y-58799459D01*
X146590276Y-58799464D01*
X146740535Y-58949723D01*
X146740540Y-58949727D01*
X146912442Y-59074620D01*
X147101784Y-59171096D01*
X147200711Y-59203239D01*
X147258387Y-59242676D01*
X147285586Y-59307034D01*
X147273672Y-59375881D01*
X147226428Y-59427357D01*
X147200722Y-59439097D01*
X147199522Y-59439487D01*
X147197550Y-59440128D01*
X147043211Y-59518768D01*
X146990839Y-59556819D01*
X146903072Y-59620586D01*
X146903070Y-59620588D01*
X146903069Y-59620588D01*
X146780588Y-59743069D01*
X146780588Y-59743070D01*
X146780586Y-59743072D01*
X146736859Y-59803256D01*
X146678768Y-59883211D01*
X146600128Y-60037552D01*
X146546597Y-60202302D01*
X146519500Y-60373389D01*
X146519500Y-60546611D01*
X146546598Y-60717701D01*
X146600127Y-60882445D01*
X146678768Y-61036788D01*
X146780586Y-61176928D01*
X146903072Y-61299414D01*
X147043212Y-61401232D01*
X147197555Y-61479873D01*
X147362299Y-61533402D01*
X147533389Y-61560500D01*
X147533390Y-61560500D01*
X147706610Y-61560500D01*
X147706611Y-61560500D01*
X147877701Y-61533402D01*
X148042445Y-61479873D01*
X148196788Y-61401232D01*
X148336928Y-61299414D01*
X148459414Y-61176928D01*
X148561232Y-61036788D01*
X148639873Y-60882445D01*
X148693402Y-60717701D01*
X148720500Y-60546611D01*
X148720500Y-60373389D01*
X148693402Y-60202299D01*
X148639873Y-60037555D01*
X148561232Y-59883212D01*
X148459414Y-59743072D01*
X148336928Y-59620586D01*
X148196788Y-59518768D01*
X148042446Y-59440127D01*
X148039284Y-59439100D01*
X148038236Y-59438383D01*
X148037952Y-59438266D01*
X148037976Y-59438206D01*
X147981609Y-59399661D01*
X147954413Y-59335302D01*
X147966329Y-59266456D01*
X148013574Y-59214981D01*
X148039288Y-59203239D01*
X148138215Y-59171096D01*
X148327557Y-59074620D01*
X148499459Y-58949727D01*
X148499464Y-58949723D01*
X148649723Y-58799464D01*
X148649727Y-58799459D01*
X148774620Y-58627557D01*
X148871095Y-58438217D01*
X148936757Y-58236129D01*
X148936757Y-58236126D01*
X148947231Y-58170000D01*
X148053012Y-58170000D01*
X148085925Y-58112993D01*
X148120000Y-57985826D01*
X148120000Y-57854174D01*
X148085925Y-57727007D01*
X148053012Y-57670000D01*
X148947231Y-57670000D01*
X148936757Y-57603873D01*
X148936757Y-57603870D01*
X148871095Y-57401782D01*
X148774620Y-57212442D01*
X148649727Y-57040540D01*
X148649723Y-57040535D01*
X148499464Y-56890276D01*
X148499459Y-56890272D01*
X148327557Y-56765379D01*
X148138217Y-56668904D01*
X148039287Y-56636760D01*
X147981611Y-56597323D01*
X147954413Y-56532964D01*
X147966328Y-56464118D01*
X148013572Y-56412642D01*
X148039290Y-56400897D01*
X148042445Y-56399873D01*
X148196788Y-56321232D01*
X148336928Y-56219414D01*
X148459414Y-56096928D01*
X148561232Y-55956788D01*
X148639873Y-55802445D01*
X148693402Y-55637701D01*
X148720500Y-55466611D01*
X148720500Y-55293389D01*
X148693402Y-55122299D01*
X148639873Y-54957555D01*
X148561232Y-54803212D01*
X148459414Y-54663072D01*
X148336928Y-54540586D01*
X148196788Y-54438768D01*
X148042445Y-54360127D01*
X147877701Y-54306598D01*
X147877699Y-54306597D01*
X147877698Y-54306597D01*
X147746271Y-54285781D01*
X147706611Y-54279500D01*
X147533389Y-54279500D01*
X147493728Y-54285781D01*
X147362302Y-54306597D01*
X147197552Y-54360128D01*
X147043211Y-54438768D01*
X146963256Y-54496859D01*
X146903072Y-54540586D01*
X146903070Y-54540588D01*
X146903069Y-54540588D01*
X146780588Y-54663069D01*
X146780588Y-54663070D01*
X146780586Y-54663072D01*
X146736859Y-54723256D01*
X146678768Y-54803211D01*
X146600128Y-54957552D01*
X146546597Y-55122302D01*
X146519500Y-55293389D01*
X146519500Y-55466611D01*
X146546598Y-55637701D01*
X146600127Y-55802445D01*
X146678768Y-55956788D01*
X146780586Y-56096928D01*
X146903072Y-56219414D01*
X147043212Y-56321232D01*
X147197555Y-56399873D01*
X147200708Y-56400897D01*
X147201752Y-56401611D01*
X147202048Y-56401734D01*
X147202022Y-56401795D01*
X147258383Y-56440330D01*
X147285585Y-56504688D01*
X147273674Y-56573535D01*
X147226433Y-56625013D01*
X147200712Y-56636760D01*
X147101783Y-56668904D01*
X146912442Y-56765379D01*
X146740540Y-56890272D01*
X146740535Y-56890276D01*
X146590276Y-57040535D01*
X146590272Y-57040540D01*
X146465379Y-57212442D01*
X146368904Y-57401782D01*
X146303242Y-57603870D01*
X146303242Y-57603873D01*
X146292769Y-57670000D01*
X133454622Y-57670000D01*
X133453402Y-57662299D01*
X133399873Y-57497555D01*
X133321232Y-57343212D01*
X133219414Y-57203072D01*
X133096928Y-57080586D01*
X132956788Y-56978768D01*
X132802445Y-56900127D01*
X132637701Y-56846598D01*
X132637699Y-56846597D01*
X132637698Y-56846597D01*
X132506271Y-56825781D01*
X132466611Y-56819500D01*
X132293389Y-56819500D01*
X132253728Y-56825781D01*
X132122302Y-56846597D01*
X131957552Y-56900128D01*
X131803211Y-56978768D01*
X131723256Y-57036859D01*
X131663072Y-57080586D01*
X131663070Y-57080588D01*
X131663069Y-57080588D01*
X131540588Y-57203069D01*
X131540588Y-57203070D01*
X131540586Y-57203072D01*
X131533747Y-57212485D01*
X131438768Y-57343211D01*
X131360128Y-57497552D01*
X131306597Y-57662302D01*
X131296435Y-57726466D01*
X131279500Y-57833389D01*
X108300500Y-57833389D01*
X108300500Y-54505321D01*
X131279500Y-54505321D01*
X131279500Y-56254678D01*
X131294032Y-56327735D01*
X131294033Y-56327739D01*
X131312405Y-56355235D01*
X131349399Y-56410601D01*
X131428480Y-56463440D01*
X131432260Y-56465966D01*
X131432264Y-56465967D01*
X131505321Y-56480499D01*
X131505324Y-56480500D01*
X131505326Y-56480500D01*
X133254676Y-56480500D01*
X133254677Y-56480499D01*
X133327740Y-56465966D01*
X133410601Y-56410601D01*
X133465966Y-56327740D01*
X133480500Y-56254674D01*
X133480500Y-54505326D01*
X133480500Y-54505323D01*
X133480499Y-54505321D01*
X133465967Y-54432264D01*
X133465966Y-54432260D01*
X133446431Y-54403024D01*
X133410601Y-54349399D01*
X133327740Y-54294034D01*
X133327739Y-54294033D01*
X133327735Y-54294032D01*
X133254677Y-54279500D01*
X133254674Y-54279500D01*
X131505326Y-54279500D01*
X131505323Y-54279500D01*
X131432264Y-54294032D01*
X131432260Y-54294033D01*
X131349399Y-54349399D01*
X131294033Y-54432260D01*
X131294032Y-54432264D01*
X131279500Y-54505321D01*
X108300500Y-54505321D01*
X108300500Y-52424500D01*
X108320185Y-52357461D01*
X108372989Y-52311706D01*
X108424500Y-52300500D01*
X170073502Y-52300500D01*
X170140541Y-52320185D01*
G37*
%TD.AperFunction*%
%TD*%
M02*
