%TF.GenerationSoftware,KiCad,Pcbnew,10.0.6*%
%TF.CreationDate,2026-09-04T21:46:34-07:00*%
%TF.ProjectId,pn5180_carrier,706e3531-3830-45f6-9361-72726965722e,rev?*%
%TF.SameCoordinates,Original*%
%TF.FileFunction,Legend,Top*%
%TF.FilePolarity,Positive*%
%FSLAX46Y46*%
G04 Gerber Fmt 4.6, Leading zero omitted, Abs format (unit mm)*
G04 Created by KiCad (PCBNEW 10.0.6) date 2026-09-04 21:46:34*
%MOMM*%
%LPD*%
G01*
G04 APERTURE LIST*
%ADD10C,0.100000*%
%ADD11C,0.150000*%
%ADD12C,0.120000*%
G04 APERTURE END LIST*
D10*
X121803884Y-149762475D02*
X121803884Y-148762475D01*
X121803884Y-148762475D02*
X122375312Y-149762475D01*
X122375312Y-149762475D02*
X122375312Y-148762475D01*
X123184836Y-149238665D02*
X122851503Y-149238665D01*
X122851503Y-149762475D02*
X122851503Y-148762475D01*
X122851503Y-148762475D02*
X123327693Y-148762475D01*
X124280074Y-149667236D02*
X124232455Y-149714856D01*
X124232455Y-149714856D02*
X124089598Y-149762475D01*
X124089598Y-149762475D02*
X123994360Y-149762475D01*
X123994360Y-149762475D02*
X123851503Y-149714856D01*
X123851503Y-149714856D02*
X123756265Y-149619617D01*
X123756265Y-149619617D02*
X123708646Y-149524379D01*
X123708646Y-149524379D02*
X123661027Y-149333903D01*
X123661027Y-149333903D02*
X123661027Y-149191046D01*
X123661027Y-149191046D02*
X123708646Y-149000570D01*
X123708646Y-149000570D02*
X123756265Y-148905332D01*
X123756265Y-148905332D02*
X123851503Y-148810094D01*
X123851503Y-148810094D02*
X123994360Y-148762475D01*
X123994360Y-148762475D02*
X124089598Y-148762475D01*
X124089598Y-148762475D02*
X124232455Y-148810094D01*
X124232455Y-148810094D02*
X124280074Y-148857713D01*
X126041979Y-149667236D02*
X125994360Y-149714856D01*
X125994360Y-149714856D02*
X125851503Y-149762475D01*
X125851503Y-149762475D02*
X125756265Y-149762475D01*
X125756265Y-149762475D02*
X125613408Y-149714856D01*
X125613408Y-149714856D02*
X125518170Y-149619617D01*
X125518170Y-149619617D02*
X125470551Y-149524379D01*
X125470551Y-149524379D02*
X125422932Y-149333903D01*
X125422932Y-149333903D02*
X125422932Y-149191046D01*
X125422932Y-149191046D02*
X125470551Y-149000570D01*
X125470551Y-149000570D02*
X125518170Y-148905332D01*
X125518170Y-148905332D02*
X125613408Y-148810094D01*
X125613408Y-148810094D02*
X125756265Y-148762475D01*
X125756265Y-148762475D02*
X125851503Y-148762475D01*
X125851503Y-148762475D02*
X125994360Y-148810094D01*
X125994360Y-148810094D02*
X126041979Y-148857713D01*
X126899122Y-149762475D02*
X126899122Y-149238665D01*
X126899122Y-149238665D02*
X126851503Y-149143427D01*
X126851503Y-149143427D02*
X126756265Y-149095808D01*
X126756265Y-149095808D02*
X126565789Y-149095808D01*
X126565789Y-149095808D02*
X126470551Y-149143427D01*
X126899122Y-149714856D02*
X126803884Y-149762475D01*
X126803884Y-149762475D02*
X126565789Y-149762475D01*
X126565789Y-149762475D02*
X126470551Y-149714856D01*
X126470551Y-149714856D02*
X126422932Y-149619617D01*
X126422932Y-149619617D02*
X126422932Y-149524379D01*
X126422932Y-149524379D02*
X126470551Y-149429141D01*
X126470551Y-149429141D02*
X126565789Y-149381522D01*
X126565789Y-149381522D02*
X126803884Y-149381522D01*
X126803884Y-149381522D02*
X126899122Y-149333903D01*
X127375313Y-149762475D02*
X127375313Y-149095808D01*
X127375313Y-149286284D02*
X127422932Y-149191046D01*
X127422932Y-149191046D02*
X127470551Y-149143427D01*
X127470551Y-149143427D02*
X127565789Y-149095808D01*
X127565789Y-149095808D02*
X127661027Y-149095808D01*
X127994361Y-149762475D02*
X127994361Y-149095808D01*
X127994361Y-149286284D02*
X128041980Y-149191046D01*
X128041980Y-149191046D02*
X128089599Y-149143427D01*
X128089599Y-149143427D02*
X128184837Y-149095808D01*
X128184837Y-149095808D02*
X128280075Y-149095808D01*
X128613409Y-149762475D02*
X128613409Y-149095808D01*
X128613409Y-148762475D02*
X128565790Y-148810094D01*
X128565790Y-148810094D02*
X128613409Y-148857713D01*
X128613409Y-148857713D02*
X128661028Y-148810094D01*
X128661028Y-148810094D02*
X128613409Y-148762475D01*
X128613409Y-148762475D02*
X128613409Y-148857713D01*
X129470551Y-149714856D02*
X129375313Y-149762475D01*
X129375313Y-149762475D02*
X129184837Y-149762475D01*
X129184837Y-149762475D02*
X129089599Y-149714856D01*
X129089599Y-149714856D02*
X129041980Y-149619617D01*
X129041980Y-149619617D02*
X129041980Y-149238665D01*
X129041980Y-149238665D02*
X129089599Y-149143427D01*
X129089599Y-149143427D02*
X129184837Y-149095808D01*
X129184837Y-149095808D02*
X129375313Y-149095808D01*
X129375313Y-149095808D02*
X129470551Y-149143427D01*
X129470551Y-149143427D02*
X129518170Y-149238665D01*
X129518170Y-149238665D02*
X129518170Y-149333903D01*
X129518170Y-149333903D02*
X129041980Y-149429141D01*
X129946742Y-149762475D02*
X129946742Y-149095808D01*
X129946742Y-149286284D02*
X129994361Y-149191046D01*
X129994361Y-149191046D02*
X130041980Y-149143427D01*
X130041980Y-149143427D02*
X130137218Y-149095808D01*
X130137218Y-149095808D02*
X130232456Y-149095808D01*
X131899123Y-149667236D02*
X131851504Y-149714856D01*
X131851504Y-149714856D02*
X131708647Y-149762475D01*
X131708647Y-149762475D02*
X131613409Y-149762475D01*
X131613409Y-149762475D02*
X131470552Y-149714856D01*
X131470552Y-149714856D02*
X131375314Y-149619617D01*
X131375314Y-149619617D02*
X131327695Y-149524379D01*
X131327695Y-149524379D02*
X131280076Y-149333903D01*
X131280076Y-149333903D02*
X131280076Y-149191046D01*
X131280076Y-149191046D02*
X131327695Y-149000570D01*
X131327695Y-149000570D02*
X131375314Y-148905332D01*
X131375314Y-148905332D02*
X131470552Y-148810094D01*
X131470552Y-148810094D02*
X131613409Y-148762475D01*
X131613409Y-148762475D02*
X131708647Y-148762475D01*
X131708647Y-148762475D02*
X131851504Y-148810094D01*
X131851504Y-148810094D02*
X131899123Y-148857713D01*
X132756266Y-149762475D02*
X132756266Y-149238665D01*
X132756266Y-149238665D02*
X132708647Y-149143427D01*
X132708647Y-149143427D02*
X132613409Y-149095808D01*
X132613409Y-149095808D02*
X132422933Y-149095808D01*
X132422933Y-149095808D02*
X132327695Y-149143427D01*
X132756266Y-149714856D02*
X132661028Y-149762475D01*
X132661028Y-149762475D02*
X132422933Y-149762475D01*
X132422933Y-149762475D02*
X132327695Y-149714856D01*
X132327695Y-149714856D02*
X132280076Y-149619617D01*
X132280076Y-149619617D02*
X132280076Y-149524379D01*
X132280076Y-149524379D02*
X132327695Y-149429141D01*
X132327695Y-149429141D02*
X132422933Y-149381522D01*
X132422933Y-149381522D02*
X132661028Y-149381522D01*
X132661028Y-149381522D02*
X132756266Y-149333903D01*
X133232457Y-149762475D02*
X133232457Y-149095808D01*
X133232457Y-149286284D02*
X133280076Y-149191046D01*
X133280076Y-149191046D02*
X133327695Y-149143427D01*
X133327695Y-149143427D02*
X133422933Y-149095808D01*
X133422933Y-149095808D02*
X133518171Y-149095808D01*
X134280076Y-149762475D02*
X134280076Y-148762475D01*
X134280076Y-149714856D02*
X134184838Y-149762475D01*
X134184838Y-149762475D02*
X133994362Y-149762475D01*
X133994362Y-149762475D02*
X133899124Y-149714856D01*
X133899124Y-149714856D02*
X133851505Y-149667236D01*
X133851505Y-149667236D02*
X133803886Y-149571998D01*
X133803886Y-149571998D02*
X133803886Y-149286284D01*
X133803886Y-149286284D02*
X133851505Y-149191046D01*
X133851505Y-149191046D02*
X133899124Y-149143427D01*
X133899124Y-149143427D02*
X133994362Y-149095808D01*
X133994362Y-149095808D02*
X134184838Y-149095808D01*
X134184838Y-149095808D02*
X134280076Y-149143427D01*
X121708646Y-150705752D02*
X121946741Y-151372419D01*
X121946741Y-151372419D02*
X122184836Y-150705752D01*
X123089598Y-151372419D02*
X122518170Y-151372419D01*
X122803884Y-151372419D02*
X122803884Y-150372419D01*
X122803884Y-150372419D02*
X122708646Y-150515276D01*
X122708646Y-150515276D02*
X122613408Y-150610514D01*
X122613408Y-150610514D02*
X122518170Y-150658133D01*
X123518170Y-151277180D02*
X123565789Y-151324800D01*
X123565789Y-151324800D02*
X123518170Y-151372419D01*
X123518170Y-151372419D02*
X123470551Y-151324800D01*
X123470551Y-151324800D02*
X123518170Y-151277180D01*
X123518170Y-151277180D02*
X123518170Y-151372419D01*
X124184836Y-150372419D02*
X124280074Y-150372419D01*
X124280074Y-150372419D02*
X124375312Y-150420038D01*
X124375312Y-150420038D02*
X124422931Y-150467657D01*
X124422931Y-150467657D02*
X124470550Y-150562895D01*
X124470550Y-150562895D02*
X124518169Y-150753371D01*
X124518169Y-150753371D02*
X124518169Y-150991466D01*
X124518169Y-150991466D02*
X124470550Y-151181942D01*
X124470550Y-151181942D02*
X124422931Y-151277180D01*
X124422931Y-151277180D02*
X124375312Y-151324800D01*
X124375312Y-151324800D02*
X124280074Y-151372419D01*
X124280074Y-151372419D02*
X124184836Y-151372419D01*
X124184836Y-151372419D02*
X124089598Y-151324800D01*
X124089598Y-151324800D02*
X124041979Y-151277180D01*
X124041979Y-151277180D02*
X123994360Y-151181942D01*
X123994360Y-151181942D02*
X123946741Y-150991466D01*
X123946741Y-150991466D02*
X123946741Y-150753371D01*
X123946741Y-150753371D02*
X123994360Y-150562895D01*
X123994360Y-150562895D02*
X124041979Y-150467657D01*
X124041979Y-150467657D02*
X124089598Y-150420038D01*
X124089598Y-150420038D02*
X124184836Y-150372419D01*
D11*
X130238095Y-78454819D02*
X130238095Y-79264342D01*
X130238095Y-79264342D02*
X130285714Y-79359580D01*
X130285714Y-79359580D02*
X130333333Y-79407200D01*
X130333333Y-79407200D02*
X130428571Y-79454819D01*
X130428571Y-79454819D02*
X130619047Y-79454819D01*
X130619047Y-79454819D02*
X130714285Y-79407200D01*
X130714285Y-79407200D02*
X130761904Y-79359580D01*
X130761904Y-79359580D02*
X130809523Y-79264342D01*
X130809523Y-79264342D02*
X130809523Y-78454819D01*
X131809523Y-79454819D02*
X131238095Y-79454819D01*
X131523809Y-79454819D02*
X131523809Y-78454819D01*
X131523809Y-78454819D02*
X131428571Y-78597676D01*
X131428571Y-78597676D02*
X131333333Y-78692914D01*
X131333333Y-78692914D02*
X131238095Y-78740533D01*
X147738095Y-78454819D02*
X147738095Y-79264342D01*
X147738095Y-79264342D02*
X147785714Y-79359580D01*
X147785714Y-79359580D02*
X147833333Y-79407200D01*
X147833333Y-79407200D02*
X147928571Y-79454819D01*
X147928571Y-79454819D02*
X148119047Y-79454819D01*
X148119047Y-79454819D02*
X148214285Y-79407200D01*
X148214285Y-79407200D02*
X148261904Y-79359580D01*
X148261904Y-79359580D02*
X148309523Y-79264342D01*
X148309523Y-79264342D02*
X148309523Y-78454819D01*
X148738095Y-78550057D02*
X148785714Y-78502438D01*
X148785714Y-78502438D02*
X148880952Y-78454819D01*
X148880952Y-78454819D02*
X149119047Y-78454819D01*
X149119047Y-78454819D02*
X149214285Y-78502438D01*
X149214285Y-78502438D02*
X149261904Y-78550057D01*
X149261904Y-78550057D02*
X149309523Y-78645295D01*
X149309523Y-78645295D02*
X149309523Y-78740533D01*
X149309523Y-78740533D02*
X149261904Y-78883390D01*
X149261904Y-78883390D02*
X148690476Y-79454819D01*
X148690476Y-79454819D02*
X149309523Y-79454819D01*
X121761905Y-140454819D02*
X121761905Y-139454819D01*
X121761905Y-139454819D02*
X122000000Y-139454819D01*
X122000000Y-139454819D02*
X122142857Y-139502438D01*
X122142857Y-139502438D02*
X122238095Y-139597676D01*
X122238095Y-139597676D02*
X122285714Y-139692914D01*
X122285714Y-139692914D02*
X122333333Y-139883390D01*
X122333333Y-139883390D02*
X122333333Y-140026247D01*
X122333333Y-140026247D02*
X122285714Y-140216723D01*
X122285714Y-140216723D02*
X122238095Y-140311961D01*
X122238095Y-140311961D02*
X122142857Y-140407200D01*
X122142857Y-140407200D02*
X122000000Y-140454819D01*
X122000000Y-140454819D02*
X121761905Y-140454819D01*
X122714286Y-139550057D02*
X122761905Y-139502438D01*
X122761905Y-139502438D02*
X122857143Y-139454819D01*
X122857143Y-139454819D02*
X123095238Y-139454819D01*
X123095238Y-139454819D02*
X123190476Y-139502438D01*
X123190476Y-139502438D02*
X123238095Y-139550057D01*
X123238095Y-139550057D02*
X123285714Y-139645295D01*
X123285714Y-139645295D02*
X123285714Y-139740533D01*
X123285714Y-139740533D02*
X123238095Y-139883390D01*
X123238095Y-139883390D02*
X122666667Y-140454819D01*
X122666667Y-140454819D02*
X123285714Y-140454819D01*
X138745833Y-82954819D02*
X138412500Y-82478628D01*
X138174405Y-82954819D02*
X138174405Y-81954819D01*
X138174405Y-81954819D02*
X138555357Y-81954819D01*
X138555357Y-81954819D02*
X138650595Y-82002438D01*
X138650595Y-82002438D02*
X138698214Y-82050057D01*
X138698214Y-82050057D02*
X138745833Y-82145295D01*
X138745833Y-82145295D02*
X138745833Y-82288152D01*
X138745833Y-82288152D02*
X138698214Y-82383390D01*
X138698214Y-82383390D02*
X138650595Y-82431009D01*
X138650595Y-82431009D02*
X138555357Y-82478628D01*
X138555357Y-82478628D02*
X138174405Y-82478628D01*
X139079167Y-81954819D02*
X139698214Y-81954819D01*
X139698214Y-81954819D02*
X139364881Y-82335771D01*
X139364881Y-82335771D02*
X139507738Y-82335771D01*
X139507738Y-82335771D02*
X139602976Y-82383390D01*
X139602976Y-82383390D02*
X139650595Y-82431009D01*
X139650595Y-82431009D02*
X139698214Y-82526247D01*
X139698214Y-82526247D02*
X139698214Y-82764342D01*
X139698214Y-82764342D02*
X139650595Y-82859580D01*
X139650595Y-82859580D02*
X139602976Y-82907200D01*
X139602976Y-82907200D02*
X139507738Y-82954819D01*
X139507738Y-82954819D02*
X139222024Y-82954819D01*
X139222024Y-82954819D02*
X139126786Y-82907200D01*
X139126786Y-82907200D02*
X139079167Y-82859580D01*
X149195833Y-92359580D02*
X149148214Y-92407200D01*
X149148214Y-92407200D02*
X149005357Y-92454819D01*
X149005357Y-92454819D02*
X148910119Y-92454819D01*
X148910119Y-92454819D02*
X148767262Y-92407200D01*
X148767262Y-92407200D02*
X148672024Y-92311961D01*
X148672024Y-92311961D02*
X148624405Y-92216723D01*
X148624405Y-92216723D02*
X148576786Y-92026247D01*
X148576786Y-92026247D02*
X148576786Y-91883390D01*
X148576786Y-91883390D02*
X148624405Y-91692914D01*
X148624405Y-91692914D02*
X148672024Y-91597676D01*
X148672024Y-91597676D02*
X148767262Y-91502438D01*
X148767262Y-91502438D02*
X148910119Y-91454819D01*
X148910119Y-91454819D02*
X149005357Y-91454819D01*
X149005357Y-91454819D02*
X149148214Y-91502438D01*
X149148214Y-91502438D02*
X149195833Y-91550057D01*
X149576786Y-91550057D02*
X149624405Y-91502438D01*
X149624405Y-91502438D02*
X149719643Y-91454819D01*
X149719643Y-91454819D02*
X149957738Y-91454819D01*
X149957738Y-91454819D02*
X150052976Y-91502438D01*
X150052976Y-91502438D02*
X150100595Y-91550057D01*
X150100595Y-91550057D02*
X150148214Y-91645295D01*
X150148214Y-91645295D02*
X150148214Y-91740533D01*
X150148214Y-91740533D02*
X150100595Y-91883390D01*
X150100595Y-91883390D02*
X149529167Y-92454819D01*
X149529167Y-92454819D02*
X150148214Y-92454819D01*
X124833333Y-67954819D02*
X124500000Y-67478628D01*
X124261905Y-67954819D02*
X124261905Y-66954819D01*
X124261905Y-66954819D02*
X124642857Y-66954819D01*
X124642857Y-66954819D02*
X124738095Y-67002438D01*
X124738095Y-67002438D02*
X124785714Y-67050057D01*
X124785714Y-67050057D02*
X124833333Y-67145295D01*
X124833333Y-67145295D02*
X124833333Y-67288152D01*
X124833333Y-67288152D02*
X124785714Y-67383390D01*
X124785714Y-67383390D02*
X124738095Y-67431009D01*
X124738095Y-67431009D02*
X124642857Y-67478628D01*
X124642857Y-67478628D02*
X124261905Y-67478628D01*
X125785714Y-67954819D02*
X125214286Y-67954819D01*
X125500000Y-67954819D02*
X125500000Y-66954819D01*
X125500000Y-66954819D02*
X125404762Y-67097676D01*
X125404762Y-67097676D02*
X125309524Y-67192914D01*
X125309524Y-67192914D02*
X125214286Y-67240533D01*
X134761905Y-138454819D02*
X134761905Y-137454819D01*
X134761905Y-137454819D02*
X135000000Y-137454819D01*
X135000000Y-137454819D02*
X135142857Y-137502438D01*
X135142857Y-137502438D02*
X135238095Y-137597676D01*
X135238095Y-137597676D02*
X135285714Y-137692914D01*
X135285714Y-137692914D02*
X135333333Y-137883390D01*
X135333333Y-137883390D02*
X135333333Y-138026247D01*
X135333333Y-138026247D02*
X135285714Y-138216723D01*
X135285714Y-138216723D02*
X135238095Y-138311961D01*
X135238095Y-138311961D02*
X135142857Y-138407200D01*
X135142857Y-138407200D02*
X135000000Y-138454819D01*
X135000000Y-138454819D02*
X134761905Y-138454819D01*
X135666667Y-137454819D02*
X136285714Y-137454819D01*
X136285714Y-137454819D02*
X135952381Y-137835771D01*
X135952381Y-137835771D02*
X136095238Y-137835771D01*
X136095238Y-137835771D02*
X136190476Y-137883390D01*
X136190476Y-137883390D02*
X136238095Y-137931009D01*
X136238095Y-137931009D02*
X136285714Y-138026247D01*
X136285714Y-138026247D02*
X136285714Y-138264342D01*
X136285714Y-138264342D02*
X136238095Y-138359580D01*
X136238095Y-138359580D02*
X136190476Y-138407200D01*
X136190476Y-138407200D02*
X136095238Y-138454819D01*
X136095238Y-138454819D02*
X135809524Y-138454819D01*
X135809524Y-138454819D02*
X135714286Y-138407200D01*
X135714286Y-138407200D02*
X135666667Y-138359580D01*
X157552023Y-88054819D02*
X157218690Y-87578628D01*
X156980595Y-88054819D02*
X156980595Y-87054819D01*
X156980595Y-87054819D02*
X157361547Y-87054819D01*
X157361547Y-87054819D02*
X157456785Y-87102438D01*
X157456785Y-87102438D02*
X157504404Y-87150057D01*
X157504404Y-87150057D02*
X157552023Y-87245295D01*
X157552023Y-87245295D02*
X157552023Y-87388152D01*
X157552023Y-87388152D02*
X157504404Y-87483390D01*
X157504404Y-87483390D02*
X157456785Y-87531009D01*
X157456785Y-87531009D02*
X157361547Y-87578628D01*
X157361547Y-87578628D02*
X156980595Y-87578628D01*
X157980595Y-88054819D02*
X157980595Y-87054819D01*
X157980595Y-87054819D02*
X158552023Y-88054819D01*
X158552023Y-88054819D02*
X158552023Y-87054819D01*
X159552023Y-88054819D02*
X158980595Y-88054819D01*
X159266309Y-88054819D02*
X159266309Y-87054819D01*
X159266309Y-87054819D02*
X159171071Y-87197676D01*
X159171071Y-87197676D02*
X159075833Y-87292914D01*
X159075833Y-87292914D02*
X158980595Y-87340533D01*
X154420833Y-63454819D02*
X154087500Y-62978628D01*
X153849405Y-63454819D02*
X153849405Y-62454819D01*
X153849405Y-62454819D02*
X154230357Y-62454819D01*
X154230357Y-62454819D02*
X154325595Y-62502438D01*
X154325595Y-62502438D02*
X154373214Y-62550057D01*
X154373214Y-62550057D02*
X154420833Y-62645295D01*
X154420833Y-62645295D02*
X154420833Y-62788152D01*
X154420833Y-62788152D02*
X154373214Y-62883390D01*
X154373214Y-62883390D02*
X154325595Y-62931009D01*
X154325595Y-62931009D02*
X154230357Y-62978628D01*
X154230357Y-62978628D02*
X153849405Y-62978628D01*
X154754167Y-62454819D02*
X155420833Y-62454819D01*
X155420833Y-62454819D02*
X154992262Y-63454819D01*
X139238095Y-62454819D02*
X139238095Y-63264342D01*
X139238095Y-63264342D02*
X139285714Y-63359580D01*
X139285714Y-63359580D02*
X139333333Y-63407200D01*
X139333333Y-63407200D02*
X139428571Y-63454819D01*
X139428571Y-63454819D02*
X139619047Y-63454819D01*
X139619047Y-63454819D02*
X139714285Y-63407200D01*
X139714285Y-63407200D02*
X139761904Y-63359580D01*
X139761904Y-63359580D02*
X139809523Y-63264342D01*
X139809523Y-63264342D02*
X139809523Y-62454819D01*
X140761904Y-62454819D02*
X140285714Y-62454819D01*
X140285714Y-62454819D02*
X140238095Y-62931009D01*
X140238095Y-62931009D02*
X140285714Y-62883390D01*
X140285714Y-62883390D02*
X140380952Y-62835771D01*
X140380952Y-62835771D02*
X140619047Y-62835771D01*
X140619047Y-62835771D02*
X140714285Y-62883390D01*
X140714285Y-62883390D02*
X140761904Y-62931009D01*
X140761904Y-62931009D02*
X140809523Y-63026247D01*
X140809523Y-63026247D02*
X140809523Y-63264342D01*
X140809523Y-63264342D02*
X140761904Y-63359580D01*
X140761904Y-63359580D02*
X140714285Y-63407200D01*
X140714285Y-63407200D02*
X140619047Y-63454819D01*
X140619047Y-63454819D02*
X140380952Y-63454819D01*
X140380952Y-63454819D02*
X140285714Y-63407200D01*
X140285714Y-63407200D02*
X140238095Y-63359580D01*
D10*
X137850001Y-70618633D02*
X138183334Y-70618633D01*
X137783334Y-70818633D02*
X138016668Y-70118633D01*
X138016668Y-70118633D02*
X138250001Y-70818633D01*
X138483334Y-70818633D02*
X138483334Y-70118633D01*
X138483334Y-70118633D02*
X138883334Y-70818633D01*
X138883334Y-70818633D02*
X138883334Y-70118633D01*
X139116667Y-70118633D02*
X139516667Y-70118633D01*
X139316667Y-70818633D02*
X139316667Y-70118633D01*
X139750000Y-70451966D02*
X139983334Y-70451966D01*
X140083334Y-70818633D02*
X139750000Y-70818633D01*
X139750000Y-70818633D02*
X139750000Y-70118633D01*
X139750000Y-70118633D02*
X140083334Y-70118633D01*
X140383333Y-70818633D02*
X140383333Y-70118633D01*
X140383333Y-70118633D02*
X140783333Y-70818633D01*
X140783333Y-70818633D02*
X140783333Y-70118633D01*
X141116666Y-70818633D02*
X141116666Y-70118633D01*
X141116666Y-70118633D02*
X141516666Y-70818633D01*
X141516666Y-70818633D02*
X141516666Y-70118633D01*
X141816666Y-70618633D02*
X142149999Y-70618633D01*
X141749999Y-70818633D02*
X141983333Y-70118633D01*
X141983333Y-70118633D02*
X142216666Y-70818633D01*
D11*
X146708333Y-144359580D02*
X146660714Y-144407200D01*
X146660714Y-144407200D02*
X146517857Y-144454819D01*
X146517857Y-144454819D02*
X146422619Y-144454819D01*
X146422619Y-144454819D02*
X146279762Y-144407200D01*
X146279762Y-144407200D02*
X146184524Y-144311961D01*
X146184524Y-144311961D02*
X146136905Y-144216723D01*
X146136905Y-144216723D02*
X146089286Y-144026247D01*
X146089286Y-144026247D02*
X146089286Y-143883390D01*
X146089286Y-143883390D02*
X146136905Y-143692914D01*
X146136905Y-143692914D02*
X146184524Y-143597676D01*
X146184524Y-143597676D02*
X146279762Y-143502438D01*
X146279762Y-143502438D02*
X146422619Y-143454819D01*
X146422619Y-143454819D02*
X146517857Y-143454819D01*
X146517857Y-143454819D02*
X146660714Y-143502438D01*
X146660714Y-143502438D02*
X146708333Y-143550057D01*
X147184524Y-144454819D02*
X147375000Y-144454819D01*
X147375000Y-144454819D02*
X147470238Y-144407200D01*
X147470238Y-144407200D02*
X147517857Y-144359580D01*
X147517857Y-144359580D02*
X147613095Y-144216723D01*
X147613095Y-144216723D02*
X147660714Y-144026247D01*
X147660714Y-144026247D02*
X147660714Y-143645295D01*
X147660714Y-143645295D02*
X147613095Y-143550057D01*
X147613095Y-143550057D02*
X147565476Y-143502438D01*
X147565476Y-143502438D02*
X147470238Y-143454819D01*
X147470238Y-143454819D02*
X147279762Y-143454819D01*
X147279762Y-143454819D02*
X147184524Y-143502438D01*
X147184524Y-143502438D02*
X147136905Y-143550057D01*
X147136905Y-143550057D02*
X147089286Y-143645295D01*
X147089286Y-143645295D02*
X147089286Y-143883390D01*
X147089286Y-143883390D02*
X147136905Y-143978628D01*
X147136905Y-143978628D02*
X147184524Y-144026247D01*
X147184524Y-144026247D02*
X147279762Y-144073866D01*
X147279762Y-144073866D02*
X147470238Y-144073866D01*
X147470238Y-144073866D02*
X147565476Y-144026247D01*
X147565476Y-144026247D02*
X147613095Y-143978628D01*
X147613095Y-143978628D02*
X147660714Y-143883390D01*
X130121666Y-143931009D02*
X129788333Y-143931009D01*
X129788333Y-144454819D02*
X129788333Y-143454819D01*
X129788333Y-143454819D02*
X130264523Y-143454819D01*
X131169285Y-144454819D02*
X130597857Y-144454819D01*
X130883571Y-144454819D02*
X130883571Y-143454819D01*
X130883571Y-143454819D02*
X130788333Y-143597676D01*
X130788333Y-143597676D02*
X130693095Y-143692914D01*
X130693095Y-143692914D02*
X130597857Y-143740533D01*
X139072976Y-148404819D02*
X139072976Y-149119104D01*
X139072976Y-149119104D02*
X139025357Y-149261961D01*
X139025357Y-149261961D02*
X138930119Y-149357200D01*
X138930119Y-149357200D02*
X138787262Y-149404819D01*
X138787262Y-149404819D02*
X138692024Y-149404819D01*
X140072976Y-149404819D02*
X139501548Y-149404819D01*
X139787262Y-149404819D02*
X139787262Y-148404819D01*
X139787262Y-148404819D02*
X139692024Y-148547676D01*
X139692024Y-148547676D02*
X139596786Y-148642914D01*
X139596786Y-148642914D02*
X139501548Y-148690533D01*
X140692024Y-148404819D02*
X140787262Y-148404819D01*
X140787262Y-148404819D02*
X140882500Y-148452438D01*
X140882500Y-148452438D02*
X140930119Y-148500057D01*
X140930119Y-148500057D02*
X140977738Y-148595295D01*
X140977738Y-148595295D02*
X141025357Y-148785771D01*
X141025357Y-148785771D02*
X141025357Y-149023866D01*
X141025357Y-149023866D02*
X140977738Y-149214342D01*
X140977738Y-149214342D02*
X140930119Y-149309580D01*
X140930119Y-149309580D02*
X140882500Y-149357200D01*
X140882500Y-149357200D02*
X140787262Y-149404819D01*
X140787262Y-149404819D02*
X140692024Y-149404819D01*
X140692024Y-149404819D02*
X140596786Y-149357200D01*
X140596786Y-149357200D02*
X140549167Y-149309580D01*
X140549167Y-149309580D02*
X140501548Y-149214342D01*
X140501548Y-149214342D02*
X140453929Y-149023866D01*
X140453929Y-149023866D02*
X140453929Y-148785771D01*
X140453929Y-148785771D02*
X140501548Y-148595295D01*
X140501548Y-148595295D02*
X140549167Y-148500057D01*
X140549167Y-148500057D02*
X140596786Y-148452438D01*
X140596786Y-148452438D02*
X140692024Y-148404819D01*
X143715833Y-108359580D02*
X143668214Y-108407200D01*
X143668214Y-108407200D02*
X143525357Y-108454819D01*
X143525357Y-108454819D02*
X143430119Y-108454819D01*
X143430119Y-108454819D02*
X143287262Y-108407200D01*
X143287262Y-108407200D02*
X143192024Y-108311961D01*
X143192024Y-108311961D02*
X143144405Y-108216723D01*
X143144405Y-108216723D02*
X143096786Y-108026247D01*
X143096786Y-108026247D02*
X143096786Y-107883390D01*
X143096786Y-107883390D02*
X143144405Y-107692914D01*
X143144405Y-107692914D02*
X143192024Y-107597676D01*
X143192024Y-107597676D02*
X143287262Y-107502438D01*
X143287262Y-107502438D02*
X143430119Y-107454819D01*
X143430119Y-107454819D02*
X143525357Y-107454819D01*
X143525357Y-107454819D02*
X143668214Y-107502438D01*
X143668214Y-107502438D02*
X143715833Y-107550057D01*
X144049167Y-107454819D02*
X144715833Y-107454819D01*
X144715833Y-107454819D02*
X144287262Y-108454819D01*
X129120595Y-124954819D02*
X129120595Y-125764342D01*
X129120595Y-125764342D02*
X129168214Y-125859580D01*
X129168214Y-125859580D02*
X129215833Y-125907200D01*
X129215833Y-125907200D02*
X129311071Y-125954819D01*
X129311071Y-125954819D02*
X129501547Y-125954819D01*
X129501547Y-125954819D02*
X129596785Y-125907200D01*
X129596785Y-125907200D02*
X129644404Y-125859580D01*
X129644404Y-125859580D02*
X129692023Y-125764342D01*
X129692023Y-125764342D02*
X129692023Y-124954819D01*
X130596785Y-124954819D02*
X130406309Y-124954819D01*
X130406309Y-124954819D02*
X130311071Y-125002438D01*
X130311071Y-125002438D02*
X130263452Y-125050057D01*
X130263452Y-125050057D02*
X130168214Y-125192914D01*
X130168214Y-125192914D02*
X130120595Y-125383390D01*
X130120595Y-125383390D02*
X130120595Y-125764342D01*
X130120595Y-125764342D02*
X130168214Y-125859580D01*
X130168214Y-125859580D02*
X130215833Y-125907200D01*
X130215833Y-125907200D02*
X130311071Y-125954819D01*
X130311071Y-125954819D02*
X130501547Y-125954819D01*
X130501547Y-125954819D02*
X130596785Y-125907200D01*
X130596785Y-125907200D02*
X130644404Y-125859580D01*
X130644404Y-125859580D02*
X130692023Y-125764342D01*
X130692023Y-125764342D02*
X130692023Y-125526247D01*
X130692023Y-125526247D02*
X130644404Y-125431009D01*
X130644404Y-125431009D02*
X130596785Y-125383390D01*
X130596785Y-125383390D02*
X130501547Y-125335771D01*
X130501547Y-125335771D02*
X130311071Y-125335771D01*
X130311071Y-125335771D02*
X130215833Y-125383390D01*
X130215833Y-125383390D02*
X130168214Y-125431009D01*
X130168214Y-125431009D02*
X130120595Y-125526247D01*
X133348200Y-116542857D02*
X133348200Y-115857143D01*
X133691057Y-116200000D02*
X133005342Y-116200000D01*
X133348200Y-135142857D02*
X133348200Y-134457143D01*
X133691057Y-134800000D02*
X133005342Y-134800000D01*
D12*
X139082500Y-115763855D02*
X139234881Y-115763855D01*
X139234881Y-115763855D02*
X139311071Y-115801950D01*
X139311071Y-115801950D02*
X139387262Y-115878140D01*
X139387262Y-115878140D02*
X139425357Y-116030521D01*
X139425357Y-116030521D02*
X139425357Y-116297188D01*
X139425357Y-116297188D02*
X139387262Y-116449569D01*
X139387262Y-116449569D02*
X139311071Y-116525760D01*
X139311071Y-116525760D02*
X139234881Y-116563855D01*
X139234881Y-116563855D02*
X139082500Y-116563855D01*
X139082500Y-116563855D02*
X139006309Y-116525760D01*
X139006309Y-116525760D02*
X138930119Y-116449569D01*
X138930119Y-116449569D02*
X138892023Y-116297188D01*
X138892023Y-116297188D02*
X138892023Y-116030521D01*
X138892023Y-116030521D02*
X138930119Y-115878140D01*
X138930119Y-115878140D02*
X139006309Y-115801950D01*
X139006309Y-115801950D02*
X139082500Y-115763855D01*
X139768214Y-115763855D02*
X139768214Y-116411474D01*
X139768214Y-116411474D02*
X139806309Y-116487664D01*
X139806309Y-116487664D02*
X139844404Y-116525760D01*
X139844404Y-116525760D02*
X139920595Y-116563855D01*
X139920595Y-116563855D02*
X140072976Y-116563855D01*
X140072976Y-116563855D02*
X140149166Y-116525760D01*
X140149166Y-116525760D02*
X140187261Y-116487664D01*
X140187261Y-116487664D02*
X140225357Y-116411474D01*
X140225357Y-116411474D02*
X140225357Y-115763855D01*
X140492023Y-115763855D02*
X140949166Y-115763855D01*
X140720594Y-116563855D02*
X140720594Y-115763855D01*
X139463453Y-135163855D02*
X139463453Y-134363855D01*
X139844405Y-135163855D02*
X139844405Y-134363855D01*
X139844405Y-134363855D02*
X140301548Y-135163855D01*
X140301548Y-135163855D02*
X140301548Y-134363855D01*
D11*
X138745833Y-80954819D02*
X138412500Y-80478628D01*
X138174405Y-80954819D02*
X138174405Y-79954819D01*
X138174405Y-79954819D02*
X138555357Y-79954819D01*
X138555357Y-79954819D02*
X138650595Y-80002438D01*
X138650595Y-80002438D02*
X138698214Y-80050057D01*
X138698214Y-80050057D02*
X138745833Y-80145295D01*
X138745833Y-80145295D02*
X138745833Y-80288152D01*
X138745833Y-80288152D02*
X138698214Y-80383390D01*
X138698214Y-80383390D02*
X138650595Y-80431009D01*
X138650595Y-80431009D02*
X138555357Y-80478628D01*
X138555357Y-80478628D02*
X138174405Y-80478628D01*
X139602976Y-80288152D02*
X139602976Y-80954819D01*
X139364881Y-79907200D02*
X139126786Y-80621485D01*
X139126786Y-80621485D02*
X139745833Y-80621485D01*
X143715833Y-112359580D02*
X143668214Y-112407200D01*
X143668214Y-112407200D02*
X143525357Y-112454819D01*
X143525357Y-112454819D02*
X143430119Y-112454819D01*
X143430119Y-112454819D02*
X143287262Y-112407200D01*
X143287262Y-112407200D02*
X143192024Y-112311961D01*
X143192024Y-112311961D02*
X143144405Y-112216723D01*
X143144405Y-112216723D02*
X143096786Y-112026247D01*
X143096786Y-112026247D02*
X143096786Y-111883390D01*
X143096786Y-111883390D02*
X143144405Y-111692914D01*
X143144405Y-111692914D02*
X143192024Y-111597676D01*
X143192024Y-111597676D02*
X143287262Y-111502438D01*
X143287262Y-111502438D02*
X143430119Y-111454819D01*
X143430119Y-111454819D02*
X143525357Y-111454819D01*
X143525357Y-111454819D02*
X143668214Y-111502438D01*
X143668214Y-111502438D02*
X143715833Y-111550057D01*
X144572976Y-111454819D02*
X144382500Y-111454819D01*
X144382500Y-111454819D02*
X144287262Y-111502438D01*
X144287262Y-111502438D02*
X144239643Y-111550057D01*
X144239643Y-111550057D02*
X144144405Y-111692914D01*
X144144405Y-111692914D02*
X144096786Y-111883390D01*
X144096786Y-111883390D02*
X144096786Y-112264342D01*
X144096786Y-112264342D02*
X144144405Y-112359580D01*
X144144405Y-112359580D02*
X144192024Y-112407200D01*
X144192024Y-112407200D02*
X144287262Y-112454819D01*
X144287262Y-112454819D02*
X144477738Y-112454819D01*
X144477738Y-112454819D02*
X144572976Y-112407200D01*
X144572976Y-112407200D02*
X144620595Y-112359580D01*
X144620595Y-112359580D02*
X144668214Y-112264342D01*
X144668214Y-112264342D02*
X144668214Y-112026247D01*
X144668214Y-112026247D02*
X144620595Y-111931009D01*
X144620595Y-111931009D02*
X144572976Y-111883390D01*
X144572976Y-111883390D02*
X144477738Y-111835771D01*
X144477738Y-111835771D02*
X144287262Y-111835771D01*
X144287262Y-111835771D02*
X144192024Y-111883390D01*
X144192024Y-111883390D02*
X144144405Y-111931009D01*
X144144405Y-111931009D02*
X144096786Y-112026247D01*
X135238095Y-104454819D02*
X135238095Y-105264342D01*
X135238095Y-105264342D02*
X135285714Y-105359580D01*
X135285714Y-105359580D02*
X135333333Y-105407200D01*
X135333333Y-105407200D02*
X135428571Y-105454819D01*
X135428571Y-105454819D02*
X135619047Y-105454819D01*
X135619047Y-105454819D02*
X135714285Y-105407200D01*
X135714285Y-105407200D02*
X135761904Y-105359580D01*
X135761904Y-105359580D02*
X135809523Y-105264342D01*
X135809523Y-105264342D02*
X135809523Y-104454819D01*
X136714285Y-104788152D02*
X136714285Y-105454819D01*
X136476190Y-104407200D02*
X136238095Y-105121485D01*
X136238095Y-105121485D02*
X136857142Y-105121485D01*
X131833333Y-92359580D02*
X131785714Y-92407200D01*
X131785714Y-92407200D02*
X131642857Y-92454819D01*
X131642857Y-92454819D02*
X131547619Y-92454819D01*
X131547619Y-92454819D02*
X131404762Y-92407200D01*
X131404762Y-92407200D02*
X131309524Y-92311961D01*
X131309524Y-92311961D02*
X131261905Y-92216723D01*
X131261905Y-92216723D02*
X131214286Y-92026247D01*
X131214286Y-92026247D02*
X131214286Y-91883390D01*
X131214286Y-91883390D02*
X131261905Y-91692914D01*
X131261905Y-91692914D02*
X131309524Y-91597676D01*
X131309524Y-91597676D02*
X131404762Y-91502438D01*
X131404762Y-91502438D02*
X131547619Y-91454819D01*
X131547619Y-91454819D02*
X131642857Y-91454819D01*
X131642857Y-91454819D02*
X131785714Y-91502438D01*
X131785714Y-91502438D02*
X131833333Y-91550057D01*
X132785714Y-92454819D02*
X132214286Y-92454819D01*
X132500000Y-92454819D02*
X132500000Y-91454819D01*
X132500000Y-91454819D02*
X132404762Y-91597676D01*
X132404762Y-91597676D02*
X132309524Y-91692914D01*
X132309524Y-91692914D02*
X132214286Y-91740533D01*
X124833333Y-69954819D02*
X124500000Y-69478628D01*
X124261905Y-69954819D02*
X124261905Y-68954819D01*
X124261905Y-68954819D02*
X124642857Y-68954819D01*
X124642857Y-68954819D02*
X124738095Y-69002438D01*
X124738095Y-69002438D02*
X124785714Y-69050057D01*
X124785714Y-69050057D02*
X124833333Y-69145295D01*
X124833333Y-69145295D02*
X124833333Y-69288152D01*
X124833333Y-69288152D02*
X124785714Y-69383390D01*
X124785714Y-69383390D02*
X124738095Y-69431009D01*
X124738095Y-69431009D02*
X124642857Y-69478628D01*
X124642857Y-69478628D02*
X124261905Y-69478628D01*
X125738095Y-68954819D02*
X125261905Y-68954819D01*
X125261905Y-68954819D02*
X125214286Y-69431009D01*
X125214286Y-69431009D02*
X125261905Y-69383390D01*
X125261905Y-69383390D02*
X125357143Y-69335771D01*
X125357143Y-69335771D02*
X125595238Y-69335771D01*
X125595238Y-69335771D02*
X125690476Y-69383390D01*
X125690476Y-69383390D02*
X125738095Y-69431009D01*
X125738095Y-69431009D02*
X125785714Y-69526247D01*
X125785714Y-69526247D02*
X125785714Y-69764342D01*
X125785714Y-69764342D02*
X125738095Y-69859580D01*
X125738095Y-69859580D02*
X125690476Y-69907200D01*
X125690476Y-69907200D02*
X125595238Y-69954819D01*
X125595238Y-69954819D02*
X125357143Y-69954819D01*
X125357143Y-69954819D02*
X125261905Y-69907200D01*
X125261905Y-69907200D02*
X125214286Y-69859580D01*
X155761905Y-55954819D02*
X155761905Y-54954819D01*
X155761905Y-54954819D02*
X156000000Y-54954819D01*
X156000000Y-54954819D02*
X156142857Y-55002438D01*
X156142857Y-55002438D02*
X156238095Y-55097676D01*
X156238095Y-55097676D02*
X156285714Y-55192914D01*
X156285714Y-55192914D02*
X156333333Y-55383390D01*
X156333333Y-55383390D02*
X156333333Y-55526247D01*
X156333333Y-55526247D02*
X156285714Y-55716723D01*
X156285714Y-55716723D02*
X156238095Y-55811961D01*
X156238095Y-55811961D02*
X156142857Y-55907200D01*
X156142857Y-55907200D02*
X156000000Y-55954819D01*
X156000000Y-55954819D02*
X155761905Y-55954819D01*
X157285714Y-55954819D02*
X156714286Y-55954819D01*
X157000000Y-55954819D02*
X157000000Y-54954819D01*
X157000000Y-54954819D02*
X156904762Y-55097676D01*
X156904762Y-55097676D02*
X156809524Y-55192914D01*
X156809524Y-55192914D02*
X156714286Y-55240533D01*
X154333333Y-68454819D02*
X154000000Y-67978628D01*
X153761905Y-68454819D02*
X153761905Y-67454819D01*
X153761905Y-67454819D02*
X154142857Y-67454819D01*
X154142857Y-67454819D02*
X154238095Y-67502438D01*
X154238095Y-67502438D02*
X154285714Y-67550057D01*
X154285714Y-67550057D02*
X154333333Y-67645295D01*
X154333333Y-67645295D02*
X154333333Y-67788152D01*
X154333333Y-67788152D02*
X154285714Y-67883390D01*
X154285714Y-67883390D02*
X154238095Y-67931009D01*
X154238095Y-67931009D02*
X154142857Y-67978628D01*
X154142857Y-67978628D02*
X153761905Y-67978628D01*
X155190476Y-67454819D02*
X155000000Y-67454819D01*
X155000000Y-67454819D02*
X154904762Y-67502438D01*
X154904762Y-67502438D02*
X154857143Y-67550057D01*
X154857143Y-67550057D02*
X154761905Y-67692914D01*
X154761905Y-67692914D02*
X154714286Y-67883390D01*
X154714286Y-67883390D02*
X154714286Y-68264342D01*
X154714286Y-68264342D02*
X154761905Y-68359580D01*
X154761905Y-68359580D02*
X154809524Y-68407200D01*
X154809524Y-68407200D02*
X154904762Y-68454819D01*
X154904762Y-68454819D02*
X155095238Y-68454819D01*
X155095238Y-68454819D02*
X155190476Y-68407200D01*
X155190476Y-68407200D02*
X155238095Y-68359580D01*
X155238095Y-68359580D02*
X155285714Y-68264342D01*
X155285714Y-68264342D02*
X155285714Y-68026247D01*
X155285714Y-68026247D02*
X155238095Y-67931009D01*
X155238095Y-67931009D02*
X155190476Y-67883390D01*
X155190476Y-67883390D02*
X155095238Y-67835771D01*
X155095238Y-67835771D02*
X154904762Y-67835771D01*
X154904762Y-67835771D02*
X154809524Y-67883390D01*
X154809524Y-67883390D02*
X154761905Y-67931009D01*
X154761905Y-67931009D02*
X154714286Y-68026247D01*
X130333333Y-102859580D02*
X130285714Y-102907200D01*
X130285714Y-102907200D02*
X130142857Y-102954819D01*
X130142857Y-102954819D02*
X130047619Y-102954819D01*
X130047619Y-102954819D02*
X129904762Y-102907200D01*
X129904762Y-102907200D02*
X129809524Y-102811961D01*
X129809524Y-102811961D02*
X129761905Y-102716723D01*
X129761905Y-102716723D02*
X129714286Y-102526247D01*
X129714286Y-102526247D02*
X129714286Y-102383390D01*
X129714286Y-102383390D02*
X129761905Y-102192914D01*
X129761905Y-102192914D02*
X129809524Y-102097676D01*
X129809524Y-102097676D02*
X129904762Y-102002438D01*
X129904762Y-102002438D02*
X130047619Y-101954819D01*
X130047619Y-101954819D02*
X130142857Y-101954819D01*
X130142857Y-101954819D02*
X130285714Y-102002438D01*
X130285714Y-102002438D02*
X130333333Y-102050057D01*
X131190476Y-102288152D02*
X131190476Y-102954819D01*
X130952381Y-101907200D02*
X130714286Y-102621485D01*
X130714286Y-102621485D02*
X131333333Y-102621485D01*
X146833333Y-140359580D02*
X146785714Y-140407200D01*
X146785714Y-140407200D02*
X146642857Y-140454819D01*
X146642857Y-140454819D02*
X146547619Y-140454819D01*
X146547619Y-140454819D02*
X146404762Y-140407200D01*
X146404762Y-140407200D02*
X146309524Y-140311961D01*
X146309524Y-140311961D02*
X146261905Y-140216723D01*
X146261905Y-140216723D02*
X146214286Y-140026247D01*
X146214286Y-140026247D02*
X146214286Y-139883390D01*
X146214286Y-139883390D02*
X146261905Y-139692914D01*
X146261905Y-139692914D02*
X146309524Y-139597676D01*
X146309524Y-139597676D02*
X146404762Y-139502438D01*
X146404762Y-139502438D02*
X146547619Y-139454819D01*
X146547619Y-139454819D02*
X146642857Y-139454819D01*
X146642857Y-139454819D02*
X146785714Y-139502438D01*
X146785714Y-139502438D02*
X146833333Y-139550057D01*
X147404762Y-139883390D02*
X147309524Y-139835771D01*
X147309524Y-139835771D02*
X147261905Y-139788152D01*
X147261905Y-139788152D02*
X147214286Y-139692914D01*
X147214286Y-139692914D02*
X147214286Y-139645295D01*
X147214286Y-139645295D02*
X147261905Y-139550057D01*
X147261905Y-139550057D02*
X147309524Y-139502438D01*
X147309524Y-139502438D02*
X147404762Y-139454819D01*
X147404762Y-139454819D02*
X147595238Y-139454819D01*
X147595238Y-139454819D02*
X147690476Y-139502438D01*
X147690476Y-139502438D02*
X147738095Y-139550057D01*
X147738095Y-139550057D02*
X147785714Y-139645295D01*
X147785714Y-139645295D02*
X147785714Y-139692914D01*
X147785714Y-139692914D02*
X147738095Y-139788152D01*
X147738095Y-139788152D02*
X147690476Y-139835771D01*
X147690476Y-139835771D02*
X147595238Y-139883390D01*
X147595238Y-139883390D02*
X147404762Y-139883390D01*
X147404762Y-139883390D02*
X147309524Y-139931009D01*
X147309524Y-139931009D02*
X147261905Y-139978628D01*
X147261905Y-139978628D02*
X147214286Y-140073866D01*
X147214286Y-140073866D02*
X147214286Y-140264342D01*
X147214286Y-140264342D02*
X147261905Y-140359580D01*
X147261905Y-140359580D02*
X147309524Y-140407200D01*
X147309524Y-140407200D02*
X147404762Y-140454819D01*
X147404762Y-140454819D02*
X147595238Y-140454819D01*
X147595238Y-140454819D02*
X147690476Y-140407200D01*
X147690476Y-140407200D02*
X147738095Y-140359580D01*
X147738095Y-140359580D02*
X147785714Y-140264342D01*
X147785714Y-140264342D02*
X147785714Y-140073866D01*
X147785714Y-140073866D02*
X147738095Y-139978628D01*
X147738095Y-139978628D02*
X147690476Y-139931009D01*
X147690476Y-139931009D02*
X147595238Y-139883390D01*
X138745833Y-84954819D02*
X138412500Y-84478628D01*
X138174405Y-84954819D02*
X138174405Y-83954819D01*
X138174405Y-83954819D02*
X138555357Y-83954819D01*
X138555357Y-83954819D02*
X138650595Y-84002438D01*
X138650595Y-84002438D02*
X138698214Y-84050057D01*
X138698214Y-84050057D02*
X138745833Y-84145295D01*
X138745833Y-84145295D02*
X138745833Y-84288152D01*
X138745833Y-84288152D02*
X138698214Y-84383390D01*
X138698214Y-84383390D02*
X138650595Y-84431009D01*
X138650595Y-84431009D02*
X138555357Y-84478628D01*
X138555357Y-84478628D02*
X138174405Y-84478628D01*
X139126786Y-84050057D02*
X139174405Y-84002438D01*
X139174405Y-84002438D02*
X139269643Y-83954819D01*
X139269643Y-83954819D02*
X139507738Y-83954819D01*
X139507738Y-83954819D02*
X139602976Y-84002438D01*
X139602976Y-84002438D02*
X139650595Y-84050057D01*
X139650595Y-84050057D02*
X139698214Y-84145295D01*
X139698214Y-84145295D02*
X139698214Y-84240533D01*
X139698214Y-84240533D02*
X139650595Y-84383390D01*
X139650595Y-84383390D02*
X139079167Y-84954819D01*
X139079167Y-84954819D02*
X139698214Y-84954819D01*
X130333333Y-100359580D02*
X130285714Y-100407200D01*
X130285714Y-100407200D02*
X130142857Y-100454819D01*
X130142857Y-100454819D02*
X130047619Y-100454819D01*
X130047619Y-100454819D02*
X129904762Y-100407200D01*
X129904762Y-100407200D02*
X129809524Y-100311961D01*
X129809524Y-100311961D02*
X129761905Y-100216723D01*
X129761905Y-100216723D02*
X129714286Y-100026247D01*
X129714286Y-100026247D02*
X129714286Y-99883390D01*
X129714286Y-99883390D02*
X129761905Y-99692914D01*
X129761905Y-99692914D02*
X129809524Y-99597676D01*
X129809524Y-99597676D02*
X129904762Y-99502438D01*
X129904762Y-99502438D02*
X130047619Y-99454819D01*
X130047619Y-99454819D02*
X130142857Y-99454819D01*
X130142857Y-99454819D02*
X130285714Y-99502438D01*
X130285714Y-99502438D02*
X130333333Y-99550057D01*
X131238095Y-99454819D02*
X130761905Y-99454819D01*
X130761905Y-99454819D02*
X130714286Y-99931009D01*
X130714286Y-99931009D02*
X130761905Y-99883390D01*
X130761905Y-99883390D02*
X130857143Y-99835771D01*
X130857143Y-99835771D02*
X131095238Y-99835771D01*
X131095238Y-99835771D02*
X131190476Y-99883390D01*
X131190476Y-99883390D02*
X131238095Y-99931009D01*
X131238095Y-99931009D02*
X131285714Y-100026247D01*
X131285714Y-100026247D02*
X131285714Y-100264342D01*
X131285714Y-100264342D02*
X131238095Y-100359580D01*
X131238095Y-100359580D02*
X131190476Y-100407200D01*
X131190476Y-100407200D02*
X131095238Y-100454819D01*
X131095238Y-100454819D02*
X130857143Y-100454819D01*
X130857143Y-100454819D02*
X130761905Y-100407200D01*
X130761905Y-100407200D02*
X130714286Y-100359580D01*
X137909523Y-88454819D02*
X137576190Y-87978628D01*
X137338095Y-88454819D02*
X137338095Y-87454819D01*
X137338095Y-87454819D02*
X137719047Y-87454819D01*
X137719047Y-87454819D02*
X137814285Y-87502438D01*
X137814285Y-87502438D02*
X137861904Y-87550057D01*
X137861904Y-87550057D02*
X137909523Y-87645295D01*
X137909523Y-87645295D02*
X137909523Y-87788152D01*
X137909523Y-87788152D02*
X137861904Y-87883390D01*
X137861904Y-87883390D02*
X137814285Y-87931009D01*
X137814285Y-87931009D02*
X137719047Y-87978628D01*
X137719047Y-87978628D02*
X137338095Y-87978628D01*
X138338095Y-88454819D02*
X138338095Y-87454819D01*
X138338095Y-87454819D02*
X138909523Y-88454819D01*
X138909523Y-88454819D02*
X138909523Y-87454819D01*
X139338095Y-87550057D02*
X139385714Y-87502438D01*
X139385714Y-87502438D02*
X139480952Y-87454819D01*
X139480952Y-87454819D02*
X139719047Y-87454819D01*
X139719047Y-87454819D02*
X139814285Y-87502438D01*
X139814285Y-87502438D02*
X139861904Y-87550057D01*
X139861904Y-87550057D02*
X139909523Y-87645295D01*
X139909523Y-87645295D02*
X139909523Y-87740533D01*
X139909523Y-87740533D02*
X139861904Y-87883390D01*
X139861904Y-87883390D02*
X139290476Y-88454819D01*
X139290476Y-88454819D02*
X139909523Y-88454819D01*
X118504819Y-118833333D02*
X119219104Y-118833333D01*
X119219104Y-118833333D02*
X119361961Y-118880952D01*
X119361961Y-118880952D02*
X119457200Y-118976190D01*
X119457200Y-118976190D02*
X119504819Y-119119047D01*
X119504819Y-119119047D02*
X119504819Y-119214285D01*
X118504819Y-118452380D02*
X118504819Y-117785714D01*
X118504819Y-117785714D02*
X119504819Y-118214285D01*
X118504819Y-65833333D02*
X119219104Y-65833333D01*
X119219104Y-65833333D02*
X119361961Y-65880952D01*
X119361961Y-65880952D02*
X119457200Y-65976190D01*
X119457200Y-65976190D02*
X119504819Y-66119047D01*
X119504819Y-66119047D02*
X119504819Y-66214285D01*
X118504819Y-64880952D02*
X118504819Y-65357142D01*
X118504819Y-65357142D02*
X118981009Y-65404761D01*
X118981009Y-65404761D02*
X118933390Y-65357142D01*
X118933390Y-65357142D02*
X118885771Y-65261904D01*
X118885771Y-65261904D02*
X118885771Y-65023809D01*
X118885771Y-65023809D02*
X118933390Y-64928571D01*
X118933390Y-64928571D02*
X118981009Y-64880952D01*
X118981009Y-64880952D02*
X119076247Y-64833333D01*
X119076247Y-64833333D02*
X119314342Y-64833333D01*
X119314342Y-64833333D02*
X119409580Y-64880952D01*
X119409580Y-64880952D02*
X119457200Y-64928571D01*
X119457200Y-64928571D02*
X119504819Y-65023809D01*
X119504819Y-65023809D02*
X119504819Y-65261904D01*
X119504819Y-65261904D02*
X119457200Y-65357142D01*
X119457200Y-65357142D02*
X119409580Y-65404761D01*
X118454819Y-145333333D02*
X119169104Y-145333333D01*
X119169104Y-145333333D02*
X119311961Y-145380952D01*
X119311961Y-145380952D02*
X119407200Y-145476190D01*
X119407200Y-145476190D02*
X119454819Y-145619047D01*
X119454819Y-145619047D02*
X119454819Y-145714285D01*
X118883390Y-144714285D02*
X118835771Y-144809523D01*
X118835771Y-144809523D02*
X118788152Y-144857142D01*
X118788152Y-144857142D02*
X118692914Y-144904761D01*
X118692914Y-144904761D02*
X118645295Y-144904761D01*
X118645295Y-144904761D02*
X118550057Y-144857142D01*
X118550057Y-144857142D02*
X118502438Y-144809523D01*
X118502438Y-144809523D02*
X118454819Y-144714285D01*
X118454819Y-144714285D02*
X118454819Y-144523809D01*
X118454819Y-144523809D02*
X118502438Y-144428571D01*
X118502438Y-144428571D02*
X118550057Y-144380952D01*
X118550057Y-144380952D02*
X118645295Y-144333333D01*
X118645295Y-144333333D02*
X118692914Y-144333333D01*
X118692914Y-144333333D02*
X118788152Y-144380952D01*
X118788152Y-144380952D02*
X118835771Y-144428571D01*
X118835771Y-144428571D02*
X118883390Y-144523809D01*
X118883390Y-144523809D02*
X118883390Y-144714285D01*
X118883390Y-144714285D02*
X118931009Y-144809523D01*
X118931009Y-144809523D02*
X118978628Y-144857142D01*
X118978628Y-144857142D02*
X119073866Y-144904761D01*
X119073866Y-144904761D02*
X119264342Y-144904761D01*
X119264342Y-144904761D02*
X119359580Y-144857142D01*
X119359580Y-144857142D02*
X119407200Y-144809523D01*
X119407200Y-144809523D02*
X119454819Y-144714285D01*
X119454819Y-144714285D02*
X119454819Y-144523809D01*
X119454819Y-144523809D02*
X119407200Y-144428571D01*
X119407200Y-144428571D02*
X119359580Y-144380952D01*
X119359580Y-144380952D02*
X119264342Y-144333333D01*
X119264342Y-144333333D02*
X119073866Y-144333333D01*
X119073866Y-144333333D02*
X118978628Y-144380952D01*
X118978628Y-144380952D02*
X118931009Y-144428571D01*
X118931009Y-144428571D02*
X118883390Y-144523809D01*
X118454819Y-92333333D02*
X119169104Y-92333333D01*
X119169104Y-92333333D02*
X119311961Y-92380952D01*
X119311961Y-92380952D02*
X119407200Y-92476190D01*
X119407200Y-92476190D02*
X119454819Y-92619047D01*
X119454819Y-92619047D02*
X119454819Y-92714285D01*
X118454819Y-91428571D02*
X118454819Y-91619047D01*
X118454819Y-91619047D02*
X118502438Y-91714285D01*
X118502438Y-91714285D02*
X118550057Y-91761904D01*
X118550057Y-91761904D02*
X118692914Y-91857142D01*
X118692914Y-91857142D02*
X118883390Y-91904761D01*
X118883390Y-91904761D02*
X119264342Y-91904761D01*
X119264342Y-91904761D02*
X119359580Y-91857142D01*
X119359580Y-91857142D02*
X119407200Y-91809523D01*
X119407200Y-91809523D02*
X119454819Y-91714285D01*
X119454819Y-91714285D02*
X119454819Y-91523809D01*
X119454819Y-91523809D02*
X119407200Y-91428571D01*
X119407200Y-91428571D02*
X119359580Y-91380952D01*
X119359580Y-91380952D02*
X119264342Y-91333333D01*
X119264342Y-91333333D02*
X119026247Y-91333333D01*
X119026247Y-91333333D02*
X118931009Y-91380952D01*
X118931009Y-91380952D02*
X118883390Y-91428571D01*
X118883390Y-91428571D02*
X118835771Y-91523809D01*
X118835771Y-91523809D02*
X118835771Y-91714285D01*
X118835771Y-91714285D02*
X118883390Y-91809523D01*
X118883390Y-91809523D02*
X118931009Y-91857142D01*
X118931009Y-91857142D02*
X119026247Y-91904761D01*
X158904819Y-65833333D02*
X159619104Y-65833333D01*
X159619104Y-65833333D02*
X159761961Y-65880952D01*
X159761961Y-65880952D02*
X159857200Y-65976190D01*
X159857200Y-65976190D02*
X159904819Y-66119047D01*
X159904819Y-66119047D02*
X159904819Y-66214285D01*
X159904819Y-64833333D02*
X159904819Y-65404761D01*
X159904819Y-65119047D02*
X158904819Y-65119047D01*
X158904819Y-65119047D02*
X159047676Y-65214285D01*
X159047676Y-65214285D02*
X159142914Y-65309523D01*
X159142914Y-65309523D02*
X159190533Y-65404761D01*
X158904819Y-145333333D02*
X159619104Y-145333333D01*
X159619104Y-145333333D02*
X159761961Y-145380952D01*
X159761961Y-145380952D02*
X159857200Y-145476190D01*
X159857200Y-145476190D02*
X159904819Y-145619047D01*
X159904819Y-145619047D02*
X159904819Y-145714285D01*
X159238152Y-144428571D02*
X159904819Y-144428571D01*
X158857200Y-144666666D02*
X159571485Y-144904761D01*
X159571485Y-144904761D02*
X159571485Y-144285714D01*
X158854819Y-118833333D02*
X159569104Y-118833333D01*
X159569104Y-118833333D02*
X159711961Y-118880952D01*
X159711961Y-118880952D02*
X159807200Y-118976190D01*
X159807200Y-118976190D02*
X159854819Y-119119047D01*
X159854819Y-119119047D02*
X159854819Y-119214285D01*
X158854819Y-118452380D02*
X158854819Y-117833333D01*
X158854819Y-117833333D02*
X159235771Y-118166666D01*
X159235771Y-118166666D02*
X159235771Y-118023809D01*
X159235771Y-118023809D02*
X159283390Y-117928571D01*
X159283390Y-117928571D02*
X159331009Y-117880952D01*
X159331009Y-117880952D02*
X159426247Y-117833333D01*
X159426247Y-117833333D02*
X159664342Y-117833333D01*
X159664342Y-117833333D02*
X159759580Y-117880952D01*
X159759580Y-117880952D02*
X159807200Y-117928571D01*
X159807200Y-117928571D02*
X159854819Y-118023809D01*
X159854819Y-118023809D02*
X159854819Y-118309523D01*
X159854819Y-118309523D02*
X159807200Y-118404761D01*
X159807200Y-118404761D02*
X159759580Y-118452380D01*
X158904819Y-92333333D02*
X159619104Y-92333333D01*
X159619104Y-92333333D02*
X159761961Y-92380952D01*
X159761961Y-92380952D02*
X159857200Y-92476190D01*
X159857200Y-92476190D02*
X159904819Y-92619047D01*
X159904819Y-92619047D02*
X159904819Y-92714285D01*
X159000057Y-91904761D02*
X158952438Y-91857142D01*
X158952438Y-91857142D02*
X158904819Y-91761904D01*
X158904819Y-91761904D02*
X158904819Y-91523809D01*
X158904819Y-91523809D02*
X158952438Y-91428571D01*
X158952438Y-91428571D02*
X159000057Y-91380952D01*
X159000057Y-91380952D02*
X159095295Y-91333333D01*
X159095295Y-91333333D02*
X159190533Y-91333333D01*
X159190533Y-91333333D02*
X159333390Y-91380952D01*
X159333390Y-91380952D02*
X159904819Y-91952380D01*
X159904819Y-91952380D02*
X159904819Y-91333333D01*
D12*
%TO.C,U1*%
X133575000Y-90510000D02*
X133815000Y-90840000D01*
X133335000Y-90840000D01*
X133575000Y-90510000D01*
G36*
X133815000Y-90840000D02*
G01*
X133335000Y-90840000D01*
X133575000Y-90510000D01*
X133815000Y-90840000D01*
G37*
X128915000Y-80440000D02*
X133035000Y-80440000D01*
X128915000Y-80495000D02*
X128915000Y-80440000D01*
X128915000Y-90560000D02*
X128915000Y-90505000D01*
X133035000Y-80440000D02*
X133035000Y-80495000D01*
X133035000Y-90505000D02*
X133035000Y-90560000D01*
X133035000Y-90560000D02*
X128915000Y-90560000D01*
%TO.C,U2*%
X151100000Y-90510000D02*
X151340000Y-90840000D01*
X150860000Y-90840000D01*
X151100000Y-90510000D01*
G36*
X151340000Y-90840000D02*
G01*
X150860000Y-90840000D01*
X151100000Y-90510000D01*
X151340000Y-90840000D01*
G37*
X146440000Y-80440000D02*
X150560000Y-80440000D01*
X146440000Y-80495000D02*
X146440000Y-80440000D01*
X146440000Y-90560000D02*
X146440000Y-90505000D01*
X150560000Y-80440000D02*
X150560000Y-80495000D01*
X150560000Y-90505000D02*
X150560000Y-90560000D01*
X150560000Y-90560000D02*
X146440000Y-90560000D01*
%TO.C,D2*%
X131010000Y-138350000D02*
X125500000Y-138350000D01*
X131010000Y-141650000D02*
X125500000Y-141650000D01*
X131010000Y-141650000D02*
X131010000Y-138350000D01*
%TO.C,R3*%
X142254724Y-83022500D02*
X141745276Y-83022500D01*
X142254724Y-81977500D02*
X141745276Y-81977500D01*
%TO.C,C2*%
X146353733Y-91490000D02*
X146646267Y-91490000D01*
X146353733Y-92510000D02*
X146646267Y-92510000D01*
%TO.C,R1*%
X127832776Y-66977500D02*
X128342224Y-66977500D01*
X127832776Y-68022500D02*
X128342224Y-68022500D01*
%TO.C,D3*%
X138660000Y-138640000D02*
X133600000Y-138640000D01*
X138660000Y-141360000D02*
X133600000Y-141360000D01*
X138660000Y-141360000D02*
X138660000Y-138640000D01*
%TO.C,RN1*%
X155500000Y-89480000D02*
X154500000Y-89480000D01*
X155500000Y-86120000D02*
X154500000Y-86120000D01*
%TO.C,R7*%
X151332776Y-62477500D02*
X151842224Y-62477500D01*
X151332776Y-63522500D02*
X151842224Y-63522500D01*
%TO.C,U5*%
X130400000Y-53800000D02*
X131000000Y-53200000D01*
X130400000Y-53800000D02*
X131000000Y-54400000D01*
X131110000Y-71509000D02*
X131110000Y-54364000D01*
X133015000Y-52459000D02*
X146985000Y-52459000D01*
X133015000Y-73414000D02*
X146985000Y-73414000D01*
X135500000Y-50950000D02*
X144500000Y-50950000D01*
X135500000Y-52459000D02*
X135500000Y-50950000D01*
X144500000Y-50950000D02*
X144500000Y-52459000D01*
X148890000Y-71509000D02*
X148890000Y-54364000D01*
X136000000Y-69000000D02*
X144000000Y-69000000D01*
X144000000Y-73425000D01*
X136000000Y-73425000D01*
X136000000Y-69000000D01*
%TO.C,C9*%
X142226248Y-142640000D02*
X143648752Y-142640000D01*
X142226248Y-145360000D02*
X143648752Y-145360000D01*
%TO.C,F1*%
X136715000Y-142545000D02*
X134285000Y-142545000D01*
X136715000Y-145455000D02*
X134285000Y-145455000D01*
%TO.C,J10*%
X135772500Y-152090000D02*
X138122500Y-152090000D01*
X135772500Y-153790000D02*
X135772500Y-152090000D01*
X137692500Y-159260000D02*
X142072500Y-159260000D01*
X138122500Y-152090000D02*
X138122500Y-150150000D01*
X143992500Y-152090000D02*
X141642500Y-152090000D01*
X143992500Y-153790000D02*
X143992500Y-152090000D01*
%TO.C,C7*%
X139171248Y-106640000D02*
X140593752Y-106640000D01*
X139171248Y-109360000D02*
X140593752Y-109360000D01*
%TO.C,U6*%
X131502500Y-114450000D02*
X148262500Y-114450000D01*
X148262500Y-136550000D01*
X131502500Y-136550000D01*
X131502500Y-114450000D01*
%TO.C,R4*%
X142254724Y-81022500D02*
X141745276Y-81022500D01*
X142254724Y-79977500D02*
X141745276Y-79977500D01*
%TO.C,C6*%
X139171248Y-110640000D02*
X140593752Y-110640000D01*
X139171248Y-113360000D02*
X140593752Y-113360000D01*
%TO.C,U4*%
X138032500Y-96590000D02*
X141792500Y-96590000D01*
X138032500Y-103410000D02*
X141792500Y-103410000D01*
X141792500Y-96590000D02*
X141792500Y-97850000D01*
X141792500Y-103410000D02*
X141792500Y-102150000D01*
X136752500Y-96690000D02*
X136512500Y-96360000D01*
X136992500Y-96360000D01*
X136752500Y-96690000D01*
G36*
X136752500Y-96690000D02*
G01*
X136512500Y-96360000D01*
X136992500Y-96360000D01*
X136752500Y-96690000D01*
G37*
%TO.C,C1*%
X128853733Y-91490000D02*
X129146267Y-91490000D01*
X128853733Y-92510000D02*
X129146267Y-92510000D01*
%TO.C,R5*%
X127832776Y-68977500D02*
X128342224Y-68977500D01*
X127832776Y-70022500D02*
X128342224Y-70022500D01*
%TO.C,D1*%
X150140000Y-54500000D02*
X150140000Y-56500000D01*
X150140000Y-54500000D02*
X154150000Y-54500000D01*
X150140000Y-56500000D02*
X154150000Y-56500000D01*
%TO.C,R6*%
X151332776Y-67477500D02*
X151842224Y-67477500D01*
X151332776Y-68522500D02*
X151842224Y-68522500D01*
%TO.C,C4*%
X133646267Y-101990000D02*
X133353733Y-101990000D01*
X133646267Y-103010000D02*
X133353733Y-103010000D01*
%TO.C,C8*%
X142288748Y-138640000D02*
X143711252Y-138640000D01*
X142288748Y-141360000D02*
X143711252Y-141360000D01*
%TO.C,R2*%
X142254724Y-85022500D02*
X141745276Y-85022500D01*
X142254724Y-83977500D02*
X141745276Y-83977500D01*
%TO.C,C5*%
X133646267Y-99490000D02*
X133353733Y-99490000D01*
X133646267Y-100510000D02*
X133353733Y-100510000D01*
%TO.C,RN2*%
X141500000Y-89480000D02*
X142500000Y-89480000D01*
X141500000Y-86120000D02*
X142500000Y-86120000D01*
%TO.C,J7*%
X108740000Y-108310000D02*
X108740000Y-128690000D01*
X114210000Y-106390000D02*
X115910000Y-106390000D01*
X114210000Y-130610000D02*
X115910000Y-130610000D01*
X115910000Y-106390000D02*
X115910000Y-108740000D01*
X115910000Y-108740000D02*
X117850000Y-108740000D01*
X115910000Y-130610000D02*
X115910000Y-128260000D01*
%TO.C,J5*%
X108740000Y-55310000D02*
X108740000Y-75690000D01*
X114210000Y-53390000D02*
X115910000Y-53390000D01*
X114210000Y-77610000D02*
X115910000Y-77610000D01*
X115910000Y-53390000D02*
X115910000Y-55740000D01*
X115910000Y-55740000D02*
X117850000Y-55740000D01*
X115910000Y-77610000D02*
X115910000Y-75260000D01*
%TO.C,J8*%
X108690000Y-134810000D02*
X108690000Y-155190000D01*
X114160000Y-132890000D02*
X115860000Y-132890000D01*
X114160000Y-157110000D02*
X115860000Y-157110000D01*
X115860000Y-132890000D02*
X115860000Y-135240000D01*
X115860000Y-135240000D02*
X117800000Y-135240000D01*
X115860000Y-157110000D02*
X115860000Y-154760000D01*
%TO.C,J6*%
X108690000Y-81810000D02*
X108690000Y-102190000D01*
X114160000Y-79890000D02*
X115860000Y-79890000D01*
X114160000Y-104110000D02*
X115860000Y-104110000D01*
X115860000Y-79890000D02*
X115860000Y-82240000D01*
X115860000Y-82240000D02*
X117800000Y-82240000D01*
X115860000Y-104110000D02*
X115860000Y-101760000D01*
%TO.C,J1*%
X162590000Y-53390000D02*
X162590000Y-55740000D01*
X162590000Y-75260000D02*
X160650000Y-75260000D01*
X162590000Y-77610000D02*
X162590000Y-75260000D01*
X164290000Y-53390000D02*
X162590000Y-53390000D01*
X164290000Y-77610000D02*
X162590000Y-77610000D01*
X169760000Y-75690000D02*
X169760000Y-55310000D01*
%TO.C,J4*%
X162590000Y-132890000D02*
X162590000Y-135240000D01*
X162590000Y-154760000D02*
X160650000Y-154760000D01*
X162590000Y-157110000D02*
X162590000Y-154760000D01*
X164290000Y-132890000D02*
X162590000Y-132890000D01*
X164290000Y-157110000D02*
X162590000Y-157110000D01*
X169760000Y-155190000D02*
X169760000Y-134810000D01*
%TO.C,J3*%
X162540000Y-106390000D02*
X162540000Y-108740000D01*
X162540000Y-128260000D02*
X160600000Y-128260000D01*
X162540000Y-130610000D02*
X162540000Y-128260000D01*
X164240000Y-106390000D02*
X162540000Y-106390000D01*
X164240000Y-130610000D02*
X162540000Y-130610000D01*
X169710000Y-128690000D02*
X169710000Y-108310000D01*
%TO.C,J2*%
X162590000Y-79890000D02*
X162590000Y-82240000D01*
X162590000Y-101760000D02*
X160650000Y-101760000D01*
X162590000Y-104110000D02*
X162590000Y-101760000D01*
X164290000Y-79890000D02*
X162590000Y-79890000D01*
X164290000Y-104110000D02*
X162590000Y-104110000D01*
X169760000Y-102190000D02*
X169760000Y-81810000D01*
%TD*%
M02*
