%TF.GenerationSoftware,KiCad,Pcbnew,10.0.6*%
%TF.CreationDate,2026-09-04T21:46:34-07:00*%
%TF.ProjectId,pn5180_carrier,706e3531-3830-45f6-9361-72726965722e,rev?*%
%TF.SameCoordinates,Original*%
%TF.FileFunction,Soldermask,Top*%
%TF.FilePolarity,Negative*%
%FSLAX46Y46*%
G04 Gerber Fmt 4.6, Leading zero omitted, Abs format (unit mm)*
G04 Created by KiCad (PCBNEW 10.0.6) date 2026-09-04 21:46:34*
%MOMM*%
%LPD*%
G01*
G04 APERTURE LIST*
G04 Aperture macros list*
%AMRoundRect*
0 Rectangle with rounded corners*
0 $1 Rounding radius*
0 $2 $3 $4 $5 $6 $7 $8 $9 X,Y pos of 4 corners*
0 Add a 4 corners polygon primitive as box body*
4,1,4,$2,$3,$4,$5,$6,$7,$8,$9,$2,$3,0*
0 Add four circle primitives for the rounded corners*
1,1,$1+$1,$2,$3*
1,1,$1+$1,$4,$5*
1,1,$1+$1,$6,$7*
1,1,$1+$1,$8,$9*
0 Add four rect primitives between the rounded corners*
20,1,$1+$1,$2,$3,$4,$5,0*
20,1,$1+$1,$4,$5,$6,$7,0*
20,1,$1+$1,$6,$7,$8,$9,0*
20,1,$1+$1,$8,$9,$2,$3,0*%
G04 Aperture macros list end*
%ADD10RoundRect,0.150000X0.825000X0.150000X-0.825000X0.150000X-0.825000X-0.150000X0.825000X-0.150000X0*%
%ADD11RoundRect,0.250000X1.000000X0.650000X-1.000000X0.650000X-1.000000X-0.650000X1.000000X-0.650000X0*%
%ADD12RoundRect,0.237500X0.250000X0.237500X-0.250000X0.237500X-0.250000X-0.237500X0.250000X-0.237500X0*%
%ADD13RoundRect,0.237500X-0.300000X-0.237500X0.300000X-0.237500X0.300000X0.237500X-0.300000X0.237500X0*%
%ADD14RoundRect,0.237500X-0.250000X-0.237500X0.250000X-0.237500X0.250000X0.237500X-0.250000X0.237500X0*%
%ADD15RoundRect,0.250000X0.450000X0.800000X-0.450000X0.800000X-0.450000X-0.800000X0.450000X-0.800000X0*%
%ADD16R,0.800000X0.500000*%
%ADD17R,0.800000X0.400000*%
%ADD18R,1.700000X1.700000*%
%ADD19O,1.700000X1.700000*%
%ADD20RoundRect,0.250000X-0.412500X-1.100000X0.412500X-1.100000X0.412500X1.100000X-0.412500X1.100000X0*%
%ADD21R,1.960000X3.150000*%
%ADD22RoundRect,0.250000X-0.250000X-1.100000X0.250000X-1.100000X0.250000X1.100000X-0.250000X1.100000X0*%
%ADD23RoundRect,0.250000X-0.650000X-1.650000X0.650000X-1.650000X0.650000X1.650000X-0.650000X1.650000X0*%
%ADD24R,3.000000X3.000000*%
%ADD25C,3.000000*%
%ADD26RoundRect,0.375000X-0.625000X-0.375000X0.625000X-0.375000X0.625000X0.375000X-0.625000X0.375000X0*%
%ADD27RoundRect,0.500000X-0.500000X-1.400000X0.500000X-1.400000X0.500000X1.400000X-0.500000X1.400000X0*%
%ADD28RoundRect,0.225000X-0.225000X-0.375000X0.225000X-0.375000X0.225000X0.375000X-0.225000X0.375000X0*%
%ADD29RoundRect,0.237500X0.300000X0.237500X-0.300000X0.237500X-0.300000X-0.237500X0.300000X-0.237500X0*%
%ADD30RoundRect,0.250000X-1.100000X0.250000X-1.100000X-0.250000X1.100000X-0.250000X1.100000X0.250000X0*%
%ADD31RoundRect,0.250000X-1.650000X0.650000X-1.650000X-0.650000X1.650000X-0.650000X1.650000X0.650000X0*%
%ADD32RoundRect,0.250000X1.100000X-0.250000X1.100000X0.250000X-1.100000X0.250000X-1.100000X-0.250000X0*%
%ADD33RoundRect,0.250000X1.650000X-0.650000X1.650000X0.650000X-1.650000X0.650000X-1.650000X-0.650000X0*%
G04 APERTURE END LIST*
D10*
%TO.C,U1*%
X128500000Y-89945000D03*
X128500000Y-88675000D03*
X128500000Y-87405000D03*
X128500000Y-86135000D03*
X128500000Y-84865000D03*
X128500000Y-83595000D03*
X128500000Y-82325000D03*
X128500000Y-81055000D03*
X133450000Y-81055000D03*
X133450000Y-82325000D03*
X133450000Y-83595000D03*
X133450000Y-84865000D03*
X133450000Y-86135000D03*
X133450000Y-87405000D03*
X133450000Y-88675000D03*
X133450000Y-89945000D03*
%TD*%
%TO.C,U2*%
X146025000Y-89945000D03*
X146025000Y-88675000D03*
X146025000Y-87405000D03*
X146025000Y-86135000D03*
X146025000Y-84865000D03*
X146025000Y-83595000D03*
X146025000Y-82325000D03*
X146025000Y-81055000D03*
X150975000Y-81055000D03*
X150975000Y-82325000D03*
X150975000Y-83595000D03*
X150975000Y-84865000D03*
X150975000Y-86135000D03*
X150975000Y-87405000D03*
X150975000Y-88675000D03*
X150975000Y-89945000D03*
%TD*%
D11*
%TO.C,D2*%
X129500000Y-140000000D03*
X125500000Y-140000000D03*
%TD*%
D12*
%TO.C,R3*%
X142912500Y-82500000D03*
X141087500Y-82500000D03*
%TD*%
D13*
%TO.C,C2*%
X145637500Y-92000000D03*
X147362500Y-92000000D03*
%TD*%
D14*
%TO.C,R1*%
X127175000Y-67500000D03*
X129000000Y-67500000D03*
%TD*%
D15*
%TO.C,D3*%
X137700000Y-140000000D03*
X133300000Y-140000000D03*
%TD*%
D16*
%TO.C,RN1*%
X154100000Y-86600000D03*
D17*
X154100000Y-87400000D03*
X154100000Y-88200000D03*
D16*
X154100000Y-89000000D03*
X155900000Y-89000000D03*
D17*
X155900000Y-88200000D03*
X155900000Y-87400000D03*
D16*
X155900000Y-86600000D03*
%TD*%
D14*
%TO.C,R7*%
X150675000Y-63000000D03*
X152500000Y-63000000D03*
%TD*%
D18*
%TO.C,U5*%
X132380000Y-55380000D03*
D19*
X132380000Y-57920000D03*
X132380000Y-60460000D03*
X132380000Y-63000000D03*
X132380000Y-65540000D03*
X132380000Y-68080000D03*
X132380000Y-70620000D03*
X147620000Y-70620000D03*
X147620000Y-68080000D03*
X147620000Y-65540000D03*
X147620000Y-63000000D03*
X147620000Y-60460000D03*
X147620000Y-57920000D03*
X147620000Y-55380000D03*
%TD*%
D20*
%TO.C,C9*%
X141375000Y-144000000D03*
X144500000Y-144000000D03*
%TD*%
D21*
%TO.C,F1*%
X137955000Y-144000000D03*
X133045000Y-144000000D03*
%TD*%
D22*
%TO.C,J10*%
X138882500Y-151500000D03*
X140882500Y-151500000D03*
D23*
X136532500Y-155950000D03*
X143232500Y-155950000D03*
%TD*%
D20*
%TO.C,C7*%
X138320000Y-108000000D03*
X141445000Y-108000000D03*
%TD*%
D24*
%TO.C,U6*%
X135818500Y-134771000D03*
D25*
X143946500Y-134771000D03*
X135818500Y-116229000D03*
X143946500Y-116229000D03*
%TD*%
D12*
%TO.C,R4*%
X142912500Y-80500000D03*
X141087500Y-80500000D03*
%TD*%
D20*
%TO.C,C6*%
X138320000Y-112000000D03*
X141445000Y-112000000D03*
%TD*%
D26*
%TO.C,U4*%
X136732500Y-97700000D03*
X136732500Y-100000000D03*
D27*
X143032500Y-100000000D03*
D26*
X136732500Y-102300000D03*
%TD*%
D13*
%TO.C,C1*%
X128137500Y-92000000D03*
X129862500Y-92000000D03*
%TD*%
D14*
%TO.C,R5*%
X127175000Y-69500000D03*
X129000000Y-69500000D03*
%TD*%
D28*
%TO.C,D1*%
X150850000Y-55500000D03*
X154150000Y-55500000D03*
%TD*%
D14*
%TO.C,R6*%
X150675000Y-68000000D03*
X152500000Y-68000000D03*
%TD*%
D29*
%TO.C,C4*%
X134362500Y-102500000D03*
X132637500Y-102500000D03*
%TD*%
D20*
%TO.C,C8*%
X141437500Y-140000000D03*
X144562500Y-140000000D03*
%TD*%
D12*
%TO.C,R2*%
X142912500Y-84500000D03*
X141087500Y-84500000D03*
%TD*%
D29*
%TO.C,C5*%
X134362500Y-100000000D03*
X132637500Y-100000000D03*
%TD*%
D16*
%TO.C,RN2*%
X142900000Y-89000000D03*
D17*
X142900000Y-88200000D03*
X142900000Y-87400000D03*
D16*
X142900000Y-86600000D03*
X141100000Y-86600000D03*
D17*
X141100000Y-87400000D03*
X141100000Y-88200000D03*
D16*
X141100000Y-89000000D03*
%TD*%
D30*
%TO.C,J7*%
X116500000Y-109500000D03*
X116500000Y-111500000D03*
X116500000Y-113500000D03*
X116500000Y-115500000D03*
X116500000Y-117500000D03*
X116500000Y-119500000D03*
X116500000Y-121500000D03*
X116500000Y-123500000D03*
X116500000Y-125500000D03*
X116500000Y-127500000D03*
D31*
X112050000Y-107150000D03*
X112050000Y-129850000D03*
%TD*%
D30*
%TO.C,J5*%
X116500000Y-56500000D03*
X116500000Y-58500000D03*
X116500000Y-60500000D03*
X116500000Y-62500000D03*
X116500000Y-64500000D03*
X116500000Y-66500000D03*
X116500000Y-68500000D03*
X116500000Y-70500000D03*
X116500000Y-72500000D03*
X116500000Y-74500000D03*
D31*
X112050000Y-54150000D03*
X112050000Y-76850000D03*
%TD*%
D30*
%TO.C,J8*%
X116450000Y-136000000D03*
X116450000Y-138000000D03*
X116450000Y-140000000D03*
X116450000Y-142000000D03*
X116450000Y-144000000D03*
X116450000Y-146000000D03*
X116450000Y-148000000D03*
X116450000Y-150000000D03*
X116450000Y-152000000D03*
X116450000Y-154000000D03*
D31*
X112000000Y-133650000D03*
X112000000Y-156350000D03*
%TD*%
D30*
%TO.C,J6*%
X116450000Y-83000000D03*
X116450000Y-85000000D03*
X116450000Y-87000000D03*
X116450000Y-89000000D03*
X116450000Y-91000000D03*
X116450000Y-93000000D03*
X116450000Y-95000000D03*
X116450000Y-97000000D03*
X116450000Y-99000000D03*
X116450000Y-101000000D03*
D31*
X112000000Y-80650000D03*
X112000000Y-103350000D03*
%TD*%
D32*
%TO.C,J1*%
X162000000Y-74500000D03*
X162000000Y-72500000D03*
X162000000Y-70500000D03*
X162000000Y-68500000D03*
X162000000Y-66500000D03*
X162000000Y-64500000D03*
X162000000Y-62500000D03*
X162000000Y-60500000D03*
X162000000Y-58500000D03*
X162000000Y-56500000D03*
D33*
X166450000Y-76850000D03*
X166450000Y-54150000D03*
%TD*%
D32*
%TO.C,J4*%
X162000000Y-154000000D03*
X162000000Y-152000000D03*
X162000000Y-150000000D03*
X162000000Y-148000000D03*
X162000000Y-146000000D03*
X162000000Y-144000000D03*
X162000000Y-142000000D03*
X162000000Y-140000000D03*
X162000000Y-138000000D03*
X162000000Y-136000000D03*
D33*
X166450000Y-156350000D03*
X166450000Y-133650000D03*
%TD*%
D32*
%TO.C,J3*%
X161950000Y-127500000D03*
X161950000Y-125500000D03*
X161950000Y-123500000D03*
X161950000Y-121500000D03*
X161950000Y-119500000D03*
X161950000Y-117500000D03*
X161950000Y-115500000D03*
X161950000Y-113500000D03*
X161950000Y-111500000D03*
X161950000Y-109500000D03*
D33*
X166400000Y-129850000D03*
X166400000Y-107150000D03*
%TD*%
D32*
%TO.C,J2*%
X162000000Y-101000000D03*
X162000000Y-99000000D03*
X162000000Y-97000000D03*
X162000000Y-95000000D03*
X162000000Y-93000000D03*
X162000000Y-91000000D03*
X162000000Y-89000000D03*
X162000000Y-87000000D03*
X162000000Y-85000000D03*
X162000000Y-83000000D03*
D33*
X166450000Y-103350000D03*
X166450000Y-80650000D03*
%TD*%
M02*
