#VRML V2.0 utf8
# Littelfuse NANO2 451/453 SMD fuse - simplified placeholder model, generated by gen_3d_models.py
# units: 0.1 inch (KiCad VRML convention); Z up from the board
Group { children [
  Shape {
    appearance Appearance { material Material { diffuseColor 0.900 0.900 0.850 specularColor 0.15 0.15 0.15 shininess 0.25 } }
    geometry IndexedFaceSet { solid FALSE coord Coordinate { point [ -0.6102 0.5295 0.0197, 0.6102 0.5295 0.0197, 0.6102 -0.5295 0.0197, -0.6102 -0.5295 0.0197, -0.6102 0.5295 1.0591, 0.6102 0.5295 1.0591, 0.6102 -0.5295 1.0591, -0.6102 -0.5295 1.0591 ] } coordIndex [ 1, 2, 3, 0, -1, 7, 6, 5, 4, -1, 4, 5, 1, 0, -1, 5, 6, 2, 1, -1, 6, 7, 3, 2, -1, 7, 4, 0, 3, -1 ] }
  }
  Shape {
    appearance Appearance { material Material { diffuseColor 0.750 0.750 0.780 specularColor 0.15 0.15 0.15 shininess 0.25 } }
    geometry IndexedFaceSet { solid FALSE coord Coordinate { point [ -1.2008 0.5295 0.0000, -0.6102 0.5295 0.0000, -0.6102 -0.5295 0.0000, -1.2008 -0.5295 0.0000, -1.2008 0.5295 1.0591, -0.6102 0.5295 1.0591, -0.6102 -0.5295 1.0591, -1.2008 -0.5295 1.0591 ] } coordIndex [ 1, 2, 3, 0, -1, 7, 6, 5, 4, -1, 4, 5, 1, 0, -1, 5, 6, 2, 1, -1, 6, 7, 3, 2, -1, 7, 4, 0, 3, -1 ] }
  }
  Shape {
    appearance Appearance { material Material { diffuseColor 0.750 0.750 0.780 specularColor 0.15 0.15 0.15 shininess 0.25 } }
    geometry IndexedFaceSet { solid FALSE coord Coordinate { point [ 0.6102 0.5295 0.0000, 1.2008 0.5295 0.0000, 1.2008 -0.5295 0.0000, 0.6102 -0.5295 0.0000, 0.6102 0.5295 1.0591, 1.2008 0.5295 1.0591, 1.2008 -0.5295 1.0591, 0.6102 -0.5295 1.0591 ] } coordIndex [ 1, 2, 3, 0, -1, 7, 6, 5, 4, -1, 4, 5, 1, 0, -1, 5, 6, 2, 1, -1, 6, 7, 3, 2, -1, 7, 4, 0, 3, -1 ] }
  }
] }
