#VRML V2.0 utf8
# Molex CLIK-Mate 503148-1090 2x5 right-angle SMT receptacle - simplified placeholder model, generated by gen_3d_models.py
# units: 0.1 inch (KiCad VRML convention); Z up from the board
Group { children [
  Shape {
    appearance Appearance { material Material { diffuseColor 0.870 0.820 0.660 specularColor 0.15 0.15 0.15 shininess 0.25 } }
    geometry IndexedFaceSet { solid FALSE coord Coordinate { point [ -2.3228 1.7224 0.0197, 2.3228 1.7224 0.0197, 2.3228 -1.7224 0.0197, -2.3228 -1.7224 0.0197, -2.3228 1.7224 3.6024, 2.3228 1.7224 3.6024, 2.3228 -1.7224 3.6024, -2.3228 -1.7224 3.6024 ] } coordIndex [ 1, 2, 3, 0, -1, 7, 6, 5, 4, -1, 4, 5, 1, 0, -1, 5, 6, 2, 1, -1, 6, 7, 3, 2, -1, 7, 4, 0, 3, -1 ] }
  }
  Shape {
    appearance Appearance { material Material { diffuseColor 0.180 0.180 0.180 specularColor 0.15 0.15 0.15 shininess 0.25 } }
    geometry IndexedFaceSet { solid FALSE coord Coordinate { point [ -1.5748 -1.4567 0.6299, 1.5748 -1.4567 0.6299, 1.5748 -1.7264 0.6299, -1.5748 -1.7264 0.6299, -1.5748 -1.4567 2.9921, 1.5748 -1.4567 2.9921, 1.5748 -1.7264 2.9921, -1.5748 -1.7264 2.9921 ] } coordIndex [ 1, 2, 3, 0, -1, 7, 6, 5, 4, -1, 4, 5, 1, 0, -1, 5, 6, 2, 1, -1, 6, 7, 3, 2, -1, 7, 4, 0, 3, -1 ] }
  }
  Shape {
    appearance Appearance { material Material { diffuseColor 0.180 0.180 0.180 specularColor 0.15 0.15 0.15 shininess 0.25 } }
    geometry IndexedFaceSet { solid FALSE coord Coordinate { point [ -0.6299 -0.0787 3.6024, 0.6299 -0.0787 3.6024, 0.6299 -1.0236 3.6024, -0.6299 -1.0236 3.6024, -0.6299 -0.0787 3.6102, 0.6299 -0.0787 3.6102, 0.6299 -1.0236 3.6102, -0.6299 -1.0236 3.6102 ] } coordIndex [ 1, 2, 3, 0, -1, 7, 6, 5, 4, -1, 4, 5, 1, 0, -1, 5, 6, 2, 1, -1, 6, 7, 3, 2, -1, 7, 4, 0, 3, -1 ] }
  }
  Shape {
    appearance Appearance { material Material { diffuseColor 0.800 0.800 0.820 specularColor 0.15 0.15 0.15 shininess 0.25 } }
    geometry IndexedFaceSet { solid FALSE coord Coordinate { point [ 1.1102 1.8110 0.0000, 1.2520 1.8110 0.0000, 1.2520 0.7087 0.0000, 1.1102 0.7087 0.0000, 1.1102 1.8110 0.0787, 1.2520 1.8110 0.0787, 1.2520 0.7087 0.0787, 1.1102 0.7087 0.0787 ] } coordIndex [ 1, 2, 3, 0, -1, 7, 6, 5, 4, -1, 4, 5, 1, 0, -1, 5, 6, 2, 1, -1, 6, 7, 3, 2, -1, 7, 4, 0, 3, -1 ] }
  }
  Shape {
    appearance Appearance { material Material { diffuseColor 0.800 0.800 0.820 specularColor 0.15 0.15 0.15 shininess 0.25 } }
    geometry IndexedFaceSet { solid FALSE coord Coordinate { point [ 0.8150 1.8110 0.0000, 0.9567 1.8110 0.0000, 0.9567 0.7087 0.0000, 0.8150 0.7087 0.0000, 0.8150 1.8110 0.0787, 0.9567 1.8110 0.0787, 0.9567 0.7087 0.0787, 0.8150 0.7087 0.0787 ] } coordIndex [ 1, 2, 3, 0, -1, 7, 6, 5, 4, -1, 4, 5, 1, 0, -1, 5, 6, 2, 1, -1, 6, 7, 3, 2, -1, 7, 4, 0, 3, -1 ] }
  }
  Shape {
    appearance Appearance { material Material { diffuseColor 0.800 0.800 0.820 specularColor 0.15 0.15 0.15 shininess 0.25 } }
    geometry IndexedFaceSet { solid FALSE coord Coordinate { point [ 0.5197 1.8110 0.0000, 0.6614 1.8110 0.0000, 0.6614 0.7087 0.0000, 0.5197 0.7087 0.0000, 0.5197 1.8110 0.0787, 0.6614 1.8110 0.0787, 0.6614 0.7087 0.0787, 0.5197 0.7087 0.0787 ] } coordIndex [ 1, 2, 3, 0, -1, 7, 6, 5, 4, -1, 4, 5, 1, 0, -1, 5, 6, 2, 1, -1, 6, 7, 3, 2, -1, 7, 4, 0, 3, -1 ] }
  }
  Shape {
    appearance Appearance { material Material { diffuseColor 0.800 0.800 0.820 specularColor 0.15 0.15 0.15 shininess 0.25 } }
    geometry IndexedFaceSet { solid FALSE coord Coordinate { point [ 0.2244 1.8110 0.0000, 0.3661 1.8110 0.0000, 0.3661 0.7087 0.0000, 0.2244 0.7087 0.0000, 0.2244 1.8110 0.0787, 0.3661 1.8110 0.0787, 0.3661 0.7087 0.0787, 0.2244 0.7087 0.0787 ] } coordIndex [ 1, 2, 3, 0, -1, 7, 6, 5, 4, -1, 4, 5, 1, 0, -1, 5, 6, 2, 1, -1, 6, 7, 3, 2, -1, 7, 4, 0, 3, -1 ] }
  }
  Shape {
    appearance Appearance { material Material { diffuseColor 0.800 0.800 0.820 specularColor 0.15 0.15 0.15 shininess 0.25 } }
    geometry IndexedFaceSet { solid FALSE coord Coordinate { point [ -0.0709 1.8110 0.0000, 0.0709 1.8110 0.0000, 0.0709 0.7087 0.0000, -0.0709 0.7087 0.0000, -0.0709 1.8110 0.0787, 0.0709 1.8110 0.0787, 0.0709 0.7087 0.0787, -0.0709 0.7087 0.0787 ] } coordIndex [ 1, 2, 3, 0, -1, 7, 6, 5, 4, -1, 4, 5, 1, 0, -1, 5, 6, 2, 1, -1, 6, 7, 3, 2, -1, 7, 4, 0, 3, -1 ] }
  }
  Shape {
    appearance Appearance { material Material { diffuseColor 0.800 0.800 0.820 specularColor 0.15 0.15 0.15 shininess 0.25 } }
    geometry IndexedFaceSet { solid FALSE coord Coordinate { point [ -0.3661 1.8110 0.0000, -0.2244 1.8110 0.0000, -0.2244 0.7087 0.0000, -0.3661 0.7087 0.0000, -0.3661 1.8110 0.0787, -0.2244 1.8110 0.0787, -0.2244 0.7087 0.0787, -0.3661 0.7087 0.0787 ] } coordIndex [ 1, 2, 3, 0, -1, 7, 6, 5, 4, -1, 4, 5, 1, 0, -1, 5, 6, 2, 1, -1, 6, 7, 3, 2, -1, 7, 4, 0, 3, -1 ] }
  }
  Shape {
    appearance Appearance { material Material { diffuseColor 0.800 0.800 0.820 specularColor 0.15 0.15 0.15 shininess 0.25 } }
    geometry IndexedFaceSet { solid FALSE coord Coordinate { point [ -0.6614 1.8110 0.0000, -0.5197 1.8110 0.0000, -0.5197 0.7087 0.0000, -0.6614 0.7087 0.0000, -0.6614 1.8110 0.0787, -0.5197 1.8110 0.0787, -0.5197 0.7087 0.0787, -0.6614 0.7087 0.0787 ] } coordIndex [ 1, 2, 3, 0, -1, 7, 6, 5, 4, -1, 4, 5, 1, 0, -1, 5, 6, 2, 1, -1, 6, 7, 3, 2, -1, 7, 4, 0, 3, -1 ] }
  }
  Shape {
    appearance Appearance { material Material { diffuseColor 0.800 0.800 0.820 specularColor 0.15 0.15 0.15 shininess 0.25 } }
    geometry IndexedFaceSet { solid FALSE coord Coordinate { point [ -0.9567 1.8110 0.0000, -0.8150 1.8110 0.0000, -0.8150 0.7087 0.0000, -0.9567 0.7087 0.0000, -0.9567 1.8110 0.0787, -0.8150 1.8110 0.0787, -0.8150 0.7087 0.0787, -0.9567 0.7087 0.0787 ] } coordIndex [ 1, 2, 3, 0, -1, 7, 6, 5, 4, -1, 4, 5, 1, 0, -1, 5, 6, 2, 1, -1, 6, 7, 3, 2, -1, 7, 4, 0, 3, -1 ] }
  }
  Shape {
    appearance Appearance { material Material { diffuseColor 0.800 0.800 0.820 specularColor 0.15 0.15 0.15 shininess 0.25 } }
    geometry IndexedFaceSet { solid FALSE coord Coordinate { point [ -1.2520 1.8110 0.0000, -1.1102 1.8110 0.0000, -1.1102 0.7087 0.0000, -1.2520 0.7087 0.0000, -1.2520 1.8110 0.0787, -1.1102 1.8110 0.0787, -1.1102 0.7087 0.0787, -1.2520 0.7087 0.0787 ] } coordIndex [ 1, 2, 3, 0, -1, 7, 6, 5, 4, -1, 4, 5, 1, 0, -1, 5, 6, 2, 1, -1, 6, 7, 3, 2, -1, 7, 4, 0, 3, -1 ] }
  }
  Shape {
    appearance Appearance { material Material { diffuseColor 0.800 0.800 0.820 specularColor 0.15 0.15 0.15 shininess 0.25 } }
    geometry IndexedFaceSet { solid FALSE coord Coordinate { point [ -1.5472 1.8110 0.0000, -1.4055 1.8110 0.0000, -1.4055 0.7087 0.0000, -1.5472 0.7087 0.0000, -1.5472 1.8110 0.0787, -1.4055 1.8110 0.0787, -1.4055 0.7087 0.0787, -1.5472 0.7087 0.0787 ] } coordIndex [ 1, 2, 3, 0, -1, 7, 6, 5, 4, -1, 4, 5, 1, 0, -1, 5, 6, 2, 1, -1, 6, 7, 3, 2, -1, 7, 4, 0, 3, -1 ] }
  }
  Shape {
    appearance Appearance { material Material { diffuseColor 0.800 0.800 0.820 specularColor 0.15 0.15 0.15 shininess 0.25 } }
    geometry IndexedFaceSet { solid FALSE coord Coordinate { point [ -2.2835 0.0787 0.0000, -1.8898 0.0787 0.0000, -1.8898 -1.6929 0.0000, -2.2835 -1.6929 0.0000, -2.2835 0.0787 0.0591, -1.8898 0.0787 0.0591, -1.8898 -1.6929 0.0591, -2.2835 -1.6929 0.0591 ] } coordIndex [ 1, 2, 3, 0, -1, 7, 6, 5, 4, -1, 4, 5, 1, 0, -1, 5, 6, 2, 1, -1, 6, 7, 3, 2, -1, 7, 4, 0, 3, -1 ] }
  }
  Shape {
    appearance Appearance { material Material { diffuseColor 0.800 0.800 0.820 specularColor 0.15 0.15 0.15 shininess 0.25 } }
    geometry IndexedFaceSet { solid FALSE coord Coordinate { point [ 1.8898 0.0787 0.0000, 2.2835 0.0787 0.0000, 2.2835 -1.6929 0.0000, 1.8898 -1.6929 0.0000, 1.8898 0.0787 0.0591, 2.2835 0.0787 0.0591, 2.2835 -1.6929 0.0591, 1.8898 -1.6929 0.0591 ] } coordIndex [ 1, 2, 3, 0, -1, 7, 6, 5, 4, -1, 4, 5, 1, 0, -1, 5, 6, 2, 1, -1, 6, 7, 3, 2, -1, 7, 4, 0, 3, -1 ] }
  }
] }
