#VRML V2.0 utf8
# Molex CLIK-Mate 502494-0270 1x2 right-angle SMT receptacle (height estimated) - simplified placeholder model, generated by gen_3d_models.py
# units: 0.1 inch (KiCad VRML convention); Z up from the board
Group { children [
  Shape {
    appearance Appearance { material Material { diffuseColor 0.870 0.820 0.660 specularColor 0.15 0.15 0.15 shininess 0.25 } }
    geometry IndexedFaceSet { solid FALSE coord Coordinate { point [ -1.5748 0.7087 0.0197, 1.5748 0.7087 0.0197, 1.5748 -1.0039 0.0197, -1.5748 -1.0039 0.0197, -1.5748 0.7087 2.5591, 1.5748 0.7087 2.5591, 1.5748 -1.0039 2.5591, -1.5748 -1.0039 2.5591 ] } coordIndex [ 1, 2, 3, 0, -1, 7, 6, 5, 4, -1, 4, 5, 1, 0, -1, 5, 6, 2, 1, -1, 6, 7, 3, 2, -1, 7, 4, 0, 3, -1 ] }
  }
  Shape {
    appearance Appearance { material Material { diffuseColor 0.870 0.820 0.660 specularColor 0.15 0.15 0.15 shininess 0.25 } }
    geometry IndexedFaceSet { solid FALSE coord Coordinate { point [ -1.4449 -1.0039 0.0197, 1.4449 -1.0039 0.0197, 1.4449 -2.0276 0.0197, -1.4449 -2.0276 0.0197, -1.4449 -1.0039 2.5591, 1.4449 -1.0039 2.5591, 1.4449 -2.0276 2.5591, -1.4449 -2.0276 2.5591 ] } coordIndex [ 1, 2, 3, 0, -1, 7, 6, 5, 4, -1, 4, 5, 1, 0, -1, 5, 6, 2, 1, -1, 6, 7, 3, 2, -1, 7, 4, 0, 3, -1 ] }
  }
  Shape {
    appearance Appearance { material Material { diffuseColor 0.180 0.180 0.180 specularColor 0.15 0.15 0.15 shininess 0.25 } }
    geometry IndexedFaceSet { solid FALSE coord Coordinate { point [ -0.9449 -1.7717 0.4724, 0.9449 -1.7717 0.4724, 0.9449 -2.0315 0.4724, -0.9449 -2.0315 0.4724, -0.9449 -1.7717 2.0472, 0.9449 -1.7717 2.0472, 0.9449 -2.0315 2.0472, -0.9449 -2.0315 2.0472 ] } coordIndex [ 1, 2, 3, 0, -1, 7, 6, 5, 4, -1, 4, 5, 1, 0, -1, 5, 6, 2, 1, -1, 6, 7, 3, 2, -1, 7, 4, 0, 3, -1 ] }
  }
  Shape {
    appearance Appearance { material Material { diffuseColor 0.180 0.180 0.180 specularColor 0.15 0.15 0.15 shininess 0.25 } }
    geometry IndexedFaceSet { solid FALSE coord Coordinate { point [ -0.4724 -0.1969 2.5591, 0.4724 -0.1969 2.5591, 0.4724 -0.9843 2.5591, -0.4724 -0.9843 2.5591, -0.4724 -0.1969 2.5669, 0.4724 -0.1969 2.5669, 0.4724 -0.9843 2.5669, -0.4724 -0.9843 2.5669 ] } coordIndex [ 1, 2, 3, 0, -1, 7, 6, 5, 4, -1, 4, 5, 1, 0, -1, 5, 6, 2, 1, -1, 6, 7, 3, 2, -1, 7, 4, 0, 3, -1 ] }
  }
  Shape {
    appearance Appearance { material Material { diffuseColor 0.800 0.800 0.820 specularColor 0.15 0.15 0.15 shininess 0.25 } }
    geometry IndexedFaceSet { solid FALSE coord Coordinate { point [ -0.5709 1.5354 0.0000, -0.2165 1.5354 0.0000, -0.2165 0.6299 0.0000, -0.5709 0.6299 0.0000, -0.5709 1.5354 0.0787, -0.2165 1.5354 0.0787, -0.2165 0.6299 0.0787, -0.5709 0.6299 0.0787 ] } coordIndex [ 1, 2, 3, 0, -1, 7, 6, 5, 4, -1, 4, 5, 1, 0, -1, 5, 6, 2, 1, -1, 6, 7, 3, 2, -1, 7, 4, 0, 3, -1 ] }
  }
  Shape {
    appearance Appearance { material Material { diffuseColor 0.800 0.800 0.820 specularColor 0.15 0.15 0.15 shininess 0.25 } }
    geometry IndexedFaceSet { solid FALSE coord Coordinate { point [ 0.2165 1.5354 0.0000, 0.5709 1.5354 0.0000, 0.5709 0.6299 0.0000, 0.2165 0.6299 0.0000, 0.2165 1.5354 0.0787, 0.5709 1.5354 0.0787, 0.5709 0.6299 0.0787, 0.2165 0.6299 0.0787 ] } coordIndex [ 1, 2, 3, 0, -1, 7, 6, 5, 4, -1, 4, 5, 1, 0, -1, 5, 6, 2, 1, -1, 6, 7, 3, 2, -1, 7, 4, 0, 3, -1 ] }
  }
  Shape {
    appearance Appearance { material Material { diffuseColor 0.800 0.800 0.820 specularColor 0.15 0.15 0.15 shininess 0.25 } }
    geometry IndexedFaceSet { solid FALSE coord Coordinate { point [ -1.6535 -0.0394 0.0000, -0.9843 -0.0394 0.0000, -0.9843 -1.4961 0.0000, -1.6535 -1.4961 0.0000, -1.6535 -0.0394 0.0591, -0.9843 -0.0394 0.0591, -0.9843 -1.4961 0.0591, -1.6535 -1.4961 0.0591 ] } coordIndex [ 1, 2, 3, 0, -1, 7, 6, 5, 4, -1, 4, 5, 1, 0, -1, 5, 6, 2, 1, -1, 6, 7, 3, 2, -1, 7, 4, 0, 3, -1 ] }
  }
  Shape {
    appearance Appearance { material Material { diffuseColor 0.800 0.800 0.820 specularColor 0.15 0.15 0.15 shininess 0.25 } }
    geometry IndexedFaceSet { solid FALSE coord Coordinate { point [ 0.9843 -0.0394 0.0000, 1.6535 -0.0394 0.0000, 1.6535 -1.4961 0.0000, 0.9843 -1.4961 0.0000, 0.9843 -0.0394 0.0591, 1.6535 -0.0394 0.0591, 1.6535 -1.4961 0.0591, 0.9843 -1.4961 0.0591 ] } coordIndex [ 1, 2, 3, 0, -1, 7, 6, 5, 4, -1, 4, 5, 1, 0, -1, 5, 6, 2, 1, -1, 6, 7, 3, 2, -1, 7, 4, 0, 3, -1 ] }
  }
] }
