#VRML V2.0 utf8
# MP1584EN mini buck module 22x17 (D-SUN style) - simplified placeholder model, generated by gen_3d_models.py
# units: 0.1 inch (KiCad VRML convention); Z up from the board
Group { children [
  Shape {
    appearance Appearance { material Material { diffuseColor 0.120 0.300 0.650 specularColor 0.15 0.15 0.15 shininess 0.25 } }
    geometry IndexedFaceSet { solid FALSE coord Coordinate { point [ -4.3504 3.3071 0.0000, 4.3504 3.3071 0.0000, 4.3504 -3.3071 0.0000, -4.3504 -3.3071 0.0000, -4.3504 3.3071 0.4724, 4.3504 3.3071 0.4724, 4.3504 -3.3071 0.4724, -4.3504 -3.3071 0.4724 ] } coordIndex [ 1, 2, 3, 0, -1, 7, 6, 5, 4, -1, 4, 5, 1, 0, -1, 5, 6, 2, 1, -1, 6, 7, 3, 2, -1, 7, 4, 0, 3, -1 ] }
  }
  Shape {
    appearance Appearance { material Material { diffuseColor 0.800 0.800 0.820 specularColor 0.15 0.15 0.15 shininess 0.25 } }
    geometry IndexedFaceSet { solid FALSE coord Coordinate { point [ -3.0594 1.6000 0.4724, -3.0796 1.4472 0.4724, -3.1386 1.3047 0.4724, -3.2324 1.1824 0.4724, -3.3547 1.0886 0.4724, -3.4972 1.0296 0.4724, -3.6500 1.0094 0.4724, -3.8028 1.0296 0.4724, -3.9453 1.0886 0.4724, -4.0676 1.1824 0.4724, -4.1614 1.3047 0.4724, -4.2204 1.4472 0.4724, -4.2406 1.6000 0.4724, -4.2204 1.7528 0.4724, -4.1614 1.8953 0.4724, -4.0676 2.0176 0.4724, -3.9453 2.1114 0.4724, -3.8028 2.1704 0.4724, -3.6500 2.1906 0.4724, -3.4972 2.1704 0.4724, -3.3547 2.1114 0.4724, -3.2324 2.0176 0.4724, -3.1386 1.8953 0.4724, -3.0796 1.7528 0.4724, -3.0594 1.6000 0.4921, -3.0796 1.4472 0.4921, -3.1386 1.3047 0.4921, -3.2324 1.1824 0.4921, -3.3547 1.0886 0.4921, -3.4972 1.0296 0.4921, -3.6500 1.0094 0.4921, -3.8028 1.0296 0.4921, -3.9453 1.0886 0.4921, -4.0676 1.1824 0.4921, -4.1614 1.3047 0.4921, -4.2204 1.4472 0.4921, -4.2406 1.6000 0.4921, -4.2204 1.7528 0.4921, -4.1614 1.8953 0.4921, -4.0676 2.0176 0.4921, -3.9453 2.1114 0.4921, -3.8028 2.1704 0.4921, -3.6500 2.1906 0.4921, -3.4972 2.1704 0.4921, -3.3547 2.1114 0.4921, -3.2324 2.0176 0.4921, -3.1386 1.8953 0.4921, -3.0796 1.7528 0.4921 ] } coordIndex [ 0, 1, 2, 3, 4, 5, 6, 7, 8, 9, 10, 11, 12, 13, 14, 15, 16, 17, 18, 19, 20, 21, 22, 23, -1, 47, 46, 45, 44, 43, 42, 41, 40, 39, 38, 37, 36, 35, 34, 33, 32, 31, 30, 29, 28, 27, 26, 25, 24, -1, 24, 25, 1, 0, -1, 25, 26, 2, 1, -1, 26, 27, 3, 2, -1, 27, 28, 4, 3, -1, 28, 29, 5, 4, -1, 29, 30, 6, 5, -1, 30, 31, 7, 6, -1, 31, 32, 8, 7, -1, 32, 33, 9, 8, -1, 33, 34, 10, 9, -1, 34, 35, 11, 10, -1, 35, 36, 12, 11, -1, 36, 37, 13, 12, -1, 37, 38, 14, 13, -1, 38, 39, 15, 14, -1, 39, 40, 16, 15, -1, 40, 41, 17, 16, -1, 41, 42, 18, 17, -1, 42, 43, 19, 18, -1, 43, 44, 20, 19, -1, 44, 45, 21, 20, -1, 45, 46, 22, 21, -1, 46, 47, 23, 22, -1, 47, 24, 0, 23, -1 ] }
  }
  Shape {
    appearance Appearance { material Material { diffuseColor 0.800 0.800 0.820 specularColor 0.15 0.15 0.15 shininess 0.25 } }
    geometry IndexedFaceSet { solid FALSE coord Coordinate { point [ -3.0594 -1.6000 0.4724, -3.0796 -1.7528 0.4724, -3.1386 -1.8953 0.4724, -3.2324 -2.0176 0.4724, -3.3547 -2.1114 0.4724, -3.4972 -2.1704 0.4724, -3.6500 -2.1906 0.4724, -3.8028 -2.1704 0.4724, -3.9453 -2.1114 0.4724, -4.0676 -2.0176 0.4724, -4.1614 -1.8953 0.4724, -4.2204 -1.7528 0.4724, -4.2406 -1.6000 0.4724, -4.2204 -1.4472 0.4724, -4.1614 -1.3047 0.4724, -4.0676 -1.1824 0.4724, -3.9453 -1.0886 0.4724, -3.8028 -1.0296 0.4724, -3.6500 -1.0094 0.4724, -3.4972 -1.0296 0.4724, -3.3547 -1.0886 0.4724, -3.2324 -1.1824 0.4724, -3.1386 -1.3047 0.4724, -3.0796 -1.4472 0.4724, -3.0594 -1.6000 0.4921, -3.0796 -1.7528 0.4921, -3.1386 -1.8953 0.4921, -3.2324 -2.0176 0.4921, -3.3547 -2.1114 0.4921, -3.4972 -2.1704 0.4921, -3.6500 -2.1906 0.4921, -3.8028 -2.1704 0.4921, -3.9453 -2.1114 0.4921, -4.0676 -2.0176 0.4921, -4.1614 -1.8953 0.4921, -4.2204 -1.7528 0.4921, -4.2406 -1.6000 0.4921, -4.2204 -1.4472 0.4921, -4.1614 -1.3047 0.4921, -4.0676 -1.1824 0.4921, -3.9453 -1.0886 0.4921, -3.8028 -1.0296 0.4921, -3.6500 -1.0094 0.4921, -3.4972 -1.0296 0.4921, -3.3547 -1.0886 0.4921, -3.2324 -1.1824 0.4921, -3.1386 -1.3047 0.4921, -3.0796 -1.4472 0.4921 ] } coordIndex [ 0, 1, 2, 3, 4, 5, 6, 7, 8, 9, 10, 11, 12, 13, 14, 15, 16, 17, 18, 19, 20, 21, 22, 23, -1, 47, 46, 45, 44, 43, 42, 41, 40, 39, 38, 37, 36, 35, 34, 33, 32, 31, 30, 29, 28, 27, 26, 25, 24, -1, 24, 25, 1, 0, -1, 25, 26, 2, 1, -1, 26, 27, 3, 2, -1, 27, 28, 4, 3, -1, 28, 29, 5, 4, -1, 29, 30, 6, 5, -1, 30, 31, 7, 6, -1, 31, 32, 8, 7, -1, 32, 33, 9, 8, -1, 33, 34, 10, 9, -1, 34, 35, 11, 10, -1, 35, 36, 12, 11, -1, 36, 37, 13, 12, -1, 37, 38, 14, 13, -1, 38, 39, 15, 14, -1, 39, 40, 16, 15, -1, 40, 41, 17, 16, -1, 41, 42, 18, 17, -1, 42, 43, 19, 18, -1, 43, 44, 20, 19, -1, 44, 45, 21, 20, -1, 45, 46, 22, 21, -1, 46, 47, 23, 22, -1, 47, 24, 0, 23, -1 ] }
  }
  Shape {
    appearance Appearance { material Material { diffuseColor 0.800 0.800 0.820 specularColor 0.15 0.15 0.15 shininess 0.25 } }
    geometry IndexedFaceSet { solid FALSE coord Coordinate { point [ 4.2406 1.6000 0.4724, 4.2204 1.4472 0.4724, 4.1614 1.3047 0.4724, 4.0676 1.1824 0.4724, 3.9453 1.0886 0.4724, 3.8028 1.0296 0.4724, 3.6500 1.0094 0.4724, 3.4972 1.0296 0.4724, 3.3547 1.0886 0.4724, 3.2324 1.1824 0.4724, 3.1386 1.3047 0.4724, 3.0796 1.4472 0.4724, 3.0594 1.6000 0.4724, 3.0796 1.7528 0.4724, 3.1386 1.8953 0.4724, 3.2324 2.0176 0.4724, 3.3547 2.1114 0.4724, 3.4972 2.1704 0.4724, 3.6500 2.1906 0.4724, 3.8028 2.1704 0.4724, 3.9453 2.1114 0.4724, 4.0676 2.0176 0.4724, 4.1614 1.8953 0.4724, 4.2204 1.7528 0.4724, 4.2406 1.6000 0.4921, 4.2204 1.4472 0.4921, 4.1614 1.3047 0.4921, 4.0676 1.1824 0.4921, 3.9453 1.0886 0.4921, 3.8028 1.0296 0.4921, 3.6500 1.0094 0.4921, 3.4972 1.0296 0.4921, 3.3547 1.0886 0.4921, 3.2324 1.1824 0.4921, 3.1386 1.3047 0.4921, 3.0796 1.4472 0.4921, 3.0594 1.6000 0.4921, 3.0796 1.7528 0.4921, 3.1386 1.8953 0.4921, 3.2324 2.0176 0.4921, 3.3547 2.1114 0.4921, 3.4972 2.1704 0.4921, 3.6500 2.1906 0.4921, 3.8028 2.1704 0.4921, 3.9453 2.1114 0.4921, 4.0676 2.0176 0.4921, 4.1614 1.8953 0.4921, 4.2204 1.7528 0.4921 ] } coordIndex [ 0, 1, 2, 3, 4, 5, 6, 7, 8, 9, 10, 11, 12, 13, 14, 15, 16, 17, 18, 19, 20, 21, 22, 23, -1, 47, 46, 45, 44, 43, 42, 41, 40, 39, 38, 37, 36, 35, 34, 33, 32, 31, 30, 29, 28, 27, 26, 25, 24, -1, 24, 25, 1, 0, -1, 25, 26, 2, 1, -1, 26, 27, 3, 2, -1, 27, 28, 4, 3, -1, 28, 29, 5, 4, -1, 29, 30, 6, 5, -1, 30, 31, 7, 6, -1, 31, 32, 8, 7, -1, 32, 33, 9, 8, -1, 33, 34, 10, 9, -1, 34, 35, 11, 10, -1, 35, 36, 12, 11, -1, 36, 37, 13, 12, -1, 37, 38, 14, 13, -1, 38, 39, 15, 14, -1, 39, 40, 16, 15, -1, 40, 41, 17, 16, -1, 41, 42, 18, 17, -1, 42, 43, 19, 18, -1, 43, 44, 20, 19, -1, 44, 45, 21, 20, -1, 45, 46, 22, 21, -1, 46, 47, 23, 22, -1, 47, 24, 0, 23, -1 ] }
  }
  Shape {
    appearance Appearance { material Material { diffuseColor 0.800 0.800 0.820 specularColor 0.15 0.15 0.15 shininess 0.25 } }
    geometry IndexedFaceSet { solid FALSE coord Coordinate { point [ 4.2406 -1.6000 0.4724, 4.2204 -1.7528 0.4724, 4.1614 -1.8953 0.4724, 4.0676 -2.0176 0.4724, 3.9453 -2.1114 0.4724, 3.8028 -2.1704 0.4724, 3.6500 -2.1906 0.4724, 3.4972 -2.1704 0.4724, 3.3547 -2.1114 0.4724, 3.2324 -2.0176 0.4724, 3.1386 -1.8953 0.4724, 3.0796 -1.7528 0.4724, 3.0594 -1.6000 0.4724, 3.0796 -1.4472 0.4724, 3.1386 -1.3047 0.4724, 3.2324 -1.1824 0.4724, 3.3547 -1.0886 0.4724, 3.4972 -1.0296 0.4724, 3.6500 -1.0094 0.4724, 3.8028 -1.0296 0.4724, 3.9453 -1.0886 0.4724, 4.0676 -1.1824 0.4724, 4.1614 -1.3047 0.4724, 4.2204 -1.4472 0.4724, 4.2406 -1.6000 0.4921, 4.2204 -1.7528 0.4921, 4.1614 -1.8953 0.4921, 4.0676 -2.0176 0.4921, 3.9453 -2.1114 0.4921, 3.8028 -2.1704 0.4921, 3.6500 -2.1906 0.4921, 3.4972 -2.1704 0.4921, 3.3547 -2.1114 0.4921, 3.2324 -2.0176 0.4921, 3.1386 -1.8953 0.4921, 3.0796 -1.7528 0.4921, 3.0594 -1.6000 0.4921, 3.0796 -1.4472 0.4921, 3.1386 -1.3047 0.4921, 3.2324 -1.1824 0.4921, 3.3547 -1.0886 0.4921, 3.4972 -1.0296 0.4921, 3.6500 -1.0094 0.4921, 3.8028 -1.0296 0.4921, 3.9453 -1.0886 0.4921, 4.0676 -1.1824 0.4921, 4.1614 -1.3047 0.4921, 4.2204 -1.4472 0.4921 ] } coordIndex [ 0, 1, 2, 3, 4, 5, 6, 7, 8, 9, 10, 11, 12, 13, 14, 15, 16, 17, 18, 19, 20, 21, 22, 23, -1, 47, 46, 45, 44, 43, 42, 41, 40, 39, 38, 37, 36, 35, 34, 33, 32, 31, 30, 29, 28, 27, 26, 25, 24, -1, 24, 25, 1, 0, -1, 25, 26, 2, 1, -1, 26, 27, 3, 2, -1, 27, 28, 4, 3, -1, 28, 29, 5, 4, -1, 29, 30, 6, 5, -1, 30, 31, 7, 6, -1, 31, 32, 8, 7, -1, 32, 33, 9, 8, -1, 33, 34, 10, 9, -1, 34, 35, 11, 10, -1, 35, 36, 12, 11, -1, 36, 37, 13, 12, -1, 37, 38, 14, 13, -1, 38, 39, 15, 14, -1, 39, 40, 16, 15, -1, 40, 41, 17, 16, -1, 41, 42, 18, 17, -1, 42, 43, 19, 18, -1, 43, 44, 20, 19, -1, 44, 45, 21, 20, -1, 45, 46, 22, 21, -1, 46, 47, 23, 22, -1, 47, 24, 0, 23, -1 ] }
  }
  Shape {
    appearance Appearance { material Material { diffuseColor 0.100 0.100 0.100 specularColor 0.15 0.15 0.15 shininess 0.25 } }
    geometry IndexedFaceSet { solid FALSE coord Coordinate { point [ -3.3465 1.1811 0.4724, -0.9843 1.1811 0.4724, -0.9843 -1.1811 0.4724, -3.3465 -1.1811 0.4724, -3.3465 1.1811 1.6535, -0.9843 1.1811 1.6535, -0.9843 -1.1811 1.6535, -3.3465 -1.1811 1.6535 ] } coordIndex [ 1, 2, 3, 0, -1, 7, 6, 5, 4, -1, 4, 5, 1, 0, -1, 5, 6, 2, 1, -1, 6, 7, 3, 2, -1, 7, 4, 0, 3, -1 ] }
  }
  Shape {
    appearance Appearance { material Material { diffuseColor 0.100 0.100 0.100 specularColor 0.15 0.15 0.15 shininess 0.25 } }
    geometry IndexedFaceSet { solid FALSE coord Coordinate { point [ -0.1969 0.7874 0.4724, 1.7717 0.7874 0.4724, 1.7717 -0.7874 0.4724, -0.1969 -0.7874 0.4724, -0.1969 0.7874 1.0630, 1.7717 0.7874 1.0630, 1.7717 -0.7874 1.0630, -0.1969 -0.7874 1.0630 ] } coordIndex [ 1, 2, 3, 0, -1, 7, 6, 5, 4, -1, 4, 5, 1, 0, -1, 5, 6, 2, 1, -1, 6, 7, 3, 2, -1, 7, 4, 0, 3, -1 ] }
  }
  Shape {
    appearance Appearance { material Material { diffuseColor 0.800 0.800 0.820 specularColor 0.15 0.15 0.15 shininess 0.25 } }
    geometry IndexedFaceSet { solid FALSE coord Coordinate { point [ -0.1969 -0.7874 0.4724, 1.7717 -0.7874 0.4724, 1.7717 -1.1417 0.4724, -0.1969 -1.1417 0.4724, -0.1969 -0.7874 0.5709, 1.7717 -0.7874 0.5709, 1.7717 -1.1417 0.5709, -0.1969 -1.1417 0.5709 ] } coordIndex [ 1, 2, 3, 0, -1, 7, 6, 5, 4, -1, 4, 5, 1, 0, -1, 5, 6, 2, 1, -1, 6, 7, 3, 2, -1, 7, 4, 0, 3, -1 ] }
  }
  Shape {
    appearance Appearance { material Material { diffuseColor 0.800 0.800 0.820 specularColor 0.15 0.15 0.15 shininess 0.25 } }
    geometry IndexedFaceSet { solid FALSE coord Coordinate { point [ -0.1969 1.1417 0.4724, 1.7717 1.1417 0.4724, 1.7717 0.7874 0.4724, -0.1969 0.7874 0.4724, -0.1969 1.1417 0.5709, 1.7717 1.1417 0.5709, 1.7717 0.7874 0.5709, -0.1969 0.7874 0.5709 ] } coordIndex [ 1, 2, 3, 0, -1, 7, 6, 5, 4, -1, 4, 5, 1, 0, -1, 5, 6, 2, 1, -1, 6, 7, 3, 2, -1, 7, 4, 0, 3, -1 ] }
  }
  Shape {
    appearance Appearance { material Material { diffuseColor 0.150 0.300 0.700 specularColor 0.15 0.15 0.15 shininess 0.25 } }
    geometry IndexedFaceSet { solid FALSE coord Coordinate { point [ 2.4803 -0.7480 0.4724, 3.6614 -0.7480 0.4724, 3.6614 -2.2441 0.4724, 2.4803 -2.2441 0.4724, 2.4803 -0.7480 2.3228, 3.6614 -0.7480 2.3228, 3.6614 -2.2441 2.3228, 2.4803 -2.2441 2.3228 ] } coordIndex [ 1, 2, 3, 0, -1, 7, 6, 5, 4, -1, 4, 5, 1, 0, -1, 5, 6, 2, 1, -1, 6, 7, 3, 2, -1, 7, 4, 0, 3, -1 ] }
  }
  Shape {
    appearance Appearance { material Material { diffuseColor 0.800 0.800 0.820 specularColor 0.15 0.15 0.15 shininess 0.25 } }
    geometry IndexedFaceSet { solid FALSE coord Coordinate { point [ 3.4252 -1.4961 2.3228, 3.4131 -1.5878 2.3228, 3.3777 -1.6732 2.3228, 3.3214 -1.7466 2.3228, 3.2480 -1.8029 2.3228, 3.1626 -1.8383 2.3228, 3.0709 -1.8504 2.3228, 2.9792 -1.8383 2.3228, 2.8937 -1.8029 2.3228, 2.8203 -1.7466 2.3228, 2.7640 -1.6732 2.3228, 2.7286 -1.5878 2.3228, 2.7165 -1.4961 2.3228, 2.7286 -1.4044 2.3228, 2.7640 -1.3189 2.3228, 2.8203 -1.2455 2.3228, 2.8937 -1.1892 2.3228, 2.9792 -1.1538 2.3228, 3.0709 -1.1417 2.3228, 3.1626 -1.1538 2.3228, 3.2480 -1.1892 2.3228, 3.3214 -1.2455 2.3228, 3.3777 -1.3189 2.3228, 3.4131 -1.4044 2.3228, 3.4252 -1.4961 2.3622, 3.4131 -1.5878 2.3622, 3.3777 -1.6732 2.3622, 3.3214 -1.7466 2.3622, 3.2480 -1.8029 2.3622, 3.1626 -1.8383 2.3622, 3.0709 -1.8504 2.3622, 2.9792 -1.8383 2.3622, 2.8937 -1.8029 2.3622, 2.8203 -1.7466 2.3622, 2.7640 -1.6732 2.3622, 2.7286 -1.5878 2.3622, 2.7165 -1.4961 2.3622, 2.7286 -1.4044 2.3622, 2.7640 -1.3189 2.3622, 2.8203 -1.2455 2.3622, 2.8937 -1.1892 2.3622, 2.9792 -1.1538 2.3622, 3.0709 -1.1417 2.3622, 3.1626 -1.1538 2.3622, 3.2480 -1.1892 2.3622, 3.3214 -1.2455 2.3622, 3.3777 -1.3189 2.3622, 3.4131 -1.4044 2.3622 ] } coordIndex [ 0, 1, 2, 3, 4, 5, 6, 7, 8, 9, 10, 11, 12, 13, 14, 15, 16, 17, 18, 19, 20, 21, 22, 23, -1, 47, 46, 45, 44, 43, 42, 41, 40, 39, 38, 37, 36, 35, 34, 33, 32, 31, 30, 29, 28, 27, 26, 25, 24, -1, 24, 25, 1, 0, -1, 25, 26, 2, 1, -1, 26, 27, 3, 2, -1, 27, 28, 4, 3, -1, 28, 29, 5, 4, -1, 29, 30, 6, 5, -1, 30, 31, 7, 6, -1, 31, 32, 8, 7, -1, 32, 33, 9, 8, -1, 33, 34, 10, 9, -1, 34, 35, 11, 10, -1, 35, 36, 12, 11, -1, 36, 37, 13, 12, -1, 37, 38, 14, 13, -1, 38, 39, 15, 14, -1, 39, 40, 16, 15, -1, 40, 41, 17, 16, -1, 41, 42, 18, 17, -1, 42, 43, 19, 18, -1, 43, 44, 20, 19, -1, 44, 45, 21, 20, -1, 45, 46, 22, 21, -1, 46, 47, 23, 22, -1, 47, 24, 0, 23, -1 ] }
  }
  Shape {
    appearance Appearance { material Material { diffuseColor 0.750 0.700 0.600 specularColor 0.15 0.15 0.15 shininess 0.25 } }
    geometry IndexedFaceSet { solid FALSE coord Coordinate { point [ -3.8583 -1.8898 0.4724, -2.5984 -1.8898 0.4724, -2.5984 -2.5197 0.4724, -3.8583 -2.5197 0.4724, -3.8583 -1.8898 1.0630, -2.5984 -1.8898 1.0630, -2.5984 -2.5197 1.0630, -3.8583 -2.5197 1.0630 ] } coordIndex [ 1, 2, 3, 0, -1, 7, 6, 5, 4, -1, 4, 5, 1, 0, -1, 5, 6, 2, 1, -1, 6, 7, 3, 2, -1, 7, 4, 0, 3, -1 ] }
  }
  Shape {
    appearance Appearance { material Material { diffuseColor 0.750 0.700 0.600 specularColor 0.15 0.15 0.15 shininess 0.25 } }
    geometry IndexedFaceSet { solid FALSE coord Coordinate { point [ 1.9685 2.5197 0.4724, 3.2283 2.5197 0.4724, 3.2283 1.8898 0.4724, 1.9685 1.8898 0.4724, 1.9685 2.5197 1.0630, 3.2283 2.5197 1.0630, 3.2283 1.8898 1.0630, 1.9685 1.8898 1.0630 ] } coordIndex [ 1, 2, 3, 0, -1, 7, 6, 5, 4, -1, 4, 5, 1, 0, -1, 5, 6, 2, 1, -1, 6, 7, 3, 2, -1, 7, 4, 0, 3, -1 ] }
  }
  Shape {
    appearance Appearance { material Material { diffuseColor 0.100 0.100 0.100 specularColor 0.15 0.15 0.15 shininess 0.25 } }
    geometry IndexedFaceSet { solid FALSE coord Coordinate { point [ 0.0000 -1.8898 0.4724, 1.0630 -1.8898 0.4724, 1.0630 -2.5197 0.4724, 0.0000 -2.5197 0.4724, 0.0000 -1.8898 0.8661, 1.0630 -1.8898 0.8661, 1.0630 -2.5197 0.8661, 0.0000 -2.5197 0.8661 ] } coordIndex [ 1, 2, 3, 0, -1, 7, 6, 5, 4, -1, 4, 5, 1, 0, -1, 5, 6, 2, 1, -1, 6, 7, 3, 2, -1, 7, 4, 0, 3, -1 ] }
  }
] }
