#VRML V2.0 utf8
# Seeed XIAO ESP32C6 on two 1x7 2.54 mm sockets - simplified placeholder model, generated by gen_3d_models.py
# units: 0.1 inch (KiCad VRML convention); Z up from the board
Group { children [
  Shape {
    appearance Appearance { material Material { diffuseColor 0.100 0.100 0.100 specularColor 0.15 0.15 0.15 shininess 0.25 } }
    geometry IndexedFaceSet { solid FALSE coord Coordinate { point [ -3.5000 3.5000 0.0000, 3.5000 3.5000 0.0000, 3.5000 2.5000 0.0000, -3.5000 2.5000 0.0000, -3.5000 3.5000 3.3465, 3.5000 3.5000 3.3465, 3.5000 2.5000 3.3465, -3.5000 2.5000 3.3465 ] } coordIndex [ 1, 2, 3, 0, -1, 7, 6, 5, 4, -1, 4, 5, 1, 0, -1, 5, 6, 2, 1, -1, 6, 7, 3, 2, -1, 7, 4, 0, 3, -1 ] }
  }
  Shape {
    appearance Appearance { material Material { diffuseColor 0.030 0.030 0.030 specularColor 0.15 0.15 0.15 shininess 0.25 } }
    geometry IndexedFaceSet { solid FALSE coord Coordinate { point [ -3.1772 3.1772 3.3465, -2.8228 3.1772 3.3465, -2.8228 2.8228 3.3465, -3.1772 2.8228 3.3465, -3.1772 3.1772 3.3504, -2.8228 3.1772 3.3504, -2.8228 2.8228 3.3504, -3.1772 2.8228 3.3504 ] } coordIndex [ 1, 2, 3, 0, -1, 7, 6, 5, 4, -1, 4, 5, 1, 0, -1, 5, 6, 2, 1, -1, 6, 7, 3, 2, -1, 7, 4, 0, 3, -1 ] }
  }
  Shape {
    appearance Appearance { material Material { diffuseColor 0.030 0.030 0.030 specularColor 0.15 0.15 0.15 shininess 0.25 } }
    geometry IndexedFaceSet { solid FALSE coord Coordinate { point [ -2.1772 3.1772 3.3465, -1.8228 3.1772 3.3465, -1.8228 2.8228 3.3465, -2.1772 2.8228 3.3465, -2.1772 3.1772 3.3504, -1.8228 3.1772 3.3504, -1.8228 2.8228 3.3504, -2.1772 2.8228 3.3504 ] } coordIndex [ 1, 2, 3, 0, -1, 7, 6, 5, 4, -1, 4, 5, 1, 0, -1, 5, 6, 2, 1, -1, 6, 7, 3, 2, -1, 7, 4, 0, 3, -1 ] }
  }
  Shape {
    appearance Appearance { material Material { diffuseColor 0.030 0.030 0.030 specularColor 0.15 0.15 0.15 shininess 0.25 } }
    geometry IndexedFaceSet { solid FALSE coord Coordinate { point [ -1.1772 3.1772 3.3465, -0.8228 3.1772 3.3465, -0.8228 2.8228 3.3465, -1.1772 2.8228 3.3465, -1.1772 3.1772 3.3504, -0.8228 3.1772 3.3504, -0.8228 2.8228 3.3504, -1.1772 2.8228 3.3504 ] } coordIndex [ 1, 2, 3, 0, -1, 7, 6, 5, 4, -1, 4, 5, 1, 0, -1, 5, 6, 2, 1, -1, 6, 7, 3, 2, -1, 7, 4, 0, 3, -1 ] }
  }
  Shape {
    appearance Appearance { material Material { diffuseColor 0.030 0.030 0.030 specularColor 0.15 0.15 0.15 shininess 0.25 } }
    geometry IndexedFaceSet { solid FALSE coord Coordinate { point [ -0.1772 3.1772 3.3465, 0.1772 3.1772 3.3465, 0.1772 2.8228 3.3465, -0.1772 2.8228 3.3465, -0.1772 3.1772 3.3504, 0.1772 3.1772 3.3504, 0.1772 2.8228 3.3504, -0.1772 2.8228 3.3504 ] } coordIndex [ 1, 2, 3, 0, -1, 7, 6, 5, 4, -1, 4, 5, 1, 0, -1, 5, 6, 2, 1, -1, 6, 7, 3, 2, -1, 7, 4, 0, 3, -1 ] }
  }
  Shape {
    appearance Appearance { material Material { diffuseColor 0.030 0.030 0.030 specularColor 0.15 0.15 0.15 shininess 0.25 } }
    geometry IndexedFaceSet { solid FALSE coord Coordinate { point [ 0.8228 3.1772 3.3465, 1.1772 3.1772 3.3465, 1.1772 2.8228 3.3465, 0.8228 2.8228 3.3465, 0.8228 3.1772 3.3504, 1.1772 3.1772 3.3504, 1.1772 2.8228 3.3504, 0.8228 2.8228 3.3504 ] } coordIndex [ 1, 2, 3, 0, -1, 7, 6, 5, 4, -1, 4, 5, 1, 0, -1, 5, 6, 2, 1, -1, 6, 7, 3, 2, -1, 7, 4, 0, 3, -1 ] }
  }
  Shape {
    appearance Appearance { material Material { diffuseColor 0.030 0.030 0.030 specularColor 0.15 0.15 0.15 shininess 0.25 } }
    geometry IndexedFaceSet { solid FALSE coord Coordinate { point [ 1.8228 3.1772 3.3465, 2.1772 3.1772 3.3465, 2.1772 2.8228 3.3465, 1.8228 2.8228 3.3465, 1.8228 3.1772 3.3504, 2.1772 3.1772 3.3504, 2.1772 2.8228 3.3504, 1.8228 2.8228 3.3504 ] } coordIndex [ 1, 2, 3, 0, -1, 7, 6, 5, 4, -1, 4, 5, 1, 0, -1, 5, 6, 2, 1, -1, 6, 7, 3, 2, -1, 7, 4, 0, 3, -1 ] }
  }
  Shape {
    appearance Appearance { material Material { diffuseColor 0.030 0.030 0.030 specularColor 0.15 0.15 0.15 shininess 0.25 } }
    geometry IndexedFaceSet { solid FALSE coord Coordinate { point [ 2.8228 3.1772 3.3465, 3.1772 3.1772 3.3465, 3.1772 2.8228 3.3465, 2.8228 2.8228 3.3465, 2.8228 3.1772 3.3504, 3.1772 3.1772 3.3504, 3.1772 2.8228 3.3504, 2.8228 2.8228 3.3504 ] } coordIndex [ 1, 2, 3, 0, -1, 7, 6, 5, 4, -1, 4, 5, 1, 0, -1, 5, 6, 2, 1, -1, 6, 7, 3, 2, -1, 7, 4, 0, 3, -1 ] }
  }
  Shape {
    appearance Appearance { material Material { diffuseColor 0.100 0.100 0.100 specularColor 0.15 0.15 0.15 shininess 0.25 } }
    geometry IndexedFaceSet { solid FALSE coord Coordinate { point [ -3.5000 -2.5000 0.0000, 3.5000 -2.5000 0.0000, 3.5000 -3.5000 0.0000, -3.5000 -3.5000 0.0000, -3.5000 -2.5000 3.3465, 3.5000 -2.5000 3.3465, 3.5000 -3.5000 3.3465, -3.5000 -3.5000 3.3465 ] } coordIndex [ 1, 2, 3, 0, -1, 7, 6, 5, 4, -1, 4, 5, 1, 0, -1, 5, 6, 2, 1, -1, 6, 7, 3, 2, -1, 7, 4, 0, 3, -1 ] }
  }
  Shape {
    appearance Appearance { material Material { diffuseColor 0.030 0.030 0.030 specularColor 0.15 0.15 0.15 shininess 0.25 } }
    geometry IndexedFaceSet { solid FALSE coord Coordinate { point [ -3.1772 -2.8228 3.3465, -2.8228 -2.8228 3.3465, -2.8228 -3.1772 3.3465, -3.1772 -3.1772 3.3465, -3.1772 -2.8228 3.3504, -2.8228 -2.8228 3.3504, -2.8228 -3.1772 3.3504, -3.1772 -3.1772 3.3504 ] } coordIndex [ 1, 2, 3, 0, -1, 7, 6, 5, 4, -1, 4, 5, 1, 0, -1, 5, 6, 2, 1, -1, 6, 7, 3, 2, -1, 7, 4, 0, 3, -1 ] }
  }
  Shape {
    appearance Appearance { material Material { diffuseColor 0.030 0.030 0.030 specularColor 0.15 0.15 0.15 shininess 0.25 } }
    geometry IndexedFaceSet { solid FALSE coord Coordinate { point [ -2.1772 -2.8228 3.3465, -1.8228 -2.8228 3.3465, -1.8228 -3.1772 3.3465, -2.1772 -3.1772 3.3465, -2.1772 -2.8228 3.3504, -1.8228 -2.8228 3.3504, -1.8228 -3.1772 3.3504, -2.1772 -3.1772 3.3504 ] } coordIndex [ 1, 2, 3, 0, -1, 7, 6, 5, 4, -1, 4, 5, 1, 0, -1, 5, 6, 2, 1, -1, 6, 7, 3, 2, -1, 7, 4, 0, 3, -1 ] }
  }
  Shape {
    appearance Appearance { material Material { diffuseColor 0.030 0.030 0.030 specularColor 0.15 0.15 0.15 shininess 0.25 } }
    geometry IndexedFaceSet { solid FALSE coord Coordinate { point [ -1.1772 -2.8228 3.3465, -0.8228 -2.8228 3.3465, -0.8228 -3.1772 3.3465, -1.1772 -3.1772 3.3465, -1.1772 -2.8228 3.3504, -0.8228 -2.8228 3.3504, -0.8228 -3.1772 3.3504, -1.1772 -3.1772 3.3504 ] } coordIndex [ 1, 2, 3, 0, -1, 7, 6, 5, 4, -1, 4, 5, 1, 0, -1, 5, 6, 2, 1, -1, 6, 7, 3, 2, -1, 7, 4, 0, 3, -1 ] }
  }
  Shape {
    appearance Appearance { material Material { diffuseColor 0.030 0.030 0.030 specularColor 0.15 0.15 0.15 shininess 0.25 } }
    geometry IndexedFaceSet { solid FALSE coord Coordinate { point [ -0.1772 -2.8228 3.3465, 0.1772 -2.8228 3.3465, 0.1772 -3.1772 3.3465, -0.1772 -3.1772 3.3465, -0.1772 -2.8228 3.3504, 0.1772 -2.8228 3.3504, 0.1772 -3.1772 3.3504, -0.1772 -3.1772 3.3504 ] } coordIndex [ 1, 2, 3, 0, -1, 7, 6, 5, 4, -1, 4, 5, 1, 0, -1, 5, 6, 2, 1, -1, 6, 7, 3, 2, -1, 7, 4, 0, 3, -1 ] }
  }
  Shape {
    appearance Appearance { material Material { diffuseColor 0.030 0.030 0.030 specularColor 0.15 0.15 0.15 shininess 0.25 } }
    geometry IndexedFaceSet { solid FALSE coord Coordinate { point [ 0.8228 -2.8228 3.3465, 1.1772 -2.8228 3.3465, 1.1772 -3.1772 3.3465, 0.8228 -3.1772 3.3465, 0.8228 -2.8228 3.3504, 1.1772 -2.8228 3.3504, 1.1772 -3.1772 3.3504, 0.8228 -3.1772 3.3504 ] } coordIndex [ 1, 2, 3, 0, -1, 7, 6, 5, 4, -1, 4, 5, 1, 0, -1, 5, 6, 2, 1, -1, 6, 7, 3, 2, -1, 7, 4, 0, 3, -1 ] }
  }
  Shape {
    appearance Appearance { material Material { diffuseColor 0.030 0.030 0.030 specularColor 0.15 0.15 0.15 shininess 0.25 } }
    geometry IndexedFaceSet { solid FALSE coord Coordinate { point [ 1.8228 -2.8228 3.3465, 2.1772 -2.8228 3.3465, 2.1772 -3.1772 3.3465, 1.8228 -3.1772 3.3465, 1.8228 -2.8228 3.3504, 2.1772 -2.8228 3.3504, 2.1772 -3.1772 3.3504, 1.8228 -3.1772 3.3504 ] } coordIndex [ 1, 2, 3, 0, -1, 7, 6, 5, 4, -1, 4, 5, 1, 0, -1, 5, 6, 2, 1, -1, 6, 7, 3, 2, -1, 7, 4, 0, 3, -1 ] }
  }
  Shape {
    appearance Appearance { material Material { diffuseColor 0.030 0.030 0.030 specularColor 0.15 0.15 0.15 shininess 0.25 } }
    geometry IndexedFaceSet { solid FALSE coord Coordinate { point [ 2.8228 -2.8228 3.3465, 3.1772 -2.8228 3.3465, 3.1772 -3.1772 3.3465, 2.8228 -3.1772 3.3465, 2.8228 -2.8228 3.3504, 3.1772 -2.8228 3.3504, 3.1772 -3.1772 3.3504, 2.8228 -3.1772 3.3504 ] } coordIndex [ 1, 2, 3, 0, -1, 7, 6, 5, 4, -1, 4, 5, 1, 0, -1, 5, 6, 2, 1, -1, 6, 7, 3, 2, -1, 7, 4, 0, 3, -1 ] }
  }
  Shape {
    appearance Appearance { material Material { diffuseColor 0.070 0.070 0.080 specularColor 0.15 0.15 0.15 shininess 0.25 } }
    geometry IndexedFaceSet { solid FALSE coord Coordinate { point [ 4.1339 -2.5197 3.3465, 4.1003 -2.7744 3.3465, 4.0020 -3.0118 3.3465, 3.8456 -3.2157 3.3465, 3.6417 -3.3721 3.3465, 3.4043 -3.4704 3.3465, 3.1496 -3.5039 3.3465, -3.1496 -3.5039 3.3465, -3.4043 -3.4704 3.3465, -3.6417 -3.3721 3.3465, -3.8456 -3.2157 3.3465, -4.0020 -3.0118 3.3465, -4.1003 -2.7744 3.3465, -4.1339 -2.5197 3.3465, -4.1339 2.5197 3.3465, -4.1003 2.7744 3.3465, -4.0020 3.0118 3.3465, -3.8456 3.2157 3.3465, -3.6417 3.3721 3.3465, -3.4043 3.4704 3.3465, -3.1496 3.5039 3.3465, 3.1496 3.5039 3.3465, 3.4043 3.4704 3.3465, 3.6417 3.3721 3.3465, 3.8456 3.2157 3.3465, 4.0020 3.0118 3.3465, 4.1003 2.7744 3.3465, 4.1339 2.5197 3.3465, 4.1339 -2.5197 3.8189, 4.1003 -2.7744 3.8189, 4.0020 -3.0118 3.8189, 3.8456 -3.2157 3.8189, 3.6417 -3.3721 3.8189, 3.4043 -3.4704 3.8189, 3.1496 -3.5039 3.8189, -3.1496 -3.5039 3.8189, -3.4043 -3.4704 3.8189, -3.6417 -3.3721 3.8189, -3.8456 -3.2157 3.8189, -4.0020 -3.0118 3.8189, -4.1003 -2.7744 3.8189, -4.1339 -2.5197 3.8189, -4.1339 2.5197 3.8189, -4.1003 2.7744 3.8189, -4.0020 3.0118 3.8189, -3.8456 3.2157 3.8189, -3.6417 3.3721 3.8189, -3.4043 3.4704 3.8189, -3.1496 3.5039 3.8189, 3.1496 3.5039 3.8189, 3.4043 3.4704 3.8189, 3.6417 3.3721 3.8189, 3.8456 3.2157 3.8189, 4.0020 3.0118 3.8189, 4.1003 2.7744 3.8189, 4.1339 2.5197 3.8189 ] } coordIndex [ 0, 1, 2, 3, 4, 5, 6, 7, 8, 9, 10, 11, 12, 13, 14, 15, 16, 17, 18, 19, 20, 21, 22, 23, 24, 25, 26, 27, -1, 55, 54, 53, 52, 51, 50, 49, 48, 47, 46, 45, 44, 43, 42, 41, 40, 39, 38, 37, 36, 35, 34, 33, 32, 31, 30, 29, 28, -1, 28, 29, 1, 0, -1, 29, 30, 2, 1, -1, 30, 31, 3, 2, -1, 31, 32, 4, 3, -1, 32, 33, 5, 4, -1, 33, 34, 6, 5, -1, 34, 35, 7, 6, -1, 35, 36, 8, 7, -1, 36, 37, 9, 8, -1, 37, 38, 10, 9, -1, 38, 39, 11, 10, -1, 39, 40, 12, 11, -1, 40, 41, 13, 12, -1, 41, 42, 14, 13, -1, 42, 43, 15, 14, -1, 43, 44, 16, 15, -1, 44, 45, 17, 16, -1, 45, 46, 18, 17, -1, 46, 47, 19, 18, -1, 47, 48, 20, 19, -1, 48, 49, 21, 20, -1, 49, 50, 22, 21, -1, 50, 51, 23, 22, -1, 51, 52, 24, 23, -1, 52, 53, 25, 24, -1, 53, 54, 26, 25, -1, 54, 55, 27, 26, -1, 55, 28, 0, 27, -1 ] }
  }
  Shape {
    appearance Appearance { material Material { diffuseColor 0.850 0.700 0.300 specularColor 0.15 0.15 0.15 shininess 0.25 } }
    geometry IndexedFaceSet { solid FALSE coord Coordinate { point [ 2.6457 3.5039 3.8189, 3.3543 3.5039 3.8189, 3.3543 2.7559 3.8189, 2.6457 2.7559 3.8189, 2.6457 3.5039 3.8268, 3.3543 3.5039 3.8268, 3.3543 2.7559 3.8268, 2.6457 2.7559 3.8268 ] } coordIndex [ 1, 2, 3, 0, -1, 7, 6, 5, 4, -1, 4, 5, 1, 0, -1, 5, 6, 2, 1, -1, 6, 7, 3, 2, -1, 7, 4, 0, 3, -1 ] }
  }
  Shape {
    appearance Appearance { material Material { diffuseColor 0.850 0.700 0.300 specularColor 0.15 0.15 0.15 shininess 0.25 } }
    geometry IndexedFaceSet { solid FALSE coord Coordinate { point [ 3.2165 3.5039 3.3425, 3.2001 3.4211 3.3425, 3.1531 3.3508 3.3425, 3.0829 3.3039 3.3425, 3.0000 3.2874 3.3425, 2.9171 3.3039 3.3425, 2.8469 3.3508 3.3425, 2.7999 3.4211 3.3425, 2.7835 3.5039 3.3425, 2.7999 3.5868 3.3425, 2.8469 3.6571 3.3425, 2.9171 3.7040 3.3425, 3.0000 3.7205 3.3425, 3.0829 3.7040 3.3425, 3.1531 3.6571 3.3425, 3.2001 3.5868 3.3425, 3.2165 3.5039 3.8268, 3.2001 3.4211 3.8268, 3.1531 3.3508 3.8268, 3.0829 3.3039 3.8268, 3.0000 3.2874 3.8268, 2.9171 3.3039 3.8268, 2.8469 3.3508 3.8268, 2.7999 3.4211 3.8268, 2.7835 3.5039 3.8268, 2.7999 3.5868 3.8268, 2.8469 3.6571 3.8268, 2.9171 3.7040 3.8268, 3.0000 3.7205 3.8268, 3.0829 3.7040 3.8268, 3.1531 3.6571 3.8268, 3.2001 3.5868 3.8268 ] } coordIndex [ 0, 1, 2, 3, 4, 5, 6, 7, 8, 9, 10, 11, 12, 13, 14, 15, -1, 31, 30, 29, 28, 27, 26, 25, 24, 23, 22, 21, 20, 19, 18, 17, 16, -1, 16, 17, 1, 0, -1, 17, 18, 2, 1, -1, 18, 19, 3, 2, -1, 19, 20, 4, 3, -1, 20, 21, 5, 4, -1, 21, 22, 6, 5, -1, 22, 23, 7, 6, -1, 23, 24, 8, 7, -1, 24, 25, 9, 8, -1, 25, 26, 10, 9, -1, 26, 27, 11, 10, -1, 27, 28, 12, 11, -1, 28, 29, 13, 12, -1, 29, 30, 14, 13, -1, 30, 31, 15, 14, -1, 31, 16, 0, 15, -1 ] }
  }
  Shape {
    appearance Appearance { material Material { diffuseColor 0.850 0.700 0.300 specularColor 0.15 0.15 0.15 shininess 0.25 } }
    geometry IndexedFaceSet { solid FALSE coord Coordinate { point [ 2.6457 -2.7559 3.8189, 3.3543 -2.7559 3.8189, 3.3543 -3.5039 3.8189, 2.6457 -3.5039 3.8189, 2.6457 -2.7559 3.8268, 3.3543 -2.7559 3.8268, 3.3543 -3.5039 3.8268, 2.6457 -3.5039 3.8268 ] } coordIndex [ 1, 2, 3, 0, -1, 7, 6, 5, 4, -1, 4, 5, 1, 0, -1, 5, 6, 2, 1, -1, 6, 7, 3, 2, -1, 7, 4, 0, 3, -1 ] }
  }
  Shape {
    appearance Appearance { material Material { diffuseColor 0.850 0.700 0.300 specularColor 0.15 0.15 0.15 shininess 0.25 } }
    geometry IndexedFaceSet { solid FALSE coord Coordinate { point [ 3.2165 -3.5039 3.3425, 3.2001 -3.5868 3.3425, 3.1531 -3.6571 3.3425, 3.0829 -3.7040 3.3425, 3.0000 -3.7205 3.3425, 2.9171 -3.7040 3.3425, 2.8469 -3.6571 3.3425, 2.7999 -3.5868 3.3425, 2.7835 -3.5039 3.3425, 2.7999 -3.4211 3.3425, 2.8469 -3.3508 3.3425, 2.9171 -3.3039 3.3425, 3.0000 -3.2874 3.3425, 3.0829 -3.3039 3.3425, 3.1531 -3.3508 3.3425, 3.2001 -3.4211 3.3425, 3.2165 -3.5039 3.8268, 3.2001 -3.5868 3.8268, 3.1531 -3.6571 3.8268, 3.0829 -3.7040 3.8268, 3.0000 -3.7205 3.8268, 2.9171 -3.7040 3.8268, 2.8469 -3.6571 3.8268, 2.7999 -3.5868 3.8268, 2.7835 -3.5039 3.8268, 2.7999 -3.4211 3.8268, 2.8469 -3.3508 3.8268, 2.9171 -3.3039 3.8268, 3.0000 -3.2874 3.8268, 3.0829 -3.3039 3.8268, 3.1531 -3.3508 3.8268, 3.2001 -3.4211 3.8268 ] } coordIndex [ 0, 1, 2, 3, 4, 5, 6, 7, 8, 9, 10, 11, 12, 13, 14, 15, -1, 31, 30, 29, 28, 27, 26, 25, 24, 23, 22, 21, 20, 19, 18, 17, 16, -1, 16, 17, 1, 0, -1, 17, 18, 2, 1, -1, 18, 19, 3, 2, -1, 19, 20, 4, 3, -1, 20, 21, 5, 4, -1, 21, 22, 6, 5, -1, 22, 23, 7, 6, -1, 23, 24, 8, 7, -1, 24, 25, 9, 8, -1, 25, 26, 10, 9, -1, 26, 27, 11, 10, -1, 27, 28, 12, 11, -1, 28, 29, 13, 12, -1, 29, 30, 14, 13, -1, 30, 31, 15, 14, -1, 31, 16, 0, 15, -1 ] }
  }
  Shape {
    appearance Appearance { material Material { diffuseColor 0.850 0.700 0.300 specularColor 0.15 0.15 0.15 shininess 0.25 } }
    geometry IndexedFaceSet { solid FALSE coord Coordinate { point [ 1.6457 3.5039 3.8189, 2.3543 3.5039 3.8189, 2.3543 2.7559 3.8189, 1.6457 2.7559 3.8189, 1.6457 3.5039 3.8268, 2.3543 3.5039 3.8268, 2.3543 2.7559 3.8268, 1.6457 2.7559 3.8268 ] } coordIndex [ 1, 2, 3, 0, -1, 7, 6, 5, 4, -1, 4, 5, 1, 0, -1, 5, 6, 2, 1, -1, 6, 7, 3, 2, -1, 7, 4, 0, 3, -1 ] }
  }
  Shape {
    appearance Appearance { material Material { diffuseColor 0.850 0.700 0.300 specularColor 0.15 0.15 0.15 shininess 0.25 } }
    geometry IndexedFaceSet { solid FALSE coord Coordinate { point [ 2.2165 3.5039 3.3425, 2.2001 3.4211 3.3425, 2.1531 3.3508 3.3425, 2.0829 3.3039 3.3425, 2.0000 3.2874 3.3425, 1.9171 3.3039 3.3425, 1.8469 3.3508 3.3425, 1.7999 3.4211 3.3425, 1.7835 3.5039 3.3425, 1.7999 3.5868 3.3425, 1.8469 3.6571 3.3425, 1.9171 3.7040 3.3425, 2.0000 3.7205 3.3425, 2.0829 3.7040 3.3425, 2.1531 3.6571 3.3425, 2.2001 3.5868 3.3425, 2.2165 3.5039 3.8268, 2.2001 3.4211 3.8268, 2.1531 3.3508 3.8268, 2.0829 3.3039 3.8268, 2.0000 3.2874 3.8268, 1.9171 3.3039 3.8268, 1.8469 3.3508 3.8268, 1.7999 3.4211 3.8268, 1.7835 3.5039 3.8268, 1.7999 3.5868 3.8268, 1.8469 3.6571 3.8268, 1.9171 3.7040 3.8268, 2.0000 3.7205 3.8268, 2.0829 3.7040 3.8268, 2.1531 3.6571 3.8268, 2.2001 3.5868 3.8268 ] } coordIndex [ 0, 1, 2, 3, 4, 5, 6, 7, 8, 9, 10, 11, 12, 13, 14, 15, -1, 31, 30, 29, 28, 27, 26, 25, 24, 23, 22, 21, 20, 19, 18, 17, 16, -1, 16, 17, 1, 0, -1, 17, 18, 2, 1, -1, 18, 19, 3, 2, -1, 19, 20, 4, 3, -1, 20, 21, 5, 4, -1, 21, 22, 6, 5, -1, 22, 23, 7, 6, -1, 23, 24, 8, 7, -1, 24, 25, 9, 8, -1, 25, 26, 10, 9, -1, 26, 27, 11, 10, -1, 27, 28, 12, 11, -1, 28, 29, 13, 12, -1, 29, 30, 14, 13, -1, 30, 31, 15, 14, -1, 31, 16, 0, 15, -1 ] }
  }
  Shape {
    appearance Appearance { material Material { diffuseColor 0.850 0.700 0.300 specularColor 0.15 0.15 0.15 shininess 0.25 } }
    geometry IndexedFaceSet { solid FALSE coord Coordinate { point [ 1.6457 -2.7559 3.8189, 2.3543 -2.7559 3.8189, 2.3543 -3.5039 3.8189, 1.6457 -3.5039 3.8189, 1.6457 -2.7559 3.8268, 2.3543 -2.7559 3.8268, 2.3543 -3.5039 3.8268, 1.6457 -3.5039 3.8268 ] } coordIndex [ 1, 2, 3, 0, -1, 7, 6, 5, 4, -1, 4, 5, 1, 0, -1, 5, 6, 2, 1, -1, 6, 7, 3, 2, -1, 7, 4, 0, 3, -1 ] }
  }
  Shape {
    appearance Appearance { material Material { diffuseColor 0.850 0.700 0.300 specularColor 0.15 0.15 0.15 shininess 0.25 } }
    geometry IndexedFaceSet { solid FALSE coord Coordinate { point [ 2.2165 -3.5039 3.3425, 2.2001 -3.5868 3.3425, 2.1531 -3.6571 3.3425, 2.0829 -3.7040 3.3425, 2.0000 -3.7205 3.3425, 1.9171 -3.7040 3.3425, 1.8469 -3.6571 3.3425, 1.7999 -3.5868 3.3425, 1.7835 -3.5039 3.3425, 1.7999 -3.4211 3.3425, 1.8469 -3.3508 3.3425, 1.9171 -3.3039 3.3425, 2.0000 -3.2874 3.3425, 2.0829 -3.3039 3.3425, 2.1531 -3.3508 3.3425, 2.2001 -3.4211 3.3425, 2.2165 -3.5039 3.8268, 2.2001 -3.5868 3.8268, 2.1531 -3.6571 3.8268, 2.0829 -3.7040 3.8268, 2.0000 -3.7205 3.8268, 1.9171 -3.7040 3.8268, 1.8469 -3.6571 3.8268, 1.7999 -3.5868 3.8268, 1.7835 -3.5039 3.8268, 1.7999 -3.4211 3.8268, 1.8469 -3.3508 3.8268, 1.9171 -3.3039 3.8268, 2.0000 -3.2874 3.8268, 2.0829 -3.3039 3.8268, 2.1531 -3.3508 3.8268, 2.2001 -3.4211 3.8268 ] } coordIndex [ 0, 1, 2, 3, 4, 5, 6, 7, 8, 9, 10, 11, 12, 13, 14, 15, -1, 31, 30, 29, 28, 27, 26, 25, 24, 23, 22, 21, 20, 19, 18, 17, 16, -1, 16, 17, 1, 0, -1, 17, 18, 2, 1, -1, 18, 19, 3, 2, -1, 19, 20, 4, 3, -1, 20, 21, 5, 4, -1, 21, 22, 6, 5, -1, 22, 23, 7, 6, -1, 23, 24, 8, 7, -1, 24, 25, 9, 8, -1, 25, 26, 10, 9, -1, 26, 27, 11, 10, -1, 27, 28, 12, 11, -1, 28, 29, 13, 12, -1, 29, 30, 14, 13, -1, 30, 31, 15, 14, -1, 31, 16, 0, 15, -1 ] }
  }
  Shape {
    appearance Appearance { material Material { diffuseColor 0.850 0.700 0.300 specularColor 0.15 0.15 0.15 shininess 0.25 } }
    geometry IndexedFaceSet { solid FALSE coord Coordinate { point [ 0.6457 3.5039 3.8189, 1.3543 3.5039 3.8189, 1.3543 2.7559 3.8189, 0.6457 2.7559 3.8189, 0.6457 3.5039 3.8268, 1.3543 3.5039 3.8268, 1.3543 2.7559 3.8268, 0.6457 2.7559 3.8268 ] } coordIndex [ 1, 2, 3, 0, -1, 7, 6, 5, 4, -1, 4, 5, 1, 0, -1, 5, 6, 2, 1, -1, 6, 7, 3, 2, -1, 7, 4, 0, 3, -1 ] }
  }
  Shape {
    appearance Appearance { material Material { diffuseColor 0.850 0.700 0.300 specularColor 0.15 0.15 0.15 shininess 0.25 } }
    geometry IndexedFaceSet { solid FALSE coord Coordinate { point [ 1.2165 3.5039 3.3425, 1.2001 3.4211 3.3425, 1.1531 3.3508 3.3425, 1.0829 3.3039 3.3425, 1.0000 3.2874 3.3425, 0.9171 3.3039 3.3425, 0.8469 3.3508 3.3425, 0.7999 3.4211 3.3425, 0.7835 3.5039 3.3425, 0.7999 3.5868 3.3425, 0.8469 3.6571 3.3425, 0.9171 3.7040 3.3425, 1.0000 3.7205 3.3425, 1.0829 3.7040 3.3425, 1.1531 3.6571 3.3425, 1.2001 3.5868 3.3425, 1.2165 3.5039 3.8268, 1.2001 3.4211 3.8268, 1.1531 3.3508 3.8268, 1.0829 3.3039 3.8268, 1.0000 3.2874 3.8268, 0.9171 3.3039 3.8268, 0.8469 3.3508 3.8268, 0.7999 3.4211 3.8268, 0.7835 3.5039 3.8268, 0.7999 3.5868 3.8268, 0.8469 3.6571 3.8268, 0.9171 3.7040 3.8268, 1.0000 3.7205 3.8268, 1.0829 3.7040 3.8268, 1.1531 3.6571 3.8268, 1.2001 3.5868 3.8268 ] } coordIndex [ 0, 1, 2, 3, 4, 5, 6, 7, 8, 9, 10, 11, 12, 13, 14, 15, -1, 31, 30, 29, 28, 27, 26, 25, 24, 23, 22, 21, 20, 19, 18, 17, 16, -1, 16, 17, 1, 0, -1, 17, 18, 2, 1, -1, 18, 19, 3, 2, -1, 19, 20, 4, 3, -1, 20, 21, 5, 4, -1, 21, 22, 6, 5, -1, 22, 23, 7, 6, -1, 23, 24, 8, 7, -1, 24, 25, 9, 8, -1, 25, 26, 10, 9, -1, 26, 27, 11, 10, -1, 27, 28, 12, 11, -1, 28, 29, 13, 12, -1, 29, 30, 14, 13, -1, 30, 31, 15, 14, -1, 31, 16, 0, 15, -1 ] }
  }
  Shape {
    appearance Appearance { material Material { diffuseColor 0.850 0.700 0.300 specularColor 0.15 0.15 0.15 shininess 0.25 } }
    geometry IndexedFaceSet { solid FALSE coord Coordinate { point [ 0.6457 -2.7559 3.8189, 1.3543 -2.7559 3.8189, 1.3543 -3.5039 3.8189, 0.6457 -3.5039 3.8189, 0.6457 -2.7559 3.8268, 1.3543 -2.7559 3.8268, 1.3543 -3.5039 3.8268, 0.6457 -3.5039 3.8268 ] } coordIndex [ 1, 2, 3, 0, -1, 7, 6, 5, 4, -1, 4, 5, 1, 0, -1, 5, 6, 2, 1, -1, 6, 7, 3, 2, -1, 7, 4, 0, 3, -1 ] }
  }
  Shape {
    appearance Appearance { material Material { diffuseColor 0.850 0.700 0.300 specularColor 0.15 0.15 0.15 shininess 0.25 } }
    geometry IndexedFaceSet { solid FALSE coord Coordinate { point [ 1.2165 -3.5039 3.3425, 1.2001 -3.5868 3.3425, 1.1531 -3.6571 3.3425, 1.0829 -3.7040 3.3425, 1.0000 -3.7205 3.3425, 0.9171 -3.7040 3.3425, 0.8469 -3.6571 3.3425, 0.7999 -3.5868 3.3425, 0.7835 -3.5039 3.3425, 0.7999 -3.4211 3.3425, 0.8469 -3.3508 3.3425, 0.9171 -3.3039 3.3425, 1.0000 -3.2874 3.3425, 1.0829 -3.3039 3.3425, 1.1531 -3.3508 3.3425, 1.2001 -3.4211 3.3425, 1.2165 -3.5039 3.8268, 1.2001 -3.5868 3.8268, 1.1531 -3.6571 3.8268, 1.0829 -3.7040 3.8268, 1.0000 -3.7205 3.8268, 0.9171 -3.7040 3.8268, 0.8469 -3.6571 3.8268, 0.7999 -3.5868 3.8268, 0.7835 -3.5039 3.8268, 0.7999 -3.4211 3.8268, 0.8469 -3.3508 3.8268, 0.9171 -3.3039 3.8268, 1.0000 -3.2874 3.8268, 1.0829 -3.3039 3.8268, 1.1531 -3.3508 3.8268, 1.2001 -3.4211 3.8268 ] } coordIndex [ 0, 1, 2, 3, 4, 5, 6, 7, 8, 9, 10, 11, 12, 13, 14, 15, -1, 31, 30, 29, 28, 27, 26, 25, 24, 23, 22, 21, 20, 19, 18, 17, 16, -1, 16, 17, 1, 0, -1, 17, 18, 2, 1, -1, 18, 19, 3, 2, -1, 19, 20, 4, 3, -1, 20, 21, 5, 4, -1, 21, 22, 6, 5, -1, 22, 23, 7, 6, -1, 23, 24, 8, 7, -1, 24, 25, 9, 8, -1, 25, 26, 10, 9, -1, 26, 27, 11, 10, -1, 27, 28, 12, 11, -1, 28, 29, 13, 12, -1, 29, 30, 14, 13, -1, 30, 31, 15, 14, -1, 31, 16, 0, 15, -1 ] }
  }
  Shape {
    appearance Appearance { material Material { diffuseColor 0.850 0.700 0.300 specularColor 0.15 0.15 0.15 shininess 0.25 } }
    geometry IndexedFaceSet { solid FALSE coord Coordinate { point [ -0.3543 3.5039 3.8189, 0.3543 3.5039 3.8189, 0.3543 2.7559 3.8189, -0.3543 2.7559 3.8189, -0.3543 3.5039 3.8268, 0.3543 3.5039 3.8268, 0.3543 2.7559 3.8268, -0.3543 2.7559 3.8268 ] } coordIndex [ 1, 2, 3, 0, -1, 7, 6, 5, 4, -1, 4, 5, 1, 0, -1, 5, 6, 2, 1, -1, 6, 7, 3, 2, -1, 7, 4, 0, 3, -1 ] }
  }
  Shape {
    appearance Appearance { material Material { diffuseColor 0.850 0.700 0.300 specularColor 0.15 0.15 0.15 shininess 0.25 } }
    geometry IndexedFaceSet { solid FALSE coord Coordinate { point [ 0.2165 3.5039 3.3425, 0.2001 3.4211 3.3425, 0.1531 3.3508 3.3425, 0.0829 3.3039 3.3425, 0.0000 3.2874 3.3425, -0.0829 3.3039 3.3425, -0.1531 3.3508 3.3425, -0.2001 3.4211 3.3425, -0.2165 3.5039 3.3425, -0.2001 3.5868 3.3425, -0.1531 3.6571 3.3425, -0.0829 3.7040 3.3425, -0.0000 3.7205 3.3425, 0.0829 3.7040 3.3425, 0.1531 3.6571 3.3425, 0.2001 3.5868 3.3425, 0.2165 3.5039 3.8268, 0.2001 3.4211 3.8268, 0.1531 3.3508 3.8268, 0.0829 3.3039 3.8268, 0.0000 3.2874 3.8268, -0.0829 3.3039 3.8268, -0.1531 3.3508 3.8268, -0.2001 3.4211 3.8268, -0.2165 3.5039 3.8268, -0.2001 3.5868 3.8268, -0.1531 3.6571 3.8268, -0.0829 3.7040 3.8268, -0.0000 3.7205 3.8268, 0.0829 3.7040 3.8268, 0.1531 3.6571 3.8268, 0.2001 3.5868 3.8268 ] } coordIndex [ 0, 1, 2, 3, 4, 5, 6, 7, 8, 9, 10, 11, 12, 13, 14, 15, -1, 31, 30, 29, 28, 27, 26, 25, 24, 23, 22, 21, 20, 19, 18, 17, 16, -1, 16, 17, 1, 0, -1, 17, 18, 2, 1, -1, 18, 19, 3, 2, -1, 19, 20, 4, 3, -1, 20, 21, 5, 4, -1, 21, 22, 6, 5, -1, 22, 23, 7, 6, -1, 23, 24, 8, 7, -1, 24, 25, 9, 8, -1, 25, 26, 10, 9, -1, 26, 27, 11, 10, -1, 27, 28, 12, 11, -1, 28, 29, 13, 12, -1, 29, 30, 14, 13, -1, 30, 31, 15, 14, -1, 31, 16, 0, 15, -1 ] }
  }
  Shape {
    appearance Appearance { material Material { diffuseColor 0.850 0.700 0.300 specularColor 0.15 0.15 0.15 shininess 0.25 } }
    geometry IndexedFaceSet { solid FALSE coord Coordinate { point [ -0.3543 -2.7559 3.8189, 0.3543 -2.7559 3.8189, 0.3543 -3.5039 3.8189, -0.3543 -3.5039 3.8189, -0.3543 -2.7559 3.8268, 0.3543 -2.7559 3.8268, 0.3543 -3.5039 3.8268, -0.3543 -3.5039 3.8268 ] } coordIndex [ 1, 2, 3, 0, -1, 7, 6, 5, 4, -1, 4, 5, 1, 0, -1, 5, 6, 2, 1, -1, 6, 7, 3, 2, -1, 7, 4, 0, 3, -1 ] }
  }
  Shape {
    appearance Appearance { material Material { diffuseColor 0.850 0.700 0.300 specularColor 0.15 0.15 0.15 shininess 0.25 } }
    geometry IndexedFaceSet { solid FALSE coord Coordinate { point [ 0.2165 -3.5039 3.3425, 0.2001 -3.5868 3.3425, 0.1531 -3.6571 3.3425, 0.0829 -3.7040 3.3425, 0.0000 -3.7205 3.3425, -0.0829 -3.7040 3.3425, -0.1531 -3.6571 3.3425, -0.2001 -3.5868 3.3425, -0.2165 -3.5039 3.3425, -0.2001 -3.4211 3.3425, -0.1531 -3.3508 3.3425, -0.0829 -3.3039 3.3425, -0.0000 -3.2874 3.3425, 0.0829 -3.3039 3.3425, 0.1531 -3.3508 3.3425, 0.2001 -3.4211 3.3425, 0.2165 -3.5039 3.8268, 0.2001 -3.5868 3.8268, 0.1531 -3.6571 3.8268, 0.0829 -3.7040 3.8268, 0.0000 -3.7205 3.8268, -0.0829 -3.7040 3.8268, -0.1531 -3.6571 3.8268, -0.2001 -3.5868 3.8268, -0.2165 -3.5039 3.8268, -0.2001 -3.4211 3.8268, -0.1531 -3.3508 3.8268, -0.0829 -3.3039 3.8268, -0.0000 -3.2874 3.8268, 0.0829 -3.3039 3.8268, 0.1531 -3.3508 3.8268, 0.2001 -3.4211 3.8268 ] } coordIndex [ 0, 1, 2, 3, 4, 5, 6, 7, 8, 9, 10, 11, 12, 13, 14, 15, -1, 31, 30, 29, 28, 27, 26, 25, 24, 23, 22, 21, 20, 19, 18, 17, 16, -1, 16, 17, 1, 0, -1, 17, 18, 2, 1, -1, 18, 19, 3, 2, -1, 19, 20, 4, 3, -1, 20, 21, 5, 4, -1, 21, 22, 6, 5, -1, 22, 23, 7, 6, -1, 23, 24, 8, 7, -1, 24, 25, 9, 8, -1, 25, 26, 10, 9, -1, 26, 27, 11, 10, -1, 27, 28, 12, 11, -1, 28, 29, 13, 12, -1, 29, 30, 14, 13, -1, 30, 31, 15, 14, -1, 31, 16, 0, 15, -1 ] }
  }
  Shape {
    appearance Appearance { material Material { diffuseColor 0.850 0.700 0.300 specularColor 0.15 0.15 0.15 shininess 0.25 } }
    geometry IndexedFaceSet { solid FALSE coord Coordinate { point [ -1.3543 3.5039 3.8189, -0.6457 3.5039 3.8189, -0.6457 2.7559 3.8189, -1.3543 2.7559 3.8189, -1.3543 3.5039 3.8268, -0.6457 3.5039 3.8268, -0.6457 2.7559 3.8268, -1.3543 2.7559 3.8268 ] } coordIndex [ 1, 2, 3, 0, -1, 7, 6, 5, 4, -1, 4, 5, 1, 0, -1, 5, 6, 2, 1, -1, 6, 7, 3, 2, -1, 7, 4, 0, 3, -1 ] }
  }
  Shape {
    appearance Appearance { material Material { diffuseColor 0.850 0.700 0.300 specularColor 0.15 0.15 0.15 shininess 0.25 } }
    geometry IndexedFaceSet { solid FALSE coord Coordinate { point [ -0.7835 3.5039 3.3425, -0.7999 3.4211 3.3425, -0.8469 3.3508 3.3425, -0.9171 3.3039 3.3425, -1.0000 3.2874 3.3425, -1.0829 3.3039 3.3425, -1.1531 3.3508 3.3425, -1.2001 3.4211 3.3425, -1.2165 3.5039 3.3425, -1.2001 3.5868 3.3425, -1.1531 3.6571 3.3425, -1.0829 3.7040 3.3425, -1.0000 3.7205 3.3425, -0.9171 3.7040 3.3425, -0.8469 3.6571 3.3425, -0.7999 3.5868 3.3425, -0.7835 3.5039 3.8268, -0.7999 3.4211 3.8268, -0.8469 3.3508 3.8268, -0.9171 3.3039 3.8268, -1.0000 3.2874 3.8268, -1.0829 3.3039 3.8268, -1.1531 3.3508 3.8268, -1.2001 3.4211 3.8268, -1.2165 3.5039 3.8268, -1.2001 3.5868 3.8268, -1.1531 3.6571 3.8268, -1.0829 3.7040 3.8268, -1.0000 3.7205 3.8268, -0.9171 3.7040 3.8268, -0.8469 3.6571 3.8268, -0.7999 3.5868 3.8268 ] } coordIndex [ 0, 1, 2, 3, 4, 5, 6, 7, 8, 9, 10, 11, 12, 13, 14, 15, -1, 31, 30, 29, 28, 27, 26, 25, 24, 23, 22, 21, 20, 19, 18, 17, 16, -1, 16, 17, 1, 0, -1, 17, 18, 2, 1, -1, 18, 19, 3, 2, -1, 19, 20, 4, 3, -1, 20, 21, 5, 4, -1, 21, 22, 6, 5, -1, 22, 23, 7, 6, -1, 23, 24, 8, 7, -1, 24, 25, 9, 8, -1, 25, 26, 10, 9, -1, 26, 27, 11, 10, -1, 27, 28, 12, 11, -1, 28, 29, 13, 12, -1, 29, 30, 14, 13, -1, 30, 31, 15, 14, -1, 31, 16, 0, 15, -1 ] }
  }
  Shape {
    appearance Appearance { material Material { diffuseColor 0.850 0.700 0.300 specularColor 0.15 0.15 0.15 shininess 0.25 } }
    geometry IndexedFaceSet { solid FALSE coord Coordinate { point [ -1.3543 -2.7559 3.8189, -0.6457 -2.7559 3.8189, -0.6457 -3.5039 3.8189, -1.3543 -3.5039 3.8189, -1.3543 -2.7559 3.8268, -0.6457 -2.7559 3.8268, -0.6457 -3.5039 3.8268, -1.3543 -3.5039 3.8268 ] } coordIndex [ 1, 2, 3, 0, -1, 7, 6, 5, 4, -1, 4, 5, 1, 0, -1, 5, 6, 2, 1, -1, 6, 7, 3, 2, -1, 7, 4, 0, 3, -1 ] }
  }
  Shape {
    appearance Appearance { material Material { diffuseColor 0.850 0.700 0.300 specularColor 0.15 0.15 0.15 shininess 0.25 } }
    geometry IndexedFaceSet { solid FALSE coord Coordinate { point [ -0.7835 -3.5039 3.3425, -0.7999 -3.5868 3.3425, -0.8469 -3.6571 3.3425, -0.9171 -3.7040 3.3425, -1.0000 -3.7205 3.3425, -1.0829 -3.7040 3.3425, -1.1531 -3.6571 3.3425, -1.2001 -3.5868 3.3425, -1.2165 -3.5039 3.3425, -1.2001 -3.4211 3.3425, -1.1531 -3.3508 3.3425, -1.0829 -3.3039 3.3425, -1.0000 -3.2874 3.3425, -0.9171 -3.3039 3.3425, -0.8469 -3.3508 3.3425, -0.7999 -3.4211 3.3425, -0.7835 -3.5039 3.8268, -0.7999 -3.5868 3.8268, -0.8469 -3.6571 3.8268, -0.9171 -3.7040 3.8268, -1.0000 -3.7205 3.8268, -1.0829 -3.7040 3.8268, -1.1531 -3.6571 3.8268, -1.2001 -3.5868 3.8268, -1.2165 -3.5039 3.8268, -1.2001 -3.4211 3.8268, -1.1531 -3.3508 3.8268, -1.0829 -3.3039 3.8268, -1.0000 -3.2874 3.8268, -0.9171 -3.3039 3.8268, -0.8469 -3.3508 3.8268, -0.7999 -3.4211 3.8268 ] } coordIndex [ 0, 1, 2, 3, 4, 5, 6, 7, 8, 9, 10, 11, 12, 13, 14, 15, -1, 31, 30, 29, 28, 27, 26, 25, 24, 23, 22, 21, 20, 19, 18, 17, 16, -1, 16, 17, 1, 0, -1, 17, 18, 2, 1, -1, 18, 19, 3, 2, -1, 19, 20, 4, 3, -1, 20, 21, 5, 4, -1, 21, 22, 6, 5, -1, 22, 23, 7, 6, -1, 23, 24, 8, 7, -1, 24, 25, 9, 8, -1, 25, 26, 10, 9, -1, 26, 27, 11, 10, -1, 27, 28, 12, 11, -1, 28, 29, 13, 12, -1, 29, 30, 14, 13, -1, 30, 31, 15, 14, -1, 31, 16, 0, 15, -1 ] }
  }
  Shape {
    appearance Appearance { material Material { diffuseColor 0.850 0.700 0.300 specularColor 0.15 0.15 0.15 shininess 0.25 } }
    geometry IndexedFaceSet { solid FALSE coord Coordinate { point [ -2.3543 3.5039 3.8189, -1.6457 3.5039 3.8189, -1.6457 2.7559 3.8189, -2.3543 2.7559 3.8189, -2.3543 3.5039 3.8268, -1.6457 3.5039 3.8268, -1.6457 2.7559 3.8268, -2.3543 2.7559 3.8268 ] } coordIndex [ 1, 2, 3, 0, -1, 7, 6, 5, 4, -1, 4, 5, 1, 0, -1, 5, 6, 2, 1, -1, 6, 7, 3, 2, -1, 7, 4, 0, 3, -1 ] }
  }
  Shape {
    appearance Appearance { material Material { diffuseColor 0.850 0.700 0.300 specularColor 0.15 0.15 0.15 shininess 0.25 } }
    geometry IndexedFaceSet { solid FALSE coord Coordinate { point [ -1.7835 3.5039 3.3425, -1.7999 3.4211 3.3425, -1.8469 3.3508 3.3425, -1.9171 3.3039 3.3425, -2.0000 3.2874 3.3425, -2.0829 3.3039 3.3425, -2.1531 3.3508 3.3425, -2.2001 3.4211 3.3425, -2.2165 3.5039 3.3425, -2.2001 3.5868 3.3425, -2.1531 3.6571 3.3425, -2.0829 3.7040 3.3425, -2.0000 3.7205 3.3425, -1.9171 3.7040 3.3425, -1.8469 3.6571 3.3425, -1.7999 3.5868 3.3425, -1.7835 3.5039 3.8268, -1.7999 3.4211 3.8268, -1.8469 3.3508 3.8268, -1.9171 3.3039 3.8268, -2.0000 3.2874 3.8268, -2.0829 3.3039 3.8268, -2.1531 3.3508 3.8268, -2.2001 3.4211 3.8268, -2.2165 3.5039 3.8268, -2.2001 3.5868 3.8268, -2.1531 3.6571 3.8268, -2.0829 3.7040 3.8268, -2.0000 3.7205 3.8268, -1.9171 3.7040 3.8268, -1.8469 3.6571 3.8268, -1.7999 3.5868 3.8268 ] } coordIndex [ 0, 1, 2, 3, 4, 5, 6, 7, 8, 9, 10, 11, 12, 13, 14, 15, -1, 31, 30, 29, 28, 27, 26, 25, 24, 23, 22, 21, 20, 19, 18, 17, 16, -1, 16, 17, 1, 0, -1, 17, 18, 2, 1, -1, 18, 19, 3, 2, -1, 19, 20, 4, 3, -1, 20, 21, 5, 4, -1, 21, 22, 6, 5, -1, 22, 23, 7, 6, -1, 23, 24, 8, 7, -1, 24, 25, 9, 8, -1, 25, 26, 10, 9, -1, 26, 27, 11, 10, -1, 27, 28, 12, 11, -1, 28, 29, 13, 12, -1, 29, 30, 14, 13, -1, 30, 31, 15, 14, -1, 31, 16, 0, 15, -1 ] }
  }
  Shape {
    appearance Appearance { material Material { diffuseColor 0.850 0.700 0.300 specularColor 0.15 0.15 0.15 shininess 0.25 } }
    geometry IndexedFaceSet { solid FALSE coord Coordinate { point [ -2.3543 -2.7559 3.8189, -1.6457 -2.7559 3.8189, -1.6457 -3.5039 3.8189, -2.3543 -3.5039 3.8189, -2.3543 -2.7559 3.8268, -1.6457 -2.7559 3.8268, -1.6457 -3.5039 3.8268, -2.3543 -3.5039 3.8268 ] } coordIndex [ 1, 2, 3, 0, -1, 7, 6, 5, 4, -1, 4, 5, 1, 0, -1, 5, 6, 2, 1, -1, 6, 7, 3, 2, -1, 7, 4, 0, 3, -1 ] }
  }
  Shape {
    appearance Appearance { material Material { diffuseColor 0.850 0.700 0.300 specularColor 0.15 0.15 0.15 shininess 0.25 } }
    geometry IndexedFaceSet { solid FALSE coord Coordinate { point [ -1.7835 -3.5039 3.3425, -1.7999 -3.5868 3.3425, -1.8469 -3.6571 3.3425, -1.9171 -3.7040 3.3425, -2.0000 -3.7205 3.3425, -2.0829 -3.7040 3.3425, -2.1531 -3.6571 3.3425, -2.2001 -3.5868 3.3425, -2.2165 -3.5039 3.3425, -2.2001 -3.4211 3.3425, -2.1531 -3.3508 3.3425, -2.0829 -3.3039 3.3425, -2.0000 -3.2874 3.3425, -1.9171 -3.3039 3.3425, -1.8469 -3.3508 3.3425, -1.7999 -3.4211 3.3425, -1.7835 -3.5039 3.8268, -1.7999 -3.5868 3.8268, -1.8469 -3.6571 3.8268, -1.9171 -3.7040 3.8268, -2.0000 -3.7205 3.8268, -2.0829 -3.7040 3.8268, -2.1531 -3.6571 3.8268, -2.2001 -3.5868 3.8268, -2.2165 -3.5039 3.8268, -2.2001 -3.4211 3.8268, -2.1531 -3.3508 3.8268, -2.0829 -3.3039 3.8268, -2.0000 -3.2874 3.8268, -1.9171 -3.3039 3.8268, -1.8469 -3.3508 3.8268, -1.7999 -3.4211 3.8268 ] } coordIndex [ 0, 1, 2, 3, 4, 5, 6, 7, 8, 9, 10, 11, 12, 13, 14, 15, -1, 31, 30, 29, 28, 27, 26, 25, 24, 23, 22, 21, 20, 19, 18, 17, 16, -1, 16, 17, 1, 0, -1, 17, 18, 2, 1, -1, 18, 19, 3, 2, -1, 19, 20, 4, 3, -1, 20, 21, 5, 4, -1, 21, 22, 6, 5, -1, 22, 23, 7, 6, -1, 23, 24, 8, 7, -1, 24, 25, 9, 8, -1, 25, 26, 10, 9, -1, 26, 27, 11, 10, -1, 27, 28, 12, 11, -1, 28, 29, 13, 12, -1, 29, 30, 14, 13, -1, 30, 31, 15, 14, -1, 31, 16, 0, 15, -1 ] }
  }
  Shape {
    appearance Appearance { material Material { diffuseColor 0.850 0.700 0.300 specularColor 0.15 0.15 0.15 shininess 0.25 } }
    geometry IndexedFaceSet { solid FALSE coord Coordinate { point [ -3.3543 3.5039 3.8189, -2.6457 3.5039 3.8189, -2.6457 2.7559 3.8189, -3.3543 2.7559 3.8189, -3.3543 3.5039 3.8268, -2.6457 3.5039 3.8268, -2.6457 2.7559 3.8268, -3.3543 2.7559 3.8268 ] } coordIndex [ 1, 2, 3, 0, -1, 7, 6, 5, 4, -1, 4, 5, 1, 0, -1, 5, 6, 2, 1, -1, 6, 7, 3, 2, -1, 7, 4, 0, 3, -1 ] }
  }
  Shape {
    appearance Appearance { material Material { diffuseColor 0.850 0.700 0.300 specularColor 0.15 0.15 0.15 shininess 0.25 } }
    geometry IndexedFaceSet { solid FALSE coord Coordinate { point [ -2.7835 3.5039 3.3425, -2.7999 3.4211 3.3425, -2.8469 3.3508 3.3425, -2.9171 3.3039 3.3425, -3.0000 3.2874 3.3425, -3.0829 3.3039 3.3425, -3.1531 3.3508 3.3425, -3.2001 3.4211 3.3425, -3.2165 3.5039 3.3425, -3.2001 3.5868 3.3425, -3.1531 3.6571 3.3425, -3.0829 3.7040 3.3425, -3.0000 3.7205 3.3425, -2.9171 3.7040 3.3425, -2.8469 3.6571 3.3425, -2.7999 3.5868 3.3425, -2.7835 3.5039 3.8268, -2.7999 3.4211 3.8268, -2.8469 3.3508 3.8268, -2.9171 3.3039 3.8268, -3.0000 3.2874 3.8268, -3.0829 3.3039 3.8268, -3.1531 3.3508 3.8268, -3.2001 3.4211 3.8268, -3.2165 3.5039 3.8268, -3.2001 3.5868 3.8268, -3.1531 3.6571 3.8268, -3.0829 3.7040 3.8268, -3.0000 3.7205 3.8268, -2.9171 3.7040 3.8268, -2.8469 3.6571 3.8268, -2.7999 3.5868 3.8268 ] } coordIndex [ 0, 1, 2, 3, 4, 5, 6, 7, 8, 9, 10, 11, 12, 13, 14, 15, -1, 31, 30, 29, 28, 27, 26, 25, 24, 23, 22, 21, 20, 19, 18, 17, 16, -1, 16, 17, 1, 0, -1, 17, 18, 2, 1, -1, 18, 19, 3, 2, -1, 19, 20, 4, 3, -1, 20, 21, 5, 4, -1, 21, 22, 6, 5, -1, 22, 23, 7, 6, -1, 23, 24, 8, 7, -1, 24, 25, 9, 8, -1, 25, 26, 10, 9, -1, 26, 27, 11, 10, -1, 27, 28, 12, 11, -1, 28, 29, 13, 12, -1, 29, 30, 14, 13, -1, 30, 31, 15, 14, -1, 31, 16, 0, 15, -1 ] }
  }
  Shape {
    appearance Appearance { material Material { diffuseColor 0.850 0.700 0.300 specularColor 0.15 0.15 0.15 shininess 0.25 } }
    geometry IndexedFaceSet { solid FALSE coord Coordinate { point [ -3.3543 -2.7559 3.8189, -2.6457 -2.7559 3.8189, -2.6457 -3.5039 3.8189, -3.3543 -3.5039 3.8189, -3.3543 -2.7559 3.8268, -2.6457 -2.7559 3.8268, -2.6457 -3.5039 3.8268, -3.3543 -3.5039 3.8268 ] } coordIndex [ 1, 2, 3, 0, -1, 7, 6, 5, 4, -1, 4, 5, 1, 0, -1, 5, 6, 2, 1, -1, 6, 7, 3, 2, -1, 7, 4, 0, 3, -1 ] }
  }
  Shape {
    appearance Appearance { material Material { diffuseColor 0.850 0.700 0.300 specularColor 0.15 0.15 0.15 shininess 0.25 } }
    geometry IndexedFaceSet { solid FALSE coord Coordinate { point [ -2.7835 -3.5039 3.3425, -2.7999 -3.5868 3.3425, -2.8469 -3.6571 3.3425, -2.9171 -3.7040 3.3425, -3.0000 -3.7205 3.3425, -3.0829 -3.7040 3.3425, -3.1531 -3.6571 3.3425, -3.2001 -3.5868 3.3425, -3.2165 -3.5039 3.3425, -3.2001 -3.4211 3.3425, -3.1531 -3.3508 3.3425, -3.0829 -3.3039 3.3425, -3.0000 -3.2874 3.3425, -2.9171 -3.3039 3.3425, -2.8469 -3.3508 3.3425, -2.7999 -3.4211 3.3425, -2.7835 -3.5039 3.8268, -2.7999 -3.5868 3.8268, -2.8469 -3.6571 3.8268, -2.9171 -3.7040 3.8268, -3.0000 -3.7205 3.8268, -3.0829 -3.7040 3.8268, -3.1531 -3.6571 3.8268, -3.2001 -3.5868 3.8268, -3.2165 -3.5039 3.8268, -3.2001 -3.4211 3.8268, -3.1531 -3.3508 3.8268, -3.0829 -3.3039 3.8268, -3.0000 -3.2874 3.8268, -2.9171 -3.3039 3.8268, -2.8469 -3.3508 3.8268, -2.7999 -3.4211 3.8268 ] } coordIndex [ 0, 1, 2, 3, 4, 5, 6, 7, 8, 9, 10, 11, 12, 13, 14, 15, -1, 31, 30, 29, 28, 27, 26, 25, 24, 23, 22, 21, 20, 19, 18, 17, 16, -1, 16, 17, 1, 0, -1, 17, 18, 2, 1, -1, 18, 19, 3, 2, -1, 19, 20, 4, 3, -1, 20, 21, 5, 4, -1, 21, 22, 6, 5, -1, 22, 23, 7, 6, -1, 23, 24, 8, 7, -1, 24, 25, 9, 8, -1, 25, 26, 10, 9, -1, 26, 27, 11, 10, -1, 27, 28, 12, 11, -1, 28, 29, 13, 12, -1, 29, 30, 14, 13, -1, 30, 31, 15, 14, -1, 31, 16, 0, 15, -1 ] }
  }
  Shape {
    appearance Appearance { material Material { diffuseColor 0.750 0.750 0.780 specularColor 0.15 0.15 0.15 shininess 0.25 } }
    geometry IndexedFaceSet { solid FALSE coord Coordinate { point [ 1.8504 1.7598 3.8189, 4.7441 1.7598 3.8189, 4.7441 -1.7598 3.8189, 1.8504 -1.7598 3.8189, 1.8504 1.7598 5.1024, 4.7441 1.7598 5.1024, 4.7441 -1.7598 5.1024, 1.8504 -1.7598 5.1024 ] } coordIndex [ 1, 2, 3, 0, -1, 7, 6, 5, 4, -1, 4, 5, 1, 0, -1, 5, 6, 2, 1, -1, 6, 7, 3, 2, -1, 7, 4, 0, 3, -1 ] }
  }
  Shape {
    appearance Appearance { material Material { diffuseColor 0.050 0.050 0.050 specularColor 0.15 0.15 0.15 shininess 0.25 } }
    geometry IndexedFaceSet { solid FALSE coord Coordinate { point [ 4.6850 1.5354 4.0551, 4.7480 1.5354 4.0551, 4.7480 -1.5354 4.0551, 4.6850 -1.5354 4.0551, 4.6850 1.5354 4.8819, 4.7480 1.5354 4.8819, 4.7480 -1.5354 4.8819, 4.6850 -1.5354 4.8819 ] } coordIndex [ 1, 2, 3, 0, -1, 7, 6, 5, 4, -1, 4, 5, 1, 0, -1, 5, 6, 2, 1, -1, 6, 7, 3, 2, -1, 7, 4, 0, 3, -1 ] }
  }
  Shape {
    appearance Appearance { material Material { diffuseColor 0.930 0.930 0.930 specularColor 0.15 0.15 0.15 shininess 0.25 } }
    geometry IndexedFaceSet { solid FALSE coord Coordinate { point [ -2.8740 2.5591 3.8189, 1.5748 2.5591 3.8189, 1.5748 -2.5591 3.8189, -2.8740 -2.5591 3.8189, -2.8740 2.5591 4.6850, 1.5748 2.5591 4.6850, 1.5748 -2.5591 4.6850, -2.8740 -2.5591 4.6850 ] } coordIndex [ 1, 2, 3, 0, -1, 7, 6, 5, 4, -1, 4, 5, 1, 0, -1, 5, 6, 2, 1, -1, 6, 7, 3, 2, -1, 7, 4, 0, 3, -1 ] }
  }
  Shape {
    appearance Appearance { material Material { diffuseColor 0.850 0.850 0.850 specularColor 0.15 0.15 0.15 shininess 0.25 } }
    geometry IndexedFaceSet { solid FALSE coord Coordinate { point [ -1.9291 2.2441 4.6850, 1.3386 2.2441 4.6850, 1.3386 -2.2441 4.6850, -1.9291 -2.2441 4.6850, -1.9291 2.2441 4.6890, 1.3386 2.2441 4.6890, 1.3386 -2.2441 4.6890, -1.9291 -2.2441 4.6890 ] } coordIndex [ 1, 2, 3, 0, -1, 7, 6, 5, 4, -1, 4, 5, 1, 0, -1, 5, 6, 2, 1, -1, 6, 7, 3, 2, -1, 7, 4, 0, 3, -1 ] }
  }
  Shape {
    appearance Appearance { material Material { diffuseColor 0.750 0.750 0.780 specularColor 0.15 0.15 0.15 shininess 0.25 } }
    geometry IndexedFaceSet { solid FALSE coord Coordinate { point [ 3.1890 2.8740 3.8189, 3.8189 2.8740 3.8189, 3.8189 2.2441 3.8189, 3.1890 2.2441 3.8189, 3.1890 2.8740 4.0354, 3.8189 2.8740 4.0354, 3.8189 2.2441 4.0354, 3.1890 2.2441 4.0354 ] } coordIndex [ 1, 2, 3, 0, -1, 7, 6, 5, 4, -1, 4, 5, 1, 0, -1, 5, 6, 2, 1, -1, 6, 7, 3, 2, -1, 7, 4, 0, 3, -1 ] }
  }
  Shape {
    appearance Appearance { material Material { diffuseColor 0.550 0.550 0.580 specularColor 0.15 0.15 0.15 shininess 0.25 } }
    geometry IndexedFaceSet { solid FALSE coord Coordinate { point [ 3.6811 2.5591 4.0354, 3.6676 2.4913 4.0354, 3.6292 2.4338 4.0354, 3.5717 2.3954 4.0354, 3.5039 2.3819 4.0354, 3.4361 2.3954 4.0354, 3.3787 2.4338 4.0354, 3.3403 2.4913 4.0354, 3.3268 2.5591 4.0354, 3.3403 2.6269 4.0354, 3.3787 2.6843 4.0354, 3.4361 2.7227 4.0354, 3.5039 2.7362 4.0354, 3.5717 2.7227 4.0354, 3.6292 2.6843 4.0354, 3.6676 2.6269 4.0354, 3.6811 2.5591 4.1142, 3.6676 2.4913 4.1142, 3.6292 2.4338 4.1142, 3.5717 2.3954 4.1142, 3.5039 2.3819 4.1142, 3.4361 2.3954 4.1142, 3.3787 2.4338 4.1142, 3.3403 2.4913 4.1142, 3.3268 2.5591 4.1142, 3.3403 2.6269 4.1142, 3.3787 2.6843 4.1142, 3.4361 2.7227 4.1142, 3.5039 2.7362 4.1142, 3.5717 2.7227 4.1142, 3.6292 2.6843 4.1142, 3.6676 2.6269 4.1142 ] } coordIndex [ 0, 1, 2, 3, 4, 5, 6, 7, 8, 9, 10, 11, 12, 13, 14, 15, -1, 31, 30, 29, 28, 27, 26, 25, 24, 23, 22, 21, 20, 19, 18, 17, 16, -1, 16, 17, 1, 0, -1, 17, 18, 2, 1, -1, 18, 19, 3, 2, -1, 19, 20, 4, 3, -1, 20, 21, 5, 4, -1, 21, 22, 6, 5, -1, 22, 23, 7, 6, -1, 23, 24, 8, 7, -1, 24, 25, 9, 8, -1, 25, 26, 10, 9, -1, 26, 27, 11, 10, -1, 27, 28, 12, 11, -1, 28, 29, 13, 12, -1, 29, 30, 14, 13, -1, 30, 31, 15, 14, -1, 31, 16, 0, 15, -1 ] }
  }
  Shape {
    appearance Appearance { material Material { diffuseColor 0.950 0.900 0.600 specularColor 0.15 0.15 0.15 shininess 0.25 } }
    geometry IndexedFaceSet { solid FALSE coord Coordinate { point [ 2.6378 2.6181 3.8189, 3.0315 2.6181 3.8189, 3.0315 2.3425 3.8189, 2.6378 2.3425 3.8189, 2.6378 2.6181 4.0157, 3.0315 2.6181 4.0157, 3.0315 2.3425 4.0157, 2.6378 2.3425 4.0157 ] } coordIndex [ 1, 2, 3, 0, -1, 7, 6, 5, 4, -1, 4, 5, 1, 0, -1, 5, 6, 2, 1, -1, 6, 7, 3, 2, -1, 7, 4, 0, 3, -1 ] }
  }
  Shape {
    appearance Appearance { material Material { diffuseColor 0.750 0.750 0.780 specularColor 0.15 0.15 0.15 shininess 0.25 } }
    geometry IndexedFaceSet { solid FALSE coord Coordinate { point [ 3.1890 -2.2441 3.8189, 3.8189 -2.2441 3.8189, 3.8189 -2.8740 3.8189, 3.1890 -2.8740 3.8189, 3.1890 -2.2441 4.0354, 3.8189 -2.2441 4.0354, 3.8189 -2.8740 4.0354, 3.1890 -2.8740 4.0354 ] } coordIndex [ 1, 2, 3, 0, -1, 7, 6, 5, 4, -1, 4, 5, 1, 0, -1, 5, 6, 2, 1, -1, 6, 7, 3, 2, -1, 7, 4, 0, 3, -1 ] }
  }
  Shape {
    appearance Appearance { material Material { diffuseColor 0.550 0.550 0.580 specularColor 0.15 0.15 0.15 shininess 0.25 } }
    geometry IndexedFaceSet { solid FALSE coord Coordinate { point [ 3.6811 -2.5591 4.0354, 3.6676 -2.6269 4.0354, 3.6292 -2.6843 4.0354, 3.5717 -2.7227 4.0354, 3.5039 -2.7362 4.0354, 3.4361 -2.7227 4.0354, 3.3787 -2.6843 4.0354, 3.3403 -2.6269 4.0354, 3.3268 -2.5591 4.0354, 3.3403 -2.4913 4.0354, 3.3787 -2.4338 4.0354, 3.4361 -2.3954 4.0354, 3.5039 -2.3819 4.0354, 3.5717 -2.3954 4.0354, 3.6292 -2.4338 4.0354, 3.6676 -2.4913 4.0354, 3.6811 -2.5591 4.1142, 3.6676 -2.6269 4.1142, 3.6292 -2.6843 4.1142, 3.5717 -2.7227 4.1142, 3.5039 -2.7362 4.1142, 3.4361 -2.7227 4.1142, 3.3787 -2.6843 4.1142, 3.3403 -2.6269 4.1142, 3.3268 -2.5591 4.1142, 3.3403 -2.4913 4.1142, 3.3787 -2.4338 4.1142, 3.4361 -2.3954 4.1142, 3.5039 -2.3819 4.1142, 3.5717 -2.3954 4.1142, 3.6292 -2.4338 4.1142, 3.6676 -2.4913 4.1142 ] } coordIndex [ 0, 1, 2, 3, 4, 5, 6, 7, 8, 9, 10, 11, 12, 13, 14, 15, -1, 31, 30, 29, 28, 27, 26, 25, 24, 23, 22, 21, 20, 19, 18, 17, 16, -1, 16, 17, 1, 0, -1, 17, 18, 2, 1, -1, 18, 19, 3, 2, -1, 19, 20, 4, 3, -1, 20, 21, 5, 4, -1, 21, 22, 6, 5, -1, 22, 23, 7, 6, -1, 23, 24, 8, 7, -1, 24, 25, 9, 8, -1, 25, 26, 10, 9, -1, 26, 27, 11, 10, -1, 27, 28, 12, 11, -1, 28, 29, 13, 12, -1, 29, 30, 14, 13, -1, 30, 31, 15, 14, -1, 31, 16, 0, 15, -1 ] }
  }
  Shape {
    appearance Appearance { material Material { diffuseColor 0.950 0.900 0.600 specularColor 0.15 0.15 0.15 shininess 0.25 } }
    geometry IndexedFaceSet { solid FALSE coord Coordinate { point [ 2.6378 -2.3425 3.8189, 3.0315 -2.3425 3.8189, 3.0315 -2.6181 3.8189, 2.6378 -2.6181 3.8189, 2.6378 -2.3425 4.0157, 3.0315 -2.3425 4.0157, 3.0315 -2.6181 4.0157, 2.6378 -2.6181 4.0157 ] } coordIndex [ 1, 2, 3, 0, -1, 7, 6, 5, 4, -1, 4, 5, 1, 0, -1, 5, 6, 2, 1, -1, 6, 7, 3, 2, -1, 7, 4, 0, 3, -1 ] }
  }
  Shape {
    appearance Appearance { material Material { diffuseColor 0.750 0.750 0.780 specularColor 0.15 0.15 0.15 shininess 0.25 } }
    geometry IndexedFaceSet { solid FALSE coord Coordinate { point [ -4.0551 2.4803 3.8189, -3.0315 2.4803 3.8189, -3.0315 1.4567 3.8189, -4.0551 1.4567 3.8189, -4.0551 2.4803 4.0551, -3.0315 2.4803 4.0551, -3.0315 1.4567 4.0551, -4.0551 1.4567 4.0551 ] } coordIndex [ 1, 2, 3, 0, -1, 7, 6, 5, 4, -1, 4, 5, 1, 0, -1, 5, 6, 2, 1, -1, 6, 7, 3, 2, -1, 7, 4, 0, 3, -1 ] }
  }
  Shape {
    appearance Appearance { material Material { diffuseColor 0.900 0.900 0.880 specularColor 0.15 0.15 0.15 shininess 0.25 } }
    geometry IndexedFaceSet { solid FALSE coord Coordinate { point [ -3.1496 1.9685 4.0551, -3.1689 1.8468 4.0551, -3.2248 1.7371 4.0551, -3.3119 1.6500 4.0551, -3.4216 1.5941 4.0551, -3.5433 1.5748 4.0551, -3.6650 1.5941 4.0551, -3.7747 1.6500 4.0551, -3.8618 1.7371 4.0551, -3.9177 1.8468 4.0551, -3.9370 1.9685 4.0551, -3.9177 2.0902 4.0551, -3.8618 2.1999 4.0551, -3.7747 2.2870 4.0551, -3.6650 2.3429 4.0551, -3.5433 2.3622 4.0551, -3.4216 2.3429 4.0551, -3.3119 2.2870 4.0551, -3.2248 2.1999 4.0551, -3.1689 2.0902 4.0551, -3.1496 1.9685 4.3110, -3.1689 1.8468 4.3110, -3.2248 1.7371 4.3110, -3.3119 1.6500 4.3110, -3.4216 1.5941 4.3110, -3.5433 1.5748 4.3110, -3.6650 1.5941 4.3110, -3.7747 1.6500 4.3110, -3.8618 1.7371 4.3110, -3.9177 1.8468 4.3110, -3.9370 1.9685 4.3110, -3.9177 2.0902 4.3110, -3.8618 2.1999 4.3110, -3.7747 2.2870 4.3110, -3.6650 2.3429 4.3110, -3.5433 2.3622 4.3110, -3.4216 2.3429 4.3110, -3.3119 2.2870 4.3110, -3.2248 2.1999 4.3110, -3.1689 2.0902 4.3110 ] } coordIndex [ 0, 1, 2, 3, 4, 5, 6, 7, 8, 9, 10, 11, 12, 13, 14, 15, 16, 17, 18, 19, -1, 39, 38, 37, 36, 35, 34, 33, 32, 31, 30, 29, 28, 27, 26, 25, 24, 23, 22, 21, 20, -1, 20, 21, 1, 0, -1, 21, 22, 2, 1, -1, 22, 23, 3, 2, -1, 23, 24, 4, 3, -1, 24, 25, 5, 4, -1, 25, 26, 6, 5, -1, 26, 27, 7, 6, -1, 27, 28, 8, 7, -1, 28, 29, 9, 8, -1, 29, 30, 10, 9, -1, 30, 31, 11, 10, -1, 31, 32, 12, 11, -1, 32, 33, 13, 12, -1, 33, 34, 14, 13, -1, 34, 35, 15, 14, -1, 35, 36, 16, 15, -1, 36, 37, 17, 16, -1, 37, 38, 18, 17, -1, 38, 39, 19, 18, -1, 39, 20, 0, 19, -1 ] }
  }
  Shape {
    appearance Appearance { material Material { diffuseColor 0.850 0.700 0.300 specularColor 0.15 0.15 0.15 shininess 0.25 } }
    geometry IndexedFaceSet { solid FALSE coord Coordinate { point [ -3.4252 1.9685 4.3110, -3.4410 1.9094 4.3110, -3.4843 1.8662 4.3110, -3.5433 1.8504 4.3110, -3.6024 1.8662 4.3110, -3.6456 1.9094 4.3110, -3.6614 1.9685 4.3110, -3.6456 2.0276 4.3110, -3.6024 2.0708 4.3110, -3.5433 2.0866 4.3110, -3.4843 2.0708 4.3110, -3.4410 2.0276 4.3110, -3.4252 1.9685 4.3504, -3.4410 1.9094 4.3504, -3.4843 1.8662 4.3504, -3.5433 1.8504 4.3504, -3.6024 1.8662 4.3504, -3.6456 1.9094 4.3504, -3.6614 1.9685 4.3504, -3.6456 2.0276 4.3504, -3.6024 2.0708 4.3504, -3.5433 2.0866 4.3504, -3.4843 2.0708 4.3504, -3.4410 2.0276 4.3504 ] } coordIndex [ 0, 1, 2, 3, 4, 5, 6, 7, 8, 9, 10, 11, -1, 23, 22, 21, 20, 19, 18, 17, 16, 15, 14, 13, 12, -1, 12, 13, 1, 0, -1, 13, 14, 2, 1, -1, 14, 15, 3, 2, -1, 15, 16, 4, 3, -1, 16, 17, 5, 4, -1, 17, 18, 6, 5, -1, 18, 19, 7, 6, -1, 19, 20, 8, 7, -1, 20, 21, 9, 8, -1, 21, 22, 10, 9, -1, 22, 23, 11, 10, -1, 23, 12, 0, 11, -1 ] }
  }
  Shape {
    appearance Appearance { material Material { diffuseColor 0.620 0.620 0.450 specularColor 0.15 0.15 0.15 shininess 0.25 } }
    geometry IndexedFaceSet { solid FALSE coord Coordinate { point [ -3.8583 -0.1575 3.8189, -3.2283 -0.1575 3.8189, -3.2283 -2.1260 3.8189, -3.8583 -2.1260 3.8189, -3.8583 -0.1575 4.1732, -3.2283 -0.1575 4.1732, -3.2283 -2.1260 4.1732, -3.8583 -2.1260 4.1732 ] } coordIndex [ 1, 2, 3, 0, -1, 7, 6, 5, 4, -1, 4, 5, 1, 0, -1, 5, 6, 2, 1, -1, 6, 7, 3, 2, -1, 7, 4, 0, 3, -1 ] }
  }
  Shape {
    appearance Appearance { material Material { diffuseColor 0.250 0.250 0.250 specularColor 0.15 0.15 0.15 shininess 0.25 } }
    geometry IndexedFaceSet { solid FALSE coord Coordinate { point [ -3.7402 -1.0236 4.1732, -3.3465 -1.0236 4.1732, -3.3465 -1.4173 4.1732, -3.7402 -1.4173 4.1732, -3.7402 -1.0236 4.1811, -3.3465 -1.0236 4.1811, -3.3465 -1.4173 4.1811, -3.7402 -1.4173 4.1811 ] } coordIndex [ 1, 2, 3, 0, -1, 7, 6, 5, 4, -1, 4, 5, 1, 0, -1, 5, 6, 2, 1, -1, 6, 7, 3, 2, -1, 7, 4, 0, 3, -1 ] }
  }
] }
